<svg width="25" height="24" viewBox="0 0 25 24" fill="none" xmlns="http://www.w3.org/2000/svg">
<path d="M12.5 2.25C10.5716 2.25 8.68657 2.82183 7.08319 3.89317C5.47982 4.96452 4.23013 6.48726 3.49218 8.26884C2.75422 10.0504 2.56114 12.0108 2.93735 13.9021C3.31355 15.7934 4.24215 17.5307 5.60571 18.8943C6.96928 20.2579 8.70656 21.1865 10.5979 21.5627C12.4892 21.9389 14.4496 21.7458 16.2312 21.0078C18.0127 20.2699 19.5355 19.0202 20.6068 17.4168C21.6782 15.8134 22.25 13.9284 22.25 12C22.245 9.41566 21.2162 6.93859 19.3888 5.11118C17.5614 3.28378 15.0843 2.25496 12.5 2.25V2.25ZM16.25 12.75H13.25V15.75C13.25 15.9489 13.171 16.1397 13.0303 16.2803C12.8897 16.421 12.6989 16.5 12.5 16.5C12.3011 16.5 12.1103 16.421 11.9697 16.2803C11.829 16.1397 11.75 15.9489 11.75 15.75V12.75H8.75C8.55109 12.75 8.36033 12.671 8.21967 12.5303C8.07902 12.3897 8 12.1989 8 12C8 11.8011 8.07902 11.6103 8.21967 11.4697C8.36033 11.329 8.55109 11.25 8.75 11.25H11.75V8.25C11.75 8.05109 11.829 7.86032 11.9697 7.71967C12.1103 7.57902 12.3011 7.5 12.5 7.5C12.6989 7.5 12.8897 7.57902 13.0303 7.71967C13.171 7.86032 13.25 8.05109 13.25 8.25V11.25H16.25C16.4489 11.25 16.6397 11.329 16.7803 11.4697C16.921 11.6103 17 11.8011 17 12C17 12.1989 16.921 12.3897 16.7803 12.5303C16.6397 12.671 16.4489 12.75 16.25 12.75Z" fill="#fff"/>
</svg>
