<svg width="18" height="18" viewBox="0 0 18 18" fill="none" xmlns="http://www.w3.org/2000/svg">
<path class="arrow-clockwise" d="M16.875 3.93784V7.31284C16.875 7.46203 16.8157 7.6051 16.7103 7.71059C16.6048 7.81608 16.4617 7.87534 16.3125 7.87534H12.9375C12.7883 7.87534 12.6452 7.81608 12.5398 7.71059C12.4343 7.6051 12.375 7.46203 12.375 7.31284C12.375 7.16366 12.4343 7.02059 12.5398 6.9151C12.6452 6.80961 12.7883 6.75034 12.9375 6.75034H14.8641L12.9945 5.03753L12.9769 5.02066C12.1951 4.23913 11.2003 3.70529 10.1168 3.48584C9.03336 3.26638 7.90925 3.37104 6.88493 3.78674C5.86061 4.20244 4.98148 4.91075 4.35737 5.82318C3.73326 6.73561 3.39184 7.81171 3.37575 8.91705C3.35967 10.0224 3.66964 11.108 4.26694 12.0382C4.86424 12.9684 5.72239 13.702 6.73419 14.1473C7.74598 14.5926 8.86657 14.7299 9.95595 14.5421C11.0453 14.3542 12.0552 13.8496 12.8595 13.0911C12.9679 12.9886 13.1126 12.9333 13.2618 12.9374C13.411 12.9416 13.5525 13.0048 13.655 13.1133C13.7576 13.2217 13.8129 13.3665 13.8087 13.5157C13.8046 13.6649 13.7413 13.8063 13.6329 13.9089C12.3824 15.0948 10.7235 15.7542 9.00001 15.7503H8.90719C7.8017 15.7352 6.71684 15.4487 5.74798 14.9161C4.77912 14.3836 3.95591 13.6211 3.35072 12.6959C2.74552 11.7706 2.37686 10.7109 2.27715 9.60978C2.17743 8.50869 2.3497 7.39995 2.77883 6.38103C3.20796 5.36211 3.8808 4.4642 4.73822 3.76621C5.59563 3.06822 6.61138 2.59153 7.69617 2.37803C8.78096 2.16453 9.90158 2.22076 10.9596 2.54178C12.0175 2.8628 12.9804 3.43878 13.7637 4.21909L15.75 6.03316V3.93784C15.75 3.78866 15.8093 3.64559 15.9148 3.5401C16.0202 3.43461 16.1633 3.37534 16.3125 3.37534C16.4617 3.37534 16.6048 3.43461 16.7103 3.5401C16.8157 3.64559 16.875 3.78866 16.875 3.93784Z" fill="black"/>
</svg>
