<svg width="20" height="20" viewBox="0 0 21 20" fill="none" xmlns="http://www.w3.org/2000/svg">
<path d="M15.2645 9.55781C15.3226 9.61586 15.3687 9.68479 15.4001 9.76066C15.4316 9.83654 15.4478 9.91787 15.4478 10C15.4478 10.0821 15.4316 10.1635 15.4001 10.2393C15.3687 10.3152 15.3226 10.3841 15.2645 10.4422L9.63945 16.0672C9.58138 16.1253 9.51245 16.1713 9.43658 16.2027C9.36071 16.2342 9.27939 16.2503 9.19727 16.2503C9.11514 16.2503 9.03383 16.2342 8.95796 16.2027C8.88208 16.1713 8.81315 16.1253 8.75508 16.0672C8.69701 16.0091 8.65095 15.9402 8.61952 15.8643C8.58809 15.7884 8.57192 15.7071 8.57192 15.625C8.57192 15.5429 8.58809 15.4616 8.61952 15.3857C8.65095 15.3098 8.69701 15.2409 8.75508 15.1828L13.3137 10.625H2.94727C2.78151 10.625 2.62253 10.5592 2.50532 10.4419C2.38811 10.3247 2.32227 10.1658 2.32227 10C2.32227 9.83424 2.38811 9.67527 2.50532 9.55806C2.62253 9.44085 2.78151 9.375 2.94727 9.375H13.3137L8.75508 4.81719C8.6378 4.69991 8.57192 4.54085 8.57192 4.375C8.57192 4.20915 8.6378 4.05009 8.75508 3.93281C8.87235 3.81554 9.03141 3.74965 9.19727 3.74965C9.36312 3.74965 9.52218 3.81554 9.63945 3.93281L15.2645 9.55781ZM17.3223 2.5C17.1565 2.5 16.9975 2.56585 16.8803 2.68306C16.7631 2.80027 16.6973 2.95924 16.6973 3.125V16.875C16.6973 17.0408 16.7631 17.1997 16.8803 17.3169C16.9975 17.4342 17.1565 17.5 17.3223 17.5C17.488 17.5 17.647 17.4342 17.7642 17.3169C17.8814 17.1997 17.9473 17.0408 17.9473 16.875V3.125C17.9473 2.95924 17.8814 2.80027 17.7642 2.68306C17.647 2.56585 17.488 2.5 17.3223 2.5Z" fill="#333333"/>
</svg>
