<svg width="24" height="25" viewBox="0 0 24 25" fill="none" xmlns="http://www.w3.org/2000/svg">
<path d="M21.0006 12.1215C21.0006 12.3204 20.9216 12.5112 20.7809 12.6518C20.6403 12.7925 20.4495 12.8715 20.2506 12.8715H5.5609L11.0312 18.3409C11.1009 18.4106 11.1562 18.4933 11.1939 18.5843C11.2316 18.6754 11.251 18.773 11.251 18.8715C11.251 18.9701 11.2316 19.0676 11.1939 19.1587C11.1562 19.2497 11.1009 19.3325 11.0312 19.4021C10.9615 19.4718 10.8788 19.5271 10.7878 19.5648C10.6967 19.6025 10.5991 19.6219 10.5006 19.6219C10.402 19.6219 10.3045 19.6025 10.2134 19.5648C10.1224 19.5271 10.0396 19.4718 9.96996 19.4021L3.21996 12.6521C3.15023 12.5825 3.09491 12.4998 3.05717 12.4087C3.01943 12.3177 3 12.2201 3 12.1215C3 12.0229 3.01943 11.9254 3.05717 11.8343C3.09491 11.7433 3.15023 11.6605 3.21996 11.5909L9.96996 4.84089C10.1107 4.70016 10.3016 4.62109 10.5006 4.62109C10.6996 4.62109 10.8905 4.70016 11.0312 4.84089C11.1719 4.98162 11.251 5.17249 11.251 5.37151C11.251 5.57053 11.1719 5.76141 11.0312 5.90214L5.5609 11.3715H20.2506C20.4495 11.3715 20.6403 11.4505 20.7809 11.5912C20.9216 11.7318 21.0006 11.9226 21.0006 12.1215Z" fill="#737373"/>
</svg>
