<svg width="17" height="17" viewBox="0 0 17 17" fill="none" xmlns="http://www.w3.org/2000/svg">
<path d="M8.96094 1.56836C7.67536 1.56836 6.41865 1.94958 5.34973 2.66381C4.28081 3.37804 3.44769 4.3932 2.95572 5.58092C2.46375 6.76864 2.33503 8.07557 2.58584 9.33645C2.83664 10.5973 3.4557 11.7555 4.36475 12.6646C5.27379 13.5736 6.43198 14.1927 7.69285 14.4435C8.95373 14.6943 10.2607 14.5655 11.4484 14.0736C12.6361 13.5816 13.6513 12.7485 14.3655 11.6796C15.0797 10.6106 15.4609 9.35394 15.4609 8.06836C15.4591 6.34501 14.7737 4.69277 13.5551 3.47418C12.3365 2.25558 10.6843 1.57018 8.96094 1.56836ZM11.8147 6.92211L8.31469 10.4221C8.26825 10.4686 8.21311 10.5055 8.15241 10.5306C8.09171 10.5558 8.02665 10.5688 7.96094 10.5688C7.89523 10.5688 7.83017 10.5558 7.76947 10.5306C7.70877 10.5055 7.65363 10.4686 7.60719 10.4221L6.10719 8.92211C6.01337 8.82829 5.96066 8.70104 5.96066 8.56836C5.96066 8.43568 6.01337 8.30843 6.10719 8.21461C6.20101 8.12079 6.32826 8.06808 6.46094 8.06808C6.59362 8.06808 6.72087 8.12079 6.81469 8.21461L7.96094 9.36148L11.1072 6.21461C11.1536 6.16815 11.2088 6.1313 11.2695 6.10616C11.3302 6.08102 11.3952 6.06808 11.4609 6.06808C11.5266 6.06808 11.5917 6.08102 11.6524 6.10616C11.7131 6.1313 11.7682 6.16815 11.8147 6.21461C11.8611 6.26106 11.898 6.31621 11.9231 6.37691C11.9483 6.43761 11.9612 6.50266 11.9612 6.56836C11.9612 6.63406 11.9483 6.69911 11.9231 6.75981C11.898 6.8205 11.8611 6.87565 11.8147 6.92211Z" fill="white"/>
</svg>
