<svg width="22" height="25" viewBox="0 0 22 25" fill="none" xmlns="http://www.w3.org/2000/svg">
<path d="M14.2369 19.4694C14.3008 19.5391 14.3515 19.6218 14.3861 19.7128C14.4206 19.8039 14.4384 19.9015 14.4384 20C14.4384 20.0985 14.4206 20.1961 14.3861 20.2872C14.3515 20.3782 14.3008 20.4609 14.2369 20.5306C14.1731 20.6003 14.0972 20.6556 14.0138 20.6933C13.9303 20.731 13.8409 20.7504 13.7505 20.7504C13.6602 20.7504 13.5708 20.731 13.4873 20.6933C13.4038 20.6556 13.328 20.6003 13.2641 20.5306L6.38913 13.0306C6.32521 12.961 6.2745 12.8783 6.23991 12.7872C6.20531 12.6962 6.1875 12.5986 6.1875 12.5C6.1875 12.4014 6.20531 12.3038 6.23991 12.2128C6.2745 12.1217 6.32521 12.039 6.38913 11.9694L13.2641 4.46938C13.3931 4.32864 13.5681 4.24958 13.7505 4.24958C13.933 4.24958 14.1079 4.32864 14.2369 4.46938C14.366 4.61011 14.4384 4.80098 14.4384 5C14.4384 5.19902 14.366 5.38989 14.2369 5.53062L7.84749 12.5L14.2369 19.4694Z" fill="#333333"/>
</svg>
