<svg width="33" height="33" viewBox="0 0 33 33" fill="none" xmlns="http://www.w3.org/2000/svg">
<path d="M26.918 4.32031H23.918V3.32031C23.918 3.0551 23.8126 2.80074 23.6251 2.61321C23.4375 2.42567 23.1832 2.32031 22.918 2.32031C22.6528 2.32031 22.3984 2.42567 22.2109 2.61321C22.0233 2.80074 21.918 3.0551 21.918 3.32031V4.32031H11.918V3.32031C11.918 3.0551 11.8126 2.80074 11.6251 2.61321C11.4375 2.42567 11.1832 2.32031 10.918 2.32031C10.6528 2.32031 10.3984 2.42567 10.2109 2.61321C10.0233 2.80074 9.91797 3.0551 9.91797 3.32031V4.32031H6.91797C6.38754 4.32031 5.87883 4.53103 5.50376 4.9061C5.12868 5.28117 4.91797 5.78988 4.91797 6.32031V26.3203C4.91797 26.8507 5.12868 27.3595 5.50376 27.7345C5.87883 28.1096 6.38754 28.3203 6.91797 28.3203H26.918C27.4484 28.3203 27.9571 28.1096 28.3322 27.7345C28.7073 27.3595 28.918 26.8507 28.918 26.3203V6.32031C28.918 5.78988 28.7073 5.28117 28.3322 4.9061C27.9571 4.53103 27.4484 4.32031 26.918 4.32031ZM9.91797 6.32031V7.32031C9.91797 7.58553 10.0233 7.83988 10.2109 8.02742C10.3984 8.21496 10.6528 8.32031 10.918 8.32031C11.1832 8.32031 11.4375 8.21496 11.6251 8.02742C11.8126 7.83988 11.918 7.58553 11.918 7.32031V6.32031H21.918V7.32031C21.918 7.58553 22.0233 7.83988 22.2109 8.02742C22.3984 8.21496 22.6528 8.32031 22.918 8.32031C23.1832 8.32031 23.4375 8.21496 23.6251 8.02742C23.8126 7.83988 23.918 7.58553 23.918 7.32031V6.32031H26.918V10.3203H6.91797V6.32031H9.91797ZM26.918 26.3203H6.91797V12.3203H26.918V26.3203ZM22.1255 15.6128C22.2184 15.7057 22.2922 15.816 22.3425 15.9374C22.3929 16.0588 22.4188 16.1889 22.4188 16.3203C22.4188 16.4517 22.3929 16.5819 22.3425 16.7033C22.2922 16.8247 22.2184 16.9349 22.1255 17.0278L16.1255 23.0278C16.0326 23.1208 15.9223 23.1945 15.8009 23.2449C15.6795 23.2952 15.5494 23.3211 15.418 23.3211C15.2866 23.3211 15.1564 23.2952 15.035 23.2449C14.9136 23.1945 14.8033 23.1208 14.7105 23.0278L11.7105 20.0278C11.5228 19.8402 11.4174 19.5857 11.4174 19.3203C11.4174 19.0549 11.5228 18.8005 11.7105 18.6128C11.8981 18.4252 12.1526 18.3198 12.418 18.3198C12.6833 18.3198 12.9378 18.4252 13.1255 18.6128L15.418 20.9066L20.7105 15.6128C20.8033 15.5198 20.9136 15.4461 21.035 15.3958C21.1564 15.3454 21.2866 15.3195 21.418 15.3195C21.5494 15.3195 21.6795 15.3454 21.8009 15.3958C21.9223 15.4461 22.0326 15.5198 22.1255 15.6128Z" fill="#333333"/>
</svg>
