<svg width="24" height="25" viewBox="0 0 24 25" fill="none" xmlns="http://www.w3.org/2000/svg">
<path d="M12 2.36719C10.0716 2.36719 8.18657 2.93902 6.58319 4.01036C4.97982 5.0817 3.73013 6.60444 2.99218 8.38602C2.25422 10.1676 2.06114 12.128 2.43735 14.0193C2.81355 15.9106 3.74215 17.6479 5.10571 19.0115C6.46928 20.375 8.20656 21.3036 10.0979 21.6798C11.9892 22.056 13.9496 21.863 15.7312 21.125C17.5127 20.3871 19.0355 19.1374 20.1068 17.534C21.1782 15.9306 21.75 14.0456 21.75 12.1172C21.7473 9.53216 20.7192 7.0538 18.8913 5.22591C17.0634 3.39802 14.585 2.36992 12 2.36719ZM16.2806 11.1478L12.5306 14.8978C12.461 14.9675 12.3783 15.0229 12.2872 15.0606C12.1962 15.0984 12.0986 15.1178 12 15.1178C11.9014 15.1178 11.8038 15.0984 11.7128 15.0606C11.6218 15.0229 11.539 14.9675 11.4694 14.8978L7.71938 11.1478C7.57865 11.0071 7.49959 10.8162 7.49959 10.6172C7.49959 10.4182 7.57865 10.2273 7.71938 10.0866C7.86011 9.94583 8.05098 9.86677 8.25 9.86677C8.44903 9.86677 8.6399 9.94583 8.78063 10.0866L12 13.3069L15.2194 10.0866C15.2891 10.0169 15.3718 9.9616 15.4628 9.92389C15.5539 9.88618 15.6515 9.86677 15.75 9.86677C15.8486 9.86677 15.9461 9.88618 16.0372 9.92389C16.1282 9.9616 16.2109 10.0169 16.2806 10.0866C16.3503 10.1562 16.4056 10.239 16.4433 10.33C16.481 10.4211 16.5004 10.5186 16.5004 10.6172C16.5004 10.7157 16.481 10.8133 16.4433 10.9044C16.4056 10.9954 16.3503 11.0781 16.2806 11.1478Z" fill="#D4D4D4"/>
</svg>
