<svg width="29" height="29" viewBox="0 0 29 29" fill="none" xmlns="http://www.w3.org/2000/svg">
<path d="M26.3047 21.9258H25.4297V7.05078C25.4297 6.58665 25.2453 6.14153 24.9171 5.81334C24.5889 5.48516 24.1438 5.30078 23.6797 5.30078H4.42969C3.96556 5.30078 3.52044 5.48516 3.19225 5.81334C2.86406 6.14153 2.67969 6.58665 2.67969 7.05078V21.9258H1.80469C1.57262 21.9258 1.35006 22.018 1.18597 22.1821C1.02187 22.3462 0.929688 22.5687 0.929688 22.8008C0.929688 23.0328 1.02187 23.2554 1.18597 23.4195C1.35006 23.5836 1.57262 23.6758 1.80469 23.6758H26.3047C26.5368 23.6758 26.7593 23.5836 26.9234 23.4195C27.0875 23.2554 27.1797 23.0328 27.1797 22.8008C27.1797 22.5687 27.0875 22.3462 26.9234 22.1821C26.7593 22.018 26.5368 21.9258 26.3047 21.9258ZM4.42969 7.05078H23.6797V21.9258H21.9297V19.3008C21.9297 19.0687 21.8375 18.8462 21.6734 18.6821C21.5093 18.518 21.2868 18.4258 21.0547 18.4258H13.1797C12.9476 18.4258 12.7251 18.518 12.561 18.6821C12.3969 18.8462 12.3047 19.0687 12.3047 19.3008V21.9258H7.92969V10.5508H20.1797V15.8008C20.1797 16.0328 20.2719 16.2554 20.436 16.4195C20.6001 16.5836 20.8226 16.6758 21.0547 16.6758C21.2868 16.6758 21.5093 16.5836 21.6734 16.4195C21.8375 16.2554 21.9297 16.0328 21.9297 15.8008V9.67578C21.9297 9.44372 21.8375 9.22116 21.6734 9.05706C21.5093 8.89297 21.2868 8.80078 21.0547 8.80078H7.05469C6.82262 8.80078 6.60006 8.89297 6.43597 9.05706C6.27188 9.22116 6.17969 9.44372 6.17969 9.67578V21.9258H4.42969V7.05078ZM20.1797 21.9258H14.0547V20.1758H20.1797V21.9258Z" fill="#333333"/>
</svg>
