<svg width="22" height="22" viewBox="0 0 23 22" fill="none" xmlns="http://www.w3.org/2000/svg">
<path d="M11.7344 2.0625C9.96671 2.0625 8.23873 2.58668 6.76897 3.56874C5.29921 4.55081 4.15366 5.94665 3.47721 7.57977C2.80075 9.21288 2.62376 11.0099 2.96861 12.7436C3.31347 14.4773 4.16468 16.0698 5.41461 17.3198C6.66454 18.5697 8.25705 19.4209 9.99076 19.7658C11.7245 20.1106 13.5215 19.9336 15.1546 19.2572C16.7877 18.5807 18.1836 17.4352 19.1656 15.9654C20.1477 14.4956 20.6719 12.7677 20.6719 11C20.6694 8.6304 19.7269 6.35856 18.0514 4.683C16.3758 3.00743 14.104 2.065 11.7344 2.0625ZM11.7344 18.5625C10.2387 18.5625 8.77653 18.119 7.53288 17.288C6.28923 16.457 5.31993 15.2759 4.74754 13.894C4.17515 12.5122 4.02539 10.9916 4.31719 9.52463C4.60899 8.05765 5.32925 6.71014 6.38688 5.65251C7.44452 4.59487 8.79203 3.87461 10.259 3.58281C11.726 3.29101 13.2466 3.44077 14.6284 4.01316C16.0103 4.58555 17.1914 5.55485 18.0224 6.7985C18.8533 8.04215 19.2969 9.50428 19.2969 11C19.2946 13.005 18.4971 14.9272 17.0794 16.345C15.6616 17.7627 13.7394 18.5602 11.7344 18.5625ZM17.2344 11C17.2344 11.1823 17.1619 11.3572 17.033 11.4861C16.9041 11.6151 16.7292 11.6875 16.5469 11.6875H11.7344C11.552 11.6875 11.3772 11.6151 11.2482 11.4861C11.1193 11.3572 11.0469 11.1823 11.0469 11V6.1875C11.0469 6.00516 11.1193 5.8303 11.2482 5.70136C11.3772 5.57243 11.552 5.5 11.7344 5.5C11.9167 5.5 12.0916 5.57243 12.2205 5.70136C12.3494 5.8303 12.4219 6.00516 12.4219 6.1875V10.3125H16.5469C16.7292 10.3125 16.9041 10.3849 17.033 10.5139C17.1619 10.6428 17.2344 10.8177 17.2344 11Z" fill="#787878"/>
</svg>
