<svg width="29" height="29" viewBox="0 0 29 29" fill="none" xmlns="http://www.w3.org/2000/svg">
<g clip-path="url(#clip0_1431_61558)">
<path d="M10.4277 16.4082V14.6582C10.4277 14.4261 10.5199 14.2036 10.684 14.0395C10.8481 13.8754 11.0707 13.7832 11.3027 13.7832C11.5348 13.7832 11.7574 13.8754 11.9215 14.0395C12.0855 14.2036 12.1777 14.4261 12.1777 14.6582V16.4082C12.1777 16.6403 12.0855 16.8628 11.9215 17.0269C11.7574 17.191 11.5348 17.2832 11.3027 17.2832C11.0707 17.2832 10.8481 17.191 10.684 17.0269C10.5199 16.8628 10.4277 16.6403 10.4277 16.4082ZM14.8027 17.2832C15.0348 17.2832 15.2574 17.191 15.4215 17.0269C15.5855 16.8628 15.6777 16.6403 15.6777 16.4082V13.7832C15.6777 13.5511 15.5855 13.3286 15.4215 13.1645C15.2574 13.0004 15.0348 12.9082 14.8027 12.9082C14.5707 12.9082 14.3481 13.0004 14.184 13.1645C14.0199 13.3286 13.9277 13.5511 13.9277 13.7832V16.4082C13.9277 16.6403 14.0199 16.8628 14.184 17.0269C14.3481 17.191 14.5707 17.2832 14.8027 17.2832ZM18.3027 17.2832C18.5348 17.2832 18.7574 17.191 18.9215 17.0269C19.0855 16.8628 19.1777 16.6403 19.1777 16.4082V12.9082C19.1777 12.6761 19.0855 12.4536 18.9215 12.2895C18.7574 12.1254 18.5348 12.0332 18.3027 12.0332C18.0707 12.0332 17.8481 12.1254 17.684 12.2895C17.5199 12.4536 17.4277 12.6761 17.4277 12.9082V16.4082C17.4277 16.6403 17.5199 16.8628 17.684 17.0269C17.8481 17.191 18.0707 17.2832 18.3027 17.2832ZM24.4277 9.4082V19.9082H25.3027C25.5348 19.9082 25.7574 20.0004 25.9215 20.1645C26.0855 20.3286 26.1777 20.5511 26.1777 20.7832C26.1777 21.0153 26.0855 21.2378 25.9215 21.4019C25.7574 21.566 25.5348 21.6582 25.3027 21.6582H15.6777V23.5591C16.2615 23.7656 16.7536 24.1717 17.0669 24.7058C17.3802 25.2399 17.4946 25.8676 17.3899 26.4779C17.2852 27.0882 16.9681 27.6419 16.4947 28.041C16.0213 28.4401 15.422 28.659 14.8027 28.659C14.1835 28.659 13.5842 28.4401 13.1108 28.041C12.6373 27.6419 12.3203 27.0882 12.2155 26.4779C12.1108 25.8676 12.2252 25.2399 12.5386 24.7058C12.8519 24.1717 13.3439 23.7656 13.9277 23.5591V21.6582H4.30273C4.07067 21.6582 3.84811 21.566 3.68402 21.4019C3.51992 21.2378 3.42773 21.0153 3.42773 20.7832C3.42773 20.5511 3.51992 20.3286 3.68402 20.1645C3.84811 20.0004 4.07067 19.9082 4.30273 19.9082H5.17773V9.4082C4.71361 9.4082 4.26849 9.22383 3.9403 8.89564C3.61211 8.56745 3.42773 8.12233 3.42773 7.6582V5.9082C3.42773 5.44407 3.61211 4.99895 3.9403 4.67077C4.26849 4.34258 4.71361 4.1582 5.17773 4.1582H24.4277C24.8919 4.1582 25.337 4.34258 25.6652 4.67077C25.9934 4.99895 26.1777 5.44407 26.1777 5.9082V7.6582C26.1777 8.12233 25.9934 8.56745 25.6652 8.89564C25.337 9.22383 24.8919 9.4082 24.4277 9.4082ZM15.6777 26.0332C15.6777 25.8601 15.6264 25.691 15.5303 25.5471C15.4341 25.4032 15.2975 25.291 15.1376 25.2248C14.9777 25.1586 14.8018 25.1413 14.632 25.175C14.4623 25.2088 14.3064 25.2921 14.184 25.4145C14.0616 25.5369 13.9783 25.6928 13.9445 25.8625C13.9108 26.0322 13.9281 26.2082 13.9943 26.368C14.0606 26.5279 14.1727 26.6646 14.3166 26.7607C14.4605 26.8569 14.6297 26.9082 14.8027 26.9082C15.0348 26.9082 15.2574 26.816 15.4215 26.6519C15.5855 26.4878 15.6777 26.2653 15.6777 26.0332ZM5.17773 7.6582H24.4277V5.9082H5.17773V7.6582ZM22.6777 9.4082H6.92773V19.9082H22.6777V9.4082Z" fill="#333333"/>
</g>
<defs>
<clipPath id="clip0_1431_61558">
<rect width="28" height="28" fill="white" transform="translate(0.802734 0.658203)"/>
</clipPath>
</defs>
</svg>
