<svg width="32" height="33" viewBox="0 0 32 33" fill="none" xmlns="http://www.w3.org/2000/svg">
<path d="M17.4125 16.5009L25.7125 8.21344C25.872 8.01914 25.9535 7.77248 25.9411 7.52143C25.9288 7.27037 25.8235 7.03288 25.6458 6.85515C25.4681 6.67741 25.2306 6.57214 24.9795 6.55981C24.7285 6.54748 24.4818 6.62898 24.2875 6.78844L16 15.0884L7.71251 6.78844C7.51821 6.62898 7.27155 6.54748 7.0205 6.55981C6.76945 6.57214 6.53196 6.67741 6.35422 6.85515C6.17649 7.03288 6.07122 7.27037 6.05889 7.52143C6.04656 7.77248 6.12805 8.01914 6.28751 8.21344L14.5875 16.5009L6.28751 24.7884C6.09973 24.978 5.99438 25.2341 5.99438 25.5009C5.99438 25.7678 6.09973 26.0238 6.28751 26.2134C6.47865 26.3983 6.73413 26.5016 7.00001 26.5016C7.26589 26.5016 7.52137 26.3983 7.71251 26.2134L16 17.9134L24.2875 26.2134C24.4786 26.3983 24.7341 26.5016 25 26.5016C25.2659 26.5016 25.5214 26.3983 25.7125 26.2134C25.9003 26.0238 26.0056 25.7678 26.0056 25.5009C26.0056 25.2341 25.9003 24.978 25.7125 24.7884L17.4125 16.5009Z" fill="#737373"/>
</svg>
