<svg width="32" height="32" viewBox="0 0 33 33" fill="none" xmlns="http://www.w3.org/2000/svg">
<path d="M19.8555 16.7959C19.8555 17.4881 19.6502 18.1648 19.2656 18.7404C18.881 19.316 18.3344 19.7646 17.6949 20.0295C17.0553 20.2944 16.3516 20.3637 15.6727 20.2286C14.9937 20.0936 14.3701 19.7603 13.8806 19.2708C13.3911 18.7813 13.0578 18.1576 12.9227 17.4787C12.7877 16.7998 12.857 16.0961 13.1219 15.4565C13.3868 14.817 13.8354 14.2703 14.411 13.8858C14.9865 13.5012 15.6632 13.2959 16.3555 13.2959C17.2837 13.2959 18.174 13.6646 18.8303 14.321C19.4867 14.9774 19.8555 15.8676 19.8555 16.7959ZM16.3555 10.2959C17.0477 10.2959 17.7244 10.0906 18.3 9.70604C18.8755 9.32146 19.3241 8.77483 19.589 8.13529C19.854 7.49575 19.9233 6.79202 19.7882 6.11308C19.6532 5.43415 19.3198 4.81051 18.8303 4.32103C18.3409 3.83154 17.7172 3.4982 17.0383 3.36315C16.3594 3.2281 15.6556 3.29741 15.0161 3.56232C14.3765 3.82723 13.8299 4.27583 13.4453 4.8514C13.0607 5.42698 12.8555 6.10367 12.8555 6.7959C12.8555 7.72416 13.2242 8.6144 13.8806 9.27077C14.537 9.92715 15.4272 10.2959 16.3555 10.2959ZM16.3555 23.2959C15.6632 23.2959 14.9865 23.5012 14.411 23.8858C13.8354 24.2703 13.3868 24.817 13.1219 25.4565C12.857 26.0961 12.7877 26.7998 12.9227 27.4787C13.0578 28.1576 13.3911 28.7813 13.8806 29.2708C14.3701 29.7603 14.9937 30.0936 15.6727 30.2286C16.3516 30.3637 17.0553 30.2944 17.6949 30.0295C18.3344 29.7646 18.881 29.316 19.2656 28.7404C19.6502 28.1648 19.8555 27.4881 19.8555 26.7959C19.8555 25.8676 19.4867 24.9774 18.8303 24.321C18.174 23.6646 17.2837 23.2959 16.3555 23.2959Z" fill="#333"/>
</svg>
