<svg width="24" height="20" viewBox="0 0 24 20" fill="none" xmlns="http://www.w3.org/2000/svg">
<path fill-rule="evenodd" clip-rule="evenodd" d="M4.93082 10.2807C4.79621 10.0722 4.68754 9.8917 4.60557 9.75005C4.68754 9.6084 4.79621 9.42788 4.93082 9.21944C5.27659 8.68406 5.78864 7.97209 6.45343 7.26299C7.79667 5.83019 9.67468 4.50001 12.0001 4.50001C14.3255 4.50001 16.2035 5.83019 17.5467 7.26299C18.2115 7.97209 18.7235 8.68406 19.0693 9.21944C19.2039 9.42788 19.3126 9.6084 19.3946 9.75005C19.3126 9.8917 19.2039 10.0722 19.0693 10.2807C18.7235 10.816 18.2115 11.528 17.5467 12.2371C16.2035 13.6699 14.3255 15.0001 12.0001 15.0001C9.67468 15.0001 7.79667 13.6699 6.45343 12.2371C5.78864 11.528 5.27659 10.816 4.93082 10.2807ZM20.2501 9.75005C20.9209 9.41464 20.9208 9.41438 20.9207 9.41411L20.2501 9.75005ZM20.9207 9.41411C21.0263 9.62526 21.0265 9.87431 20.9209 10.0855L20.2501 9.75005C20.9209 10.0855 20.9205 10.0864 20.9204 10.0867L20.9195 10.0884L20.9169 10.0935L20.9084 10.1102C20.9012 10.1241 20.8911 10.1436 20.8781 10.1682C20.852 10.2175 20.8141 10.2876 20.7647 10.3756C20.6658 10.5513 20.5202 10.7989 20.3294 11.0945C19.9486 11.6841 19.3825 12.4721 18.641 13.263C17.1717 14.8303 14.9247 16.5001 12.0001 16.5001C9.07541 16.5001 6.82839 14.8303 5.35911 13.263C4.61764 12.4721 4.05156 11.6841 3.67076 11.0945C3.47989 10.7989 3.33435 10.5513 3.23548 10.3756C3.18602 10.2876 3.14816 10.2175 3.12207 10.1682C3.10902 10.1436 3.09891 10.1241 3.09175 10.1102L3.08324 10.0935L3.08065 10.0884L3.07918 10.0855L3.75001 9.75005C3.08379 10.0832 3.07908 10.0852 3.07918 10.0855L3.07918 10.0855C2.97361 9.87431 2.97361 9.62578 3.07918 9.41464L3.74917 9.74963C3.07918 9.41464 3.07964 9.41372 3.07978 9.41344L3.08065 9.4117L3.08324 9.40658L3.09175 9.38991C3.09891 9.376 3.10902 9.35653 3.12207 9.33187C3.14816 9.28257 3.18602 9.21247 3.23548 9.12454C3.33435 8.94877 3.47989 8.70118 3.67076 8.40564C4.05156 7.81602 4.61764 7.02798 5.35911 6.23707C6.82839 4.66984 9.07541 3 12.0001 3C14.9247 3 17.1717 4.66984 18.641 6.23707C19.3825 7.02798 19.9486 7.81602 20.3294 8.40564C20.5202 8.70118 20.6658 8.94877 20.7647 9.12454C20.8141 9.21247 20.852 9.28257 20.8781 9.33187C20.8911 9.35653 20.9012 9.376 20.9084 9.38991L20.9169 9.40658L20.9195 9.4117L20.9207 9.41411ZM10.5002 9.75012C10.5002 8.92168 11.1717 8.25011 12.0002 8.25011C12.8286 8.25011 13.5002 8.92168 13.5002 9.75012C13.5002 10.5786 12.8286 11.2501 12.0002 11.2501C11.1717 11.2501 10.5002 10.5786 10.5002 9.75012ZM12.0002 6.7501C10.3433 6.7501 9.00015 8.09325 9.00015 9.75012C9.00015 11.407 10.3433 12.7501 12.0002 12.7501C13.657 12.7501 15.0002 11.407 15.0002 9.75012C15.0002 8.09325 13.657 6.7501 12.0002 6.7501Z" fill="#737373"/>
</svg>
