<svg width="33" height="33" viewBox="0 0 33 33" fill="none" xmlns="http://www.w3.org/2000/svg">
<path d="M6.68945 15.9817H26.6895C26.9547 15.9817 27.209 15.8763 27.3966 15.6888C27.5841 15.5013 27.6895 15.2469 27.6895 14.9817V11.9817C27.6896 11.8503 27.6638 11.7202 27.6136 11.5988C27.5634 11.4774 27.4898 11.3671 27.397 11.2742L20.397 4.27419C20.304 4.18136 20.1937 4.10774 20.0723 4.05755C19.9509 4.00737 19.8208 3.98159 19.6895 3.98169H7.68945C7.15902 3.98169 6.65031 4.1924 6.27524 4.56748C5.90017 4.94255 5.68945 5.45126 5.68945 5.98169V14.9817C5.68945 15.2469 5.79481 15.5013 5.98235 15.6888C6.16988 15.8763 6.42424 15.9817 6.68945 15.9817ZM19.6895 6.48169L25.1895 11.9817H19.6895V6.48169ZM28.6895 19.9817C28.6895 20.2469 28.5841 20.5013 28.3966 20.6888C28.209 20.8763 27.9547 20.9817 27.6895 20.9817H24.6895V22.9817H26.6895C26.9547 22.9817 27.209 23.087 27.3966 23.2746C27.5841 23.4621 27.6895 23.7165 27.6895 23.9817C27.6895 24.2469 27.5841 24.5013 27.3966 24.6888C27.209 24.8763 26.9547 24.9817 26.6895 24.9817H24.6895V26.9817C24.6895 27.2469 24.5841 27.5013 24.3966 27.6888C24.209 27.8763 23.9547 27.9817 23.6895 27.9817C23.4242 27.9817 23.1699 27.8763 22.9823 27.6888C22.7948 27.5013 22.6895 27.2469 22.6895 26.9817V19.9817C22.6895 19.7165 22.7948 19.4621 22.9823 19.2746C23.1699 19.087 23.4242 18.9817 23.6895 18.9817H27.6895C27.9547 18.9817 28.209 19.087 28.3966 19.2746C28.5841 19.4621 28.6895 19.7165 28.6895 19.9817ZM8.68945 18.9817H6.68945C6.42424 18.9817 6.16988 19.087 5.98235 19.2746C5.79481 19.4621 5.68945 19.7165 5.68945 19.9817V26.9817C5.68945 27.2469 5.79481 27.5013 5.98235 27.6888C6.16988 27.8763 6.42424 27.9817 6.68945 27.9817C6.95467 27.9817 7.20902 27.8763 7.39656 27.6888C7.5841 27.5013 7.68945 27.2469 7.68945 26.9817V25.9817H8.68945C9.61771 25.9817 10.5079 25.6129 11.1643 24.9566C11.8207 24.3002 12.1895 23.4099 12.1895 22.4817C12.1895 21.5534 11.8207 20.6632 11.1643 20.0068C10.5079 19.3504 9.61771 18.9817 8.68945 18.9817ZM8.68945 23.9817H7.68945V20.9817H8.68945C9.08728 20.9817 9.46881 21.1397 9.75011 21.421C10.0314 21.7023 10.1895 22.0839 10.1895 22.4817C10.1895 22.8795 10.0314 23.261 9.75011 23.5423C9.46881 23.8237 9.08728 23.9817 8.68945 23.9817ZM16.6895 18.9817H14.6895C14.4242 18.9817 14.1699 19.087 13.9823 19.2746C13.7948 19.4621 13.6895 19.7165 13.6895 19.9817V26.9817C13.6895 27.2469 13.7948 27.5013 13.9823 27.6888C14.1699 27.8763 14.4242 27.9817 14.6895 27.9817H16.6895C17.8829 27.9817 19.0275 27.5076 19.8714 26.6637C20.7153 25.8198 21.1895 24.6752 21.1895 23.4817C21.1895 22.2882 20.7153 21.1436 19.8714 20.2997C19.0275 19.4558 17.8829 18.9817 16.6895 18.9817ZM16.6895 25.9817H15.6895V20.9817H16.6895C17.3525 20.9817 17.9884 21.2451 18.4572 21.7139C18.9261 22.1828 19.1895 22.8186 19.1895 23.4817C19.1895 24.1447 18.9261 24.7806 18.4572 25.2495C17.9884 25.7183 17.3525 25.9817 16.6895 25.9817Z" fill="#3190FF"/>
</svg>
