<svg width="25" height="25" viewBox="0 0 25 25" fill="none" xmlns="http://www.w3.org/2000/svg">
<path d="M20.7474 8.19008L15.4974 2.94008C15.4277 2.87045 15.345 2.81524 15.2539 2.7776C15.1629 2.73996 15.0653 2.72063 14.9668 2.7207H5.9668C5.56897 2.7207 5.18744 2.87874 4.90614 3.16004C4.62483 3.44135 4.4668 3.82288 4.4668 4.2207V20.7207C4.4668 21.1185 4.62483 21.5001 4.90614 21.7814C5.18744 22.0627 5.56897 22.2207 5.9668 22.2207H19.4668C19.8646 22.2207 20.2462 22.0627 20.5275 21.7814C20.8088 21.5001 20.9668 21.1185 20.9668 20.7207V8.7207C20.9669 8.62218 20.9475 8.52461 20.9099 8.43357C20.8723 8.34252 20.817 8.25978 20.7474 8.19008ZM15.7168 5.28102L18.4065 7.9707H15.7168V5.28102ZM19.4668 20.7207H5.9668V4.2207H14.2168V8.7207C14.2168 8.91962 14.2958 9.11038 14.4365 9.25103C14.5771 9.39169 14.7679 9.4707 14.9668 9.4707H19.4668V20.7207Z" fill="white"/>
</svg>
