<svg width="24" height="25" viewBox="0 0 24 25" fill="none" xmlns="http://www.w3.org/2000/svg">
<path d="M3.25875 4.55872C3.17806 4.62866 3.11324 4.71502 3.06862 4.81202C3.024 4.90903 3.0006 5.01445 3 5.12122V20.8712C3 21.0701 3.07902 21.2609 3.21967 21.4016C3.36032 21.5422 3.55109 21.6212 3.75 21.6212C3.94891 21.6212 4.13968 21.5422 4.28033 21.4016C4.42098 21.2609 4.5 21.0701 4.5 20.8712V16.7247C7.01156 14.7409 9.17531 15.8106 11.6672 17.0443C13.2047 17.8047 14.8603 18.624 16.6359 18.624C17.9419 18.624 19.3116 18.1787 20.7441 16.9365C20.8247 16.8666 20.8896 16.7802 20.9342 16.6832C20.9788 16.5862 21.0022 16.4808 21.0028 16.374V5.12122C21.0025 4.97726 20.9607 4.83645 20.8825 4.71558C20.8043 4.59472 20.693 4.49891 20.5618 4.4396C20.4306 4.38029 20.2852 4.35999 20.1428 4.38111C20.0004 4.40223 19.8671 4.46389 19.7587 4.55872C17.1337 6.83028 14.91 5.72966 12.3328 4.45372C9.66281 3.12997 6.63562 1.63278 3.25875 4.55872ZM19.5 16.0197C16.9884 18.0034 14.8247 16.9328 12.3328 15.7C9.98906 14.5422 7.38187 13.2503 4.5 14.9125V5.47653C7.01156 3.49278 9.17531 4.56247 11.6672 5.79528C14.0109 6.9531 16.6191 8.24497 19.5 6.58278V16.0197Z" fill="#343330"/>
</svg>
