<svg width="85" height="85" viewBox="0 0 85 85" fill="none" xmlns="http://www.w3.org/2000/svg">
<path d="M73.5157 32.2657V64.4656C73.5162 67.9453 70.6955 70.7665 67.2158 70.7665H18.216C14.7363 70.7665 11.9155 67.9453 11.916 64.4656V42.7658V25.9661V21.066C11.9161 17.5867 14.7367 14.7661 18.216 14.7662L31.8806 14.7664C34.2536 14.7714 36.4207 16.1152 37.4801 18.2386L41.3162 25.9661L67.2158 25.9658C70.695 25.9658 73.5156 28.7864 73.5157 32.2657Z" fill="#6ABFFC"/>
<path d="M11.8848 25.9974V42.7972V64.4969C11.8842 67.9766 14.705 70.7968 18.1847 70.7969H67.1841C70.6638 70.7968 73.4846 67.9766 73.484 64.4969V32.2973C73.4839 28.8181 70.6633 25.9973 67.1841 25.9974H41.2844H11.8848Z" fill="#FF9F0A"/>
<path d="M11.916 25.9661V21.066C11.9161 17.5867 14.7367 14.7661 18.216 14.7662L31.8806 14.7664C34.2536 14.7714 36.4207 16.1152 37.4801 18.2386L41.3162 25.9661H11.916Z" fill="#E37412"/>
</svg>
