<svg width="19" height="19" viewBox="0 0 19 19" fill="none" xmlns="http://www.w3.org/2000/svg">
<path d="M9.66407 1.90625C8.21779 1.90625 6.80399 2.33512 5.60146 3.13863C4.39892 3.94214 3.46166 5.08419 2.9082 6.42038C2.35473 7.75656 2.20992 9.22686 2.49207 10.6453C2.77423 12.0638 3.47068 13.3668 4.49335 14.3895C5.51602 15.4121 6.81898 16.1086 8.23747 16.3907C9.65595 16.6729 11.1263 16.5281 12.4624 15.9746C13.7986 15.4212 14.9407 14.4839 15.7442 13.2814C16.5477 12.0788 16.9766 10.665 16.9766 9.21875C16.9745 7.27998 16.2034 5.42121 14.8325 4.05029C13.4616 2.67938 11.6028 1.9083 9.66407 1.90625ZM7.80993 12.0312H11.5182C11.1406 13.3208 10.5078 14.483 9.66407 15.3985C8.82032 14.483 8.1875 13.3208 7.80993 12.0312ZM7.55469 10.9062C7.36813 9.78898 7.36813 8.64852 7.55469 7.53125H11.7734C11.96 8.64852 11.96 9.78898 11.7734 10.9062H7.55469ZM3.47657 9.21875C3.47608 8.64812 3.55488 8.08019 3.71071 7.53125H6.41493C6.24711 8.64999 6.24711 9.78751 6.41493 10.9062H3.71071C3.55488 10.3573 3.47608 9.78938 3.47657 9.21875ZM11.5182 6.40625H7.80993C8.1875 5.11672 8.82032 3.95445 9.66407 3.03898C10.5078 3.95445 11.1406 5.11672 11.5182 6.40625ZM12.9132 7.53125H15.6174C15.9296 8.63459 15.9296 9.80291 15.6174 10.9062H12.9132C13.081 9.78751 13.081 8.64999 12.9132 7.53125ZM15.1745 6.40625H12.6833C12.3962 5.27669 11.9141 4.20592 11.2588 3.24219C12.0961 3.4672 12.877 3.86496 13.5514 4.40989C14.2258 4.95481 14.7786 5.63485 15.1745 6.40625ZM8.06938 3.24219C7.41399 4.20592 6.93191 5.27669 6.64485 6.40625H4.15368C4.54948 5.63485 5.10235 4.95481 5.77673 4.40989C6.45111 3.86496 7.23206 3.4672 8.06938 3.24219ZM4.15368 12.0312H6.64485C6.93191 13.1608 7.41399 14.2316 8.06938 15.1953C7.23206 14.9703 6.45111 14.5725 5.77673 14.0276C5.10235 13.4827 4.54948 12.8027 4.15368 12.0312ZM11.2588 15.1953C11.9141 14.2316 12.3962 13.1608 12.6833 12.0312H15.1745C14.7786 12.8027 14.2258 13.4827 13.5514 14.0276C12.877 14.5725 12.0961 14.9703 11.2588 15.1953Z" fill="#0C111D"/>
</svg>
