<svg width="25" height="25" viewBox="0 0 25 25" fill="none" xmlns="http://www.w3.org/2000/svg">
<path d="M11.5114 1.78393C11.8874 1.07602 12.9017 1.07602 13.2777 1.78393L15.8474 6.62216C15.9919 6.8943 16.2538 7.08461 16.5573 7.13798L21.9528 8.0868C22.7423 8.22562 23.0558 9.19033 22.4987 9.76667L18.6913 13.7057C18.4772 13.9272 18.3771 14.2352 18.4201 14.5403L19.1851 19.9649C19.297 20.7586 18.4764 21.3549 17.7561 21.0031L12.8333 18.5994C12.5564 18.4641 12.2326 18.4641 11.9557 18.5994L7.03299 21.0031C6.31271 21.3549 5.49208 20.7586 5.604 19.9649L6.36893 14.5403C6.41196 14.2352 6.31191 13.9272 6.09775 13.7057L2.29039 9.76667C1.73331 9.19033 2.04676 8.22562 2.83622 8.0868L8.23172 7.13798C8.53521 7.08461 8.79715 6.8943 8.94169 6.62216L11.5114 1.78393Z" fill="#DDDDDD"/>
</svg>
