<svg width="21" height="20" viewBox="0 0 21 20" fill="none" xmlns="http://www.w3.org/2000/svg">
<path d="M5.82039 10.9377C5.82039 11.0197 5.80423 11.101 5.77282 11.1768C5.74142 11.2527 5.69538 11.3216 5.63734 11.3796C5.5793 11.4376 5.5104 11.4837 5.43457 11.5151C5.35874 11.5465 5.27747 11.5627 5.19539 11.5627H5.19535L1.75774 11.5623C1.64163 11.5623 1.52783 11.53 1.42908 11.4689C1.33034 11.4078 1.25055 11.3205 1.19868 11.2166C1.1468 11.1127 1.12488 10.9965 1.13537 10.8809C1.14586 10.7652 1.18836 10.6548 1.25809 10.562C1.81202 9.8198 2.55083 9.23579 3.40084 8.86817C3.0356 8.53431 2.75488 8.11846 2.5818 7.65487C2.40872 7.19128 2.34822 6.69321 2.4053 6.20166C2.46238 5.71012 2.6354 5.23917 2.91011 4.82758C3.18481 4.41598 3.55336 4.07553 3.98539 3.83424C4.41742 3.59295 4.90059 3.45773 5.39511 3.43972C5.88962 3.4217 6.38135 3.5214 6.82979 3.73061C7.27824 3.93983 7.67058 4.25256 7.97451 4.64307C8.27844 5.03358 8.48526 5.4907 8.57796 5.97679C8.60193 6.10304 8.5864 6.23362 8.53349 6.35073C8.48057 6.46784 8.39284 6.56579 8.28224 6.63124C7.27039 7.22983 6.50028 8.16406 6.10577 9.27154C5.91624 9.80655 5.81972 10.3701 5.82039 10.9377ZM20.3828 10.5618C19.8289 9.81965 19.0901 9.23563 18.2401 8.86802C18.6054 8.53416 18.8861 8.11831 19.0592 7.65472C19.2322 7.19114 19.2927 6.69307 19.2357 6.20153C19.1786 5.70999 19.0056 5.23904 18.7309 4.82745C18.4562 4.41586 18.0876 4.0754 17.6556 3.83411C17.2236 3.59282 16.7404 3.4576 16.2459 3.43957C15.7514 3.42155 15.2597 3.52124 14.8112 3.73044C14.3628 3.93964 13.9704 4.25237 13.6665 4.64287C13.3626 5.03337 13.1557 5.49048 13.063 5.97656C13.039 6.10281 13.0546 6.23337 13.1075 6.35048C13.1604 6.46759 13.2481 6.56554 13.3587 6.63101C14.3705 7.22965 15.1407 8.16389 15.5352 9.27139C15.7247 9.8064 15.8212 10.3699 15.8205 10.9375C15.8205 11.0196 15.8367 11.1009 15.8681 11.1767C15.8995 11.2525 15.9456 11.3214 16.0036 11.3795C16.0617 11.4375 16.1306 11.4835 16.2064 11.5149C16.2823 11.5463 16.3635 11.5625 16.4456 11.5625L19.8832 11.5622C19.9993 11.5622 20.1131 11.5298 20.2118 11.4688C20.3106 11.4077 20.3904 11.3203 20.4423 11.2165C20.4941 11.1126 20.5161 10.9963 20.5056 10.8807C20.4951 10.7651 20.4526 10.6547 20.3828 10.5618L20.3828 10.5618ZM13.0988 13.9132C13.7215 13.4369 14.1793 12.7774 14.4078 12.0274C14.6363 11.2774 14.6239 10.4746 14.3725 9.73199C14.121 8.98937 13.6431 8.34424 13.006 7.88731C12.3689 7.43038 11.6046 7.18464 10.8205 7.18464C10.0365 7.18464 9.27219 7.43038 8.63507 7.88731C7.99795 8.34424 7.52007 8.98937 7.26862 9.73199C7.01718 10.4746 7.00482 11.2774 7.23328 12.0274C7.46174 12.7774 7.91954 13.4369 8.54229 13.9132C7.3255 14.4504 6.33968 15.4033 5.76141 16.6011C5.71497 16.6964 5.69352 16.8019 5.69909 16.9078C5.70466 17.0136 5.73706 17.1163 5.79324 17.2062C5.84943 17.2961 5.92755 17.3702 6.02027 17.4216C6.11298 17.473 6.21724 17.4999 6.32324 17.4999H15.3178C15.4238 17.4999 15.5281 17.473 15.6208 17.4216C15.7135 17.3702 15.7916 17.2961 15.8478 17.2062C15.904 17.1163 15.9364 17.0136 15.942 16.9078C15.9475 16.8019 15.9261 16.6964 15.8797 16.6011C15.3014 15.4033 14.3156 14.4504 13.0988 13.9132Z" fill="#3190FF"/>
</svg>
