<svg width="30" height="32" viewBox="0 0 30 32" fill="none" xmlns="http://www.w3.org/2000/svg">
<path d="M17.1928 13.6967V4.65833C17.1928 3.9533 16.9128 3.27714 16.4142 2.77861C15.9157 2.28007 15.2395 2 14.5345 2C13.8295 2 13.1533 2.28007 12.6548 2.77861C12.1562 3.27714 11.8762 3.9533 11.8762 4.65833V20.7766L8.96163 15.7285C8.78724 15.4259 8.55492 15.1606 8.27795 14.9478C8.00097 14.735 7.68478 14.5788 7.34743 14.4883C7.01009 14.3977 6.65821 14.3746 6.3119 14.4201C5.9656 14.4656 5.63166 14.5789 5.32917 14.7536C5.02668 14.9282 4.76157 15.1607 4.549 15.4379C4.33642 15.715 4.18055 16.0314 4.09029 16.3688C4.00003 16.7062 3.97715 17.0581 4.02296 17.4044C4.06877 17.7506 4.18237 18.0845 4.35726 18.3868C8.68616 27.52 11.3202 30.71 17.1928 30.71C18.5892 30.71 19.9719 30.435 21.262 29.9006C22.5521 29.3662 23.7243 28.583 24.7117 27.5956C25.6991 26.6082 26.4824 25.436 27.0167 24.1459C27.5511 22.8558 27.8262 21.4731 27.8262 20.0767V14.76C27.8262 14.055 27.5461 13.3788 27.0476 12.8803C26.549 12.3817 25.8729 12.1017 25.1678 12.1017C24.4628 12.1017 23.7866 12.3817 23.2881 12.8803C22.7896 13.3788 22.5095 14.055 22.5095 14.76" stroke="#333333" stroke-width="1.19079" stroke-linecap="round" stroke-linejoin="round"/>
<path d="M22.5081 14.7611V13.1661C22.5081 12.4611 22.228 11.785 21.7295 11.2864C21.2309 10.7879 20.5548 10.5078 19.8497 10.5078C19.1447 10.5078 18.4685 10.7879 17.97 11.2864C17.4715 11.785 17.1914 12.4611 17.1914 13.1661V13.6978" stroke="#333333" stroke-width="1.19079" stroke-linecap="round" stroke-linejoin="round"/>
</svg>
