<svg width="30" height="30" viewBox="0 0 30 30" fill="none" xmlns="http://www.w3.org/2000/svg">
<path class="highlighter-color" d="M18.3908 6.92969L11.5217 10.5059V17.2818H9.82721L8.98047 18.2229V27.6335C10.1097 28.104 12.9706 29.0827 15.3797 29.2333C17.7888 29.3839 20.1477 28.2295 21.0261 27.6335L20.4614 17.2818H18.3908V6.92969Z" fill="#F2441D"/>
<path d="M15 29.25C22.8701 29.25 29.25 22.8701 29.25 15C29.25 7.12994 22.8701 0.75 15 0.75C7.12994 0.75 0.75 7.12994 0.75 15C0.75 22.8701 7.12994 29.25 15 29.25Z" stroke="#333333" stroke-width="1.19044" stroke-linecap="round" stroke-linejoin="round"/>
<path d="M11.4375 17.375V10.25L18.5625 6.6875V17.375" stroke="#333333" stroke-width="1.19044" stroke-linecap="round" stroke-linejoin="round"/>
<path d="M20.9375 27.9583V18.5625C20.9375 18.2476 20.8124 17.9455 20.5897 17.7228C20.367 17.5001 20.0649 17.375 19.75 17.375H10.25C9.93506 17.375 9.63301 17.5001 9.41031 17.7228C9.18761 17.9455 9.0625 18.2476 9.0625 18.5625V27.9583" stroke="#333333" stroke-width="1.19044" stroke-linecap="round" stroke-linejoin="round"/>
</svg>
