<svg width="20" height="20" viewBox="0 0 20 20" fill="none" xmlns="http://www.w3.org/2000/svg">
    <style>
        .house-active{fill:#3190FF;}
    </style>
<path class="house-active" d="M18.75 16.2499H17.5V9.02724C17.5 8.85424 17.4641 8.68311 17.3946 8.5247C17.3251 8.36628 17.2234 8.22402 17.0961 8.10692L10.8461 2.21005C10.843 2.20738 10.8402 2.20451 10.8375 2.20145C10.6074 1.99218 10.3075 1.87622 9.99648 1.87622C9.68545 1.87622 9.38558 1.99218 9.15547 2.20145L9.14688 2.21005L2.90391 8.10692C2.77656 8.22402 2.67491 8.36628 2.60538 8.5247C2.53586 8.68311 2.49997 8.85424 2.5 9.02724V16.2499H1.25C1.08424 16.2499 0.925268 16.3157 0.808058 16.4329C0.690848 16.5502 0.625 16.7091 0.625 16.8749C0.625 17.0407 0.690848 17.1996 0.808058 17.3168C0.925268 17.434 1.08424 17.4999 1.25 17.4999H18.75C18.9158 17.4999 19.0747 17.434 19.1919 17.3168C19.3092 17.1996 19.375 17.0407 19.375 16.8749C19.375 16.7091 19.3092 16.5502 19.1919 16.4329C19.0747 16.3157 18.9158 16.2499 18.75 16.2499ZM11.875 16.2499H8.125V12.4999C8.125 12.3341 8.19085 12.1752 8.30806 12.0579C8.42527 11.9407 8.58424 11.8749 8.75 11.8749H11.25C11.4158 11.8749 11.5747 11.9407 11.6919 12.0579C11.8092 12.1752 11.875 12.3341 11.875 12.4999V16.2499Z" fill="#3190FF"/>
</svg>
