<svg width="25" height="25" viewBox="0 0 25 25" fill="none" xmlns="http://www.w3.org/2000/svg">
<path d="M12.7895 15.3053L19.5821 8.51178L19.5821 8.51176C19.675 8.41887 19.7853 8.34518 19.9066 8.2949C20.028 8.24463 20.1581 8.21875 20.2895 8.21875C20.4209 8.21875 20.5509 8.24463 20.6723 8.2949C20.7937 8.34518 20.904 8.41887 20.9969 8.51177C21.0898 8.60466 21.1635 8.71495 21.2137 8.83632C21.264 8.9577 21.2899 9.08779 21.2899 9.21917C21.2899 9.35055 21.264 9.48064 21.2137 9.60201C21.1635 9.72339 21.0898 9.83367 20.9969 9.92657L13.497 17.4265L13.4969 17.4266L13.3201 17.2498C13.2505 17.3195 13.1677 17.3748 13.0767 17.4126C12.9856 17.4503 12.888 17.4698 12.7895 17.4698C12.6909 17.4698 12.5933 17.4503 12.5023 17.4126C12.4112 17.3748 12.3285 17.3195 12.2589 17.2498L12.7895 15.3053ZM12.7895 15.3053L5.99689 8.51178L5.99688 8.51176C5.80927 8.32415 5.55481 8.21875 5.28948 8.21875C5.02415 8.21875 4.76969 8.32415 4.58208 8.51176C4.39446 8.69938 4.28906 8.95384 4.28906 9.21917C4.28906 9.48449 4.39446 9.73895 4.58208 9.92657L12.082 17.4265M12.7895 15.3053L12.082 17.4265M12.082 17.4265C12.082 17.4265 12.082 17.4265 12.0821 17.4266L12.082 17.4265Z" fill="#0C111D" stroke="#0C111D" stroke-width="0.5"/>
</svg>
