<svg width="19" height="19" viewBox="0 0 19 19" fill="none" xmlns="http://www.w3.org/2000/svg">
<path d="M15.6873 7.36703L10.0623 12.992C10.0101 13.0443 9.94807 13.0858 9.87978 13.1141C9.81149 13.1424 9.7383 13.157 9.66438 13.157C9.59045 13.157 9.51726 13.1424 9.44897 13.1141C9.38068 13.0858 9.31865 13.0443 9.26641 12.992L3.64141 7.36703C3.53586 7.26148 3.47656 7.11833 3.47656 6.96906C3.47656 6.8198 3.53586 6.67664 3.64141 6.57109C3.74695 6.46555 3.89011 6.40625 4.03938 6.40625C4.18864 6.40625 4.3318 6.46555 4.43734 6.57109L9.66438 11.7988L14.8914 6.57109C14.9437 6.51883 15.0057 6.47738 15.074 6.44909C15.1423 6.42081 15.2155 6.40625 15.2894 6.40625C15.3633 6.40625 15.4365 6.42081 15.5048 6.44909C15.573 6.47738 15.6351 6.51883 15.6873 6.57109C15.7396 6.62336 15.7811 6.6854 15.8093 6.75368C15.8376 6.82197 15.8522 6.89515 15.8522 6.96906C15.8522 7.04297 15.8376 7.11616 15.8093 7.18444C15.7811 7.25273 15.7396 7.31477 15.6873 7.36703Z" fill="#0C111D"/>
</svg>
