<svg width="15" height="15" viewBox="0 0 15 15" fill="none" xmlns="http://www.w3.org/2000/svg">
<path d="M12.9576 6.00625C12.6076 5.59792 12.1409 5.36458 11.6159 5.36458H8.93255L9.28255 4.54792C9.74922 3.32292 9.10755 1.92292 7.88255 1.45625C7.59089 1.33958 7.29922 1.28125 7.00755 1.28125C6.77422 1.28125 6.54089 1.39792 6.48255 1.63125L4.79089 5.36458H3.44922C2.45755 5.36458 1.69922 6.12292 1.69922 7.11458V11.1979C1.69922 12.1896 2.45755 12.9479 3.44922 12.9479H10.8576C11.7326 12.9479 12.4326 12.3646 12.6076 11.4896L13.3659 7.40625C13.4242 6.93958 13.3076 6.41458 12.9576 6.00625ZM4.61589 11.7812H3.44922C3.09922 11.7812 2.86589 11.5479 2.86589 11.1979V7.11458C2.86589 6.76458 3.09922 6.53125 3.44922 6.53125H4.61589V11.7812Z" fill="#F61E6C"/>
</svg>
