<svg width="20" height="20" viewBox="0 0 20 20" fill="none" xmlns="http://www.w3.org/2000/svg">
    <style>
        .list-checks-active{fill: #3190FF;}
    </style>
<path class="list-checks-active" d="M7.31754 8.30781C7.37565 8.36585 7.42174 8.43478 7.4532 8.51066C7.48465 8.58653 7.50084 8.66786 7.50084 8.75C7.50084 8.83213 7.48465 8.91346 7.4532 8.98933C7.42174 9.06521 7.37565 9.13414 7.31754 9.19218L4.81753 11.6922C4.75949 11.7503 4.69056 11.7964 4.61469 11.8278C4.53881 11.8593 4.45748 11.8755 4.37535 11.8755C4.29321 11.8755 4.21188 11.8593 4.13601 11.8278C4.06014 11.7964 3.99121 11.7503 3.93316 11.6922L2.68316 10.4422C2.62509 10.3841 2.57903 10.3152 2.5476 10.2393C2.51618 10.1634 2.5 10.0821 2.5 10C2.5 9.83414 2.56588 9.67508 2.68316 9.55781C2.80044 9.44053 2.9595 9.37465 3.12535 9.37465C3.2912 9.37465 3.45026 9.44053 3.56753 9.55781L4.37535 10.3664L6.43316 8.30781C6.49121 8.2497 6.56014 8.2036 6.63601 8.17215C6.71188 8.14069 6.79321 8.12451 6.87535 8.12451C6.95748 8.12451 7.03881 8.14069 7.11469 8.17215C7.19056 8.2036 7.25949 8.2497 7.31754 8.30781ZM6.43316 3.30781L4.37535 5.3664L3.56753 4.55781C3.45026 4.44053 3.2912 4.37465 3.12535 4.37465C2.9595 4.37465 2.80044 4.44053 2.68316 4.55781C2.56588 4.67508 2.5 4.83414 2.5 5C2.5 5.16585 2.56588 5.32491 2.68316 5.44218L3.93316 6.69218C3.99121 6.75029 4.06014 6.79639 4.13601 6.82785C4.21188 6.8593 4.29321 6.87549 4.37535 6.87549C4.45748 6.87549 4.53881 6.8593 4.61469 6.82785C4.69056 6.79639 4.75949 6.75029 4.81753 6.69218L7.31754 4.19218C7.43481 4.07491 7.5007 3.91585 7.5007 3.75C7.50069 3.58414 7.43481 3.42508 7.31754 3.30781C7.20026 3.19053 7.0412 3.12465 6.87535 3.12465C6.7095 3.12465 6.55044 3.19053 6.43316 3.30781ZM6.43316 13.3078L4.37535 15.3664L3.56753 14.5578C3.50947 14.4997 3.44053 14.4537 3.36466 14.4223C3.28879 14.3908 3.20747 14.3746 3.12535 14.3746C3.04323 14.3746 2.96191 14.3908 2.88604 14.4223C2.81017 14.4537 2.74123 14.4997 2.68316 14.5578C2.62509 14.6159 2.57903 14.6848 2.5476 14.7607C2.51618 14.8366 2.5 14.9179 2.5 15C2.5 15.0821 2.51618 15.1634 2.5476 15.2393C2.57903 15.3152 2.62509 15.3841 2.68316 15.4422L3.93316 16.6922C3.99121 16.7503 4.06014 16.7964 4.13601 16.8278C4.21188 16.8593 4.29321 16.8755 4.37535 16.8755C4.45748 16.8755 4.53881 16.8593 4.61469 16.8278C4.69056 16.7964 4.75949 16.7503 4.81753 16.6922L7.31754 14.1922C7.43481 14.0749 7.5007 13.9158 7.5007 13.75C7.50069 13.5841 7.43481 13.4251 7.31754 13.3078C7.20026 13.1905 7.0412 13.1246 6.87535 13.1246C6.7095 13.1246 6.55044 13.1905 6.43316 13.3078ZM16.8753 3.75H10.0003C9.83459 3.75 9.67562 3.81584 9.55841 3.93305C9.4412 4.05027 9.37535 4.20924 9.37535 4.375V5.625C9.37535 5.79076 9.4412 5.94973 9.55841 6.06694C9.67562 6.18415 9.83459 6.25 10.0003 6.25H16.8753C17.0411 6.25 17.2001 6.18415 17.3173 6.06694C17.4345 5.94973 17.5003 5.79076 17.5003 5.625V4.375C17.5003 4.20924 17.4345 4.05027 17.3173 3.93305C17.2001 3.81584 17.0411 3.75 16.8753 3.75ZM16.8753 13.75H10.0003C9.83459 13.75 9.67562 13.8158 9.55841 13.9331C9.4412 14.0503 9.37535 14.2092 9.37535 14.375V15.625C9.37535 15.7908 9.4412 15.9497 9.55841 16.0669C9.67562 16.1841 9.83459 16.25 10.0003 16.25H16.8753C17.0411 16.25 17.2001 16.1841 17.3173 16.0669C17.4345 15.9497 17.5003 15.7908 17.5003 15.625V14.375C17.5003 14.2092 17.4345 14.0503 17.3173 13.9331C17.2001 13.8158 17.0411 13.75 16.8753 13.75ZM16.8753 8.75H10.0003C9.83459 8.75 9.67562 8.81584 9.55841 8.93305C9.4412 9.05027 9.37535 9.20924 9.37535 9.375V10.625C9.37535 10.7908 9.4412 10.9497 9.55841 11.0669C9.67562 11.1841 9.83459 11.25 10.0003 11.25H16.8753C17.0411 11.25 17.2001 11.1841 17.3173 11.0669C17.4345 10.9497 17.5003 10.7908 17.5003 10.625V9.375C17.5003 9.20924 17.4345 9.05027 17.3173 8.93305C17.2001 8.81584 17.0411 8.75 16.8753 8.75Z" fill="#3190FF"/>
</svg>
