<svg width="32" height="32" viewBox="0 0 32 32" fill="none" xmlns="http://www.w3.org/2000/svg">
<path d="M27.5675 10.83L5.56 4.08C5.26213 3.99312 4.94814 3.97674 4.64284 4.03215C4.33755 4.08756 4.04934 4.21324 3.801 4.39925C3.55266 4.58526 3.351 4.8265 3.21198 5.1039C3.07296 5.38129 3.00039 5.68722 3 5.9975V23.9975C3 24.5279 3.21071 25.0366 3.58579 25.4117C3.96086 25.7868 4.46957 25.9975 5 25.9975C5.19125 25.9976 5.38152 25.9702 5.565 25.9163L16 22.7138V23.9975C16 24.5279 16.2107 25.0366 16.5858 25.4117C16.9609 25.7868 17.4696 25.9975 18 25.9975H22C22.5304 25.9975 23.0391 25.7868 23.4142 25.4117C23.7893 25.0366 24 24.5279 24 23.9975V20.26L27.5675 19.1663C27.9804 19.0422 28.3425 18.7887 28.6004 18.4433C28.8583 18.0978 28.9984 17.6786 29 17.2475V12.7475C28.9981 12.3166 28.8579 11.8977 28.6 11.5525C28.3421 11.2073 27.9802 10.954 27.5675 10.83ZM22 23.9975H18V22.1L22 20.8725V23.9975ZM27 17.2475H26.9862L18 20.0075V9.98625L26.9862 12.7475H27V17.2475Z" fill="#00B959"/>
</svg>
