<svg width="29" height="29" viewBox="0 0 29 29" fill="none" xmlns="http://www.w3.org/2000/svg">
<path d="M19.2305 14.6584C19.2305 14.8905 19.1383 15.1131 18.9742 15.2772C18.8101 15.4413 18.5875 15.5334 18.3555 15.5334H11.3555C11.1234 15.5334 10.9008 15.4413 10.7368 15.2772C10.5727 15.1131 10.4805 14.8905 10.4805 14.6584C10.4805 14.4264 10.5727 14.2038 10.7368 14.0397C10.9008 13.8756 11.1234 13.7834 11.3555 13.7834H18.3555C18.5875 13.7834 18.8101 13.8756 18.9742 14.0397C19.1383 14.2038 19.2305 14.4264 19.2305 14.6584ZM18.3555 17.2834H11.3555C11.1234 17.2834 10.9008 17.3756 10.7368 17.5397C10.5727 17.7038 10.4805 17.9264 10.4805 18.1584C10.4805 18.3905 10.5727 18.6131 10.7368 18.7772C10.9008 18.9413 11.1234 19.0334 11.3555 19.0334H18.3555C18.5875 19.0334 18.8101 18.9413 18.9742 18.7772C19.1383 18.6131 19.2305 18.3905 19.2305 18.1584C19.2305 17.9264 19.1383 17.7038 18.9742 17.5397C18.8101 17.3756 18.5875 17.2834 18.3555 17.2834ZM24.4805 5.90845V22.5334C24.4805 23.4617 24.1117 24.3519 23.4553 25.0083C22.799 25.6647 21.9087 26.0334 20.9805 26.0334H8.73047C7.80221 26.0334 6.91197 25.6647 6.25559 25.0083C5.59922 24.3519 5.23047 23.4617 5.23047 22.5334V5.90845C5.23047 5.44432 5.41484 4.9992 5.74303 4.67101C6.07122 4.34282 6.51634 4.15845 6.98047 4.15845H8.73047V3.28345C8.73047 3.05138 8.82266 2.82882 8.98675 2.66473C9.15084 2.50063 9.3734 2.40845 9.60547 2.40845C9.83753 2.40845 10.0601 2.50063 10.2242 2.66473C10.3883 2.82882 10.4805 3.05138 10.4805 3.28345V4.15845H13.9805V3.28345C13.9805 3.05138 14.0727 2.82882 14.2368 2.66473C14.4008 2.50063 14.6234 2.40845 14.8555 2.40845C15.0875 2.40845 15.3101 2.50063 15.4742 2.66473C15.6383 2.82882 15.7305 3.05138 15.7305 3.28345V4.15845H19.2305V3.28345C19.2305 3.05138 19.3227 2.82882 19.4867 2.66473C19.6508 2.50063 19.8734 2.40845 20.1055 2.40845C20.3375 2.40845 20.5601 2.50063 20.7242 2.66473C20.8883 2.82882 20.9805 3.05138 20.9805 3.28345V4.15845H22.7305C23.1946 4.15845 23.6397 4.34282 23.9679 4.67101C24.2961 4.9992 24.4805 5.44432 24.4805 5.90845ZM22.7305 5.90845H20.9805V6.78345C20.9805 7.01551 20.8883 7.23807 20.7242 7.40217C20.5601 7.56626 20.3375 7.65845 20.1055 7.65845C19.8734 7.65845 19.6508 7.56626 19.4867 7.40217C19.3227 7.23807 19.2305 7.01551 19.2305 6.78345V5.90845H15.7305V6.78345C15.7305 7.01551 15.6383 7.23807 15.4742 7.40217C15.3101 7.56626 15.0875 7.65845 14.8555 7.65845C14.6234 7.65845 14.4008 7.56626 14.2368 7.40217C14.0727 7.23807 13.9805 7.01551 13.9805 6.78345V5.90845H10.4805V6.78345C10.4805 7.01551 10.3883 7.23807 10.2242 7.40217C10.0601 7.56626 9.83753 7.65845 9.60547 7.65845C9.3734 7.65845 9.15084 7.56626 8.98675 7.40217C8.82266 7.23807 8.73047 7.01551 8.73047 6.78345V5.90845H6.98047V22.5334C6.98047 22.9976 7.16484 23.4427 7.49303 23.7709C7.82122 24.0991 8.26634 24.2834 8.73047 24.2834H20.9805C21.4446 24.2834 21.8897 24.0991 22.2179 23.7709C22.5461 23.4427 22.7305 22.9976 22.7305 22.5334V5.90845Z" fill="#333333"/>
</svg>
