<svg width="29" height="29" viewBox="0 0 29 29" fill="none" xmlns="http://www.w3.org/2000/svg">
<path d="M25.2381 8.39378L20.3502 3.50691C20.1877 3.34436 19.9947 3.21542 19.7824 3.12745C19.57 3.03948 19.3424 2.9942 19.1126 2.9942C18.8827 2.9942 18.6551 3.03948 18.4428 3.12745C18.2305 3.21542 18.0375 3.34436 17.875 3.50691L4.38798 16.9939C4.22477 17.1559 4.09537 17.3486 4.00731 17.561C3.91925 17.7733 3.87427 18.0011 3.87501 18.231V23.1189C3.87501 23.5831 4.05938 24.0282 4.38757 24.3564C4.71576 24.6846 5.16088 24.8689 5.62501 24.8689H24C24.2321 24.8689 24.4546 24.7768 24.6187 24.6127C24.7828 24.4486 24.875 24.226 24.875 23.9939C24.875 23.7619 24.7828 23.5393 24.6187 23.3752C24.4546 23.2111 24.2321 23.1189 24 23.1189H12.9881L25.2381 10.8689C25.4007 10.7064 25.5296 10.5135 25.6176 10.3011C25.7056 10.0888 25.7508 9.86121 25.7508 9.63136C25.7508 9.40151 25.7056 9.17392 25.6176 8.96157C25.5296 8.74922 25.4007 8.55629 25.2381 8.39378ZM15.25 8.60597L17.0755 10.4314L7.81251 19.6944L5.98704 17.8689L15.25 8.60597ZM5.62501 23.1189V19.981L8.76298 23.1189H5.62501ZM10.875 22.7569L9.05063 20.9314L18.3125 11.6685L20.138 13.4939L10.875 22.7569ZM21.375 12.2569L16.4881 7.36894L19.1131 4.74394L24 9.63191L21.375 12.2569Z" fill="#333333"/>
</svg>
