<svg width="24" height="24" viewBox="0 0 25 25" fill="none" xmlns="http://www.w3.org/2000/svg">
<path d="M12.2031 2.55713C10.2748 2.55713 8.3897 3.12896 6.78632 4.2003C5.18294 5.27164 3.93326 6.79439 3.1953 8.57597C2.45735 10.3575 2.26427 12.3179 2.64047 14.2093C3.01668 16.1006 3.94528 17.8379 5.30884 19.2014C6.6724 20.565 8.40968 21.4936 10.301 21.8698C12.1923 22.246 14.1527 22.0529 15.9343 21.315C17.7159 20.577 19.2386 19.3273 20.31 17.7239C21.3813 16.1206 21.9531 14.2355 21.9531 12.3071C21.9504 9.72211 20.9223 7.24374 19.0944 5.41585C17.2665 3.58796 14.7882 2.55986 12.2031 2.55713ZM16.4838 10.5878L11.2338 15.8378C11.1641 15.9075 11.0814 15.9628 10.9903 16.0006C10.8993 16.0383 10.8017 16.0577 10.7031 16.0577C10.6046 16.0577 10.507 16.0383 10.4159 16.0006C10.3249 15.9628 10.2422 15.9075 10.1725 15.8378L7.9225 13.5878C7.78177 13.447 7.70271 13.2562 7.70271 13.0571C7.70271 12.8581 7.78177 12.6672 7.9225 12.5265C8.06323 12.3858 8.25411 12.3067 8.45313 12.3067C8.65215 12.3067 8.84302 12.3858 8.98376 12.5265L10.7031 14.2468L15.4225 9.5265C15.4922 9.45682 15.5749 9.40155 15.666 9.36383C15.757 9.32612 15.8546 9.30671 15.9531 9.30671C16.0517 9.30671 16.1493 9.32612 16.2403 9.36383C16.3313 9.40155 16.4141 9.45682 16.4838 9.5265C16.5534 9.59619 16.6087 9.67891 16.6464 9.76996C16.6841 9.861 16.7035 9.95858 16.7035 10.0571C16.7035 10.1557 16.6841 10.2533 16.6464 10.3443C16.6087 10.4353 16.5534 10.5181 16.4838 10.5878Z" fill="#BBBBBB"/>
</svg>
