<svg width="24" height="25" viewBox="0 0 24 25" fill="none" xmlns="http://www.w3.org/2000/svg">
<rect x="3.5" y="4" width="17" height="17" rx="1.5" fill="white" stroke="#D4D4D4"/>
<path d="M9.54058 12.4999C9.39984 12.3733 9.21644 12.3046 9.02718 12.3076C8.83792 12.3106 8.65679 12.3851 8.52013 12.516C8.38347 12.647 8.30139 12.8248 8.29034 13.0138C8.2793 13.2027 8.34011 13.3889 8.46058 13.5349L10.1256 15.2824C10.1953 15.3555 10.2791 15.4138 10.3718 15.4537C10.4646 15.4937 10.5645 15.5145 10.6656 15.5149C10.7661 15.5154 10.8657 15.4958 10.9584 15.4572C11.0512 15.4185 11.1352 15.3616 11.2056 15.2899L16.2906 10.0399C16.3595 9.96895 16.4138 9.88515 16.4504 9.79325C16.4869 9.70135 16.505 9.60315 16.5036 9.50426C16.5023 9.40536 16.4814 9.30771 16.4423 9.21688C16.4031 9.12604 16.3465 9.04381 16.2756 8.97486C16.2047 8.90592 16.1209 8.85162 16.029 8.81506C15.9371 8.7785 15.8389 8.7604 15.74 8.76179C15.6411 8.76319 15.5434 8.78404 15.4526 8.82318C15.3618 8.86231 15.2795 8.91895 15.2106 8.98986L10.6731 13.6849L9.54058 12.4999Z" fill="white"/>
</svg>
