<svg width="24" height="25" viewBox="0 0 24 25" fill="none" xmlns="http://www.w3.org/2000/svg">
<path d="M10.8598 1.84535C11.2322 1.12295 12.2651 1.12295 12.6375 1.84535L15.0965 6.61547C15.2388 6.89158 15.5014 7.08587 15.807 7.14125L21.017 8.08521C21.7968 8.22649 22.1103 9.17542 21.5681 9.75338L17.8569 13.7092C17.6506 13.9291 17.5546 14.2303 17.5954 14.529L18.3369 19.9462C18.446 20.7438 17.6159 21.3369 16.8967 20.9751L12.198 18.6112C11.9153 18.469 11.5819 18.469 11.2992 18.6112L6.60057 20.9751C5.88135 21.3369 5.05121 20.7438 5.16038 19.9462L5.90179 14.529C5.94268 14.2303 5.84661 13.9291 5.64033 13.7092L1.92919 9.75338C1.38698 9.17542 1.70042 8.22649 2.48021 8.0852L7.69021 7.14125C7.99588 7.08587 8.25845 6.89158 8.40078 6.61547L10.8598 1.84535Z" fill="#F5CD79"/>
</svg>
