<svg width="25" height="26" viewBox="0 0 25 26" fill="none" xmlns="http://www.w3.org/2000/svg">
<path d="M8.81968 13.9192L8.33485 13.347L8.33484 13.347L8.81968 13.9192ZM8.87469 13.8665L8.34033 13.3403L8.33974 13.3409L8.87469 13.8665ZM6.56041 15.8335L6.07557 15.2613L6.07556 15.2613L6.56041 15.8335ZM6.43665 15.9638L7.05225 16.3922L7.05225 16.3922L6.43665 15.9638ZM18.4297 13.9992L17.9103 14.5402L18.4297 13.9992ZM16.5015 12.1481L15.9821 12.6891L15.9821 12.6891L16.5015 12.1481ZM15.7854 12.143L15.2737 11.5948L15.2718 11.5965L15.7854 12.143ZM12.2138 15.4998L12.7256 16.0481L12.7275 16.0463L12.2138 15.4998ZM11.4867 15.4839L10.9498 16.0075L10.9508 16.0086L11.4867 15.4839ZM11.4774 15.4743L10.9399 15.9974L10.9404 15.9979L11.4774 15.4743ZM11.4263 15.4248L11.9174 14.8579L11.9174 14.8579L11.4263 15.4248ZM9.68641 13.9177L10.1774 13.3508L10.1774 13.3508L9.68641 13.9177ZM9.63516 13.8679L10.1728 13.345L10.1723 13.3445L9.63516 13.8679ZM9.62599 13.8585L10.1631 13.3351L10.1621 13.3341L9.62599 13.8585ZM8.88457 13.8565L8.35128 13.3291L8.35021 13.3302L8.88457 13.8565ZM16.9995 7.37479V6.62479C16.5853 6.62479 16.2495 6.96058 16.2495 7.37479H16.9995ZM17.357 7.37479H18.107C18.107 6.96058 17.7712 6.62479 17.357 6.62479V7.37479ZM17.357 7.67753V8.42753C17.7712 8.42753 18.107 8.09174 18.107 7.67753H17.357ZM16.9995 7.67753H16.2495C16.2495 8.09174 16.5853 8.42753 16.9995 8.42753V7.67753ZM1.75 6.75V19.25H3.25V6.75H1.75ZM6.25 23.75H18.75V22.25H6.25V23.75ZM23.25 19.25V6.75H21.75V19.25H23.25ZM18.75 2.25H6.25V3.75H18.75V2.25ZM23.25 6.75C23.25 4.26472 21.2353 2.25 18.75 2.25V3.75C20.4069 3.75 21.75 5.09315 21.75 6.75H23.25ZM18.75 23.75C21.2353 23.75 23.25 21.7353 23.25 19.25H21.75C21.75 20.9069 20.4069 22.25 18.75 22.25V23.75ZM1.75 19.25C1.75 21.7353 3.76472 23.75 6.25 23.75V22.25C4.59315 22.25 3.25 20.9069 3.25 19.25H1.75ZM3.25 6.75C3.25 5.09315 4.59315 3.75 6.25 3.75V2.25C3.76472 2.25 1.75 4.26472 1.75 6.75H3.25ZM9.30451 14.4914C9.35436 14.4492 9.39588 14.4062 9.40964 14.3922L8.33974 13.3409C8.33504 13.3456 8.33208 13.3486 8.32936 13.3514C8.3268 13.354 8.32549 13.3553 8.32493 13.3558C8.32365 13.357 8.32747 13.3532 8.33485 13.347L9.30451 14.4914ZM7.04525 16.4057L9.30452 14.4914L8.33484 13.347L6.07557 15.2613L7.04525 16.4057ZM7.05225 16.3922C7.0418 16.4072 7.03384 16.4156 7.03241 16.417C7.03123 16.4183 7.03428 16.415 7.04525 16.4057L6.07556 15.2613C6.00814 15.3184 5.90895 15.4091 5.82104 15.5354L7.05225 16.3922ZM7 16.5588C7 16.499 7.01835 16.4409 7.05225 16.3922L5.82104 15.5354C5.61274 15.8347 5.5 16.1917 5.5 16.5588H7ZM7 18.7292V16.5588H5.5V18.7292H7ZM6.77083 18.5C6.8974 18.5 7 18.6026 7 18.7292H5.5C5.5 19.431 6.06897 20 6.77083 20V18.5ZM18.2292 18.5H6.77083V20H18.2292V18.5ZM18 18.7292C18 18.6026 18.1026 18.5 18.2292 18.5V20C18.931 20 19.5 19.431 19.5 18.7292H18ZM18 14.7506V18.7292H19.5V14.7506H18ZM17.9103 14.5402C17.9676 14.5952 18 14.6712 18 14.7506H19.5C19.5 14.2628 19.3011 13.796 18.9491 13.4581L17.9103 14.5402ZM15.9821 12.6891L17.9103 14.5402L18.9491 13.4581L17.0209 11.607L15.9821 12.6891ZM16.2972 12.6913C16.2082 12.7744 16.0699 12.7734 15.9821 12.6891L17.0209 11.607C16.5341 11.1397 15.767 11.1343 15.2737 11.5948L16.2972 12.6913ZM12.7275 16.0463L16.2991 12.6896L15.2718 11.5965L11.7002 14.9533L12.7275 16.0463ZM10.9508 16.0086C11.4291 16.4971 12.2171 16.5227 12.7256 16.0481L11.7021 14.9515C11.794 14.8657 11.9359 14.8706 12.0226 14.9592L10.9508 16.0086ZM10.9404 15.9979L10.9498 16.0075L12.0237 14.9603L12.0143 14.9507L10.9404 15.9979ZM10.9353 15.9917C10.9284 15.9857 10.9249 15.9822 10.9261 15.9834C10.9266 15.9839 10.9278 15.9851 10.9302 15.9875C10.9328 15.9901 10.9355 15.9929 10.9399 15.9974L12.0148 14.9512C12.0021 14.9381 11.9635 14.8978 11.9174 14.8579L10.9353 15.9917ZM9.19537 14.4846L10.9353 15.9917L11.9174 14.8579L10.1774 13.3508L9.19537 14.4846ZM9.09749 14.3908C9.11034 14.404 9.14907 14.4445 9.19537 14.4846L10.1774 13.3508C10.1843 13.3567 10.1878 13.3603 10.1866 13.3591C10.1861 13.3586 10.1849 13.3574 10.1825 13.355C10.18 13.3524 10.1772 13.3496 10.1728 13.345L9.09749 14.3908ZM9.08883 14.3819L9.098 14.3914L10.1723 13.3445L10.1631 13.3351L9.08883 14.3819ZM9.41787 14.3838C9.32697 14.4758 9.18037 14.4755 9.08984 14.383L10.1621 13.3341C9.66617 12.8271 8.84935 12.8255 8.35128 13.3291L9.41787 14.3838ZM9.40905 14.3928L9.41894 14.3828L8.35021 13.3302L8.34033 13.3403L9.40905 14.3928ZM16.9995 8.12479H17.357V6.62479H16.9995V8.12479ZM16.607 7.37479V7.67753H18.107V7.37479H16.607ZM17.357 6.92753H16.9995V8.42753H17.357V6.92753ZM17.7495 7.67753V7.37479H16.2495V7.67753H17.7495Z" fill="black"/>
</svg>
