<svg width="45" height="45" viewBox="0 0 45 45" fill="none" xmlns="http://www.w3.org/2000/svg">
<g opacity="0.6">
<path d="M7.03603 34.5419C6.34329 35.2346 6.34329 36.3578 7.03603 37.0506C7.72878 37.7433 8.85195 37.7433 9.5447 37.0506L7.03603 34.5419ZM16.4362 27.6504L17.6905 26.3961C16.9978 25.7033 15.8746 25.7033 15.1819 26.3961L16.4362 27.6504ZM20.5091 31.7233L19.2548 32.9776C19.9475 33.6704 21.0707 33.6704 21.7634 32.9776L20.5091 31.7233ZM29.6732 22.5592L30.9275 21.3049C30.2348 20.6122 29.1116 20.6122 28.4188 21.3049L29.6732 22.5592ZM36.5647 31.9594C37.2574 32.6522 38.3806 32.6522 39.0733 31.9594C39.7661 31.2667 39.7661 30.1435 39.0733 29.4507L36.5647 31.9594ZM9.5447 37.0506L17.6905 28.9047L15.1819 26.3961L7.03603 34.5419L9.5447 37.0506ZM15.1819 28.9047L19.2548 32.9776L21.7634 30.469L17.6905 26.3961L15.1819 28.9047ZM21.7634 32.9776L30.9275 23.8136L28.4188 21.3049L19.2548 30.469L21.7634 32.9776ZM28.4188 23.8136L36.5647 31.9594L39.0733 29.4507L30.9275 21.3049L28.4188 23.8136ZM12.3633 8.04147H32.7279V4.49369H12.3633V8.04147ZM37.0633 12.377V32.7415H40.6111V12.377H37.0633ZM32.7279 37.077H12.3633V40.6248H32.7279V37.077ZM8.0278 32.7415V12.377H4.48001V32.7415H8.0278ZM12.3633 37.077C9.96886 37.077 8.0278 35.136 8.0278 32.7415H4.48001C4.48001 37.0953 8.00947 40.6248 12.3633 40.6248V37.077ZM37.0633 32.7415C37.0633 35.136 35.1223 37.077 32.7279 37.077V40.6248C37.0817 40.6248 40.6111 37.0953 40.6111 32.7415H37.0633ZM32.7279 8.04147C35.1223 8.04147 37.0633 9.98253 37.0633 12.377H40.6111C40.6111 8.02315 37.0817 4.49369 32.7279 4.49369V8.04147ZM12.3633 4.49369C8.00947 4.49369 4.48001 8.02315 4.48001 12.377H8.0278C8.0278 9.98253 9.96886 8.04147 12.3633 8.04147V4.49369ZM16.6988 15.4316C16.6988 16.139 16.1253 16.7124 15.418 16.7124V20.2602C18.0847 20.2602 20.2465 18.0984 20.2465 15.4316H16.6988ZM15.418 16.7124C14.7106 16.7124 14.1372 16.139 14.1372 15.4316H10.5894C10.5894 18.0984 12.7512 20.2602 15.418 20.2602V16.7124ZM14.1372 15.4316C14.1372 14.7243 14.7106 14.1508 15.418 14.1508V10.6031C12.7512 10.6031 10.5894 12.7649 10.5894 15.4316H14.1372ZM15.418 14.1508C16.1253 14.1508 16.6988 14.7243 16.6988 15.4316H20.2465C20.2465 12.7649 18.0847 10.6031 15.418 10.6031V14.1508Z" fill="#18181D"/>
</g>
</svg>
