<svg width="75" height="75" viewBox="0 0 75 75" fill="none" xmlns="http://www.w3.org/2000/svg">
<g opacity="0.8">
<path d="M28.0877 64.6468L26.7066 62.2688L28.0877 64.6468ZM25.7942 62.9119L23.065 62.5744V62.5744L25.7942 62.9119ZM23.9786 53.2075L21.5771 54.5472L21.5852 54.5618L21.5935 54.5763L23.9786 53.2075ZM21.2377 48.2944L23.6393 46.9546L23.6312 46.9401L23.6228 46.9256L21.2377 48.2944ZM64.3676 43.5755L65.7487 45.9535L64.3676 43.5755ZM64.056 40.7417L65.1826 38.2331L65.1826 38.2331L64.056 40.7417ZM56.6928 34.2071L54.2904 35.5453L54.299 35.5607L54.3077 35.5759L56.6928 34.2071ZM54.0907 29.5358L56.4931 28.1975L56.4845 28.1822L56.4758 28.167L54.0907 29.5358ZM28.0558 22.4513L29.437 24.8293L28.0558 22.4513ZM45.255 64.4178L46.6361 66.7958L45.255 64.4178ZM6.96899 36.8763C7.18317 38.3799 8.57572 39.4252 10.0793 39.211C11.5829 38.9968 12.6282 37.6043 12.414 36.1007L6.96899 36.8763ZM14.375 26.1639C15.1694 24.8694 14.764 23.176 13.4696 22.3816C12.1751 21.5872 10.4817 21.9926 9.68734 23.2871L14.375 26.1639ZM37.0425 7.44722C35.524 7.47603 34.3163 8.73038 34.3451 10.2489C34.374 11.7674 35.6283 12.975 37.1468 12.9462L37.0425 7.44722ZM46.6866 16.1089C47.868 17.0633 49.5995 16.8793 50.5539 15.6979C51.5083 14.5165 51.3243 12.785 50.1429 11.8306L46.6866 16.1089ZM28.5234 63.2494C28.9112 60.113 28.6766 55.8685 26.3637 51.8386L21.5935 54.5763C23.1454 57.2802 23.3544 60.234 23.065 62.5744L28.5234 63.2494ZM26.3802 51.8677L23.6393 46.9546L18.8362 49.6342L21.5771 54.5472L26.3802 51.8677ZM65.1826 38.2331C63.0836 37.2904 60.6586 35.5924 59.0779 32.8382L54.3077 35.5759C56.6183 39.6019 60.0904 41.9753 62.9293 43.2503L65.1826 38.2331ZM59.0952 32.8688L56.4931 28.1975L51.6883 30.8741L54.2904 35.5453L59.0952 32.8688ZM56.4758 28.167C50.4483 17.6646 37.1101 14.0124 26.6747 20.0733L29.437 24.8293C37.2012 20.3199 47.1754 23.0113 51.7056 30.9047L56.4758 28.167ZM65.7487 45.9535C67.5029 44.9346 67.8762 43.063 67.7191 41.7835C67.5624 40.5071 66.8041 38.9613 65.1826 38.2331L62.9293 43.2503C62.374 43.0009 62.2755 42.5793 62.2601 42.4536C62.2443 42.325 62.2403 41.6308 62.9864 41.1975L65.7487 45.9535ZM23.6228 46.9256C19.164 39.1564 21.795 29.2678 29.437 24.8293L26.6747 20.0733C16.3812 26.0517 12.9071 39.3038 18.8526 49.6633L23.6228 46.9256ZM26.7066 62.2688C27.4769 61.8213 28.0931 62.1969 28.19 62.2721C28.2863 62.3469 28.5981 62.6452 28.5234 63.2494L23.065 62.5744C22.8443 64.3588 23.7925 65.8209 24.8169 66.6163C25.8419 67.4122 27.6778 68.065 29.4689 67.0248L26.7066 62.2688ZM62.9864 41.1975L26.7066 62.2688L29.4689 67.0248L65.7487 45.9535L62.9864 41.1975ZM46.4237 53.9808C47.9088 56.5684 46.9828 60.2341 43.8739 62.0398L46.6361 66.7958C52.0844 63.6315 54.3406 56.7259 51.1939 51.2431L46.4237 53.9808ZM43.8739 62.0398C40.7723 63.8412 37.1781 62.818 35.6998 60.2421L30.9295 62.9798C34.0829 68.4743 41.1805 69.9644 46.6361 66.7958L43.8739 62.0398ZM27.8536 15.6249C28.751 17.1886 28.2119 19.1805 26.6747 20.0733L29.437 24.8293C33.6045 22.4088 35.02 17.0624 32.6238 12.8872L27.8536 15.6249ZM26.6747 20.0733C25.1471 20.9605 23.1863 20.4407 22.2943 18.8865L17.5241 21.6243C19.9258 25.809 25.2597 27.2555 29.437 24.8293L26.6747 20.0733ZM22.2943 18.8865C21.3969 17.3229 21.936 15.331 23.4733 14.4382L20.711 9.68214C16.5434 12.1027 15.1279 17.449 17.5241 21.6243L22.2943 18.8865ZM23.4733 14.4382C25.0008 13.551 26.9616 14.0708 27.8536 15.6249L32.6238 12.8872C30.2221 8.70245 24.8882 7.256 20.711 9.68214L23.4733 14.4382ZM12.414 36.1007C11.9145 32.5942 12.5868 29.0777 14.375 26.1639L9.68734 23.2871C7.18374 27.3667 6.30137 32.1896 6.96899 36.8763L12.414 36.1007ZM37.1468 12.9462C40.6714 12.8794 44.049 13.9781 46.6866 16.1089L50.1429 11.8306C46.4289 8.83015 41.7676 7.35758 37.0425 7.44722L37.1468 12.9462Z" fill="#848589"/>
</g>
</svg>
