<svg width="17" height="17" viewBox="0 0 17 17" fill="none" xmlns="http://www.w3.org/2000/svg">
<path d="M8.37934 4.87807C8.14345 4.59502 7.72277 4.55677 7.43971 4.79265C7.15665 5.02853 7.11841 5.44922 7.35429 5.73228L8.37934 4.87807ZM10.0765 7.95684L10.5891 8.38395C10.7952 8.13653 10.7952 7.77715 10.5891 7.52974L10.0765 7.95684ZM7.35429 10.1814C7.11841 10.4645 7.15665 10.8852 7.43971 11.121C7.72277 11.3569 8.14345 11.3187 8.37934 11.0356L7.35429 10.1814ZM7.35429 5.73228L9.56401 8.38395L10.5891 7.52974L8.37934 4.87807L7.35429 5.73228ZM9.56401 7.52974L7.35429 10.1814L8.37934 11.0356L10.5891 8.38395L9.56401 7.52974ZM8.61719 2.757C11.5624 2.757 13.95 5.14459 13.95 8.08984H15.2843C15.2843 4.40768 12.2994 1.42269 8.61719 1.42269V2.757ZM13.95 8.08984C13.95 11.0351 11.5624 13.4227 8.61719 13.4227V14.757C12.2994 14.757 15.2843 11.772 15.2843 8.08984H13.95ZM8.61719 13.4227C5.67194 13.4227 3.28434 11.0351 3.28434 8.08984H1.95003C1.95003 11.772 4.93502 14.757 8.61719 14.757V13.4227ZM3.28434 8.08984C3.28434 5.14459 5.67194 2.757 8.61719 2.757V1.42269C4.93502 1.42269 1.95003 4.40768 1.95003 8.08984H3.28434Z" fill="#23B882"/>
</svg>
