<svg width="21" height="21" viewBox="0 0 21 21" fill="none" xmlns="http://www.w3.org/2000/svg">
<path d="M15.2105 15.1298L17.9835 15.5859L17.4546 11.8832C17.7939 11.1156 17.9824 10.2665 17.9824 9.37333C17.9824 5.94189 15.2009 3.16016 11.7697 3.16016C9.45963 3.16016 7.6722 4.30542 6.60169 6.17662M5.41982 10.2582C4.55562 10.9704 4.00464 12.0491 4.00464 13.2566C4.00464 13.8148 4.12241 14.3455 4.33445 14.8252L4.00391 17.1394L5.9868 16.6436C6.54853 16.9596 7.19681 17.1398 7.88718 17.1398C9.35231 17.1398 10.6279 16.3281 11.2889 15.1298" stroke="white" stroke-width="2" stroke-linecap="round" stroke-linejoin="round"/>
<path d="M4.00143 4.04112L17.9866 18.4983" stroke="white" stroke-width="2" stroke-linecap="round"/>
</svg>
