<svg width="19" height="19" viewBox="0 0 19 19" fill="none" xmlns="http://www.w3.org/2000/svg">
<path d="M9.78828 16.7484C13.7639 16.7484 16.9867 13.5256 16.9867 9.55C16.9867 5.57441 13.7639 2.35156 9.78828 2.35156C5.81269 2.35156 2.58984 5.57441 2.58984 9.55C2.58984 13.5256 5.81269 16.7484 9.78828 16.7484Z" stroke="#2E8C6A" stroke-width="1.49967"/>
<path d="M7.94141 13.4292V6.27539H10.6241C11.1737 6.27539 11.6347 6.37785 12.0073 6.58278C12.3823 6.78771 12.6652 7.06948 12.8562 7.4281C13.0494 7.7844 13.1461 8.18959 13.1461 8.64369C13.1461 9.10245 13.0494 9.50998 12.8562 9.86627C12.6629 10.2226 12.3776 10.5032 12.0004 10.7081C11.6231 10.9107 11.1585 11.012 10.6066 11.012H8.82865V9.94661H10.432C10.7533 9.94661 11.0165 9.89072 11.2214 9.77894C11.4263 9.66716 11.5777 9.51347 11.6755 9.31786C11.7756 9.12225 11.8257 8.89752 11.8257 8.64369C11.8257 8.38986 11.7756 8.16631 11.6755 7.97302C11.5777 7.77974 11.4252 7.62954 11.2179 7.52242C11.013 7.41297 10.7487 7.35824 10.425 7.35824H9.23734V13.4292H7.94141Z" fill="#2E8C6A"/>
</svg>
