<svg width="19" height="19" viewBox="0 0 19 19" fill="none" xmlns="http://www.w3.org/2000/svg">
<path d="M11.2015 7.82764C11.3359 8.2161 11.7598 8.42205 12.1482 8.28762C12.5367 8.1532 12.7426 7.72931 12.6082 7.34085L11.2015 7.82764ZM10.6898 6.66758L10.7225 5.92399C10.7116 5.92351 10.7007 5.92327 10.6898 5.92327V6.66758ZM8.88984 9.41758V10.1619V9.41758ZM10.6898 12.1676V12.9119V12.1676ZM8.88984 12.1676L8.85714 12.9112C8.86803 12.9116 8.87894 12.9119 8.88984 12.9119V12.1676ZM8.37822 11.0075C8.2438 10.619 7.81991 10.4131 7.43145 10.5475C7.04298 10.6819 6.83704 11.1058 6.97146 11.4943L8.37822 11.0075ZM10.5341 5.29258C10.5341 4.88151 10.2009 4.54827 9.78984 4.54827C9.37877 4.54827 9.04554 4.88151 9.04554 5.29258H10.5341ZM9.04554 6.66758C9.04554 7.07864 9.37877 7.41188 9.78984 7.41188C10.2009 7.41188 10.5341 7.07864 10.5341 6.66758H9.04554ZM10.5341 12.1676C10.5341 11.7565 10.2009 11.4233 9.78984 11.4233C9.37877 11.4233 9.04554 11.7565 9.04554 12.1676H10.5341ZM9.04554 13.5426C9.04554 13.9536 9.37877 14.2869 9.78984 14.2869C10.2009 14.2869 10.5341 13.9536 10.5341 13.5426H9.04554ZM12.6082 7.34085C12.4708 6.9438 12.2192 6.59553 11.8834 6.34224L10.9869 7.53057C11.0842 7.604 11.1597 7.70698 11.2015 7.82764L12.6082 7.34085ZM11.8834 6.34224C11.5475 6.08881 11.1433 5.94249 10.7225 5.92399L10.6571 7.41116C10.7748 7.41634 10.8897 7.45727 10.9869 7.53057L11.8834 6.34224ZM10.6898 5.92327H8.88984V7.41188H10.6898V5.92327ZM8.88984 5.92327C8.32995 5.92327 7.7958 6.14994 7.40414 6.54885L8.46636 7.59176C8.58104 7.47495 8.73365 7.41188 8.88984 7.41188V5.92327ZM7.40414 6.54885C7.01293 6.9473 6.79554 7.48486 6.79554 8.04258H8.28415C8.28415 7.87094 8.35122 7.70903 8.46636 7.59176L7.40414 6.54885ZM6.79554 8.04258C6.79554 8.60029 7.01293 9.13785 7.40414 9.5363L8.46636 8.4934C8.35122 8.37612 8.28415 8.21421 8.28415 8.04258H6.79554ZM7.40414 9.5363C7.7958 9.93521 8.32995 10.1619 8.88984 10.1619V8.67327C8.73365 8.67327 8.58104 8.61021 8.46636 8.4934L7.40414 9.5363ZM8.88984 10.1619H10.6898V8.67327H8.88984V10.1619ZM10.6898 10.1619C10.846 10.1619 10.9986 10.2249 11.1133 10.3418L12.1755 9.29885C11.7839 8.89994 11.2497 8.67327 10.6898 8.67327V10.1619ZM11.1133 10.3418C11.2285 10.459 11.2955 10.6209 11.2955 10.7926H12.7841C12.7841 10.2349 12.5668 9.6973 12.1755 9.29885L11.1133 10.3418ZM11.2955 10.7926C11.2955 10.9642 11.2285 11.1261 11.1133 11.2434L12.1755 12.2863C12.5668 11.8878 12.7841 11.3503 12.7841 10.7926H11.2955ZM11.1133 11.2434C10.9986 11.3602 10.846 11.4233 10.6898 11.4233V12.9119C11.2497 12.9119 11.7839 12.6852 12.1755 12.2863L11.1133 11.2434ZM10.6898 11.4233H8.88984V12.9119H10.6898V11.4233ZM8.92254 11.424C8.80483 11.4188 8.68995 11.3779 8.5928 11.3046L7.69625 12.4929C8.03215 12.7463 8.43642 12.8927 8.85714 12.9112L8.92254 11.424ZM8.5928 11.3046C8.49547 11.2311 8.41998 11.1282 8.37822 11.0075L6.97146 11.4943C7.10885 11.8913 7.36051 12.2396 7.69625 12.4929L8.5928 11.3046ZM9.04554 5.29258V6.66758H10.5341V5.29258H9.04554ZM9.04554 12.1676V13.5426H10.5341V12.1676H9.04554ZM16.2455 9.34258C16.2455 12.908 13.3552 15.7983 9.78984 15.7983V17.2869C14.1774 17.2869 17.7341 13.7301 17.7341 9.34258H16.2455ZM9.78984 15.7983C6.22446 15.7983 3.33415 12.908 3.33415 9.34258H1.84554C1.84554 13.7301 5.40233 17.2869 9.78984 17.2869V15.7983ZM3.33415 9.34258C3.33415 5.77719 6.22446 2.88688 9.78984 2.88688V1.39827C5.40233 1.39827 1.84554 4.95506 1.84554 9.34258H3.33415ZM9.78984 2.88688C13.3552 2.88688 16.2455 5.77719 16.2455 9.34258H17.7341C17.7341 4.95506 14.1774 1.39827 9.78984 1.39827V2.88688Z" fill="#2E8C6A"/>
</svg>
