<svg width="84" height="84" viewBox="0 0 84 84" fill="none" xmlns="http://www.w3.org/2000/svg">
<circle cx="42" cy="42" r="42" fill="url(#paint0_linear_12924_45526)"/>
<path d="M33.5472 61.8118C29.3822 61.8118 25.9697 58.7843 25.9697 55.0568V51.4868C25.9697 50.7693 26.5647 50.1743 27.2822 50.1743C27.9997 50.1743 28.5947 50.7693 28.5947 51.4868C28.5947 53.6743 30.7122 55.3193 33.5472 55.3193C36.3822 55.3193 38.4997 53.6743 38.4997 51.4868C38.4997 50.7693 39.0947 50.1743 39.8122 50.1743C40.5297 50.1743 41.1247 50.7693 41.1247 51.4868V55.0568C41.1247 58.7843 37.7297 61.8118 33.5472 61.8118ZM29.0496 56.7718C29.8196 58.2068 31.5522 59.1868 33.5472 59.1868C35.5422 59.1868 37.2747 58.1893 38.0447 56.7718C36.8022 57.5243 35.2622 57.9618 33.5472 57.9618C31.8322 57.9618 30.2921 57.5243 29.0496 56.7718Z" fill="#007617"/>
<path d="M33.5472 53.149C30.6772 53.149 28.1047 51.8365 26.8272 49.754C26.2672 48.844 25.9697 47.7765 25.9697 46.6915C25.9697 44.854 26.7747 43.139 28.2447 41.8615C31.0797 39.3765 35.9622 39.3766 38.8147 41.8441C40.2847 43.1391 41.1072 44.854 41.1072 46.6915C41.1072 47.7765 40.8097 48.844 40.2497 49.754C38.9897 51.8365 36.4172 53.149 33.5472 53.149ZM33.5472 42.5616C32.1822 42.5616 30.9222 43.0165 29.9772 43.839C29.0847 44.609 28.5947 45.624 28.5947 46.6915C28.5947 47.304 28.7522 47.8641 29.0672 48.3891C29.8722 49.7191 31.5872 50.5416 33.5472 50.5416C35.5072 50.5416 37.2221 49.7191 38.0096 48.4066C38.3246 47.8991 38.4822 47.3216 38.4822 46.7091C38.4822 45.6416 37.9922 44.6265 37.0997 43.839C36.1722 43.0165 34.9122 42.5616 33.5472 42.5616Z" fill="#007617"/>
<path d="M33.5472 57.9625C29.2247 57.9625 25.9697 55.18 25.9697 51.505V46.6925C25.9697 42.965 29.3647 39.9375 33.5472 39.9375C35.5247 39.9375 37.4147 40.62 38.8322 41.845C40.3022 43.14 41.1247 44.855 41.1247 46.6925V51.505C41.1247 55.18 37.8697 57.9625 33.5472 57.9625ZM33.5472 42.5625C30.8172 42.5625 28.5947 44.4175 28.5947 46.6925V51.505C28.5947 53.6925 30.7122 55.3375 33.5472 55.3375C36.3822 55.3375 38.4997 53.6925 38.4997 51.505V46.6925C38.4997 45.625 38.0097 44.61 37.1172 43.8225C36.1722 43.0175 34.9122 42.5625 33.5472 42.5625Z" fill="#007617"/>
<path d="M54.3199 47.9006C51.6773 47.9006 49.4373 45.9406 49.2273 43.4206C49.0873 41.9681 49.6123 40.5506 50.6623 39.5181C51.5373 38.6081 52.7799 38.1006 54.0924 38.1006H57.7499C59.4824 38.1531 60.8124 39.5181 60.8124 41.1981V44.8031C60.8124 46.4831 59.4824 47.8481 57.8024 47.9006H54.3199ZM57.6974 40.7256H54.1099C53.4974 40.7256 52.9373 40.9531 52.5348 41.3731C52.0273 41.8631 51.7823 42.5281 51.8523 43.1931C51.9398 44.3481 53.0599 45.2756 54.3199 45.2756H57.7499C57.9774 45.2756 58.1874 45.0656 58.1874 44.8031V41.1981C58.1874 40.9356 57.9774 40.7431 57.6974 40.7256Z" fill="#007617"/>
<path d="M48.9999 59.1875H44.6249C43.9074 59.1875 43.3124 58.5925 43.3124 57.875C43.3124 57.1575 43.9074 56.5625 44.6249 56.5625H48.9999C53.5149 56.5625 56.4374 53.64 56.4374 49.125V47.9H54.3199C51.6774 47.9 49.4374 45.94 49.2274 43.42C49.0874 41.9675 49.6125 40.55 50.6625 39.5175C51.5375 38.6075 52.7799 38.1 54.0924 38.1H56.4199V36.875C56.4199 32.78 54.0225 29.9625 50.1375 29.5075C49.7175 29.4375 49.3499 29.4375 48.9824 29.4375H33.2324C32.8124 29.4375 32.4099 29.4725 32.0074 29.525C28.1574 30.015 25.7949 32.815 25.7949 36.875V40.375C25.7949 41.0925 25.1999 41.6875 24.4824 41.6875C23.7649 41.6875 23.1699 41.0925 23.1699 40.375V36.875C23.1699 31.485 26.495 27.5825 31.6575 26.935C32.13 26.865 32.6724 26.8125 33.2324 26.8125H48.9824C49.4024 26.8125 49.9449 26.83 50.5049 26.9175C55.6674 27.5125 59.0449 31.4325 59.0449 36.875V39.4125C59.0449 40.13 58.4499 40.725 57.7324 40.725H54.0924C53.4799 40.725 52.92 40.9525 52.5175 41.3725C52.01 41.8625 51.7649 42.5275 51.8349 43.1925C51.9224 44.3475 53.0425 45.275 54.3025 45.275H57.7499C58.4674 45.275 59.0624 45.87 59.0624 46.5875V49.125C59.0624 55.145 55.0199 59.1875 48.9999 59.1875Z" fill="#007617"/>
<defs>
<linearGradient id="paint0_linear_12924_45526" x1="74.55" y1="2.14197e-06" x2="42" y2="84" gradientUnits="userSpaceOnUse">
<stop stop-color="#3A974C"/>
<stop offset="1" stop-color="#60D576"/>
</linearGradient>
</defs>
</svg>
