<svg width="85" height="84" viewBox="0 0 85 84" fill="none" xmlns="http://www.w3.org/2000/svg">
    <ellipse cx="42.618" cy="41.894" rx="41.959" ry="41.722" fill="url(#qnaycf9pha)"/>
    <g clip-path="url(#d0jge5ey8b)" fill="#0F5FC2">
        <path d="M42.618 61.971c-10.367 0-18.794-8.379-18.794-18.687 0-10.31 8.427-18.688 18.794-18.688.717 0 1.311.59 1.311 1.303s-.594 1.304-1.31 1.304c-8.917 0-16.172 7.215-16.172 16.08 0 8.867 7.255 16.08 16.171 16.08S58.79 52.15 58.79 43.284c0-.712.594-1.303 1.31-1.303.718 0 1.312.59 1.312 1.304 0 10.308-8.427 18.688-18.794 18.688zM54.918 23.019h6.993c.717 0 1.312.59 1.312 1.304v6.953c0 .713-.595 1.304-1.312 1.304a1.317 1.317 0 0 1-1.31-1.304v-5.65h-5.683a1.317 1.317 0 0 1-1.31-1.303c0-.713.594-1.304 1.31-1.304z"/>
        <path d="M51.358 35.895a1.3 1.3 0 0 1-.926-.383 1.306 1.306 0 0 1 0-1.842l8.74-8.692a1.324 1.324 0 0 1 1.854 0 1.306 1.306 0 0 1 0 1.842l-8.741 8.693a1.3 1.3 0 0 1-.927.382zM36.491 53.959v-18.91h7.09c1.454 0 2.672.272 3.657.813.991.542 1.74 1.287 2.244 2.235.51.941.766 2.013.766 3.213 0 1.212-.255 2.29-.766 3.231-.511.942-1.265 1.684-2.262 2.226-.997.535-2.225.803-3.684.803h-4.7v-2.816h4.238c.85 0 1.545-.148 2.087-.444a2.797 2.797 0 0 0 1.2-1.218c.265-.517.397-1.111.397-1.782s-.132-1.262-.397-1.773c-.258-.51-.662-.908-1.21-1.19-.541-.29-1.24-.435-2.095-.435h-3.14V53.96h-3.425z"/>
    </g>
    <defs>
        <linearGradient id="qnaycf9pha" x1="75.135" y1=".172" x2="42.936" y2="83.738" gradientUnits="userSpaceOnUse">
            <stop stop-color="#C2C2C2"/>
            <stop offset="1" stop-color="#CAD9DD"/>
        </linearGradient>
        <clipPath id="d0jge5ey8b">
            <path fill="#fff" transform="translate(21.639 22.422)" d="M0 0h41.959v41.722H0z"/>
        </clipPath>
    </defs>
</svg>
