<svg width="18" height="19" viewBox="0 0 18 19" fill="none" xmlns="http://www.w3.org/2000/svg">
<path d="M15.3008 15.3164L4.05078 4.06641M7.65078 8.52259C7.37072 8.83135 7.20078 9.23693 7.20078 9.68114C7.20078 10.6485 8.00667 11.4327 9.00078 11.4327C9.45914 11.4327 9.87748 11.2659 10.1953 10.9914M15.3299 11.4327C15.9495 10.505 16.2008 9.7485 16.2008 9.7485C16.2008 9.7485 14.5623 4.51641 9.00078 4.51641C8.68855 4.51641 8.38869 4.5329 8.10078 4.56403M13.0508 13.7035C12.0177 14.3625 10.6878 14.8285 9.00078 14.801C3.50847 14.7111 1.80078 9.7485 1.80078 9.7485C1.80078 9.7485 2.59417 7.21496 4.95078 5.6739" stroke="#848589" stroke-width="1.50781" stroke-linecap="round"/>
</svg>
