<svg width="22" height="23" viewBox="0 0 22 23" fill="none" xmlns="http://www.w3.org/2000/svg">
    <style>
        .following1{fill: #18181D;}
        .following2{stroke: #18181D;}
    </style>
    <g opacity=".7">
        <path class="following1" d="m13.741 14.93.522.756.021-.015.02-.016-.563-.724zm0-.788.603-.693-.032-.027-.033-.024-.538.744zm-3.222-2.327.537-.744-.093-.067-.106-.042-.338.853zm-1.06.348.918-.004v-.026l-.918.03zm.02 4.57-.917.005v.041l.004.041.914-.087zm1.1.381.3.868.118-.04.104-.072-.522-.756zM5.5 9.885h11V8.049h-11v1.836zm13.382 1.144v6.875h1.836V11.03h-1.836zM16.5 19.05h-11v1.836h11v-1.836zm-13.382-.221v-7.799H1.282v7.799h1.836zm2.382.22c-.833 0-1.43 0-1.872-.016-.467-.018-.652-.053-.716-.076-.015-.005.035.01.098.07a.45.45 0 0 1 .116.179c.003.01-.008-.032-.008-.377H1.282c0 .224-.01.61.096.94.064.2.176.406.36.584.18.171.384.274.575.34.349.12.782.157 1.244.174.486.02 1.126.019 1.943.019v-1.836zm13.382-1.144c0 .551-.003.84-.037 1.032-.025.136-.033.05.056-.006.002 0-.105.057-.557.089-.424.029-1.005.03-1.844.03v1.836c.811 0 1.468 0 1.972-.034.476-.034.988-.104 1.402-.363.502-.314.7-.787.779-1.23.069-.39.065-.873.065-1.354h-1.836zM16.5 9.885c.84 0 1.42 0 1.844.03.452.031.559.09.557.088-.089-.055-.08-.141-.056-.005.034.19.037.48.037 1.031h1.836c0-.48.004-.964-.065-1.353-.08-.444-.277-.917-.779-1.23-.414-.26-.926-.33-1.402-.363-.504-.035-1.16-.034-1.972-.034v1.836zm-11-1.836c-.81 0-1.468 0-1.971.034-.476.033-.988.104-1.403.363-.501.313-.7.786-.778 1.23-.07.39-.066.873-.066 1.353h1.836c0-.55.004-.84.038-1.031.024-.136.032-.05-.057.005-.002.002.105-.057.557-.088.425-.03 1.005-.03 1.844-.03V8.049zm8.805 7.606c.128-.1.529-.407.604-.933.086-.608-.296-1.039-.565-1.273l-1.205 1.386c.057.05.041.05.011-.004a.601.601 0 0 1-.06-.368.565.565 0 0 1 .113-.274c.019-.024.022-.02-.026.017l1.128 1.45zm-.026-2.257-3.223-2.327-1.075 1.489 3.223 2.326 1.075-1.488zm-3.422-2.436c-.4-.159-.882-.224-1.327-.094-.23.067-.488.199-.69.44a1.3 1.3 0 0 0-.299.885l1.835-.06a.538.538 0 0 1-.127.353.44.44 0 0 1-.205.144c-.029.009-.029.003.006.006a.478.478 0 0 1 .13.033l.677-1.707zM8.54 12.167l.02 4.57 1.837-.008-.021-4.57-1.836.008zm.025 4.653c.024.251.105.517.282.753.18.24.42.395.672.48.47.156.965.066 1.359-.07l-.6-1.736a.921.921 0 0 1-.21.05c-.039.004-.02-.004.032.014a.46.46 0 0 1 .293.335l-1.828.174zm2.534 1.05 3.163-2.184-1.044-1.511-3.162 2.184 1.043 1.51z" />
        <path class="following2" d="M3.417 5.795h15.352M5.657 2.478h10.875" stroke="#18181D" stroke-width="1.836" stroke-linecap="round"/>
    </g>
</svg>
