<svg width="25" height="25" viewBox="0 0 25 25" fill="none" xmlns="http://www.w3.org/2000/svg">
<path d="M12.616 3.47853C10.8364 3.48031 9.09718 4.00966 7.61833 4.99967C6.13947 5.98969 4.98732 7.39592 4.30751 9.04061C3.6277 10.6853 3.45075 12.4946 3.79904 14.2398C4.14732 15.9851 5.00519 17.5879 6.26422 18.8457C7.52325 20.1034 9.12692 20.9597 10.8725 21.3062C12.6181 21.6528 14.4272 21.474 16.0712 20.7926C17.7152 20.1111 19.1203 18.9576 20.1089 17.4777C21.0974 15.9979 21.625 14.2582 21.625 12.4785C21.6256 11.2957 21.3929 10.1244 20.9402 9.0316C20.4876 7.93882 19.8239 6.94604 18.9871 6.11008C18.1503 5.27412 17.1568 4.61139 16.0636 4.15984C14.9704 3.70828 13.7988 3.47676 12.616 3.47853ZM12.625 19.4785C11.2405 19.4785 9.88716 19.068 8.73601 18.2988C7.58487 17.5296 6.68766 16.4364 6.15785 15.1573C5.62803 13.8782 5.48941 12.4708 5.75951 11.1129C6.0296 9.75503 6.69629 8.50775 7.67526 7.52878C8.65422 6.54981 9.9015 5.88313 11.2594 5.61303C12.6172 5.34293 14.0247 5.48156 15.3038 6.01137C16.5829 6.54118 17.6761 7.43839 18.4453 8.58953C19.2145 9.74068 19.625 11.0941 19.625 12.4785C19.6253 13.3979 19.4444 14.3082 19.0927 15.1576C18.741 16.007 18.2254 16.7788 17.5753 17.4288C16.9253 18.0789 16.1535 18.5945 15.3041 18.9462C14.4547 19.2979 13.5443 19.4788 12.625 19.4785ZM15.73 14.2785H17.233C16.8714 15.2065 16.2381 16.0037 15.4159 16.5658C14.5937 17.1278 13.621 17.4285 12.625 17.4285C11.6291 17.4285 10.6563 17.1278 9.83412 16.5658C9.01192 16.0037 8.37858 15.2065 8.017 14.2785H9.52C9.83319 14.8254 10.2853 15.2799 10.8305 15.596C11.3757 15.9121 11.9948 16.0785 12.625 16.0785C13.2552 16.0785 13.8743 15.9121 14.4195 15.596C14.9647 15.2799 15.4168 14.8254 15.73 14.2785ZM8.125 10.2285C8.125 9.96152 8.20418 9.70051 8.35252 9.47851C8.50086 9.2565 8.7117 9.08347 8.95838 8.98129C9.20506 8.87911 9.4765 8.85238 9.73838 8.90447C10.0002 8.95656 10.2408 9.08513 10.4296 9.27393C10.6184 9.46273 10.747 9.70328 10.7991 9.96515C10.8512 10.227 10.8244 10.4985 10.7222 10.7451C10.6201 10.9918 10.447 11.2027 10.225 11.351C10.003 11.4993 9.74201 11.5785 9.475 11.5785C9.11696 11.5785 8.77358 11.4363 8.52041 11.1831C8.26724 10.9299 8.125 10.5866 8.125 10.2285ZM14.425 10.2285C14.425 9.96152 14.5042 9.70051 14.6525 9.47851C14.8009 9.2565 15.0117 9.08347 15.2584 8.98129C15.5051 8.87911 15.7765 8.85238 16.0384 8.90447C16.3003 8.95656 16.5408 9.08513 16.7296 9.27393C16.9184 9.46273 17.047 9.70328 17.0991 9.96515C17.1512 10.227 17.1244 10.4985 17.0222 10.7451C16.9201 10.9918 16.747 11.2027 16.525 11.351C16.303 11.4993 16.042 11.5785 15.775 11.5785C15.417 11.5785 15.0736 11.4363 14.8204 11.1831C14.5672 10.9299 14.425 10.5866 14.425 10.2285Z" fill="#848589"/>
</svg>
