<svg width="25" height="25" viewBox="0 0 25 25" fill="none" xmlns="http://www.w3.org/2000/svg">
<path d="M19.625 20.4785V22.4785H5.625V20.4785H19.625ZM16.625 13.6935C16.5921 14.3535 16.3961 14.995 16.0547 15.5608C15.7133 16.1266 15.2371 16.599 14.6685 16.9358C14.1 17.2725 13.4568 17.4632 12.7966 17.4907C12.1364 17.5183 11.4796 17.3818 10.885 17.0935C10.1996 16.797 9.61841 16.3026 9.21577 15.6737C8.81313 15.0448 8.60742 14.3101 8.625 13.5635V5.48352H6.625V13.6935C6.65883 14.6349 6.91385 15.5551 7.36942 16.3797C7.82498 17.2042 8.46829 17.9099 9.24727 18.4396C10.0262 18.9693 10.919 19.3081 11.8533 19.4287C12.7875 19.5493 13.7371 19.4481 14.625 19.1335C15.8061 18.7398 16.8309 17.9797 17.5502 16.9635C18.2696 15.9474 18.6461 14.7283 18.625 13.4835V5.48352H16.625V13.6935ZM16.625 5.47852H18.625H16.625ZM8.625 5.47852H6.625H8.625Z" fill="#848589"/>
</svg>
