<svg width="31" height="31" viewBox="0 0 31 31" fill="none" xmlns="http://www.w3.org/2000/svg">
<path d="M10.506 9.77592C11.4749 6.01179 14.8918 3.23047 18.9584 3.23047C23.7783 3.23047 27.6856 7.1378 27.6856 11.9577C27.6856 15.8005 25.202 19.0632 21.7524 20.2282M10.506 21.6376H12.4109M12.4109 21.6376H14.1836M12.4109 21.6376V14.683C12.4109 14.683 11.0811 15.5972 10.229 16.183M21.1381 18.5032C21.1381 23.3231 17.2308 27.2305 12.4109 27.2305C7.59093 27.2305 3.68359 23.3231 3.68359 18.5032C3.68359 13.6833 7.59093 9.77592 12.4109 9.77592C17.2308 9.77592 21.1381 13.6833 21.1381 18.5032Z" stroke="black" stroke-width="2.56299" stroke-linecap="round" stroke-linejoin="round"/>
</svg>
