<svg width="21" height="21" viewBox="0 0 21 21" fill="none" xmlns="http://www.w3.org/2000/svg">
    <path d="M2.958 16.194a.83.83 0 0 0 1.174 1.175l-1.174-1.175zm4.337-3.163.587-.587a.83.83 0 0 0-1.174 0l.587.587zm1.875 1.875-.587.588a.83.83 0 0 0 1.174 0l-.587-.588zm4.219-4.219.587-.587a.83.83 0 0 0-1.175 0l.588.588zm3.162 4.338a.83.83 0 0 0 1.175-1.175l-1.175 1.175zM4.132 17.369l3.75-3.75-1.174-1.175-3.75 3.75 1.174 1.175zm2.576-3.75 1.875 1.875 1.174-1.175-1.875-1.875-1.174 1.175zm3.05 1.875 4.218-4.22-1.175-1.174-4.218 4.219 1.174 1.175zm3.043-4.22 3.75 3.75 1.175-1.174-3.75-3.75-1.175 1.175zM5.42 4.019h9.375V2.357H5.42v1.661zM16.777 6v9.375h1.661V6h-1.661zm-1.982 11.357H5.42v1.661h9.375v-1.661zM3.438 15.375V6H1.777v9.375h1.661zm1.982 1.982a1.982 1.982 0 0 1-1.982-1.982H1.777a3.643 3.643 0 0 0 3.643 3.643v-1.661zm11.357-1.982a1.982 1.982 0 0 1-1.982 1.982v1.661a3.643 3.643 0 0 0 3.643-3.643h-1.661zM14.795 4.018c1.094 0 1.982.888 1.982 1.982h1.661a3.643 3.643 0 0 0-3.643-3.643v1.661zM5.42 2.357A3.643 3.643 0 0 0 1.777 6h1.661c0-1.095.887-1.982 1.982-1.982V2.357zm1.982 5.05a.576.576 0 0 1-.576.575v1.661a2.237 2.237 0 0 0 2.237-2.237H7.402zm-.576.575a.576.576 0 0 1-.575-.576H4.589a2.237 2.237 0 0 0 2.237 2.237V7.982zm-.575-.576c0-.318.257-.575.575-.575V5.169A2.237 2.237 0 0 0 4.59 7.406h1.662zm.575-.575c.318 0 .576.257.576.575h1.661A2.237 2.237 0 0 0 6.826 5.17v1.662z" fill="#18181D" opacity=".6"/>
</svg>
