<svg width="39" height="39" viewBox="0 0 39 39" fill="none" xmlns="http://www.w3.org/2000/svg">
<path d="M2.61948 34.2348C2.61939 35.0749 3.30035 35.756 4.14045 35.7561C4.98056 35.7562 5.66167 35.0752 5.66177 34.2351L2.61948 34.2348ZM4.14127 28.5343L5.66241 28.5345L4.14127 28.5343ZM20.2906 24.3561C21.1307 24.3561 21.8118 23.6751 21.8118 22.835C21.8118 21.9949 21.1307 21.3138 20.2906 21.3138V24.3561ZM34.5406 26.2561C35.3807 26.2561 36.0618 25.5751 36.0618 24.735C36.0618 23.8949 35.3807 23.2138 34.5406 23.2138V26.2561ZM25.9906 23.2138C25.1505 23.2138 24.4695 23.8949 24.4695 24.735C24.4695 25.5751 25.1505 26.2561 25.9906 26.2561V23.2138ZM28.7445 29.0097C28.7445 29.8498 29.4255 30.5309 30.2656 30.5309C31.1057 30.5309 31.7868 29.8498 31.7868 29.0097H28.7445ZM31.7868 20.4597C31.7868 19.6196 31.1057 18.9386 30.2656 18.9386C29.4255 18.9386 28.7445 19.6196 28.7445 20.4597H31.7868ZM21.6195 9.53496C21.6195 11.8429 19.7485 13.7138 17.4406 13.7138V16.7561C21.4287 16.7561 24.6618 13.5231 24.6618 9.53496H21.6195ZM17.4406 13.7138C15.1327 13.7138 13.2618 11.8429 13.2618 9.53496H10.2195C10.2195 13.5231 13.4525 16.7561 17.4406 16.7561V13.7138ZM13.2618 9.53496C13.2618 7.22704 15.1327 5.3561 17.4406 5.3561V2.31382C13.4525 2.31382 10.2195 5.54683 10.2195 9.53496H13.2618ZM17.4406 5.3561C19.7485 5.3561 21.6195 7.22704 21.6195 9.53496H24.6618C24.6618 5.54683 21.4287 2.31382 17.4406 2.31382V5.3561ZM5.66177 34.2351L5.66241 28.5345L2.62012 28.5341L2.61948 34.2348L5.66177 34.2351ZM9.84126 21.3138C5.85345 21.3138 2.62057 24.5463 2.62012 28.5341L5.66241 28.5345C5.66267 26.2268 7.53353 24.3561 9.84126 24.3561V21.3138ZM9.84126 24.3561H20.2906V21.3138H9.84126V24.3561ZM34.5406 23.2138H30.2656V26.2561H34.5406V23.2138ZM30.2656 23.2138H25.9906V26.2561H30.2656V23.2138ZM31.7868 29.0097V24.735H28.7445V29.0097H31.7868ZM31.7868 24.735V20.4597H28.7445V24.735H31.7868Z" fill="#848589"/>
</svg>
