<svg width="21" height="20" viewBox="0 0 21 20" fill="none" xmlns="http://www.w3.org/2000/svg">
<path d="M3.01953 6L18.0195 6M3.01953 14L18.0195 14M10.5195 2L10.5195 18M14.5195 2L14.5195 6M14.5195 14L14.5195 18M6.51953 2L6.51953 6M6.51953 14L6.51953 18M5.51944 2L15.5195 2C17.1764 2 18.5195 3.34315 18.5195 5L18.5195 15C18.5195 16.6569 17.1764 18 15.5195 18L5.51944 18C3.86258 18 2.51944 16.6569 2.51944 15L2.51944 5C2.51944 3.34315 3.86258 2 5.51944 2Z" stroke="white" stroke-width="1.73926" stroke-linecap="round" stroke-linejoin="round"/>
</svg>
