<svg width="21" height="20" viewBox="0 0 21 20" fill="none" xmlns="http://www.w3.org/2000/svg">
<path d="M9.59536 2.64344C9.91282 1.78552 11.1262 1.78552 11.4437 2.64344L13.0238 6.91355C13.1236 7.18328 13.3363 7.39594 13.606 7.49575L17.8761 9.07583C18.734 9.39329 18.734 10.6067 17.8761 10.9242L13.606 12.5043C13.3363 12.6041 13.1236 12.8167 13.0238 13.0864L11.4437 17.3566C11.1262 18.2145 9.91282 18.2145 9.59536 17.3566L8.01528 13.0864C7.91547 12.8167 7.70281 12.6041 7.43308 12.5043L3.16297 10.9242C2.30505 10.6067 2.30505 9.39329 3.16297 9.07583L7.43308 7.49575C7.70281 7.39594 7.91547 7.18328 8.01528 6.91355L9.59536 2.64344Z" stroke="white" stroke-width="1.69987" stroke-linejoin="round"/>
</svg>
