<svg width="39" height="39" viewBox="0 0 39 39" fill="none" xmlns="http://www.w3.org/2000/svg">
<path d="M15.4049 5.36135C16.3823 4.38402 17.7078 3.83496 19.09 3.83496C20.4721 3.83496 21.7977 4.38402 22.775 5.36135C23.7523 6.33869 24.3014 7.66423 24.3014 9.04639V14.285M7.05156 17.7321C7.47246 20.6241 8.9205 23.2678 11.1308 25.1797C13.3411 27.0916 16.1658 28.1438 19.0882 28.1438M19.0882 28.1438C22.0107 28.1438 24.8354 27.0916 27.0457 25.1797C29.2559 23.2678 30.704 20.6241 31.1249 17.7321M19.0882 28.1438V34.235M13.8785 12.385V15.995C13.8785 17.3771 14.4276 18.7027 15.4049 19.68C16.3823 20.6573 17.7078 21.2064 19.09 21.2064C19.9743 21.2064 20.8354 20.9816 21.597 20.5638M6.10156 3.83496L33.6516 31.385" stroke="#848589" stroke-width="3.17106" stroke-linecap="round" stroke-linejoin="round"/>
</svg>
