<svg width="38" height="39" viewBox="0 0 38 39" fill="none" xmlns="http://www.w3.org/2000/svg">
<path fill-rule="evenodd" clip-rule="evenodd" d="M21.6541 6.86925C20.9772 4.09046 17.0228 4.09046 16.3459 6.86925C16.2448 7.28681 16.0466 7.67461 15.7673 8.00109C15.4881 8.32758 15.1357 8.58352 14.7388 8.74809C14.342 8.91266 13.9119 8.98121 13.4835 8.94816C13.0552 8.91511 12.6407 8.7814 12.2738 8.5579C9.82984 7.06875 7.03319 9.86536 8.52236 12.3093C9.48427 13.8875 8.63102 15.9466 6.83546 16.3831C4.05485 17.0582 4.05485 21.0144 6.83546 21.6877C7.25314 21.7889 7.64102 21.9873 7.9675 22.2667C8.29399 22.5462 8.54986 22.8988 8.71428 23.2959C8.87869 23.6929 8.94701 24.1232 8.91366 24.5517C8.88031 24.9801 8.74624 25.3946 8.52236 25.7615C7.03319 28.2054 9.82984 31.002 12.2738 29.5129C12.6406 29.289 13.0552 29.1549 13.4836 29.1216C13.9121 29.0882 14.3424 29.1565 14.7394 29.3209C15.1365 29.4854 15.4891 29.7412 15.7686 30.0677C16.048 30.3942 16.2464 30.7821 16.3476 31.1997C17.0228 33.9803 20.979 33.9803 21.6524 31.1997C21.7539 30.7823 21.9525 30.3947 22.232 30.0684C22.5115 29.7422 22.8641 29.4864 23.261 29.3221C23.658 29.1577 24.0881 29.0893 24.5165 29.1225C24.9448 29.1556 25.3593 29.2894 25.7262 29.5129C28.1702 31.002 30.9668 28.2054 29.4776 25.7615C29.2542 25.3946 29.1204 24.9801 29.0873 24.5517C29.0541 24.1234 29.1225 23.6933 29.2869 23.2964C29.4512 22.8994 29.7069 22.5469 30.0332 22.2673C30.3595 21.9878 30.7471 21.7892 31.1645 21.6877C33.9452 21.0126 33.9452 17.0564 31.1645 16.3831C30.7469 16.2819 30.359 16.0835 30.0325 15.804C29.706 15.5246 29.4501 15.1719 29.2857 14.7749C29.1213 14.3778 29.053 13.9475 29.0863 13.5191C29.1197 13.0906 29.2538 12.6761 29.4776 12.3093C30.9668 9.86536 28.1702 7.06875 25.7262 8.5579C25.3594 8.78178 24.9448 8.91585 24.5164 8.94919C24.0879 8.98254 23.6576 8.91423 23.2606 8.74982C22.8635 8.5854 22.5109 8.32954 22.2314 8.00305C21.952 7.67657 21.7536 7.2887 21.6524 6.87103L21.6541 6.86925Z" stroke="#848589" stroke-width="3.3"/>
<path d="M22.1667 19.0352C22.1667 20.7841 20.7489 22.2018 19 22.2018C17.2511 22.2018 15.8333 20.7841 15.8333 19.0352C15.8333 17.2863 17.2511 15.8685 19 15.8685C20.7489 15.8685 22.1667 17.2863 22.1667 19.0352Z" stroke="#848589" stroke-width="3.3"/>
</svg>
