<svg width="39" height="39" viewBox="0 0 39 39" fill="none" xmlns="http://www.w3.org/2000/svg">
<path d="M7.83203 17.7331C8.25293 20.625 9.70097 23.2688 11.9112 25.1807C14.1215 27.0926 16.9463 28.1447 19.8687 28.1447M19.8687 28.1447C22.7911 28.1447 25.6159 27.0926 27.8261 25.1807C30.0364 23.2688 31.4845 20.625 31.9054 17.7331M19.8687 28.1447V34.2359M19.8704 3.83594C18.4883 3.83594 17.1627 4.385 16.1854 5.36233C15.2081 6.33966 14.659 7.66521 14.659 9.04737V15.9959C14.659 17.3781 15.2081 18.7036 16.1854 19.681C17.1627 20.6583 18.4883 21.2074 19.8704 21.2074C21.2526 21.2074 22.5781 20.6583 23.5555 19.681C24.5328 18.7036 25.0819 17.3781 25.0819 15.9959V9.04737C25.0819 7.66521 24.5328 6.33966 23.5555 5.36233C22.5781 4.385 21.2526 3.83594 19.8704 3.83594Z" stroke="#848589" stroke-width="3.21908" stroke-linecap="round" stroke-linejoin="round"/>
</svg>
