<svg width="18" height="19" viewBox="0 0 18 19" fill="none" xmlns="http://www.w3.org/2000/svg">
<path d="M8.80565 5.48686C8.50658 5.12797 7.9732 5.07948 7.61431 5.37856C7.25542 5.67763 7.20693 6.21101 7.50601 6.5699L8.80565 5.48686ZM10.6418 9.01151L11.2916 9.55303C11.553 9.23934 11.553 8.78368 11.2916 8.46999L10.6418 9.01151ZM7.50601 11.4531C7.20693 11.812 7.25542 12.3454 7.61431 12.6445C7.9732 12.9435 8.50658 12.895 8.80565 12.5362L7.50601 11.4531ZM7.50601 6.5699L9.99195 9.55303L11.2916 8.46999L8.80565 5.48686L7.50601 6.5699ZM9.99195 8.46999L7.50601 11.4531L8.80565 12.5362L11.2916 9.55303L9.99195 8.46999ZM9 3.25701C12.2608 3.25701 14.9041 5.90038 14.9041 9.16113H16.5959C16.5959 4.96604 13.1951 1.56525 9 1.56525V3.25701ZM14.9041 9.16113C14.9041 12.4219 12.2608 15.0653 9 15.0653V16.757C13.1951 16.757 16.5959 13.3562 16.5959 9.16113H14.9041ZM9 15.0653C5.73924 15.0653 3.09588 12.4219 3.09588 9.16113H1.40412C1.40412 13.3562 4.80491 16.757 9 16.757V15.0653ZM3.09588 9.16113C3.09588 5.90038 5.73924 3.25701 9 3.25701V1.56525C4.80491 1.56525 1.40412 4.96604 1.40412 9.16113H3.09588Z" fill="#848589"/>
</svg>
