<svg width="26" height="26" viewBox="0 0 26 26" fill="none" xmlns="http://www.w3.org/2000/svg">
<path d="M20.2926 14.677C21.6321 15.6778 22.8294 18.1978 22.8294 19.7505C22.8294 20.2342 22.4765 20.6263 22.0411 20.6263H21.561M16.4874 10.5746C17.354 10.0733 17.937 9.13634 17.937 8.06324C17.937 6.99013 17.354 6.0532 16.4874 5.55192M3.32343 20.6263H17.2091C17.6445 20.6263 17.9974 20.2342 17.9974 19.7505C17.9974 16.7099 15.4572 14.2451 10.2663 14.2451C5.07538 14.2451 2.53516 16.7099 2.53516 19.7505C2.53516 20.2342 2.88808 20.6263 3.32343 20.6263ZM13.1655 8.06324C13.1655 9.66441 11.8675 10.9624 10.2663 10.9624C8.66512 10.9624 7.36711 9.66441 7.36711 8.06324C7.36711 6.46207 8.66512 5.16406 10.2663 5.16406C11.8675 5.16406 13.1655 6.46207 13.1655 8.06324Z" stroke="white" stroke-width="2.1246" stroke-linecap="round"/>
</svg>
