<svg width="22" height="21" viewBox="0 0 22 21" fill="none" xmlns="http://www.w3.org/2000/svg">
<path d="M21.7344 10.5C21.7344 10.8342 21.6016 11.1547 21.3653 11.391C21.129 11.6272 20.8085 11.76 20.4744 11.76H12.4944V19.74C12.4944 20.0742 12.3616 20.3947 12.1253 20.631C11.889 20.8673 11.5685 21 11.2344 21C10.9002 21 10.5797 20.8673 10.3434 20.631C10.1071 20.3947 9.97437 20.0742 9.97437 19.74V11.76H1.99437C1.6602 11.76 1.33972 11.6272 1.10342 11.391C0.867125 11.1547 0.734375 10.8342 0.734375 10.5C0.734375 10.1658 0.867125 9.84534 1.10342 9.60905C1.33972 9.37275 1.6602 9.24 1.99437 9.24H9.97437V1.26C9.97437 0.925827 10.1071 0.605341 10.3434 0.369045C10.5797 0.13275 10.9002 0 11.2344 0C11.5685 0 11.889 0.13275 12.1253 0.369045C12.3616 0.605341 12.4944 0.925827 12.4944 1.26V9.24H20.4744C20.8085 9.24 21.129 9.37275 21.3653 9.60905C21.6016 9.84534 21.7344 10.1658 21.7344 10.5Z" fill="white"/>
</svg>
