<svg width="25" height="24" viewBox="0 0 25 24" fill="none" xmlns="http://www.w3.org/2000/svg">
<path d="M20.0312 3H17.7812V2.25C17.7812 2.05109 17.7022 1.86032 17.5616 1.71967C17.4209 1.57902 17.2302 1.5 17.0312 1.5C16.8323 1.5 16.6416 1.57902 16.5009 1.71967C16.3603 1.86032 16.2812 2.05109 16.2812 2.25V3H8.78125V2.25C8.78125 2.05109 8.70223 1.86032 8.56158 1.71967C8.42093 1.57902 8.23016 1.5 8.03125 1.5C7.83234 1.5 7.64157 1.57902 7.50092 1.71967C7.36027 1.86032 7.28125 2.05109 7.28125 2.25V3H5.03125C4.63343 3 4.25189 3.15804 3.97059 3.43934C3.68929 3.72064 3.53125 4.10218 3.53125 4.5V19.5C3.53125 19.8978 3.68929 20.2794 3.97059 20.5607C4.25189 20.842 4.63343 21 5.03125 21H20.0312C20.4291 21 20.8106 20.842 21.0919 20.5607C21.3732 20.2794 21.5312 19.8978 21.5312 19.5V4.5C21.5312 4.10218 21.3732 3.72064 21.0919 3.43934C20.8106 3.15804 20.4291 3 20.0312 3ZM7.28125 4.5V5.25C7.28125 5.44891 7.36027 5.63968 7.50092 5.78033C7.64157 5.92098 7.83234 6 8.03125 6C8.23016 6 8.42093 5.92098 8.56158 5.78033C8.70223 5.63968 8.78125 5.44891 8.78125 5.25V4.5H16.2812V5.25C16.2812 5.44891 16.3603 5.63968 16.5009 5.78033C16.6416 5.92098 16.8323 6 17.0312 6C17.2302 6 17.4209 5.92098 17.5616 5.78033C17.7022 5.63968 17.7812 5.44891 17.7812 5.25V4.5H20.0312V7.5H5.03125V4.5H7.28125ZM20.0312 19.5H5.03125V9H20.0312V19.5Z" fill="#016FF2"/>
</svg>
