<svg width="64" height="65" viewBox="0 0 64 65" fill="none" xmlns="http://www.w3.org/2000/svg">
<path d="M57.7238 53.6005C53.9163 47.018 48.0488 42.298 41.2013 40.0605C44.5884 38.0442 47.22 34.9717 48.6919 31.315C50.1638 27.6583 50.3946 23.6196 49.349 19.8189C48.3034 16.0183 46.039 12.666 42.9038 10.2769C39.7685 7.88769 35.9357 6.59375 31.9938 6.59375C28.052 6.59375 24.2192 7.88769 21.0839 10.2769C17.9486 12.666 15.6843 16.0183 14.6387 19.8189C13.5931 23.6196 13.8239 27.6583 15.2958 31.315C16.7677 34.9717 19.3993 38.0442 22.7863 40.0605C15.9388 42.2955 10.0713 47.0155 6.26384 53.6005C6.12421 53.8282 6.0316 54.0816 5.99146 54.3456C5.95133 54.6096 5.96448 54.879 6.03015 55.1379C6.09582 55.3968 6.21268 55.6399 6.37382 55.8529C6.53497 56.0659 6.73714 56.2444 6.9684 56.378C7.19967 56.5116 7.45535 56.5975 7.72036 56.6307C7.98537 56.6638 8.25434 56.6436 8.51139 56.5711C8.76845 56.4987 9.00839 56.3755 9.21706 56.2088C9.42573 56.0421 9.59889 55.8353 9.72634 55.6005C14.4363 47.4605 22.7613 42.6005 31.9938 42.6005C41.2263 42.6005 49.5513 47.4605 54.2613 55.6005C54.3888 55.8353 54.562 56.0421 54.7706 56.2088C54.9793 56.3755 55.2192 56.4987 55.4763 56.5711C55.7333 56.6436 56.0023 56.6638 56.2673 56.6307C56.5323 56.5975 56.788 56.5116 57.0193 56.378C57.2505 56.2444 57.4527 56.0659 57.6139 55.8529C57.775 55.6399 57.8919 55.3968 57.9575 55.1379C58.0232 54.879 58.0364 54.6096 57.9962 54.3456C57.9561 54.0816 57.8635 53.8282 57.7238 53.6005ZM17.9938 24.6005C17.9938 21.8316 18.8149 19.1249 20.3533 16.8226C21.8916 14.5203 24.0781 12.7259 26.6363 11.6662C29.1944 10.6066 32.0094 10.3294 34.7251 10.8696C37.4408 11.4097 39.9354 12.7431 41.8933 14.7011C43.8513 16.659 45.1846 19.1536 45.7248 21.8693C46.265 24.585 45.9878 27.4 44.9282 29.9581C43.8685 32.5163 42.0741 34.7028 39.7718 36.2411C37.4695 37.7795 34.7628 38.6005 31.9938 38.6005C28.282 38.5966 24.7234 37.1203 22.0987 34.4957C19.4741 31.871 17.9978 28.3124 17.9938 24.6005Z" fill="#666666"/>
</svg>
