<svg width="33" height="32" viewBox="0 0 33 32" fill="none" xmlns="http://www.w3.org/2000/svg">
<path d="M28.4599 21.9925C27.7661 20.7975 26.7349 17.4163 26.7349 13C26.7349 10.3478 25.6813 7.8043 23.8059 5.92893C21.9306 4.05357 19.387 3 16.7349 3C14.0827 3 11.5392 4.05357 9.66381 5.92893C7.78845 7.8043 6.73488 10.3478 6.73488 13C6.73488 17.4175 5.70238 20.7975 5.00863 21.9925C4.83147 22.2963 4.73755 22.6415 4.73634 22.9931C4.73513 23.3448 4.82668 23.6906 5.00175 23.9956C5.17682 24.3006 5.42923 24.5541 5.73351 24.7304C6.03779 24.9068 6.38319 24.9997 6.73488 25H11.8361C12.0668 26.1289 12.6804 27.1436 13.573 27.8722C14.4657 28.6009 15.5826 28.9989 16.7349 28.9989C17.8872 28.9989 19.0041 28.6009 19.8967 27.8722C20.7893 27.1436 21.4029 26.1289 21.6336 25H26.7349C27.0865 24.9995 27.4317 24.9064 27.7358 24.73C28.0399 24.5535 28.2921 24.3 28.4671 23.9951C28.642 23.6901 28.7334 23.3444 28.7322 22.9928C28.7309 22.6412 28.637 22.2962 28.4599 21.9925ZM16.7349 27C16.1147 26.9998 15.5097 26.8074 15.0034 26.4492C14.497 26.0911 14.1141 25.5848 13.9074 25H19.5624C19.3556 25.5848 18.9727 26.0911 18.4664 26.4492C17.96 26.8074 17.3551 26.9998 16.7349 27ZM6.73488 23C7.69738 21.345 8.73488 17.51 8.73488 13C8.73488 10.8783 9.57773 8.84344 11.078 7.34315C12.5783 5.84285 14.6131 5 16.7349 5C18.8566 5 20.8914 5.84285 22.3917 7.34315C23.892 8.84344 24.7349 10.8783 24.7349 13C24.7349 17.5062 25.7699 21.3412 26.7349 23H6.73488Z" fill="#111111"/>
</svg>
