<svg width="14" height="14" viewBox="0 0 14 14" fill="none" xmlns="http://www.w3.org/2000/svg">
<path d="M11.4035 6.59145C11.3425 6.65264 11.2701 6.70118 11.1903 6.7343C11.1105 6.76742 11.025 6.78447 10.9386 6.78447C10.8523 6.78447 10.7667 6.76742 10.687 6.7343C10.6072 6.70118 10.5348 6.65264 10.4738 6.59145L7.65794 3.7756V11.8147C7.65794 11.9887 7.5888 12.1556 7.46572 12.2787C7.34265 12.4018 7.17573 12.4709 7.00169 12.4709C6.82764 12.4709 6.66072 12.4018 6.53765 12.2787C6.41458 12.1556 6.34544 11.9887 6.34544 11.8147V3.7756L3.52848 6.59145C3.4052 6.71474 3.23799 6.784 3.06364 6.784C2.88929 6.784 2.72208 6.71474 2.59879 6.59145C2.47551 6.46817 2.40625 6.30096 2.40625 6.12661C2.40625 5.95226 2.47551 5.78505 2.59879 5.66177L6.53629 1.72427C6.59726 1.66309 6.66971 1.61454 6.74948 1.58142C6.82925 1.5483 6.91477 1.53125 7.00114 1.53125C7.08751 1.53125 7.17303 1.5483 7.2528 1.58142C7.33257 1.61454 7.40501 1.66309 7.46598 1.72427L11.4035 5.66177C11.4647 5.72274 11.5132 5.79518 11.5463 5.87495C11.5795 5.95472 11.5965 6.04024 11.5965 6.12661C11.5965 6.21298 11.5795 6.29851 11.5463 6.37827C11.5132 6.45804 11.4647 6.53049 11.4035 6.59145Z" fill="#1869C0"/>
</svg>
