<svg width="21" height="20" viewBox="0 0 21 20" fill="none" xmlns="http://www.w3.org/2000/svg">
<path d="M19.7938 4.37422V8.12422C19.7938 8.37287 19.695 8.61132 19.5192 8.78714C19.3434 8.96295 19.1049 9.06172 18.8563 9.06172H15.1063C14.8577 9.06172 14.6192 8.96295 14.4434 8.78714C14.2676 8.61132 14.1688 8.37287 14.1688 8.12422C14.1688 7.87558 14.2676 7.63713 14.4434 7.46131C14.6192 7.2855 14.8577 7.18672 15.1063 7.18672H16.4422L14.9579 5.82891C14.9477 5.81954 14.9376 5.81016 14.9282 5.80001C14.2399 5.11216 13.3931 4.60401 12.4624 4.32027C11.5316 4.03653 10.5454 3.98589 9.59042 4.17282C8.63548 4.35974 7.74112 4.7785 6.98603 5.39224C6.23094 6.00598 5.63826 6.79589 5.26014 7.69248C4.88201 8.58907 4.73004 9.56484 4.81759 10.534C4.90514 11.5031 5.22953 12.4358 5.76221 13.2501C6.2949 14.0644 7.01955 14.7353 7.87241 15.2038C8.72527 15.6723 9.6802 15.924 10.6532 15.9367H10.7313C12.2469 15.9404 13.7057 15.3607 14.8055 14.318C14.9863 14.1471 15.2275 14.0551 15.4762 14.0621C15.7248 14.0692 15.9605 14.1747 16.1313 14.3555C16.3021 14.5363 16.3942 14.7775 16.3871 15.0261C16.3801 15.2748 16.2746 15.5104 16.0938 15.6813C14.6461 17.0535 12.726 17.8163 10.7313 17.8117H10.6243C9.3454 17.7937 8.09052 17.462 6.9698 16.8457C5.84909 16.2294 4.89682 15.3473 4.19662 14.277C3.49643 13.2067 3.06971 11.9809 2.95394 10.7071C2.83818 9.43338 3.03691 8.1507 3.53267 6.9717C4.02844 5.79269 4.80609 4.75344 5.79733 3.94519C6.78857 3.13694 7.96309 2.58441 9.21776 2.33612C10.4724 2.08783 11.7689 2.15138 12.9932 2.52118C14.2176 2.89098 15.3324 3.55572 16.2399 4.45704L17.9188 5.99297V4.37422C17.9188 4.12558 18.0176 3.88713 18.1934 3.71131C18.3692 3.5355 18.6077 3.43672 18.8563 3.43672C19.1049 3.43672 19.3434 3.5355 19.5192 3.71131C19.695 3.88713 19.7938 4.12558 19.7938 4.37422Z" fill="#676767"/>
</svg>
