<svg width="30" height="30" viewBox="0 0 30 30" fill="none" xmlns="http://www.w3.org/2000/svg">
<path d="M26.2504 8.33203C26.0297 8.44631 25.7727 8.46829 25.5358 8.39313C25.2989 8.31798 25.1015 8.15185 24.9871 7.93125C24.0923 6.16346 22.7378 4.66933 21.066 3.60586C20.9618 3.54014 20.8716 3.45455 20.8005 3.35397C20.7294 3.25339 20.6788 3.13979 20.6516 3.01966C20.6244 2.89952 20.6211 2.7752 20.6419 2.6538C20.6628 2.5324 20.7073 2.41629 20.773 2.31211C20.8388 2.20792 20.9243 2.1177 21.0249 2.04659C21.1255 1.97548 21.2391 1.92488 21.3592 1.89768C21.4794 1.87047 21.6037 1.8672 21.7251 1.88804C21.8465 1.90888 21.9626 1.95343 22.0668 2.01914C24.0152 3.26664 25.5972 5.00925 26.6512 7.06875C26.7654 7.28943 26.7874 7.54646 26.7123 7.78335C26.6371 8.02023 26.471 8.21758 26.2504 8.33203ZM4.18515 8.4375C4.35691 8.43742 4.52534 8.39017 4.67207 8.3009C4.8188 8.21162 4.93818 8.08375 5.01719 7.93125C5.91203 6.16346 7.2665 4.66933 8.93828 3.60586C9.14869 3.47314 9.29777 3.26228 9.35271 3.01966C9.40765 2.77703 9.36396 2.52252 9.23125 2.31211C9.09854 2.10169 8.88767 1.95262 8.64505 1.89768C8.40242 1.84274 8.14791 1.88643 7.9375 2.01914C5.98914 3.26664 4.40708 5.00925 3.35312 7.06875C3.2791 7.21162 3.24311 7.37114 3.24859 7.53196C3.25408 7.69277 3.30086 7.84947 3.38444 7.98697C3.46803 8.12447 3.58559 8.23814 3.72583 8.31704C3.86606 8.39595 4.02425 8.43743 4.18515 8.4375ZM25.9937 20.618C26.1598 20.9028 26.2479 21.2264 26.249 21.5561C26.2501 21.8858 26.1643 22.2099 26.0002 22.4959C25.8361 22.7818 25.5994 23.0194 25.3142 23.1848C25.0289 23.3501 24.7051 23.4373 24.3754 23.4375H19.5941C19.379 24.4971 18.8041 25.4498 17.9669 26.1341C17.1297 26.8184 16.0817 27.1922 15.0004 27.1922C13.9191 27.1922 12.8711 26.8184 12.0339 26.1341C11.1967 25.4498 10.6218 24.4971 10.4066 23.4375H5.62539C5.29588 23.4368 4.97237 23.3494 4.68743 23.1839C4.40249 23.0184 4.16619 22.7808 4.00234 22.4949C3.83849 22.209 3.75287 21.885 3.7541 21.5555C3.75534 21.226 3.84338 20.9026 4.00937 20.618C5.06523 18.7957 5.62539 16.2047 5.62539 13.125C5.62539 10.6386 6.61311 8.25402 8.37126 6.49587C10.1294 4.73772 12.514 3.75 15.0004 3.75C17.4868 3.75 19.8714 4.73772 21.6295 6.49587C23.3877 8.25402 24.3754 10.6386 24.3754 13.125C24.3754 16.2035 24.9355 18.7945 25.9937 20.618ZM17.6512 23.4375H12.3496C12.5438 23.9852 12.903 24.4594 13.3777 24.7947C13.8523 25.13 14.4192 25.31 15.0004 25.31C15.5816 25.31 16.1484 25.13 16.6231 24.7947C17.0978 24.4594 17.4569 23.9852 17.6512 23.4375ZM24.3754 21.5625C23.1285 19.4215 22.5004 16.5832 22.5004 13.125C22.5004 11.1359 21.7102 9.22822 20.3037 7.8217C18.8972 6.41517 16.9895 5.625 15.0004 5.625C13.0113 5.625 11.1036 6.41517 9.69709 7.8217C8.29056 9.22822 7.50039 11.1359 7.50039 13.125C7.50039 16.5844 6.86992 19.4227 5.62539 21.5625H24.3754Z" fill="#333333"/>
</svg>
