<svg width="33" height="32" viewBox="0 0 33 32" fill="none" xmlns="http://www.w3.org/2000/svg">
<path d="M28.4579 21.9925C27.7642 20.7975 26.7329 17.4163 26.7329 13C26.7329 10.3478 25.6794 7.8043 23.804 5.92893C21.9286 4.05357 19.3851 3 16.7329 3C14.0808 3 11.5372 4.05357 9.66186 5.92893C7.78649 7.8043 6.73293 10.3478 6.73293 13C6.73293 17.4175 5.70043 20.7975 5.00668 21.9925C4.82951 22.2963 4.73559 22.6415 4.73439 22.9931C4.73318 23.3448 4.82473 23.6906 4.9998 23.9956C5.17487 24.3006 5.42728 24.5541 5.73156 24.7304C6.03584 24.9068 6.38124 24.9997 6.73293 25H11.8342C12.0649 26.1289 12.6785 27.1436 13.5711 27.8722C14.4637 28.6009 15.5806 28.9989 16.7329 28.9989C17.8852 28.9989 19.0021 28.6009 19.8948 27.8722C20.7874 27.1436 21.401 26.1289 21.6317 25H26.7329C27.0845 24.9995 27.4297 24.9064 27.7339 24.73C28.038 24.5535 28.2902 24.3 28.4651 23.9951C28.64 23.6901 28.7315 23.3444 28.7302 22.9928C28.729 22.6412 28.635 22.2962 28.4579 21.9925ZM16.7329 27C16.1127 26.9998 15.5078 26.8074 15.0014 26.4492C14.4951 26.0911 14.1122 25.5848 13.9054 25H19.5604C19.3537 25.5848 18.9708 26.0911 18.4644 26.4492C17.9581 26.8074 17.3532 26.9998 16.7329 27ZM6.73293 23C7.69543 21.345 8.73293 17.51 8.73293 13C8.73293 10.8783 9.57578 8.84344 11.0761 7.34315C12.5764 5.84285 14.6112 5 16.7329 5C18.8547 5 20.8895 5.84285 22.3898 7.34315C23.8901 8.84344 24.7329 10.8783 24.7329 13C24.7329 17.5063 25.7679 21.3412 26.7329 23H6.73293Z" fill="#111111"/>
<circle cx="25.7344" cy="9" r="4.5" fill="#FF5353" stroke="white"/>
</svg>
