<svg width="25" height="25" viewBox="0 0 25 25" fill="none" xmlns="http://www.w3.org/2000/svg">
<path d="M21.5 5.01953H15.5C14.9178 5.01953 14.3437 5.15508 13.8229 5.41543C13.3022 5.67578 12.8493 6.0538 12.5 6.51953C12.1507 6.0538 11.6978 5.67578 11.1771 5.41543C10.6563 5.15508 10.0822 5.01953 9.5 5.01953H3.5C3.10218 5.01953 2.72064 5.17757 2.43934 5.45887C2.15804 5.74018 2 6.12171 2 6.51953V18.5195C2 18.9174 2.15804 19.2989 2.43934 19.5802C2.72064 19.8615 3.10218 20.0195 3.5 20.0195H9.5C10.0967 20.0195 10.669 20.2566 11.091 20.6785C11.5129 21.1005 11.75 21.6728 11.75 22.2695C11.75 22.4684 11.829 22.6592 11.9697 22.7999C12.1103 22.9405 12.3011 23.0195 12.5 23.0195C12.6989 23.0195 12.8897 22.9405 13.0303 22.7999C13.171 22.6592 13.25 22.4684 13.25 22.2695C13.25 21.6728 13.4871 21.1005 13.909 20.6785C14.331 20.2566 14.9033 20.0195 15.5 20.0195H21.5C21.8978 20.0195 22.2794 19.8615 22.5607 19.5802C22.842 19.2989 23 18.9174 23 18.5195V6.51953C23 6.12171 22.842 5.74018 22.5607 5.45887C22.2794 5.17757 21.8978 5.01953 21.5 5.01953ZM9.5 18.5195H3.5V6.51953H9.5C10.0967 6.51953 10.669 6.75658 11.091 7.17854C11.5129 7.6005 11.75 8.17279 11.75 8.76953V19.2695C11.1015 18.7815 10.3116 18.5182 9.5 18.5195ZM21.5 18.5195H15.5C14.6884 18.5182 13.8985 18.7815 13.25 19.2695V8.76953C13.25 8.17279 13.4871 7.6005 13.909 7.17854C14.331 6.75658 14.9033 6.51953 15.5 6.51953H21.5V18.5195ZM15.5 8.76953H19.25C19.4489 8.76953 19.6397 8.84855 19.7803 8.9892C19.921 9.12985 20 9.32062 20 9.51953C20 9.71844 19.921 9.90921 19.7803 10.0499C19.6397 10.1905 19.4489 10.2695 19.25 10.2695H15.5C15.3011 10.2695 15.1103 10.1905 14.9697 10.0499C14.829 9.90921 14.75 9.71844 14.75 9.51953C14.75 9.32062 14.829 9.12985 14.9697 8.9892C15.1103 8.84855 15.3011 8.76953 15.5 8.76953ZM20 12.5195C20 12.7184 19.921 12.9092 19.7803 13.0499C19.6397 13.1905 19.4489 13.2695 19.25 13.2695H15.5C15.3011 13.2695 15.1103 13.1905 14.9697 13.0499C14.829 12.9092 14.75 12.7184 14.75 12.5195C14.75 12.3206 14.829 12.1299 14.9697 11.9892C15.1103 11.8485 15.3011 11.7695 15.5 11.7695H19.25C19.4489 11.7695 19.6397 11.8485 19.7803 11.9892C19.921 12.1299 20 12.3206 20 12.5195ZM20 15.5195C20 15.7184 19.921 15.9092 19.7803 16.0499C19.6397 16.1905 19.4489 16.2695 19.25 16.2695H15.5C15.3011 16.2695 15.1103 16.1905 14.9697 16.0499C14.829 15.9092 14.75 15.7184 14.75 15.5195C14.75 15.3206 14.829 15.1299 14.9697 14.9892C15.1103 14.8485 15.3011 14.7695 15.5 14.7695H19.25C19.4489 14.7695 19.6397 14.8485 19.7803 14.9892C19.921 15.1299 20 15.3206 20 15.5195Z" fill="#111111"/>
</svg>
