<svg width="24" height="24" viewBox="0 0 24 24" fill="none" xmlns="http://www.w3.org/2000/svg">
<path d="M17.1875 3V3.0625H17.25H19.5C19.8812 3.0625 20.2469 3.21395 20.5165 3.48353C20.786 3.75312 20.9375 4.11875 20.9375 4.5V19.5C20.9375 19.8812 20.786 20.2469 20.5165 20.5165C20.2469 20.786 19.8812 20.9375 19.5 20.9375H4.5C4.11875 20.9375 3.75312 20.786 3.48353 20.5165C3.21395 20.2469 3.0625 19.8812 3.0625 19.5V4.5C3.0625 4.11875 3.21395 3.75312 3.48353 3.48353C3.75312 3.21395 4.11875 3.0625 4.5 3.0625H6.75H6.8125V3V2.25C6.8125 2.06766 6.88493 1.8928 7.01386 1.76386C7.1428 1.63493 7.31766 1.5625 7.5 1.5625C7.68234 1.5625 7.8572 1.63493 7.98614 1.76386C8.11507 1.8928 8.1875 2.06766 8.1875 2.25V3V3.0625H8.25H15.75H15.8125V3V2.25C15.8125 2.06766 15.8849 1.8928 16.0139 1.76386C16.1428 1.63493 16.3177 1.5625 16.5 1.5625C16.6823 1.5625 16.8572 1.63493 16.9861 1.76386C17.1151 1.8928 17.1875 2.06766 17.1875 2.25V3ZM6.8125 4.5V4.4375H6.75H4.5H4.4375V4.5V7.5V7.5625H4.5H19.5H19.5625V7.5V4.5V4.4375H19.5H17.25H17.1875V4.5V5.25C17.1875 5.43234 17.1151 5.6072 16.9861 5.73614C16.8572 5.86507 16.6823 5.9375 16.5 5.9375C16.3177 5.9375 16.1428 5.86507 16.0139 5.73614C15.8849 5.6072 15.8125 5.43234 15.8125 5.25V4.5V4.4375H15.75H8.25H8.1875V4.5V5.25C8.1875 5.43234 8.11507 5.6072 7.98614 5.73614C7.8572 5.86507 7.68234 5.9375 7.5 5.9375C7.31766 5.9375 7.1428 5.86507 7.01386 5.73614C6.88493 5.6072 6.8125 5.43234 6.8125 5.25V4.5ZM19.5 19.5625H19.5625V19.5V9V8.9375H19.5H4.5H4.4375V9V19.5V19.5625H4.5H19.5Z" fill="#A7A7A7" stroke="#A7A7A7" stroke-width="0.125"/>
</svg>
