<svg width="18" height="19" viewBox="0 0 18 19" fill="none" xmlns="http://www.w3.org/2000/svg">
<path d="M10.1577 10.3413L4.53271 15.9663C4.45423 16.0448 4.36105 16.107 4.25851 16.1495C4.15596 16.192 4.04605 16.2139 3.93506 16.2139C3.82406 16.2139 3.71415 16.192 3.61161 16.1495C3.50906 16.107 3.41589 16.0448 3.3374 15.9663C3.25892 15.8878 3.19666 15.7946 3.15418 15.6921C3.11171 15.5896 3.08984 15.4796 3.08984 15.3687C3.08984 15.2577 3.11171 15.1477 3.15418 15.0452C3.19666 14.9427 3.25892 14.8495 3.3374 14.771L8.36545 9.74435L3.33881 4.71631C3.1803 4.5578 3.09125 4.34282 3.09125 4.11865C3.09125 3.89449 3.1803 3.6795 3.33881 3.52099C3.49732 3.36249 3.7123 3.27344 3.93646 3.27344C4.16063 3.27344 4.37561 3.36249 4.53412 3.52099L10.1591 9.14599C10.2377 9.22447 10.3 9.31769 10.3425 9.4203C10.3849 9.52291 10.4067 9.63289 10.4066 9.74394C10.4065 9.85499 10.3844 9.96492 10.3417 10.0674C10.299 10.1699 10.2365 10.263 10.1577 10.3413ZM15.7827 9.14599L10.1577 3.52099C10.0792 3.44251 9.98605 3.38025 9.88351 3.33778C9.78096 3.2953 9.67105 3.27344 9.56006 3.27344C9.44906 3.27344 9.33915 3.2953 9.23661 3.33778C9.13406 3.38025 9.04089 3.44251 8.9624 3.52099C8.88392 3.59948 8.82166 3.69266 8.77918 3.7952C8.73671 3.89775 8.71484 4.00766 8.71484 4.11865C8.71484 4.22965 8.73671 4.33955 8.77918 4.4421C8.82166 4.54465 8.88392 4.63782 8.9624 4.71631L13.9904 9.74435L8.9617 14.7724C8.80319 14.9309 8.71414 15.1459 8.71414 15.3701C8.71414 15.5942 8.80319 15.8092 8.9617 15.9677C9.12021 16.1262 9.33519 16.2153 9.55935 16.2153C9.78352 16.2153 9.9985 16.1262 10.157 15.9677L15.782 10.3427C15.8607 10.2644 15.9232 10.1713 15.9658 10.0687C16.0085 9.9662 16.0305 9.85625 16.0305 9.7452C16.0306 9.63415 16.0087 9.52418 15.9662 9.4216C15.9237 9.31902 15.8613 9.22583 15.7827 9.1474V9.14599Z" fill="white"/>
</svg>
