<svg width="18" height="19" viewBox="0 0 18 19" fill="none" xmlns="http://www.w3.org/2000/svg">
<path d="M14.567 15.1056L14.567 15.1057C14.6332 15.1718 14.6857 15.2504 14.7215 15.3369C14.7573 15.4234 14.7758 15.5161 14.7758 15.6097C14.7758 15.7033 14.7573 15.796 14.7215 15.8825C14.6857 15.969 14.6332 16.0475 14.567 16.1137C14.5008 16.1799 14.4222 16.2324 14.3357 16.2682C14.2492 16.3041 14.1565 16.3225 14.0629 16.3225C13.9693 16.3225 13.8766 16.3041 13.7902 16.2682C13.7037 16.2324 13.6251 16.1799 13.5589 16.1137L7.93397 10.4888L7.93391 10.4887L8.03997 10.3827C7.98767 10.3304 7.94618 10.2684 7.91788 10.2001C7.88957 10.1318 7.875 10.0586 7.875 9.98469C7.875 9.91077 7.88957 9.83757 7.91788 9.76928C7.94618 9.701 7.98767 9.63896 8.03997 9.58672L14.567 15.1056ZM14.567 15.1056L9.44532 9.98469L14.567 4.86373L14.567 4.86372C14.7007 4.73004 14.7758 4.54874 14.7758 4.35969C14.7758 4.17064 14.7007 3.98933 14.567 3.85565C14.4333 3.72197 14.252 3.64687 14.0629 3.64687C13.8739 3.64687 13.6926 3.72197 13.5589 3.85565L7.93397 9.48059L14.567 15.1056ZM3.82032 9.98469L8.94197 4.86373L8.94198 4.86372C9.07565 4.73004 9.15075 4.54874 9.15075 4.35969C9.15075 4.17064 9.07565 3.98933 8.94198 3.85565C8.8083 3.72197 8.62699 3.64687 8.43794 3.64687C8.24889 3.64687 8.06759 3.72197 7.93391 3.85565L2.30897 9.48059C2.24272 9.54677 2.19017 9.62535 2.15431 9.71184C2.11846 9.79834 2.1 9.89105 2.1 9.98469C2.1 10.0783 2.11846 10.171 2.15431 10.2575C2.19017 10.344 2.24272 10.4226 2.30897 10.4888L7.93391 16.1137C8.0001 16.1799 8.07868 16.2324 8.16516 16.2682C8.25164 16.3041 8.34433 16.3225 8.43794 16.3225C8.53155 16.3225 8.62424 16.3041 8.71072 16.2682C8.79721 16.2324 8.87579 16.1799 8.94198 16.1137C9.00817 16.0475 9.06067 15.969 9.0965 15.8825C9.13232 15.796 9.15075 15.7033 9.15075 15.6097C9.15075 15.5161 9.13232 15.4234 9.0965 15.3369C9.06067 15.2504 9.00817 15.1718 8.94198 15.1057L8.94197 15.1056L3.82032 9.98469Z" fill="#626262" stroke="#626262" stroke-width="0.3"/>
</svg>
