<svg width="14" height="15" viewBox="0 0 14 15" fill="none" xmlns="http://www.w3.org/2000/svg">
<path d="M11.841 6.23215L7.46598 10.6072C7.40501 10.6683 7.33257 10.7169 7.2528 10.75C7.17303 10.7831 7.08751 10.8002 7.00114 10.8002C6.91477 10.8002 6.82924 10.7831 6.74948 10.75C6.66971 10.7169 6.59726 10.6683 6.53629 10.6072L2.16129 6.23215C2.03801 6.10887 1.96875 5.94166 1.96875 5.76731C1.96875 5.59296 2.03801 5.42575 2.16129 5.30247C2.28458 5.17918 2.45179 5.10992 2.62614 5.10992C2.80049 5.10992 2.9677 5.17918 3.09098 5.30247L7.00169 9.21317L10.9124 5.30192C11.0357 5.17864 11.2029 5.10938 11.3772 5.10938C11.5516 5.10938 11.7188 5.17864 11.8421 5.30192C11.9654 5.4252 12.0346 5.59241 12.0346 5.76676C12.0346 5.94111 11.9654 6.10832 11.8421 6.23161L11.841 6.23215Z" fill="#666666"/>
</svg>
