<svg width="20" height="21" viewBox="0 0 20 21" fill="none" xmlns="http://www.w3.org/2000/svg">
<path d="M16.875 3.14453H3.125C2.79348 3.14453 2.47554 3.27623 2.24112 3.51065C2.0067 3.74507 1.875 4.06301 1.875 4.39453V15.6445C1.875 15.9761 2.0067 16.294 2.24112 16.5284C2.47554 16.7628 2.79348 16.8945 3.125 16.8945H4.17188C4.29022 16.8949 4.40617 16.8612 4.5059 16.7974C4.60563 16.7337 4.68494 16.6427 4.73438 16.5352C5.04018 15.8952 5.52087 15.3548 6.12088 14.9765C6.72088 14.5982 7.4157 14.3975 8.125 14.3975C8.8343 14.3975 9.52912 14.5982 10.1291 14.9765C10.7291 15.3548 11.2098 15.8952 11.5156 16.5352C11.5651 16.6427 11.6444 16.7337 11.7441 16.7974C11.8438 16.8612 11.9598 16.8949 12.0781 16.8945H16.875C17.2065 16.8945 17.5245 16.7628 17.7589 16.5284C17.9933 16.294 18.125 15.9761 18.125 15.6445V4.39453C18.125 4.06301 17.9933 3.74507 17.7589 3.51065C17.5245 3.27623 17.2065 3.14453 16.875 3.14453ZM8.125 13.1445C7.63055 13.1445 7.1472 12.9979 6.73607 12.7232C6.32495 12.4485 6.00452 12.0581 5.8153 11.6012C5.62608 11.1444 5.57657 10.6418 5.67304 10.1568C5.7695 9.67185 6.0076 9.2264 6.35723 8.87676C6.70686 8.52713 7.15232 8.28903 7.63727 8.19257C8.12223 8.0961 8.62489 8.14561 9.08171 8.33483C9.53852 8.52405 9.92897 8.84448 10.2037 9.25561C10.4784 9.66673 10.625 10.1501 10.625 10.6445C10.6229 11.3069 10.3589 11.9416 9.89049 12.41C9.4221 12.8784 8.78741 13.1425 8.125 13.1445ZM16.875 15.6445H12.4531C12.1823 15.1749 11.8366 14.7527 11.4297 14.3945H15C15.1658 14.3945 15.3247 14.3287 15.4419 14.2115C15.5592 14.0943 15.625 13.9353 15.625 13.7695V6.26953C15.625 6.10377 15.5592 5.9448 15.4419 5.82759C15.3247 5.71038 15.1658 5.64453 15 5.64453H5C4.83424 5.64453 4.67527 5.71038 4.55806 5.82759C4.44085 5.9448 4.375 6.10377 4.375 6.26953V13.7695C4.37579 13.9075 4.4222 14.0413 4.50699 14.1501C4.59178 14.2589 4.71018 14.3366 4.84375 14.3711C4.42694 14.7349 4.07321 15.1652 3.79687 15.6445H3.125V4.39453H16.875V15.6445Z" fill="white"/>
</svg>
