<svg width="33" height="32" viewBox="0 0 33 32" fill="none" xmlns="http://www.w3.org/2000/svg">
<path d="M27.7344 5H5.73438C5.20394 5 4.69523 5.21071 4.32016 5.58579C3.94509 5.96086 3.73438 6.46957 3.73438 7V25C3.73438 25.5304 3.94509 26.0391 4.32016 26.4142C4.69523 26.7893 5.20394 27 5.73438 27H7.40812C7.59738 27.0001 7.78277 26.9464 7.94275 26.8453C8.10273 26.7442 8.23073 26.5997 8.31187 26.4287C8.79815 25.4021 9.56589 24.5346 10.5258 23.9271C11.4857 23.3196 12.5984 22.9971 13.7344 22.9971C14.8704 22.9971 15.983 23.3196 16.9429 23.9271C17.9029 24.5346 18.6706 25.4021 19.1569 26.4287C19.238 26.5997 19.366 26.7442 19.526 26.8453C19.686 26.9464 19.8714 27.0001 20.0606 27H27.7344C28.2648 27 28.7735 26.7893 29.1486 26.4142C29.5237 26.0391 29.7344 25.5304 29.7344 25V7C29.7344 6.46957 29.5237 5.96086 29.1486 5.58579C28.7735 5.21071 28.2648 5 27.7344 5ZM10.7344 18C10.7344 17.4067 10.9103 16.8266 11.24 16.3333C11.5696 15.8399 12.0381 15.4554 12.5863 15.2284C13.1345 15.0013 13.7377 14.9419 14.3196 15.0576C14.9016 15.1734 15.4361 15.4591 15.8557 15.8787C16.2753 16.2982 16.561 16.8328 16.6767 17.4147C16.7925 17.9967 16.7331 18.5999 16.506 19.1481C16.279 19.6962 15.8944 20.1648 15.4011 20.4944C14.9077 20.8241 14.3277 21 13.7344 21C12.9387 21 12.1757 20.6839 11.6131 20.1213C11.0504 19.5587 10.7344 18.7956 10.7344 18ZM27.7344 25H20.6631C19.828 23.5643 18.5692 22.4221 17.0594 21.73C17.8164 21.056 18.3506 20.1678 18.5913 19.1832C18.832 18.1986 18.7678 17.1642 18.4072 16.2169C18.0466 15.2696 17.4066 14.4543 16.5721 13.8791C15.7376 13.3038 14.748 12.9958 13.7344 12.9958C12.7208 12.9958 11.7312 13.3038 10.8966 13.8791C10.0621 14.4543 9.42213 15.2696 9.06152 16.2169C8.70091 17.1642 8.63671 18.1986 8.87742 19.1832C9.11813 20.1678 9.65239 21.056 10.4094 21.73C8.8995 22.4221 7.64071 23.5643 6.80562 25H5.73438V7H27.7344V25ZM7.73438 12V10C7.73438 9.73478 7.83973 9.48043 8.02727 9.29289C8.2148 9.10536 8.46916 9 8.73438 9H24.7344C24.9996 9 25.2539 9.10536 25.4415 9.29289C25.629 9.48043 25.7344 9.73478 25.7344 10V22C25.7344 22.2652 25.629 22.5196 25.4415 22.7071C25.2539 22.8946 24.9996 23 24.7344 23H22.7344C22.4692 23 22.2148 22.8946 22.0273 22.7071C21.8397 22.5196 21.7344 22.2652 21.7344 22C21.7344 21.7348 21.8397 21.4804 22.0273 21.2929C22.2148 21.1054 22.4692 21 22.7344 21H23.7344V11H9.73438V12C9.73438 12.2652 9.62902 12.5196 9.44148 12.7071C9.25395 12.8946 8.99959 13 8.73438 13C8.46916 13 8.2148 12.8946 8.02727 12.7071C7.83973 12.5196 7.73438 12.2652 7.73438 12Z" fill="#111111"/>
</svg>
