<svg width="33" height="32" viewBox="0 0 33 32" xmlns="http://www.w3.org/2000/svg">
<path d="M3.73438 21V7C3.73438 6.46957 3.94509 5.96086 4.32016 5.58579C4.69523 5.21071 5.20394 5 5.73438 5H27.7344C28.2648 5 28.7735 5.21071 29.1486 5.58579C29.5237 5.96086 29.7344 6.46957 29.7344 7V21C29.7344 21.2652 29.629 21.5196 29.4415 21.7071C29.2539 21.8946 28.9996 22 28.7344 22C28.4692 22 28.2148 21.8946 28.0273 21.7071C27.8397 21.5196 27.7344 21.2652 27.7344 21V7H5.73438V21C5.73438 21.2652 5.62902 21.5196 5.44148 21.7071C5.25395 21.8946 4.99959 22 4.73438 22C4.46916 22 4.2148 21.8946 4.02727 21.7071C3.83973 21.5196 3.73438 21.2652 3.73438 21ZM31.7344 25C31.7344 25.2652 31.629 25.5196 31.4415 25.7071C31.2539 25.8946 30.9996 26 30.7344 26H2.73438C2.46916 26 2.2148 25.8946 2.02727 25.7071C1.83973 25.5196 1.73438 25.2652 1.73438 25C1.73438 24.7348 1.83973 24.4804 2.02727 24.2929C2.2148 24.1054 2.46916 24 2.73438 24H14.7344V21C14.7344 20.7348 14.8397 20.4804 15.0273 20.2929C15.2148 20.1054 15.4692 20 15.7344 20H23.7344C23.9996 20 24.2539 20.1054 24.4415 20.2929C24.629 20.4804 24.7344 20.7348 24.7344 21V24H30.7344C30.9996 24 31.2539 24.1054 31.4415 24.2929C31.629 24.4804 31.7344 24.7348 31.7344 25ZM16.7344 24H22.7344V22H16.7344V24Z" fill="#111111"/>
</svg>
