<svg width="33" height="32" viewBox="0 0 33 32" fill="none" xmlns="http://www.w3.org/2000/svg">
<path d="M16.7344 3C14.1632 3 11.6498 3.76244 9.51197 5.1909C7.37413 6.61935 5.70789 8.64968 4.72395 11.0251C3.74001 13.4006 3.48256 16.0144 3.98417 18.5362C4.48578 21.0579 5.72391 23.3743 7.54199 25.1924C9.36008 27.0105 11.6765 28.2486 14.1982 28.7502C16.72 29.2518 19.3338 28.9944 21.7093 28.0104C24.0847 27.0265 26.115 25.3603 27.5435 23.2224C28.9719 21.0846 29.7344 18.5712 29.7344 16C29.7307 12.5533 28.3599 9.24882 25.9227 6.81163C23.4856 4.37445 20.1811 3.00364 16.7344 3ZM25.7181 9.65875L17.7344 14.2675V5.04625C19.3196 5.19159 20.8545 5.67927 22.2329 6.47562C23.6113 7.27197 24.8004 8.35802 25.7181 9.65875ZM15.7344 5.04625V15.4213L6.74813 20.6087C6.01043 19.0098 5.66738 17.2571 5.74782 15.498C5.82826 13.739 6.32983 12.0249 7.21038 10.5C8.09093 8.97501 9.32472 7.68375 10.808 6.73472C12.2913 5.7857 13.9808 5.20665 15.7344 5.04625ZM16.7344 27C14.9734 26.9993 13.2383 26.5758 11.675 25.7651C10.1116 24.9544 8.76582 23.7802 7.75063 22.3412L26.7206 11.39C27.4942 13.0659 27.8336 14.9096 27.7076 16.7512C27.5815 18.5927 26.9941 20.3729 25.9993 21.9278C25.0046 23.4827 23.6346 24.7623 22.0155 25.6487C20.3964 26.5351 18.5802 26.9998 16.7344 27Z" fill="#111111"/>
</svg>
