<svg width="25" height="25" viewBox="0 0 25 25" fill="none" xmlns="http://www.w3.org/2000/svg">
<rect width="25" height="25" fill="#F3F4F7"/>
<path d="M12.5 2.34375C10.4913 2.34375 8.52768 2.9394 6.85749 4.05539C5.18731 5.17137 3.88556 6.75756 3.11685 8.61337C2.34815 10.4692 2.14702 12.5113 2.5389 14.4814C2.93079 16.4515 3.89807 18.2612 5.31845 19.6816C6.73883 21.1019 8.5485 22.0692 10.5186 22.4611C12.4887 22.853 14.5308 22.6519 16.3866 21.8832C18.2424 21.1145 19.8286 19.8127 20.9446 18.1425C22.0606 16.4723 22.6563 14.5087 22.6563 12.5C22.6534 9.80727 21.5825 7.22564 19.6784 5.32159C17.7744 3.41754 15.1927 2.34659 12.5 2.34375ZM16.959 10.709L11.4902 16.1777C11.4177 16.2504 11.3315 16.308 11.2367 16.3473C11.1418 16.3866 11.0402 16.4069 10.9375 16.4069C10.8348 16.4069 10.7332 16.3866 10.6383 16.3473C10.5435 16.308 10.4573 16.2504 10.3848 16.1777L8.04102 13.834C7.89443 13.6874 7.81207 13.4886 7.81207 13.2813C7.81207 13.0739 7.89443 12.8751 8.04102 12.7285C8.18761 12.5819 8.38644 12.4996 8.59375 12.4996C8.80107 12.4996 8.9999 12.5819 9.14649 12.7285L10.9375 14.5205L15.8535 9.60352C15.9261 9.53093 16.0123 9.47335 16.1071 9.43407C16.202 9.39478 16.3036 9.37457 16.4063 9.37457C16.5089 9.37457 16.6106 9.39478 16.7054 9.43407C16.8002 9.47335 16.8864 9.53093 16.959 9.60352C17.0316 9.6761 17.0892 9.76227 17.1284 9.85711C17.1677 9.95195 17.1879 10.0536 17.1879 10.1563C17.1879 10.2589 17.1677 10.3605 17.1284 10.4554C17.0892 10.5502 17.0316 10.6364 16.959 10.709Z" fill="black"/>
</svg>
