<svg width="33" height="33" viewBox="0 0 33 33" fill="none" xmlns="http://www.w3.org/2000/svg">
<path d="M22.2075 12.312C22.3005 12.4049 22.3742 12.5152 22.4246 12.6366C22.4749 12.758 22.5008 12.8881 22.5008 13.0195C22.5008 13.1509 22.4749 13.2811 22.4246 13.4025C22.3742 13.5239 22.3005 13.6342 22.2075 13.727L15.2075 20.727C15.1146 20.82 15.0043 20.8938 14.8829 20.9441C14.7615 20.9944 14.6314 21.0203 14.5 21.0203C14.3686 21.0203 14.2385 20.9944 14.1171 20.9441C13.9957 20.8938 13.8854 20.82 13.7925 20.727L10.7925 17.727C10.6049 17.5394 10.4994 17.2849 10.4994 17.0195C10.4994 16.7542 10.6049 16.4997 10.7925 16.312C10.9801 16.1244 11.2346 16.019 11.5 16.019C11.7654 16.019 12.0199 16.1244 12.2075 16.312L14.5 18.6058L20.7925 12.312C20.8854 12.2191 20.9957 12.1453 21.1171 12.095C21.2385 12.0446 21.3686 12.0187 21.5 12.0187C21.6314 12.0187 21.7615 12.0446 21.8829 12.095C22.0043 12.1453 22.1146 12.2191 22.2075 12.312ZM29.5 16.0195C29.5 18.5907 28.7376 21.1041 27.3091 23.2419C25.8807 25.3798 23.8503 27.046 21.4749 28.03C19.0995 29.0139 16.4856 29.2713 13.9638 28.7697C11.4421 28.2681 9.1257 27.03 7.30762 25.2119C5.48953 23.3938 4.25141 21.0775 3.7498 18.5557C3.24819 16.034 3.50563 13.4201 4.48957 11.0446C5.47351 8.66921 7.13975 6.63888 9.27759 5.21043C11.4154 3.78197 13.9288 3.01953 16.5 3.01953C19.9467 3.02317 23.2512 4.39398 25.6884 6.83116C28.1256 9.26835 29.4964 12.5728 29.5 16.0195ZM27.5 16.0195C27.5 13.8439 26.8549 11.7172 25.6462 9.90826C24.4375 8.09932 22.7195 6.68942 20.7095 5.85686C18.6995 5.02429 16.4878 4.80646 14.354 5.23089C12.2202 5.65533 10.2602 6.70298 8.72183 8.24136C7.18345 9.77973 6.13581 11.7397 5.71137 13.8735C5.28693 16.0073 5.50477 18.2191 6.33733 20.229C7.16989 22.239 8.57979 23.957 10.3887 25.1657C12.1977 26.3744 14.3244 27.0195 16.5 27.0195C19.4164 27.0162 22.2123 25.8562 24.2745 23.7941C26.3367 21.7319 27.4967 18.9359 27.5 16.0195Z" fill="#111111"/>
</svg>
