<svg width="30" height="30" viewBox="0 0 30 30" fill="none" xmlns="http://www.w3.org/2000/svg">
<rect width="30" height="30" rx="15" fill="black"/>
<path d="M20.9454 15.0007C20.9454 15.1973 20.8702 15.3858 20.7365 15.5248C20.6027 15.6638 20.4213 15.7419 20.2322 15.7419H15.7152V20.436C15.7152 20.6326 15.6401 20.8211 15.5063 20.9601C15.3726 21.0991 15.1911 21.1772 15.002 21.1772C14.8128 21.1772 14.6314 21.0991 14.4977 20.9601C14.3639 20.8211 14.2888 20.6326 14.2888 20.436V15.7419H9.7718C9.58265 15.7419 9.40124 15.6638 9.26749 15.5248C9.13374 15.3858 9.05859 15.1973 9.05859 15.0007C9.05859 14.8041 9.13374 14.6156 9.26749 14.4766C9.40124 14.3376 9.58265 14.2595 9.7718 14.2595H14.2888V9.5654C14.2888 9.36882 14.3639 9.1803 14.4977 9.0413C14.6314 8.90231 14.8128 8.82422 15.002 8.82422C15.1911 8.82422 15.3726 8.90231 15.5063 9.0413C15.6401 9.1803 15.7152 9.36882 15.7152 9.5654V14.2595H20.2322C20.4213 14.2595 20.6027 14.3376 20.7365 14.4766C20.8702 14.6156 20.9454 14.8041 20.9454 15.0007Z" fill="white"/>
</svg>
