<svg width="33" height="32" viewBox="0 0 33 32" fill="none" xmlns="http://www.w3.org/2000/svg">
<path d="M28.7344 16C28.7344 16.2652 28.629 16.5196 28.4415 16.7071C28.2539 16.8946 27.9996 17 27.7344 17H5.73438C5.46916 17 5.2148 16.8946 5.02727 16.7071C4.83973 16.5196 4.73438 16.2652 4.73438 16C4.73438 15.7348 4.83973 15.4804 5.02727 15.2929C5.2148 15.1054 5.46916 15 5.73438 15H27.7344C27.9996 15 28.2539 15.1054 28.4415 15.2929C28.629 15.4804 28.7344 15.7348 28.7344 16ZM16.7344 10C17.1299 10 17.5166 9.8827 17.8455 9.66294C18.1744 9.44318 18.4308 9.13082 18.5821 8.76537C18.7335 8.39992 18.7731 7.99778 18.6959 7.60982C18.6188 7.22186 18.4283 6.86549 18.1486 6.58579C17.8689 6.30608 17.5125 6.1156 17.1246 6.03843C16.7366 5.96126 16.3345 6.00087 15.969 6.15224C15.6036 6.30362 15.2912 6.55996 15.0714 6.88886C14.8517 7.21776 14.7344 7.60444 14.7344 8C14.7344 8.53043 14.9451 9.03914 15.3202 9.41421C15.6952 9.78929 16.2039 10 16.7344 10ZM16.7344 22C16.3388 22 15.9521 22.1173 15.6232 22.3371C15.2943 22.5568 15.038 22.8692 14.8866 23.2346C14.7352 23.6001 14.6956 24.0022 14.7728 24.3902C14.85 24.7781 15.0405 25.1345 15.3202 25.4142C15.5999 25.6939 15.9562 25.8844 16.3442 25.9616C16.7322 26.0387 17.1343 25.9991 17.4997 25.8478C17.8652 25.6964 18.1776 25.44 18.3973 25.1111C18.6171 24.7822 18.7344 24.3956 18.7344 24C18.7344 23.4696 18.5237 22.9609 18.1486 22.5858C17.7735 22.2107 17.2648 22 16.7344 22Z" fill="#111111"/>
</svg>
