<svg width="25" height="25" viewBox="0 0 25 25" fill="none" xmlns="http://www.w3.org/2000/svg">
<path d="M23.8416 12.2158C23.8087 12.1417 23.0147 10.3802 21.2494 8.61484C18.8972 6.26266 15.9262 5.01953 12.6562 5.01953C9.38624 5.01953 6.4153 6.26266 4.06312 8.61484C2.2978 10.3802 1.49999 12.1445 1.47093 12.2158C1.42828 12.3117 1.40625 12.4155 1.40625 12.5205C1.40625 12.6254 1.42828 12.7292 1.47093 12.8252C1.50374 12.8992 2.2978 14.6598 4.06312 16.4252C6.4153 18.7764 9.38624 20.0195 12.6562 20.0195C15.9262 20.0195 18.8972 18.7764 21.2494 16.4252C23.0147 14.6598 23.8087 12.8992 23.8416 12.8252C23.8842 12.7292 23.9062 12.6254 23.9062 12.5205C23.9062 12.4155 23.8842 12.3117 23.8416 12.2158ZM12.6562 18.5195C9.77062 18.5195 7.24968 17.4705 5.1628 15.4023C4.30653 14.5508 3.57804 13.5798 2.99999 12.5195C3.57789 11.4592 4.30639 10.4881 5.1628 9.63672C7.24968 7.56859 9.77062 6.51953 12.6562 6.51953C15.5419 6.51953 18.0628 7.56859 20.1497 9.63672C21.0076 10.4879 21.7377 11.459 22.3172 12.5195C21.6412 13.7814 18.6966 18.5195 12.6562 18.5195ZM12.6562 8.01953C11.7662 8.01953 10.8962 8.28345 10.1562 8.77792C9.41615 9.27238 8.83938 9.97519 8.49878 10.7975C8.15819 11.6197 8.06907 12.5245 8.24271 13.3974C8.41634 14.2704 8.84492 15.0722 9.47426 15.7015C10.1036 16.3308 10.9054 16.7594 11.7783 16.9331C12.6512 17.1067 13.556 17.0176 14.3783 16.677C15.2006 16.3364 15.9034 15.7596 16.3979 15.0196C16.8923 14.2796 17.1562 13.4095 17.1562 12.5195C17.155 11.3264 16.6805 10.1826 15.8369 9.33892C14.9932 8.49528 13.8493 8.02077 12.6562 8.01953ZM12.6562 15.5195C12.0629 15.5195 11.4829 15.3436 10.9895 15.0139C10.4962 14.6843 10.1117 14.2158 9.8846 13.6676C9.65754 13.1194 9.59813 12.5162 9.71389 11.9343C9.82964 11.3523 10.1154 10.8178 10.5349 10.3982C10.9545 9.97865 11.489 9.69293 12.071 9.57717C12.6529 9.46142 13.2561 9.52083 13.8043 9.74789C14.3525 9.97495 14.821 10.3595 15.1507 10.8528C15.4803 11.3462 15.6562 11.9262 15.6562 12.5195C15.6562 13.3152 15.3402 14.0782 14.7776 14.6409C14.215 15.2035 13.4519 15.5195 12.6562 15.5195Z" fill="#111111"/>
</svg>
