<svg width="60" height="61" viewBox="0 0 60 61" fill="none" xmlns="http://www.w3.org/2000/svg">
<path d="M12.6453 8.63851C12.4806 8.4529 12.2808 8.30182 12.0573 8.19402C11.8338 8.08622 11.5912 8.02385 11.3434 8.01052C11.0956 7.99719 10.8477 8.03317 10.6139 8.11637C10.3802 8.19957 10.1653 8.32834 9.98164 8.49521C9.79802 8.66209 9.64934 8.86374 9.54423 9.0885C9.43912 9.31326 9.37966 9.55664 9.3693 9.80454C9.35895 10.0524 9.3979 10.2999 9.48389 10.5327C9.56989 10.7654 9.70123 10.9788 9.87029 11.1604L14.3797 16.1221C5.86716 21.3463 2.20623 29.3994 2.04451 29.7651C1.9379 30.0049 1.88281 30.2644 1.88281 30.5268C1.88281 30.7892 1.9379 31.0487 2.04451 31.2885C2.12654 31.4737 4.1117 35.8752 8.52498 40.2885C14.4054 46.1666 21.8328 49.2744 30.0078 49.2744C34.2092 49.2984 38.3682 48.4334 42.2117 46.7362L47.3679 52.4104C47.5326 52.596 47.7325 52.7471 47.9559 52.8549C48.1794 52.9627 48.4221 53.025 48.6698 53.0384C48.9176 53.0517 49.1655 53.0157 49.3993 52.9325C49.6331 52.8493 49.848 52.7206 50.0316 52.5537C50.2152 52.3868 50.3639 52.1852 50.469 51.9604C50.5741 51.7356 50.6336 51.4923 50.6439 51.2444C50.6543 50.9964 50.6153 50.749 50.5293 50.5162C50.4433 50.2835 50.312 50.0701 50.1429 49.8885L12.6453 8.63851ZM23.7383 26.4135L33.5047 37.1596C32.0339 37.9333 30.3479 38.1967 28.7113 37.9083C27.0747 37.6199 25.5802 36.7961 24.4625 35.5663C23.3448 34.3365 22.6672 32.7703 22.5362 31.1137C22.4051 29.4571 22.8279 27.8038 23.7383 26.4135ZM30.0078 45.5244C22.7937 45.5244 16.4914 42.9018 11.2742 37.7315C9.13275 35.6033 7.31143 33.1757 5.86716 30.5244C6.96638 28.4643 10.475 22.6987 16.9648 18.951L21.1836 23.5799C19.5503 25.6717 18.7091 28.2736 18.8087 30.9256C18.9083 33.5777 19.9423 36.1091 21.7279 38.0725C23.5134 40.0359 25.9357 41.3049 28.5664 41.655C31.1971 42.0052 33.8669 41.4141 36.1039 39.9862L39.5562 43.783C36.5093 44.952 33.2712 45.5426 30.0078 45.5244ZM31.414 23.158C30.9255 23.0648 30.4939 22.7813 30.2144 22.3699C29.9348 21.9585 29.8302 21.4529 29.9234 20.9643C30.0167 20.4757 30.3002 20.0442 30.7116 19.7646C31.123 19.4851 31.6286 19.3804 32.1172 19.4737C34.5069 19.937 36.6828 21.1603 38.3203 22.9614C39.9579 24.7624 40.9694 27.0445 41.2039 29.4674C41.2502 29.9625 41.0979 30.4557 40.7806 30.8386C40.4632 31.2214 40.0068 31.4625 39.5117 31.5088C39.4532 31.5123 39.3945 31.5123 39.3359 31.5088C38.8673 31.5108 38.4149 31.3373 38.0678 31.0223C37.7208 30.7074 37.5043 30.2739 37.4609 29.8073C37.3031 28.1957 36.6294 26.6781 35.5399 25.4801C34.4504 24.2821 33.0034 23.4677 31.414 23.158ZM57.964 31.2885C57.8656 31.5088 55.4914 36.7659 50.1453 41.5541C49.9626 41.723 49.7482 41.8537 49.5145 41.9389C49.2808 42.024 49.0324 42.0618 48.784 42.05C48.5355 42.0383 48.2919 41.9772 48.0673 41.8703C47.8427 41.7635 47.6415 41.613 47.4756 41.4277C47.3097 41.2424 47.1824 41.0259 47.101 40.7908C47.0196 40.5558 46.9857 40.3069 47.0014 40.0587C47.0172 39.8104 47.0821 39.5678 47.1925 39.3449C47.3029 39.122 47.4566 38.9233 47.6445 38.7604C50.2673 36.404 52.4705 33.6191 54.1601 30.5244C52.7127 27.8708 50.8874 25.4415 48.7414 23.3127C43.5242 18.1471 37.2219 15.5244 30.0078 15.5244C28.4878 15.5226 26.9702 15.6457 25.4703 15.8924C25.2264 15.9356 24.9763 15.9299 24.7346 15.8759C24.4929 15.8218 24.2643 15.7204 24.062 15.5775C23.8597 15.4346 23.6877 15.253 23.5559 15.0433C23.4242 14.8335 23.3353 14.5998 23.2945 14.3555C23.2536 14.1112 23.2615 13.8612 23.3178 13.62C23.3741 13.3788 23.4776 13.1511 23.6224 12.9501C23.7672 12.7491 23.9504 12.5789 24.1613 12.4491C24.3723 12.3193 24.6069 12.2326 24.8515 12.194C26.5558 11.9126 28.2804 11.7723 30.0078 11.7744C38.1828 11.7744 45.6101 14.8823 51.4906 20.7627C55.9039 25.176 57.889 29.5799 57.9711 29.7651C58.0777 30.0049 58.1328 30.2644 58.1328 30.5268C58.1328 30.7892 58.0777 31.0487 57.9711 31.2885H57.964Z" fill="black"/>
</svg>
