<svg width="24" height="24" viewBox="0 0 24 24" fill="none" xmlns="http://www.w3.org/2000/svg">
<path d="M4 7.625C4 7.27982 4.27982 7 4.625 7H13.375C13.7202 7 14 7.27982 14 7.625V7.625C14 7.97018 13.7202 8.25 13.375 8.25H4.625C4.27982 8.25 4 7.97018 4 7.625V7.625ZM4 12C4 11.6548 4.27982 11.375 4.625 11.375H13.375C13.7202 11.375 14 11.6548 14 12V12C14 12.3452 13.7202 12.625 13.375 12.625H4.625C4.27982 12.625 4 12.3452 4 12V12ZM4 16.375C4 16.0298 4.27982 15.75 4.625 15.75H13.375C13.7202 15.75 14 16.0298 14 16.375V16.375C14 16.7202 13.7202 17 13.375 17H4.625C4.27982 17 4 16.7202 4 16.375V16.375Z" fill="white"/>
<path d="M17 14L19 12L17 10" stroke="white" stroke-width="1.3" stroke-linecap="round" stroke-linejoin="round"/>
</svg>
