<svg width="16" height="10" viewBox="0 0 16 10" fill="none" xmlns="http://www.w3.org/2000/svg">
<path d="M10 9.375C10 9.72018 9.72018 10 9.375 10L0.625 10C0.279822 10 2.44628e-08 9.72018 5.46392e-08 9.375C8.48156e-08 9.02982 0.279822 8.75 0.625 8.75L9.375 8.75C9.72018 8.75 10 9.02982 10 9.375ZM10 5C10 5.34518 9.72018 5.625 9.375 5.625L0.625 5.625C0.279823 5.625 4.06937e-07 5.34518 4.37114e-07 5C4.6729e-07 4.65482 0.279823 4.375 0.625 4.375L9.375 4.375C9.72018 4.375 10 4.65482 10 5ZM10 0.625C10 0.970178 9.72018 1.25 9.375 1.25L0.625001 1.25C0.279823 1.25 7.89412e-07 0.970177 8.19589e-07 0.624999C8.49765e-07 0.279821 0.279823 -8.49765e-07 0.625001 -8.19589e-07L9.375 -5.46392e-08C9.72018 -2.44628e-08 10 0.279822 10 0.625Z" fill="#004EA2"/>
<path d="M13 7L15 5L13 3" stroke="#004EA2" stroke-width="1.3" stroke-linecap="round" stroke-linejoin="round"/>
</svg>
