<svg width="24" height="24" viewBox="0 0 24 24" fill="none" xmlns="http://www.w3.org/2000/svg">
<path d="M9 7.625C9 7.27982 9.27982 7 9.625 7H18.375C18.7202 7 19 7.27982 19 7.625C19 7.97018 18.7202 8.25 18.375 8.25H9.625C9.27982 8.25 9 7.97018 9 7.625ZM9 12C9 11.6548 9.27982 11.375 9.625 11.375H18.375C18.7202 11.375 19 11.6548 19 12C19 12.3452 18.7202 12.625 18.375 12.625H9.625C9.27982 12.625 9 12.3452 9 12ZM9 16.375C9 16.0298 9.27982 15.75 9.625 15.75H18.375C18.7202 15.75 19 16.0298 19 16.375C19 16.7202 18.7202 17 18.375 17H9.625C9.27982 17 9 16.7202 9 16.375Z" fill="white"/>
<path d="M6 10L4 12L6 14" stroke="white" stroke-width="1.3" stroke-linecap="round" stroke-linejoin="round"/>
</svg>
