<svg width="40" height="41" viewBox="0 0 40 41" fill="none" xmlns="http://www.w3.org/2000/svg">
<path d="M14.6875 33C14.6875 33.2486 14.5887 33.4871 14.4129 33.6629C14.2371 33.8387 13.9986 33.9375 13.75 33.9375H6.15313C5.59878 33.9371 5.06727 33.7167 4.67529 33.3247C4.28331 32.9327 4.06291 32.4012 4.0625 31.8469V30.5C4.0625 30.2514 4.16127 30.0129 4.33709 29.8371C4.5129 29.6613 4.75136 29.5625 5 29.5625C5.24864 29.5625 5.4871 29.6613 5.66291 29.8371C5.83873 30.0129 5.9375 30.2514 5.9375 30.5V31.8469C5.93831 31.9038 5.96128 31.9582 6.00155 31.9985C6.04181 32.0387 6.09619 32.0617 6.15313 32.0625H13.75C13.9986 32.0625 14.2371 32.1613 14.4129 32.3371C14.5887 32.5129 14.6875 32.7514 14.6875 33ZM25 32.0625H20C19.7514 32.0625 19.5129 32.1613 19.3371 32.3371C19.1613 32.5129 19.0625 32.7514 19.0625 33C19.0625 33.2486 19.1613 33.4871 19.3371 33.6629C19.5129 33.8387 19.7514 33.9375 20 33.9375H25C25.2486 33.9375 25.4871 33.8387 25.6629 33.6629C25.8387 33.4871 25.9375 33.2486 25.9375 33C25.9375 32.7514 25.8387 32.5129 25.6629 32.3371C25.4871 32.1613 25.2486 32.0625 25 32.0625ZM35 23.3125C34.7514 23.3125 34.5129 23.4113 34.3371 23.5871C34.1613 23.7629 34.0625 24.0014 34.0625 24.25V31.8891C34.0625 31.9351 34.0442 31.9792 34.0117 32.0117C33.9792 32.0442 33.9351 32.0625 33.8891 32.0625H31.25C31.0014 32.0625 30.7629 32.1613 30.5871 32.3371C30.4113 32.5129 30.3125 32.7514 30.3125 33C30.3125 33.2486 30.4113 33.4871 30.5871 33.6629C30.7629 33.8387 31.0014 33.9375 31.25 33.9375H33.8891C34.4322 33.9371 34.953 33.7211 35.3371 33.3371C35.7211 32.953 35.9371 32.4322 35.9375 31.8891V24.25C35.9375 24.0014 35.8387 23.7629 35.6629 23.5871C35.4871 23.4113 35.2486 23.3125 35 23.3125ZM33.75 12.0625H26.25C26.0014 12.0625 25.7629 12.1613 25.5871 12.3371C25.4113 12.5129 25.3125 12.7514 25.3125 13C25.3125 13.2486 25.4113 13.4871 25.5871 13.6629C25.7629 13.8387 26.0014 13.9375 26.25 13.9375H33.75C33.8329 13.9375 33.9124 13.9704 33.971 14.029C34.0296 14.0876 34.0625 14.1671 34.0625 14.25V18C34.0625 18.2486 34.1613 18.4871 34.3371 18.6629C34.5129 18.8387 34.7514 18.9375 35 18.9375C35.2486 18.9375 35.4871 18.8387 35.6629 18.6629C35.8387 18.4871 35.9375 18.2486 35.9375 18V14.25C35.9375 13.6698 35.707 13.1134 35.2968 12.7032C34.8866 12.293 34.3302 12.0625 33.75 12.0625ZM4.0625 13V9.25C4.0625 8.66984 4.29297 8.11344 4.7032 7.70321C5.11344 7.29297 5.66984 7.0625 6.25 7.0625H14.4828C14.7702 7.06197 15.0548 7.1183 15.3203 7.22825C15.5857 7.3382 15.8269 7.49959 16.0297 7.70313L20.6625 12.3375C20.7934 12.4686 20.8826 12.6356 20.9187 12.8173C20.9548 12.9991 20.9362 13.1875 20.8654 13.3587C20.7945 13.5299 20.6744 13.6762 20.5204 13.7792C20.3664 13.8823 20.1853 13.9373 20 13.9375H5C4.75136 13.9375 4.5129 13.8387 4.33709 13.6629C4.16127 13.4871 4.0625 13.2486 4.0625 13ZM5.9375 12.0625H17.7359L14.7031 9.02969C14.6448 8.97101 14.5656 8.93785 14.4828 8.9375H6.25C6.16712 8.9375 6.08763 8.97043 6.02903 9.02903C5.97042 9.08764 5.9375 9.16712 5.9375 9.25V12.0625ZM5 25.1875C5.24864 25.1875 5.4871 25.0887 5.66291 24.9129C5.83873 24.7371 5.9375 24.4986 5.9375 24.25V19.25C5.9375 19.0014 5.83873 18.7629 5.66291 18.5871C5.4871 18.4113 5.24864 18.3125 5 18.3125C4.75136 18.3125 4.5129 18.4113 4.33709 18.5871C4.16127 18.7629 4.0625 19.0014 4.0625 19.25V24.25C4.0625 24.4986 4.16127 24.7371 4.33709 24.9129C4.5129 25.0887 4.75136 25.1875 5 25.1875Z" fill="#111111"/>
</svg>
