<svg width="33" height="33" viewBox="0 0 33 33" fill="none" xmlns="http://www.w3.org/2000/svg">
<path d="M27.5 9.51954H16.9137L13.5 6.10579C13.315 5.91927 13.0947 5.77138 12.852 5.67074C12.6093 5.5701 12.349 5.5187 12.0863 5.51954H5.5C4.96957 5.51954 4.46086 5.73025 4.08579 6.10533C3.71071 6.4804 3.5 6.98911 3.5 7.51954V25.597C3.50066 26.1067 3.70342 26.5953 4.06382 26.9557C4.42421 27.3161 4.91282 27.5189 5.4225 27.5195H27.6112C28.112 27.5189 28.592 27.3197 28.9461 26.9656C29.3001 26.6115 29.4993 26.1315 29.5 25.6308V11.5195C29.5 10.9891 29.2893 10.4804 28.9142 10.1053C28.5391 9.73026 28.0304 9.51954 27.5 9.51954ZM5.5 7.51954H12.0863L14.0863 9.51954H5.5V7.51954ZM27.5 25.5195H5.5V11.5195H27.5V25.5195Z" fill="#333333"/>
</svg>
