<svg width="32" height="32" viewBox="0 0 32 32" fill="none" xmlns="http://www.w3.org/2000/svg">
<path d="M31.4697 10.0696L16.4697 2.11664C16.325 2.04006 16.1636 2 15.9997 2C15.8358 2 15.6744 2.04006 15.5297 2.11664L0.529688 10.0696C0.369693 10.1543 0.235888 10.2807 0.142587 10.4353C0.0492867 10.5898 0 10.7666 0 10.9469C0 11.1271 0.0492867 11.3039 0.142587 11.4585C0.235888 11.613 0.369693 11.7394 0.529688 11.8242L3.99969 13.6645V19.6814C3.99865 20.1697 4.17942 20.6411 4.50719 21.0048C6.14469 22.8179 9.81344 25.8586 15.9997 25.8586C18.0509 25.8755 20.0867 25.5061 21.9997 24.7701V28.841C21.9997 29.1046 22.105 29.3575 22.2926 29.5439C22.4801 29.7303 22.7345 29.8351 22.9997 29.8351C23.2649 29.8351 23.5193 29.7303 23.7068 29.5439C23.8943 29.3575 23.9997 29.1046 23.9997 28.841V23.8095C25.3037 23.0612 26.4821 22.1149 27.4922 21.0048C27.82 20.6411 28.0007 20.1697 27.9997 19.6814V13.6645L31.4697 11.8242C31.6297 11.7394 31.7635 11.613 31.8568 11.4585C31.9501 11.3039 31.9994 11.1271 31.9994 10.9469C31.9994 10.7666 31.9501 10.5898 31.8568 10.4353C31.7635 10.2807 31.6297 10.1543 31.4697 10.0696ZM15.9997 23.8704C10.5909 23.8704 7.40969 21.2434 5.99969 19.6814V14.7245L15.5297 19.7771C15.6744 19.8537 15.8358 19.8938 15.9997 19.8938C16.1636 19.8938 16.325 19.8537 16.4697 19.7771L21.9997 16.8457V22.6041C20.4247 23.3348 18.4397 23.8704 15.9997 23.8704ZM25.9997 19.6765C25.4002 20.3377 24.7296 20.9315 23.9997 21.4472V15.7845L25.9997 14.7245V19.6765ZM23.4997 13.7975L23.4722 13.7813L16.4722 10.0696C16.2386 9.95098 15.9676 9.92834 15.7174 10.0065C15.4672 10.0847 15.258 10.2575 15.1347 10.4876C15.0114 10.7177 14.984 10.9867 15.0583 11.2367C15.1327 11.4867 15.3029 11.6977 15.5322 11.8242L21.3747 14.9233L15.9997 17.7727L3.12469 10.9469L15.9997 4.12103L28.8747 10.9469L23.4997 13.7975Z" fill="#111111"/>
</svg>
