<svg width="24" height="25" viewBox="0 0 24 25" fill="none" xmlns="http://www.w3.org/2000/svg">
<path d="M21 12.5195C21 12.7184 20.921 12.9092 20.7803 13.0499C20.6397 13.1905 20.4489 13.2695 20.25 13.2695H3.75C3.55109 13.2695 3.36032 13.1905 3.21967 13.0499C3.07902 12.9092 3 12.7184 3 12.5195C3 12.3206 3.07902 12.1299 3.21967 11.9892C3.36032 11.8485 3.55109 11.7695 3.75 11.7695H20.25C20.4489 11.7695 20.6397 11.8485 20.7803 11.9892C20.921 12.1299 21 12.3206 21 12.5195ZM3.75 7.26953H20.25C20.4489 7.26953 20.6397 7.19051 20.7803 7.04986C20.921 6.90921 21 6.71844 21 6.51953C21 6.32062 20.921 6.12985 20.7803 5.9892C20.6397 5.84855 20.4489 5.76953 20.25 5.76953H3.75C3.55109 5.76953 3.36032 5.84855 3.21967 5.9892C3.07902 6.12985 3 6.32062 3 6.51953C3 6.71844 3.07902 6.90921 3.21967 7.04986C3.36032 7.19051 3.55109 7.26953 3.75 7.26953ZM20.25 17.7695H3.75C3.55109 17.7695 3.36032 17.8485 3.21967 17.9892C3.07902 18.1299 3 18.3206 3 18.5195C3 18.7184 3.07902 18.9092 3.21967 19.0499C3.36032 19.1905 3.55109 19.2695 3.75 19.2695H20.25C20.4489 19.2695 20.6397 19.1905 20.7803 19.0499C20.921 18.9092 21 18.7184 21 18.5195C21 18.3206 20.921 18.1299 20.7803 17.9892C20.6397 17.8485 20.4489 17.7695 20.25 17.7695Z" fill="white"/>
</svg>
