<svg width="23" height="22" viewBox="0 0 23 22" fill="none" xmlns="http://www.w3.org/2000/svg">
<circle cx="11.7344" cy="11" r="11" fill="white"/>
<path d="M15.6721 7.5V13.1875C15.6721 13.3035 15.626 13.4148 15.544 13.4969C15.4619 13.5789 15.3507 13.625 15.2346 13.625C15.1186 13.625 15.0073 13.5789 14.9253 13.4969C14.8432 13.4148 14.7971 13.3035 14.7971 13.1875V8.55602L8.54415 14.8095C8.46206 14.8916 8.35071 14.9377 8.23462 14.9377C8.11852 14.9377 8.00718 14.8916 7.92509 14.8095C7.84299 14.7274 7.79688 14.6161 7.79688 14.5C7.79688 14.3839 7.84299 14.2726 7.92509 14.1905L14.1786 7.9375H9.54712C9.43109 7.9375 9.31981 7.89141 9.23776 7.80936C9.15571 7.72731 9.10962 7.61603 9.10962 7.5C9.10962 7.38397 9.15571 7.27269 9.23776 7.19064C9.31981 7.10859 9.43109 7.0625 9.54712 7.0625H15.2346C15.3507 7.0625 15.4619 7.10859 15.544 7.19064C15.626 7.27269 15.6721 7.38397 15.6721 7.5Z" fill="black"/>
</svg>
