<svg width="25" height="24" viewBox="0 0 25 24" fill="none" xmlns="http://www.w3.org/2000/svg">
<path d="M12.7344 2.25C10.806 2.25 8.92095 2.82183 7.31757 3.89317C5.71419 4.96451 4.46451 6.48726 3.72655 8.26884C2.9886 10.0504 2.79552 12.0108 3.17172 13.9021C3.54793 15.7934 4.47653 17.5307 5.84009 18.8943C7.20365 20.2579 8.94093 21.1865 10.8322 21.5627C12.7236 21.9389 14.684 21.7458 16.4655 21.0078C18.2471 20.2699 19.7699 19.0202 20.8412 17.4168C21.9126 15.8134 22.4844 13.9284 22.4844 12C22.4816 9.41498 21.4535 6.93661 19.6257 5.10872C17.7978 3.28084 15.3194 2.25273 12.7344 2.25ZM12.7344 20.25C11.1027 20.25 9.50763 19.7661 8.15092 18.8596C6.79422 17.9531 5.7368 16.6646 5.11237 15.1571C4.48795 13.6496 4.32457 11.9908 4.6429 10.3905C4.96123 8.79016 5.74697 7.32015 6.90075 6.16637C8.05453 5.01259 9.52454 4.22685 11.1249 3.90852C12.7252 3.59019 14.384 3.75357 15.8915 4.37799C17.399 5.00242 18.6875 6.05984 19.594 7.41655C20.5005 8.77325 20.9844 10.3683 20.9844 12C20.9819 14.1873 20.1119 16.2843 18.5653 17.8309C17.0186 19.3775 14.9217 20.2475 12.7344 20.25ZM11.9844 12.75V7.5C11.9844 7.30109 12.0634 7.11032 12.204 6.96967C12.3447 6.82902 12.5355 6.75 12.7344 6.75C12.9333 6.75 13.1241 6.82902 13.2647 6.96967C13.4054 7.11032 13.4844 7.30109 13.4844 7.5V12.75C13.4844 12.9489 13.4054 13.1397 13.2647 13.2803C13.1241 13.421 12.9333 13.5 12.7344 13.5C12.5355 13.5 12.3447 13.421 12.204 13.2803C12.0634 13.1397 11.9844 12.9489 11.9844 12.75ZM13.8594 16.125C13.8594 16.3475 13.7934 16.565 13.6698 16.75C13.5462 16.935 13.3705 17.0792 13.1649 17.1644C12.9593 17.2495 12.7331 17.2718 12.5149 17.2284C12.2967 17.185 12.0962 17.0778 11.9389 16.9205C11.7816 16.7632 11.6744 16.5627 11.631 16.3445C11.5876 16.1262 11.6099 15.9 11.695 15.6945C11.7802 15.4889 11.9244 15.3132 12.1094 15.1896C12.2944 15.066 12.5119 15 12.7344 15C13.0327 15 13.3189 15.1185 13.5299 15.3295C13.7409 15.5405 13.8594 15.8266 13.8594 16.125Z" fill="#666666"/>
</svg>
