<svg width="24" height="25" viewBox="0 0 24 25" fill="none" xmlns="http://www.w3.org/2000/svg">
<path d="M20.9541 4.63672H3.04781C2.63763 4.63672 2.24422 4.79953 1.95401 5.0894C1.66379 5.37927 1.5005 5.77248 1.5 6.18266V18.0889C1.5 18.4991 1.66281 18.8925 1.95268 19.1827C2.24255 19.4729 2.63576 19.6362 3.04594 19.6367H20.9522C21.3624 19.6367 21.7558 19.4739 22.046 19.184C22.3362 18.8942 22.4995 18.501 22.5 18.0908V6.18453C22.5 5.77435 22.3372 5.38094 22.0473 5.09072C21.7575 4.80051 21.3642 4.63722 20.9541 4.63672ZM21 18.0908C21 18.0968 20.9988 18.1028 20.9965 18.1084C20.9942 18.1139 20.9908 18.119 20.9865 18.1233C20.9823 18.1275 20.9772 18.1309 20.9716 18.1332C20.9661 18.1355 20.9601 18.1367 20.9541 18.1367H3.04781C3.04178 18.1367 3.03581 18.1355 3.03023 18.1332C3.02466 18.1309 3.0196 18.1275 3.01533 18.1233C3.01106 18.119 3.00768 18.1139 3.00537 18.1084C3.00306 18.1028 3.00188 18.0968 3.00188 18.0908V6.18453C3.00188 6.17235 3.00671 6.16066 3.01533 6.15205C3.02394 6.14343 3.03563 6.13859 3.04781 6.13859H20.9541C20.9662 6.13859 20.9779 6.14343 20.9865 6.15205C20.9952 6.16066 21 6.17235 21 6.18453V18.0908ZM19.5 12.1367C19.5 12.3356 19.421 12.5264 19.2803 12.6671C19.1397 12.8077 18.9489 12.8867 18.75 12.8867H5.25C5.05109 12.8867 4.86032 12.8077 4.71967 12.6671C4.57902 12.5264 4.5 12.3356 4.5 12.1367C4.5 11.9378 4.57902 11.747 4.71967 11.6064C4.86032 11.4657 5.05109 11.3867 5.25 11.3867H18.75C18.9489 11.3867 19.1397 11.4657 19.2803 11.6064C19.421 11.747 19.5 11.9378 19.5 12.1367ZM19.5 9.13672C19.5 9.33563 19.421 9.5264 19.2803 9.66705C19.1397 9.8077 18.9489 9.88672 18.75 9.88672H5.25C5.05109 9.88672 4.86032 9.8077 4.71967 9.66705C4.57902 9.5264 4.5 9.33563 4.5 9.13672C4.5 8.93781 4.57902 8.74704 4.71967 8.60639C4.86032 8.46574 5.05109 8.38672 5.25 8.38672H18.75C18.9489 8.38672 19.1397 8.46574 19.2803 8.60639C19.421 8.74704 19.5 8.93781 19.5 9.13672ZM6.75 15.1367C6.75 15.3356 6.67098 15.5264 6.53033 15.6671C6.38968 15.8077 6.19891 15.8867 6 15.8867H5.25C5.05109 15.8867 4.86032 15.8077 4.71967 15.6671C4.57902 15.5264 4.5 15.3356 4.5 15.1367C4.5 14.9378 4.57902 14.747 4.71967 14.6064C4.86032 14.4657 5.05109 14.3867 5.25 14.3867H6C6.19891 14.3867 6.38968 14.4657 6.53033 14.6064C6.67098 14.747 6.75 14.9378 6.75 15.1367ZM15.75 15.1367C15.75 15.3356 15.671 15.5264 15.5303 15.6671C15.3897 15.8077 15.1989 15.8867 15 15.8867H9C8.80109 15.8867 8.61032 15.8077 8.46967 15.6671C8.32902 15.5264 8.25 15.3356 8.25 15.1367C8.25 14.9378 8.32902 14.747 8.46967 14.6064C8.61032 14.4657 8.80109 14.3867 9 14.3867H15C15.1989 14.3867 15.3897 14.4657 15.5303 14.6064C15.671 14.747 15.75 14.9378 15.75 15.1367ZM19.5 15.1367C19.5 15.3356 19.421 15.5264 19.2803 15.6671C19.1397 15.8077 18.9489 15.8867 18.75 15.8867H18C17.8011 15.8867 17.6103 15.8077 17.4697 15.6671C17.329 15.5264 17.25 15.3356 17.25 15.1367C17.25 14.9378 17.329 14.747 17.4697 14.6064C17.6103 14.4657 17.8011 14.3867 18 14.3867H18.75C18.9489 14.3867 19.1397 14.4657 19.2803 14.6064C19.421 14.747 19.5 14.9378 19.5 15.1367Z" fill="white"/>
</svg>
