<svg width="21" height="22" viewBox="0 0 21 22" fill="none" xmlns="http://www.w3.org/2000/svg">
<path fill-rule="evenodd" clip-rule="evenodd" d="M8.90707 10.289L9.64734 11.0249L8.90707 11.7608H3.69695V14.213L0.519531 11.0249L3.69695 7.89062V10.289H8.90707Z" fill="#932279"/>
<path fill-rule="evenodd" clip-rule="evenodd" d="M11.2657 9.42281L10.5298 10.1631L9.79394 9.42281V4.21258H7.3418L10.5298 1.03516L13.6641 4.21258H11.2657V9.42281Z" fill="#EFA724"/>
<path fill-rule="evenodd" clip-rule="evenodd" d="M12.1309 11.7833L11.3906 11.0474L12.1309 10.3115H17.341V7.85938L20.5184 11.0474L17.341 14.1817V11.7833H12.1309Z" fill="#262577"/>
<path fill-rule="evenodd" clip-rule="evenodd" d="M9.77242 12.6465L10.5083 11.9062L11.2442 12.6465V17.8566H13.6964L10.5083 21.0342L7.37402 17.8566H9.77242V12.6465Z" fill="#9CCD2A"/>
<path d="M3.50977 4.02734H9.84049V10.358H3.50977V4.02734Z" fill="#9CCD2A" stroke="white" stroke-width="0.447075"/>
<path d="M11.1973 4.02734H17.528V10.358H11.1974L11.1973 4.02734Z" fill="#932279" stroke="white" stroke-width="0.447075"/>
<path d="M11.1973 11.7188H17.528V18.0494H11.1974L11.1973 11.7188Z" fill="#EFA724" stroke="white" stroke-width="0.447075"/>
<path d="M3.50977 11.7188H9.84049V18.0494H3.50977V11.7188Z" fill="#262577" stroke="white" stroke-width="0.447075"/>
<path d="M0.606445 11.0352L5.08295 6.55861L9.55936 11.0351L5.08285 15.5116L0.606445 11.0352ZM6.04219 5.59937L10.5186 1.12291L14.995 5.59937L10.5186 10.0758L6.04219 5.59937Z" stroke="white" stroke-width="0.447075"/>
<path d="M11.4785 11.0352L15.9551 6.55859L20.4315 11.0351L15.9551 15.5116L11.4785 11.0352Z" stroke="white" stroke-width="0.447075"/>
<path d="M6.04199 16.4688L10.5185 11.9922L14.995 16.4687L10.5185 20.9453L6.04199 16.4688Z" stroke="white" stroke-width="0.447075"/>
</svg>
