<svg width="32" height="33" viewBox="0 0 32 33" fill="none" xmlns="http://www.w3.org/2000/svg">
<path d="M28.0006 16.5201C28.0006 16.7853 27.8952 17.0397 27.7077 17.2272C27.5201 17.4147 27.2658 17.5201 27.0006 17.5201H16.0006C15.7353 17.5201 15.481 17.4147 15.2934 17.2272C15.1059 17.0397 15.0006 16.7853 15.0006 16.5201C15.0006 16.2549 15.1059 16.0005 15.2934 15.813C15.481 15.6254 15.7353 15.5201 16.0006 15.5201H27.0006C27.2658 15.5201 27.5201 15.6254 27.7077 15.813C27.8952 16.0005 28.0006 16.2549 28.0006 16.5201ZM16.0006 9.52009H27.0006C27.2658 9.52009 27.5201 9.41473 27.7077 9.22719C27.8952 9.03966 28.0006 8.7853 28.0006 8.52009C28.0006 8.25487 27.8952 8.00052 27.7077 7.81298C27.5201 7.62544 27.2658 7.52009 27.0006 7.52009H16.0006C15.7353 7.52009 15.481 7.62544 15.2934 7.81298C15.1059 8.00052 15.0006 8.25487 15.0006 8.52009C15.0006 8.7853 15.1059 9.03966 15.2934 9.22719C15.481 9.41473 15.7353 9.52009 16.0006 9.52009ZM27.0006 23.5201H16.0006C15.7353 23.5201 15.481 23.6254 15.2934 23.813C15.1059 24.0005 15.0006 24.2549 15.0006 24.5201C15.0006 24.7853 15.1059 25.0397 15.2934 25.2272C15.481 25.4147 15.7353 25.5201 16.0006 25.5201H27.0006C27.2658 25.5201 27.5201 25.4147 27.7077 25.2272C27.8952 25.0397 28.0006 24.7853 28.0006 24.5201C28.0006 24.2549 27.8952 24.0005 27.7077 23.813C27.5201 23.6254 27.2658 23.5201 27.0006 23.5201ZM10.2931 5.81259L7.00056 9.10634L5.70806 7.81259C5.52042 7.62495 5.26592 7.51953 5.00056 7.51953C4.73519 7.51953 4.4807 7.62495 4.29306 7.81259C4.10542 8.00023 4 8.25472 4 8.52009C4 8.78545 4.10542 9.03995 4.29306 9.22759L6.29306 11.2276C6.38593 11.3206 6.49622 11.3943 6.61762 11.4446C6.73901 11.495 6.86914 11.5209 7.00056 11.5209C7.13197 11.5209 7.2621 11.495 7.3835 11.4446C7.50489 11.3943 7.61518 11.3206 7.70806 11.2276L11.7081 7.22759C11.8957 7.03995 12.0011 6.78545 12.0011 6.52009C12.0011 6.25472 11.8957 6.00023 11.7081 5.81259C11.5204 5.62495 11.2659 5.51953 11.0006 5.51953C10.7352 5.51953 10.4807 5.62495 10.2931 5.81259ZM10.2931 13.8126L7.00056 17.1063L5.70806 15.8126C5.52042 15.6249 5.26592 15.5195 5.00056 15.5195C4.73519 15.5195 4.4807 15.6249 4.29306 15.8126C4.10542 16.0002 4 16.2547 4 16.5201C4 16.6515 4.02588 16.7816 4.07616 16.903C4.12645 17.0244 4.20015 17.1347 4.29306 17.2276L6.29306 19.2276C6.38593 19.3206 6.49622 19.3943 6.61762 19.4446C6.73901 19.495 6.86914 19.5209 7.00056 19.5209C7.13197 19.5209 7.2621 19.495 7.3835 19.4446C7.50489 19.3943 7.61518 19.3206 7.70806 19.2276L11.7081 15.2276C11.8957 15.0399 12.0011 14.7855 12.0011 14.5201C12.0011 14.2547 11.8957 14.0002 11.7081 13.8126C11.5204 13.6249 11.2659 13.5195 11.0006 13.5195C10.7352 13.5195 10.4807 13.6249 10.2931 13.8126ZM10.2931 21.8126L7.00056 25.1063L5.70806 23.8126C5.61515 23.7197 5.50485 23.646 5.38345 23.5957C5.26206 23.5454 5.13195 23.5195 5.00056 23.5195C4.86916 23.5195 4.73905 23.5454 4.61766 23.5957C4.49627 23.646 4.38597 23.7197 4.29306 23.8126C4.20015 23.9055 4.12645 24.0158 4.07616 24.1372C4.02588 24.2586 4 24.3887 4 24.5201C4 24.6515 4.02588 24.7816 4.07616 24.903C4.12645 25.0244 4.20015 25.1347 4.29306 25.2276L6.29306 27.2276C6.38593 27.3206 6.49622 27.3943 6.61762 27.4446C6.73901 27.495 6.86914 27.5209 7.00056 27.5209C7.13197 27.5209 7.2621 27.495 7.3835 27.4446C7.50489 27.3943 7.61518 27.3206 7.70806 27.2276L11.7081 23.2276C11.8957 23.0399 12.0011 22.7855 12.0011 22.5201C12.0011 22.2547 11.8957 22.0002 11.7081 21.8126C11.5204 21.6249 11.2659 21.5195 11.0006 21.5195C10.7352 21.5195 10.4807 21.6249 10.2931 21.8126Z" fill="#111111"/>
</svg>
