<svg width="60" height="61" viewBox="0 0 60 61" fill="none" xmlns="http://www.w3.org/2000/svg">
<path d="M29.5 29.375C27.9241 29.3755 26.4009 29.9432 25.209 30.9741C24.0171 32.0051 23.236 33.4306 23.0085 34.99C22.7809 36.5495 23.1222 38.1387 23.9698 39.4673C24.8175 40.7958 26.1149 41.775 27.625 42.2258V46.25C27.625 46.7473 27.8225 47.2242 28.1742 47.5758C28.5258 47.9275 29.0027 48.125 29.5 48.125C29.9973 48.125 30.4742 47.9275 30.8258 47.5758C31.1775 47.2242 31.375 46.7473 31.375 46.25V42.2258C32.8851 41.775 34.1825 40.7958 35.0302 39.4673C35.8778 38.1387 36.2191 36.5495 35.9915 34.99C35.764 33.4306 34.9829 32.0051 33.791 30.9741C32.5991 29.9432 31.0759 29.3755 29.5 29.375ZM29.5 38.75C28.9437 38.75 28.4 38.585 27.9375 38.276C27.4749 37.967 27.1145 37.5277 26.9016 37.0138C26.6887 36.4999 26.633 35.9344 26.7415 35.3888C26.8501 34.8432 27.1179 34.3421 27.5113 33.9488C27.9046 33.5554 28.4057 33.2876 28.9513 33.179C29.4969 33.0705 30.0624 33.1262 30.5763 33.3391C31.0902 33.552 31.5295 33.9124 31.8385 34.375C32.1475 34.8375 32.3125 35.3812 32.3125 35.9375C32.3125 36.6834 32.0162 37.3988 31.4887 37.9262C30.9613 38.4537 30.2459 38.75 29.5 38.75ZM48.25 21.875H40.75V16.25C40.75 13.2663 39.5647 10.4048 37.455 8.29505C35.3452 6.18526 32.4837 5 29.5 5C26.5163 5 23.6548 6.18526 21.545 8.29505C19.4353 10.4048 18.25 13.2663 18.25 16.25V21.875H10.75C9.75544 21.875 8.80161 22.2701 8.09835 22.9734C7.39509 23.6766 7 24.6304 7 25.625V51.875C7 52.8696 7.39509 53.8234 8.09835 54.5266C8.80161 55.2299 9.75544 55.625 10.75 55.625H48.25C49.2446 55.625 50.1984 55.2299 50.9016 54.5266C51.6049 53.8234 52 52.8696 52 51.875V25.625C52 24.6304 51.6049 23.6766 50.9016 22.9734C50.1984 22.2701 49.2446 21.875 48.25 21.875ZM22 16.25C22 14.2609 22.7902 12.3532 24.1967 10.9467C25.6032 9.54018 27.5109 8.75 29.5 8.75C31.4891 8.75 33.3968 9.54018 34.8033 10.9467C36.2098 12.3532 37 14.2609 37 16.25V21.875H22V16.25ZM48.25 51.875H10.75V25.625H48.25V51.875Z" fill="black"/>
</svg>
