<svg width="41" height="40" viewBox="0 0 41 40" fill="none" xmlns="http://www.w3.org/2000/svg">
<path fill-rule="evenodd" clip-rule="evenodd" d="M33.2318 20.0013C33.2318 19.6698 33.1001 19.3518 32.8657 19.1174C32.6312 18.883 32.3133 18.7513 31.9818 18.7513H8.64844C8.31692 18.7513 7.99897 18.883 7.76455 19.1174C7.53013 19.3518 7.39844 19.6698 7.39844 20.0013C7.39844 20.3328 7.53013 20.6508 7.76455 20.8852C7.99897 21.1196 8.31692 21.2513 8.64844 21.2513H31.9818C32.3133 21.2513 32.6312 21.1196 32.8657 20.8852C33.1001 20.6508 33.2318 20.3328 33.2318 20.0013ZM33.2318 11.668C33.2318 11.3364 33.1001 11.0185 32.8657 10.7841C32.6312 10.5497 32.3133 10.418 31.9818 10.418H8.64844C8.31692 10.418 7.99897 10.5497 7.76455 10.7841C7.53013 11.0185 7.39844 11.3364 7.39844 11.668C7.39844 11.9995 7.53013 12.3174 7.76455 12.5519C7.99897 12.7863 8.31692 12.918 8.64844 12.918H31.9818C32.3133 12.918 32.6312 12.7863 32.8657 12.5519C33.1001 12.3174 33.2318 11.9995 33.2318 11.668ZM33.2318 28.3346C33.2318 28.0031 33.1001 27.6852 32.8657 27.4508C32.6312 27.2163 32.3133 27.0846 31.9818 27.0846H8.64844C8.31692 27.0846 7.99897 27.2163 7.76455 27.4508C7.53013 27.6852 7.39844 28.0031 7.39844 28.3346C7.39844 28.6662 7.53013 28.9841 7.76455 29.2185C7.99897 29.4529 8.31692 29.5846 8.64844 29.5846H31.9818C32.3133 29.5846 32.6312 29.4529 32.8657 29.2185C33.1001 28.9841 33.2318 28.6662 33.2318 28.3346Z" fill="#111111"/>
</svg>
