<svg width="3" height="21" viewBox="0 0 3 21" fill="none" xmlns="http://www.w3.org/2000/svg">
<path d="M3 10.5195C3 10.8162 2.91203 11.1062 2.7472 11.3529C2.58238 11.5996 2.34811 11.7918 2.07403 11.9054C1.79994 12.0189 1.49834 12.0486 1.20737 11.9907C0.916394 11.9328 0.649119 11.79 0.439341 11.5802C0.229562 11.3704 0.0867006 11.1031 0.0288228 10.8122C-0.0290551 10.5212 0.000649929 10.2196 0.114181 9.94551C0.227713 9.67142 0.419972 9.43715 0.666646 9.27233C0.91332 9.10751 1.20333 9.01953 1.5 9.01953C1.89783 9.01953 2.27936 9.17757 2.56066 9.45887C2.84196 9.74018 3 10.1217 3 10.5195ZM1.5 3.51953C1.79667 3.51953 2.08668 3.43156 2.33336 3.26674C2.58003 3.10191 2.77229 2.86765 2.88582 2.59356C2.99935 2.31947 3.02906 2.01787 2.97118 1.7269C2.9133 1.43593 2.77044 1.16865 2.56066 0.958872C2.35088 0.749093 2.08361 0.606232 1.79264 0.548354C1.50166 0.490476 1.20007 0.520181 0.925976 0.633713C0.651887 0.747244 0.417618 0.939503 0.252796 1.18618C0.0879739 1.43285 8.08989e-07 1.72286 8.08989e-07 2.01953C8.08989e-07 2.41736 0.158036 2.79889 0.439341 3.08019C0.720645 3.3615 1.10218 3.51953 1.5 3.51953ZM1.5 17.5195C1.20333 17.5195 0.91332 17.6075 0.666646 17.7723C0.419972 17.9372 0.227713 18.1714 0.114181 18.4455C0.000649929 18.7196 -0.0290551 19.0212 0.0288228 19.3122C0.0867006 19.6031 0.229562 19.8704 0.439341 20.0802C0.649119 20.29 0.916394 20.4328 1.20737 20.4907C1.49834 20.5486 1.79994 20.5189 2.07403 20.4054C2.34811 20.2918 2.58238 20.0996 2.7472 19.8529C2.91203 19.6062 3 19.3162 3 19.0195C3 18.6217 2.84196 18.2402 2.56066 17.9589C2.27936 17.6776 1.89783 17.5195 1.5 17.5195Z" fill="black"/>
</svg>
