<svg width="46" height="34" viewBox="0 0 46 34" fill="none" xmlns="http://www.w3.org/2000/svg">
    <style>
        .bak-color{fill: #858585;}
        .icon-color{fill: #3d3d3d;}
        .icon-stroke-color{stroke: #3d3d3d;}
    </style>
    <g opacity="1">
        <rect class="bak-color" x="24.0703" width="21.7826" height="33.9997" rx="0.995603" fill="#848484"/>
        <path class="icon-color" d="M41.7126 13.2057L35.5024 9.80774C35.3365 9.71606 35.15 9.66797 34.9604 9.66797C34.7708 9.66797 34.5844 9.71606 34.4184 9.80774L28.2082 13.2071C28.0309 13.3042 27.8828 13.447 27.7796 13.6208C27.6763 13.7946 27.6216 13.9929 27.6211 14.1951V20.9445C27.6216 21.1466 27.6763 21.345 27.7796 21.5188C27.8828 21.6925 28.0309 21.8354 28.2082 21.9325L34.4184 25.3318C34.5844 25.4235 34.7708 25.4716 34.9604 25.4716C35.15 25.4716 35.3365 25.4235 35.5024 25.3318L41.7126 21.9325C41.89 21.8354 42.038 21.6925 42.1413 21.5188C42.2446 21.345 42.2993 21.1466 42.2998 20.9445V14.1958C42.2997 13.9933 42.2451 13.7945 42.1418 13.6203C42.0385 13.4461 41.8903 13.3029 41.7126 13.2057ZM34.9604 10.7957L40.6301 13.9008L34.9604 17.0059L29.2908 13.9008L34.9604 10.7957ZM28.7502 14.8888L34.3959 17.9784V24.0326L28.7502 20.9452V14.8888ZM35.525 24.0326V17.9812L41.1706 14.8888V20.9424L35.525 24.0326Z" fill="#3D3D3D"/>
        <rect class="bak-color" width="21.7826" height="33.9988" rx="0.995603" fill="#848484"/>
        <path class="icon-stroke-color" d="M12.5661 3.9375V5.94775C12.5661 6.31782 12.8661 6.61783 13.2362 6.61783H15.2464M8.88065 6.61783H10.2208M8.88065 8.62807H12.9011M8.88065 10.6383H12.9011M14.2413 4.94262C13.9431 4.67579 13.6336 4.3593 13.4382 4.15376C13.3082 4.01698 13.1286 3.9375 12.9399 3.9375H7.87537C7.13522 3.9375 6.53521 4.53751 6.53521 5.27766L6.53516 13.3186C6.53515 14.0588 7.13516 14.6588 7.87531 14.6588L13.9061 14.6588C14.6462 14.6588 15.2462 14.0588 15.2462 13.3187L15.2464 6.21457C15.2464 6.04323 15.1811 5.87852 15.0621 5.75517C14.8423 5.52707 14.475 5.15175 14.2413 4.94262Z" stroke="#3D3D3D" stroke-width="0.84935" stroke-linecap="round" stroke-linejoin="round"/>
        <path class="icon-color" d="M10.8936 19.2578C9.81683 19.2578 8.76421 19.5771 7.86888 20.1754C6.97355 20.7736 6.27573 21.6239 5.86365 22.6187C5.45158 23.6136 5.34376 24.7083 5.55383 25.7644C5.76391 26.8205 6.28244 27.7906 7.04385 28.552C7.80527 29.3134 8.77537 29.832 9.83148 30.042C10.8876 30.2521 11.9823 30.1443 12.9771 29.7322C13.972 29.3201 14.8223 28.6223 15.4205 27.727C16.0187 26.8317 16.3381 25.779 16.3381 24.7022C16.3353 23.2591 15.7608 21.8759 14.7404 20.8555C13.7199 19.8351 12.3367 19.2606 10.8936 19.2578V19.2578ZM12.7992 25.053L10.2864 26.7282C10.2171 26.7711 10.1375 26.7946 10.056 26.7962C9.98697 26.7962 9.91886 26.7801 9.8571 26.7491C9.79015 26.713 9.7343 26.6593 9.69557 26.5938C9.65683 26.5283 9.63666 26.4535 9.63723 26.3774V23.027C9.63666 22.9509 9.65683 22.8761 9.69557 22.8107C9.7343 22.7452 9.79015 22.6915 9.8571 22.6553C9.92433 22.6213 9.99925 22.6053 10.0745 22.609C10.1498 22.6127 10.2228 22.6359 10.2864 22.6763L12.7992 24.3515C12.8575 24.3895 12.9054 24.4415 12.9386 24.5028C12.9718 24.564 12.9891 24.6326 12.9891 24.7022C12.9891 24.7719 12.9718 24.8404 12.9386 24.9017C12.9054 24.9629 12.8575 25.0149 12.7992 25.053V25.053Z" fill="#3D3D3D"/>
    </g>
</svg>
