<svg width="30" height="30" viewBox="0 0 30 30" fill="none" xmlns="http://www.w3.org/2000/svg">
<path d="M23.6181 6.38203C21.3325 4.0964 18.2325 2.81235 15.0001 2.81235C11.7678 2.81235 8.66781 4.0964 6.38218 6.38203C4.09655 8.66765 2.8125 11.7676 2.8125 15C2.8125 18.2324 4.09655 21.3323 6.38218 23.618C8.66781 25.9036 11.7678 27.1876 15.0001 27.1876C18.2325 27.1876 21.3325 25.9036 23.6181 23.618C25.9037 21.3323 27.1878 18.2324 27.1878 15C27.1878 11.7676 25.9037 8.66765 23.6181 6.38203ZM10.3126 22.5C10.3126 22.0027 10.5102 21.5258 10.8618 21.1742C11.2135 20.8225 11.6904 20.625 12.1876 20.625C12.6849 20.625 13.1618 20.8225 13.5135 21.1742C13.8651 21.5258 14.0626 22.0027 14.0626 22.5V25.2644C12.7553 25.1462 11.4825 24.7795 10.3126 24.184V22.5ZM15.9376 22.5C15.9376 22.0027 16.1352 21.5258 16.4868 21.1742C16.8385 20.8225 17.3154 20.625 17.8126 20.625C18.3099 20.625 18.7868 20.8225 19.1385 21.1742C19.4901 21.5258 19.6876 22.0027 19.6876 22.5V24.184C18.5178 24.7795 17.245 25.1462 15.9376 25.2644V22.5ZM12.5709 15.9375H17.4294L18.7865 18.8789C18.1114 18.6969 17.3989 18.7078 16.7297 18.9101C16.0604 19.1125 15.4613 19.4983 15.0001 20.0238C14.539 19.4983 13.9399 19.1125 13.2706 18.9101C12.6014 18.7078 11.8889 18.6969 11.2138 18.8789L12.5709 15.9375ZM13.4369 14.0625L15.0001 10.6746L16.5634 14.0625H13.4369ZM22.2916 22.2926C22.0572 22.5269 21.8134 22.7461 21.5626 22.9535V20.625C21.5628 20.4894 21.5332 20.3554 21.4759 20.2324L15.8509 8.04492C15.7758 7.88256 15.6557 7.74509 15.505 7.64875C15.3542 7.55241 15.1791 7.50122 15.0001 7.50122C14.8212 7.50122 14.6461 7.55241 14.4953 7.64875C14.3446 7.74509 14.2245 7.88256 14.1494 8.04492L8.52437 20.2324C8.46709 20.3554 8.43749 20.4894 8.43765 20.625V22.9535C8.18687 22.7461 7.94312 22.5269 7.70874 22.2926C6.26633 20.8504 5.28399 19.0129 4.88593 17.0124C4.48788 15.012 4.69199 12.9384 5.47247 11.0539C6.25295 9.16943 7.57472 7.55873 9.27064 6.4255C10.9666 5.29227 12.9605 4.6874 15.0001 4.6874C17.0398 4.6874 19.0337 5.29227 20.7297 6.4255C22.4256 7.55873 23.7473 9.16943 24.5278 11.0539C25.3083 12.9384 25.5124 15.012 25.1144 17.0124C24.7163 19.0129 23.734 20.8504 22.2916 22.2926Z" fill="#333333"/>
</svg>
