<svg width="31" height="31" viewBox="0 0 31 31" fill="none" xmlns="http://www.w3.org/2000/svg">
<path d="M24.7461 6.71094H21.4971L19.9004 4.31592C19.8148 4.1875 19.6988 4.0822 19.5628 4.00937C19.4267 3.93654 19.2747 3.89844 19.1204 3.89844H11.6204C11.4661 3.89844 11.3141 3.93654 11.178 4.00937C11.042 4.0822 10.926 4.1875 10.8404 4.31592L9.2437 6.71094H5.99609C5.25043 6.71179 4.53556 7.00838 4.0083 7.53564C3.48104 8.0629 3.18445 8.77778 3.18359 9.52344V22.6484C3.18445 23.3941 3.48104 24.109 4.0083 24.6362C4.53556 25.1635 5.25043 25.4601 5.99609 25.4609H24.7461C25.4918 25.4601 26.2066 25.1635 26.7339 24.6362C27.2612 24.109 27.5577 23.3941 27.5586 22.6484V9.52344C27.5577 8.77778 27.2612 8.0629 26.7339 7.53564C26.2066 7.00838 25.4918 6.71179 24.7461 6.71094ZM19.5898 15.6172C19.5898 16.4516 19.3424 17.2672 18.8789 17.961C18.4153 18.6548 17.7564 19.1955 16.9855 19.5148C16.2147 19.8341 15.3664 19.9177 14.5481 19.7549C13.7297 19.5921 12.978 19.1903 12.388 18.6003C11.798 18.0103 11.3962 17.2586 11.2334 16.4402C11.0706 15.6219 11.1542 14.7736 11.4735 14.0027C11.7928 13.2319 12.3335 12.573 13.0273 12.1094C13.7211 11.6459 14.5367 11.3984 15.3711 11.3984C16.4896 11.3997 17.5619 11.8446 18.3528 12.6355C19.1437 13.4264 19.5886 14.4987 19.5898 15.6172Z" fill="#111111"/>
</svg>
