<svg width="91" height="90" viewBox="0 0 91 90" fill="none" xmlns="http://www.w3.org/2000/svg">
<path d="M80.5066 19.8318L46.7566 8.58185C46.1793 8.38938 45.5551 8.38938 44.9777 8.58185L11.2277 19.8318C10.6677 20.0185 10.1806 20.3767 9.83549 20.8556C9.49035 21.3345 9.30464 21.9099 9.30469 22.5002V50.6252C9.30469 51.3711 9.601 52.0865 10.1284 52.6139C10.6559 53.1414 11.3713 53.4377 12.1172 53.4377C12.8631 53.4377 13.5785 53.1414 14.1059 52.6139C14.6334 52.0865 14.9297 51.3711 14.9297 50.6252V26.4026L26.7387 30.3365C23.6012 35.4054 22.6035 41.5121 23.9646 47.316C25.3258 53.1198 28.9345 58.1462 33.9984 61.2916C27.6703 63.7736 22.2 68.2631 18.1992 74.4014C17.9911 74.7106 17.8466 75.0582 17.774 75.4237C17.7015 75.7893 17.7023 76.1657 17.7764 76.531C17.8506 76.8963 17.9966 77.2432 18.206 77.5515C18.4154 77.8598 18.684 78.1235 18.9962 78.3271C19.3084 78.5307 19.658 78.6703 20.0246 78.7376C20.3912 78.805 20.7675 78.7988 21.1317 78.7194C21.4958 78.64 21.8406 78.489 22.1459 78.2753C22.4512 78.0615 22.711 77.7891 22.9102 77.474C28.2082 69.3459 36.5754 64.6877 45.8672 64.6877C55.159 64.6877 63.5262 69.3459 68.8242 77.474C69.2367 78.0871 69.874 78.5133 70.5981 78.6603C71.3223 78.8073 72.0753 78.6634 72.6942 78.2597C73.3131 77.856 73.7483 77.225 73.9057 76.503C74.0631 75.781 73.93 75.026 73.5352 74.4014C69.5344 68.2631 64.043 63.7736 57.7359 61.2916C62.795 58.1464 66.4003 53.1232 67.7613 47.3236C69.1222 41.524 68.1276 35.4215 64.9957 30.3541L80.5066 25.1861C81.0668 24.9996 81.554 24.6414 81.8993 24.1625C82.2445 23.6836 82.4303 23.1082 82.4303 22.5178C82.4303 21.9274 82.2445 21.352 81.8993 20.873C81.554 20.3941 81.0668 20.036 80.5066 19.8494V19.8318ZM62.7422 42.1877C62.743 44.8556 62.1112 47.4856 60.8987 49.862C59.6861 52.2384 57.9275 54.2934 55.7669 55.8585C53.6064 57.4236 51.1056 58.4542 48.4697 58.8656C45.8337 59.2771 43.1378 59.0577 40.6031 58.2254C38.0683 57.3932 35.7671 55.9718 33.888 54.078C32.009 52.1841 30.6057 49.8718 29.7934 47.3306C28.9811 44.7894 28.7829 42.0918 29.215 39.4592C29.6471 36.8266 30.6973 34.3339 32.2793 32.1858L44.9777 36.4045C45.5551 36.597 46.1793 36.597 46.7566 36.4045L59.4551 32.1858C61.5918 35.0826 62.7439 38.5881 62.7422 42.1877ZM45.8672 30.7865L21.0117 22.5002L45.8672 14.2139L70.7227 22.5002L45.8672 30.7865Z" fill="#666666"/>
</svg>
