<svg width="91" height="90" viewBox="0 0 91 90" fill="none" xmlns="http://www.w3.org/2000/svg">
<path d="M45.8672 8.4375C38.6358 8.4375 31.5668 10.5819 25.5542 14.5994C19.5415 18.6169 14.8552 24.3272 12.0879 31.0081C9.32053 37.6891 8.59647 45.0406 10.0072 52.133C11.418 59.2254 14.9003 65.7402 20.0136 70.8536C25.127 75.9669 31.6418 79.4492 38.7342 80.86C45.8266 82.2707 53.1781 81.5467 59.8591 78.7793C66.54 76.012 72.2503 71.3257 76.2678 65.313C80.2853 59.3004 82.4297 52.2314 82.4297 45C82.4195 35.3062 78.5641 26.0123 71.7095 19.1577C64.8549 12.3031 55.561 8.44774 45.8672 8.4375ZM26.911 69.4336C28.9456 66.2515 31.7485 63.6329 35.0613 61.819C38.3741 60.005 42.0903 59.0543 45.8672 59.0543C49.6441 59.0543 53.3603 60.005 56.6731 61.819C59.9859 63.6329 62.7888 66.2515 64.8235 69.4336C59.4035 73.6488 52.7333 75.9373 45.8672 75.9373C39.0011 75.9373 32.3309 73.6488 26.911 69.4336ZM34.6172 42.1875C34.6172 39.9625 35.277 37.7874 36.5132 35.9373C37.7493 34.0873 39.5063 32.6453 41.562 31.7939C43.6177 30.9424 45.8797 30.7196 48.062 31.1537C50.2443 31.5877 52.2488 32.6592 53.8222 34.2325C55.3955 35.8059 56.467 37.8104 56.901 39.9927C57.3351 42.175 57.1123 44.437 56.2608 46.4927C55.4094 48.5484 53.9674 50.3054 52.1174 51.5415C50.2673 52.7777 48.0922 53.4375 45.8672 53.4375C42.8835 53.4375 40.022 52.2522 37.9123 50.1424C35.8025 48.0327 34.6172 45.1712 34.6172 42.1875ZM68.986 65.5348C65.8492 60.9893 61.4385 57.4728 56.3086 55.4273C59.0642 53.257 61.075 50.2818 62.0613 46.9156C63.0477 43.5495 62.9605 39.9596 61.812 36.6453C60.6635 33.3309 58.5107 30.4569 55.6531 28.4227C52.7954 26.3886 49.3749 25.2955 45.8672 25.2955C42.3595 25.2955 38.939 26.3886 36.0813 28.4227C33.2237 30.4569 31.0709 33.3309 29.9224 36.6453C28.7739 39.9596 28.6867 43.5495 29.6731 46.9156C30.6594 50.2818 32.6702 53.257 35.4258 55.4273C30.2959 57.4728 25.8852 60.9893 22.7485 65.5348C18.7848 61.0775 16.1942 55.5695 15.2885 49.674C14.3827 43.7785 15.2006 37.7469 17.6435 32.3054C20.0864 26.864 24.0502 22.2447 29.0576 19.0038C34.065 15.763 39.9025 14.0388 45.8672 14.0388C51.8319 14.0388 57.6694 15.763 62.6768 19.0038C67.6842 22.2447 71.648 26.864 74.0909 32.3054C76.5338 37.7469 77.3517 43.7785 76.446 49.674C75.5402 55.5695 72.9496 61.0775 68.986 65.5348Z" fill="#666666"/>
</svg>
