<svg width="20" height="21" viewBox="0 0 20 21" fill="none" xmlns="http://www.w3.org/2000/svg">
<path d="M16.25 3.14062H3.75C3.41848 3.14063 3.10054 3.27232 2.86612 3.50674C2.6317 3.74116 2.5 4.0591 2.5 4.39063V8.97656C2.5 15.9609 8.42188 18.2813 9.60938 18.6719C9.8631 18.7553 10.1369 18.7553 10.3906 18.6719C11.5781 18.2813 17.5 15.9609 17.5 8.97656V4.39063C17.5 4.0591 17.3683 3.74116 17.1339 3.50674C16.8995 3.27232 16.5815 3.14063 16.25 3.14062ZM13.8672 8.59375L9.28906 12.9688C9.17071 13.0801 9.01405 13.1416 8.85156 13.1406C8.69146 13.1412 8.53739 13.0796 8.42188 12.9688L6.13281 10.7813C6.06932 10.7259 6.01769 10.6582 5.98101 10.5823C5.94434 10.5065 5.92338 10.424 5.9194 10.3398C5.91542 10.2557 5.92849 10.1716 5.95784 10.0926C5.98719 10.0136 6.03221 9.94138 6.09018 9.88024C6.14816 9.8191 6.2179 9.77032 6.29521 9.73682C6.37253 9.70332 6.45581 9.6858 6.54007 9.68531C6.62432 9.68482 6.70781 9.70137 6.78551 9.73397C6.8632 9.76657 6.9335 9.81454 6.99219 9.875L8.85156 11.6484L13.0078 7.6875C13.1293 7.58148 13.2871 7.52653 13.4482 7.53415C13.6093 7.54178 13.7612 7.61137 13.8722 7.7284C13.9832 7.84542 14.0446 8.00081 14.0437 8.16209C14.0428 8.32336 13.9795 8.47802 13.8672 8.59375Z" fill="white"/>
</svg>
