<svg width="29" height="29" viewBox="0 0 29 29" fill="none" xmlns="http://www.w3.org/2000/svg">
<path d="M12.8672 24.5195C12.8672 24.7516 12.775 24.9742 12.6109 25.1383C12.4468 25.3023 12.2243 25.3945 11.9922 25.3945H5.86719C5.40306 25.3945 4.95794 25.2102 4.62975 24.882C4.30156 24.5538 4.11719 24.1087 4.11719 23.6445V6.14453C4.11719 5.6804 4.30156 5.23528 4.62975 4.90709C4.95794 4.57891 5.40306 4.39453 5.86719 4.39453H11.9922C12.2243 4.39453 12.4468 4.48672 12.6109 4.65081C12.775 4.81491 12.8672 5.03747 12.8672 5.26953C12.8672 5.5016 12.775 5.72416 12.6109 5.88825C12.4468 6.05234 12.2243 6.14453 11.9922 6.14453H5.86719V23.6445H11.9922C12.2243 23.6445 12.4468 23.7367 12.6109 23.9008C12.775 24.0649 12.8672 24.2875 12.8672 24.5195ZM24.8612 14.2755L20.4862 9.90047C20.3221 9.73628 20.0994 9.64404 19.8672 9.64404C19.635 9.64404 19.4123 9.73628 19.2481 9.90047C19.0839 10.0647 18.9917 10.2873 18.9917 10.5195C18.9917 10.7517 19.0839 10.9744 19.2481 11.1386L22.1302 14.0195H11.9922C11.7601 14.0195 11.5376 14.1117 11.3735 14.2758C11.2094 14.4399 11.1172 14.6625 11.1172 14.8945C11.1172 15.1266 11.2094 15.3492 11.3735 15.5133C11.5376 15.6773 11.7601 15.7695 11.9922 15.7695H22.1302L19.2481 18.6505C19.0839 18.8147 18.9917 19.0373 18.9917 19.2695C18.9917 19.5017 19.0839 19.7244 19.2481 19.8886C19.4123 20.0528 19.635 20.145 19.8672 20.145C20.0994 20.145 20.3221 20.0528 20.4862 19.8886L24.8612 15.5136C24.9426 15.4323 25.0071 15.3358 25.0512 15.2296C25.0952 15.1234 25.1179 15.0095 25.1179 14.8945C25.1179 14.7795 25.0952 14.6657 25.0512 14.5595C25.0071 14.4532 24.9426 14.3567 24.8612 14.2755Z" fill="#111111"/>
</svg>
