<svg width="29" height="29" viewBox="0 0 29 29" fill="none" xmlns="http://www.w3.org/2000/svg">
<path d="M25.0111 6.68944L14.5111 3.18944C14.3315 3.12956 14.1373 3.12956 13.9577 3.18944L3.45766 6.68944C3.28343 6.74752 3.13189 6.85895 3.02451 7.00794C2.91714 7.15694 2.85936 7.33594 2.85938 7.5196V16.2696C2.85938 16.5017 2.95156 16.7242 3.11566 16.8883C3.27975 17.0524 3.50231 17.1446 3.73438 17.1446C3.96644 17.1446 4.189 17.0524 4.35309 16.8883C4.51719 16.7242 4.60938 16.5017 4.60938 16.2696V8.73366L8.28328 9.95756C7.30717 11.5345 6.99677 13.4344 7.42024 15.2401C7.84371 17.0457 8.96643 18.6095 10.5419 19.588C8.57312 20.3602 6.87125 21.7569 5.62656 23.6666C5.56183 23.7628 5.51687 23.871 5.49429 23.9847C5.4717 24.0984 5.47196 24.2155 5.49503 24.3292C5.5181 24.4428 5.56353 24.5507 5.62868 24.6467C5.69383 24.7426 5.77739 24.8246 5.87452 24.888C5.97164 24.9513 6.08039 24.9947 6.19445 25.0157C6.3085 25.0366 6.42558 25.0347 6.53888 25.01C6.65218 24.9853 6.75944 24.9383 6.85443 24.8718C6.94941 24.8053 7.03023 24.7206 7.09219 24.6226C8.74047 22.0938 11.3436 20.6446 14.2344 20.6446C17.1252 20.6446 19.7283 22.0938 21.3766 24.6226C21.5049 24.8133 21.7031 24.9459 21.9284 24.9916C22.1537 25.0374 22.388 24.9926 22.5806 24.867C22.7731 24.7414 22.9085 24.5451 22.9575 24.3205C23.0064 24.0958 22.965 23.861 22.8422 23.6666C21.5975 21.7569 19.8891 20.3602 17.9269 19.588C19.5008 18.6095 20.6225 17.0467 21.0459 15.2424C21.4693 13.4381 21.1598 11.5395 20.1855 9.96303L25.0111 8.35522C25.1854 8.29717 25.3369 8.18576 25.4444 8.03676C25.5518 7.88776 25.6096 7.70874 25.6096 7.52506C25.6096 7.34139 25.5518 7.16236 25.4444 7.01337C25.3369 6.86437 25.1854 6.75296 25.0111 6.69491V6.68944ZM19.4844 13.6446C19.4846 14.4746 19.2881 15.2928 18.9108 16.0321C18.5336 16.7715 17.9865 17.4108 17.3143 17.8977C16.6421 18.3847 15.8641 18.7053 15.044 18.8333C14.224 18.9613 13.3852 18.893 12.5966 18.6341C11.8081 18.3752 11.0921 17.933 10.5075 17.3438C9.92293 16.7546 9.48637 16.0352 9.23365 15.2446C8.98093 14.454 8.91926 13.6148 9.0537 12.7957C9.18814 11.9767 9.51485 11.2012 10.007 10.5329L13.9577 11.8454C14.1373 11.9053 14.3315 11.9053 14.5111 11.8454L18.4617 10.5329C19.1265 11.4341 19.4849 12.5247 19.4844 13.6446ZM14.2344 10.0976L6.50156 7.5196L14.2344 4.94163L21.9672 7.5196L14.2344 10.0976Z" fill="#111111"/>
</svg>
