<svg width="27" height="26" viewBox="0 0 27 26" fill="none" xmlns="http://www.w3.org/2000/svg">
<g clip-path="url(#clip0_2683_41701)">
<path d="M14.1853 25.0514L21.1352 20.4141C21.3578 20.2664 21.5404 20.066 21.6668 19.8307C21.7931 19.5954 21.8593 19.3324 21.8594 19.0653L21.8594 4.0625C21.8594 3.63152 21.6882 3.2182 21.3834 2.91345C21.0787 2.6087 20.6654 2.4375 20.2344 2.4375L7.23438 2.4375C6.8034 2.4375 6.39007 2.6087 6.08533 2.91345C5.78058 3.2182 5.60937 3.63152 5.60937 4.0625L5.60937 19.0653C5.60987 19.3322 5.6761 19.5949 5.80222 19.8301C5.92834 20.0654 6.11047 20.2659 6.3325 20.4141L13.2834 25.0484C13.4167 25.1379 13.5734 25.186 13.7339 25.1865C13.8944 25.187 14.0515 25.14 14.1853 25.0514Z" fill="black"/>
</g>
<defs>
<clipPath id="clip0_2683_41701">
<rect width="26" height="26" fill="white" transform="translate(26.7344) rotate(90)"/>
</clipPath>
</defs>
</svg>
