<svg width="23" height="23" viewBox="0 0 23 23" xmlns="http://www.w3.org/2000/svg">
<path d="M19.7038 4.96306L11.4603 2.21881C11.3193 2.17186 11.1668 2.17186 11.0258 2.21881L2.78221 4.96306C2.64542 5.0086 2.52645 5.09597 2.44215 5.2128C2.35785 5.32962 2.31249 5.46997 2.3125 5.61397V12.4746C2.3125 12.6566 2.38488 12.8311 2.51371 12.9597C2.64254 13.0884 2.81727 13.1607 2.99946 13.1607C3.18166 13.1607 3.35639 13.0884 3.48522 12.9597C3.61405 12.8311 3.68643 12.6566 3.68643 12.4746V6.56588L6.57081 7.52552C5.80447 8.76198 5.56078 10.2516 5.89324 11.6674C6.22571 13.0831 7.10715 14.3092 8.34404 15.0765C6.79837 15.682 5.46223 16.7771 4.48502 18.2744C4.4342 18.3499 4.3989 18.4346 4.38117 18.5238C4.36344 18.613 4.36364 18.7048 4.38175 18.7939C4.39987 18.883 4.43554 18.9676 4.48668 19.0429C4.53783 19.1181 4.60344 19.1824 4.67969 19.2321C4.75595 19.2817 4.84133 19.3158 4.93087 19.3322C5.02041 19.3486 5.11233 19.3471 5.20128 19.3277C5.29023 19.3084 5.37444 19.2716 5.44902 19.2194C5.52359 19.1673 5.58704 19.1008 5.63568 19.024C6.92975 17.0412 8.97347 15.9049 11.243 15.9049C13.5126 15.9049 15.5563 17.0412 16.8504 19.024C16.9511 19.1735 17.1068 19.2775 17.2836 19.3133C17.4605 19.3492 17.6444 19.3141 17.7956 19.2156C17.9468 19.1171 18.0531 18.9632 18.0915 18.7871C18.13 18.611 18.0975 18.4268 18.001 18.2744C17.0238 16.7771 15.6825 15.682 14.142 15.0765C15.3777 14.3093 16.2583 13.084 16.5907 11.6692C16.9231 10.2545 16.6802 8.7659 15.9152 7.5298L19.7038 6.26916C19.8406 6.22365 19.9597 6.13629 20.044 6.01946C20.1283 5.90264 20.1737 5.76227 20.1737 5.61826C20.1737 5.47424 20.1283 5.33387 20.044 5.21705C19.9597 5.10022 19.8406 5.01287 19.7038 4.96735V4.96306ZM15.3648 10.4164C15.365 11.0672 15.2107 11.7088 14.9145 12.2884C14.6184 12.8681 14.1888 13.3694 13.6611 13.7512C13.1334 14.133 12.5225 14.3844 11.8787 14.4847C11.2348 14.5851 10.5764 14.5316 9.95724 14.3286C9.33812 14.1256 8.77603 13.7788 8.31707 13.3169C7.8581 12.8549 7.51536 12.2908 7.31695 11.6709C7.11854 11.0511 7.07012 10.393 7.17567 9.75085C7.28122 9.10866 7.53772 8.50062 7.92413 7.9766L11.0258 9.0057C11.1668 9.05265 11.3193 9.05265 11.4603 9.0057L14.5619 7.9766C15.0838 8.68325 15.3652 9.53834 15.3648 10.4164ZM11.243 7.63529L5.17198 5.61397L11.243 3.59265L17.3141 5.61397L11.243 7.63529Z" fill="#111111"/>
</svg>
