<svg width="25" height="24" viewBox="0 0 25 24" fill="none" xmlns="http://www.w3.org/2000/svg">
<path d="M22.6719 7.51125C22.4607 7.27193 22.201 7.08028 21.91 6.94903C21.6191 6.81778 21.3036 6.74994 20.9844 6.75H15.7344V5.25C15.7344 4.25544 15.3393 3.30161 14.636 2.59835C13.9328 1.89509 12.9789 1.5 11.9844 1.5C11.845 1.4999 11.7084 1.53862 11.5899 1.61181C11.4713 1.685 11.3755 1.78977 11.3131 1.91438L7.77125 9H3.73438C3.33655 9 2.95502 9.15804 2.67371 9.43934C2.39241 9.72064 2.23438 10.1022 2.23438 10.5V18.75C2.23438 19.1478 2.39241 19.5294 2.67371 19.8107C2.95502 20.092 3.33655 20.25 3.73438 20.25H19.8594C20.4075 20.2502 20.9369 20.0503 21.3481 19.6878C21.7593 19.3253 22.024 18.8251 22.0925 18.2812L23.2175 9.28125C23.2574 8.9644 23.2293 8.64268 23.1353 8.3375C23.0412 8.03232 22.8832 7.75066 22.6719 7.51125ZM3.73438 10.5H7.48438V18.75H3.73438V10.5ZM21.7288 9.09375L20.6038 18.0938C20.5809 18.275 20.4927 18.4418 20.3556 18.5626C20.2186 18.6834 20.0421 18.7501 19.8594 18.75H8.98438V9.92719L12.4259 3.04313C12.936 3.14521 13.395 3.4209 13.7247 3.82326C14.0544 4.22562 14.2345 4.7298 14.2344 5.25V7.5C14.2344 7.69891 14.3134 7.88968 14.454 8.03033C14.5947 8.17098 14.7855 8.25 14.9844 8.25H20.9844C21.0908 8.24996 21.196 8.27258 21.293 8.31634C21.39 8.36011 21.4766 8.42402 21.547 8.50383C21.6175 8.58363 21.6701 8.67752 21.7014 8.77923C21.7327 8.88094 21.7421 8.98816 21.7288 9.09375Z" fill="#111111"/>
</svg>
