<svg width="47" height="34" viewBox="0 0 47 34" fill="none" xmlns="http://www.w3.org/2000/svg">
    <style>
        .bak-color{fill: #858585;}
        .icon-color{fill: #3d3d3d;}
        .icon-stroke-color{stroke: #3d3d3d;}
    </style>
    <g opacity="1">
        <rect class="bak-color" x="24.3086" y="0.00390625" width="21.7826" height="33.9997" rx="0.995603" fill="#A7A7A7"/>
        <path class="icon-color" d="M42.2985 13.2096L36.0883 9.81165C35.9224 9.71997 35.7359 9.67188 35.5464 9.67188C35.3568 9.67188 35.1703 9.71997 35.0044 9.81165L28.7942 13.211C28.6168 13.3081 28.4688 13.4509 28.3655 13.6247C28.2622 13.7985 28.2075 13.9969 28.207 14.199V20.9484C28.2075 21.1505 28.2622 21.3489 28.3655 21.5227C28.4688 21.6965 28.6168 21.8393 28.7942 21.9364L35.0044 25.3357C35.1703 25.4274 35.3568 25.4755 35.5464 25.4755C35.7359 25.4755 35.9224 25.4274 36.0883 25.3357L42.2985 21.9364C42.4759 21.8393 42.6239 21.6965 42.7272 21.5227C42.8305 21.3489 42.8852 21.1505 42.8857 20.9484V14.1997C42.8856 13.9972 42.8311 13.7984 42.7278 13.6242C42.6245 13.45 42.4762 13.3068 42.2985 13.2096ZM35.5464 10.7996L41.216 13.9047L35.5464 17.0098L29.8767 13.9047L35.5464 10.7996ZM29.3362 14.8927L34.9818 17.9823V24.0365L29.3362 20.9491V14.8927ZM36.1109 24.0365V17.9851L41.7566 14.8927V20.9463L36.1109 24.0365Z" fill="#4C4C4C"/>
        <rect class="bak-color" x="0.527344" width="21.7826" height="15.9998" rx="0.995603" fill="#A7A7A7"/>
        <path class="icon-stroke-color" d="M13.0934 2.64062V4.65087C13.0934 5.02095 13.3935 5.32095 13.7635 5.32095H15.7738M9.408 5.32095H10.7482M9.408 7.3312H13.4285M9.408 9.34144H13.4285M14.7687 3.64575C14.4704 3.37891 14.161 3.06243 13.9656 2.85688C13.8356 2.7201 13.656 2.64062 13.4673 2.64062H8.40272C7.66257 2.64062 7.06256 3.24063 7.06255 3.98078L7.0625 12.0217C7.0625 12.7619 7.6625 13.3619 8.40266 13.3619L14.4334 13.3619C15.1736 13.3619 15.7736 12.7619 15.7736 12.0218L15.7738 4.91769C15.7738 4.74635 15.7084 4.58165 15.5895 4.4583C15.3696 4.2302 15.0024 3.85488 14.7687 3.64575Z" stroke="#4C4C4C" stroke-width="0.84935" stroke-linecap="round" stroke-linejoin="round"/>
        <rect class="bak-color" x="0.527344" y="18.0039" width="21.7826" height="15.9998" rx="0.995603" fill="#A7A7A7"/>
        <path class="icon-color" d="M11.421 20.5586C10.3442 20.5586 9.29156 20.8779 8.39623 21.4761C7.5009 22.0744 6.80307 22.9247 6.391 23.9195C5.97892 24.9144 5.8711 26.009 6.08118 27.0652C6.29125 28.1213 6.80978 29.0914 7.5712 29.8528C8.33261 30.6142 9.30272 31.1327 10.3588 31.3428C11.4149 31.5529 12.5096 31.4451 13.5045 31.033C14.4993 30.6209 15.3496 29.9231 15.9478 29.0278C16.5461 28.1324 16.8654 27.0798 16.8654 26.003C16.8626 24.5599 16.2881 23.1767 15.2677 22.1563C14.2473 21.1359 12.8641 20.5614 11.421 20.5586V20.5586ZM13.3265 26.3538L10.8137 28.029C10.7444 28.0718 10.6649 28.0953 10.5834 28.097C10.5143 28.097 10.4462 28.0808 10.3844 28.0499C10.3175 28.0138 10.2616 27.9601 10.2229 27.8946C10.1842 27.8291 10.164 27.7543 10.1646 27.6782V24.3278C10.164 24.2517 10.1842 24.1769 10.2229 24.1114C10.2616 24.046 10.3175 23.9923 10.3844 23.9561C10.4517 23.9221 10.5266 23.9061 10.6019 23.9098C10.6771 23.9135 10.7501 23.9366 10.8137 23.9771L13.3265 25.6523C13.3849 25.6903 13.4328 25.7423 13.4659 25.8036C13.4991 25.8648 13.5165 25.9334 13.5165 26.003C13.5165 26.0727 13.4991 26.1412 13.4659 26.2024C13.4328 26.2637 13.3849 26.3157 13.3265 26.3538V26.3538Z" fill="#4C4C4C"/>
    </g>
</svg>
