<svg width="29" height="29" viewBox="0 0 29 29" fill="none" xmlns="http://www.w3.org/2000/svg">
<path d="M14.2344 3.14453C11.9846 3.14453 9.78538 3.81166 7.91477 5.06156C6.04416 6.31147 4.5862 8.088 3.72525 10.1665C2.8643 12.245 2.63904 14.5322 3.07795 16.7387C3.51685 18.9452 4.60022 20.972 6.19104 22.5629C7.78186 24.1537 9.80869 25.2371 12.0152 25.676C14.2218 26.1149 16.5089 25.8896 18.5874 25.0287C20.6659 24.1677 22.4424 22.7098 23.6923 20.8391C24.9422 18.9685 25.6094 16.7693 25.6094 14.5195C25.6062 11.5037 24.4067 8.61225 22.2742 6.47971C20.1417 4.34717 17.2502 3.14772 14.2344 3.14453ZM8.33688 22.1211C8.96987 21.1311 9.84189 20.3164 10.8725 19.7521C11.9032 19.1878 13.0593 18.892 14.2344 18.892C15.4094 18.892 16.5656 19.1878 17.5962 19.7521C18.6269 20.3164 19.4989 21.1311 20.1319 22.1211C18.4457 23.4325 16.3705 24.1445 14.2344 24.1445C12.0983 24.1445 10.0231 23.4325 8.33688 22.1211ZM10.7344 13.6445C10.7344 12.9523 10.9397 12.2756 11.3242 11.7C11.7088 11.1245 12.2554 10.6759 12.895 10.411C13.5345 10.146 14.2383 10.0767 14.9172 10.2118C15.5961 10.3468 16.2198 10.6802 16.7093 11.1697C17.1987 11.6591 17.5321 12.2828 17.6671 12.9617C17.8022 13.6406 17.7329 14.3444 17.468 14.9839C17.2031 15.6235 16.7544 16.1701 16.1789 16.5547C15.6033 16.9393 14.9266 17.1445 14.2344 17.1445C13.3061 17.1445 12.4159 16.7758 11.7595 16.1194C11.1031 15.463 10.7344 14.5728 10.7344 13.6445ZM21.4269 20.9081C20.451 19.494 19.0788 18.4 17.4828 17.7636C18.3401 17.0884 18.9657 16.1628 19.2726 15.1155C19.5794 14.0683 19.5523 12.9514 19.195 11.9203C18.8377 10.8892 18.1679 9.995 17.2789 9.36216C16.3898 8.72932 15.3257 8.38926 14.2344 8.38926C13.1431 8.38926 12.0789 8.72932 11.1899 9.36216C10.3008 9.995 9.63108 10.8892 9.27377 11.9203C8.91646 12.9514 8.88935 14.0683 9.19621 15.1155C9.50307 16.1628 10.1286 17.0884 10.9859 17.7636C9.38996 18.4 8.01776 19.494 7.04188 20.9081C5.80875 19.5214 5.00277 17.8078 4.72099 15.9737C4.43921 14.1395 4.69365 12.263 5.45366 10.5701C6.21368 8.87721 7.44687 7.4401 9.00473 6.43184C10.5626 5.42357 12.3787 4.88714 14.2344 4.88714C16.0901 4.88714 17.9062 5.42357 19.464 6.43184C21.0219 7.4401 22.2551 8.87721 23.0151 10.5701C23.7751 12.263 24.0295 14.1395 23.7478 15.9737C23.466 17.8078 22.66 19.5214 21.4269 20.9081Z" fill="#111111"/>
</svg>
