<svg width="33" height="32" viewBox="0 0 33 32" fill="none" xmlns="http://www.w3.org/2000/svg">
<path d="M18.7325 19.7111C20.3002 18.7347 21.5071 17.2744 22.1709 15.5509C22.8346 13.8275 22.919 11.9348 22.4112 10.1592C21.9035 8.38352 20.8312 6.82155 19.3567 5.70957C17.8822 4.59758 16.0856 3.99609 14.2388 3.99609C12.392 3.99609 10.5954 4.59758 9.12088 5.70957C7.64636 6.82155 6.57411 8.38352 6.06636 10.1592C5.55861 11.9348 5.64298 13.8275 6.30671 15.5509C6.97045 17.2744 8.17742 18.7347 9.74504 19.7111C7.16379 20.5561 4.8413 22.1348 2.9738 24.3573C2.8863 24.4574 2.81962 24.5739 2.77767 24.7C2.73572 24.8262 2.71934 24.9594 2.72948 25.0919C2.73962 25.2244 2.77608 25.3536 2.83672 25.4719C2.89737 25.5902 2.98099 25.6952 3.0827 25.7808C3.1844 25.8664 3.30214 25.9308 3.42904 25.9703C3.55595 26.0099 3.68946 26.0237 3.82178 26.0111C3.95409 25.9984 4.08256 25.9595 4.19966 25.8966C4.31677 25.8338 4.42016 25.7482 4.5038 25.6448C7.01379 22.6498 10.4713 21.0011 14.2325 21.0011C17.9938 21.0011 21.4513 22.6498 23.9663 25.6448C24.137 25.8481 24.3815 25.9751 24.6459 25.9981C24.9104 26.0211 25.1731 25.9381 25.3763 25.7673C25.5795 25.5966 25.7066 25.3521 25.7296 25.0877C25.7525 24.8233 25.6695 24.5606 25.4988 24.3573C23.63 22.1348 21.3075 20.5561 18.7325 19.7111ZM7.73254 12.5011C7.73254 11.2155 8.11376 9.95881 8.82799 8.88989C9.54222 7.82097 10.5574 6.98785 11.7451 6.49588C12.9328 6.00391 14.2398 5.87518 15.5006 6.12599C16.7615 6.37679 17.9197 6.99586 18.8287 7.9049C19.7378 8.81394 20.3568 9.97213 20.6077 11.233C20.8585 12.4939 20.7297 13.8008 20.2378 14.9885C19.7458 16.1763 18.9127 17.1914 17.8438 17.9056C16.7748 18.6199 15.5181 19.0011 14.2325 19.0011C12.5092 18.9991 10.8571 18.3137 9.63854 17.0951C8.41999 15.8765 7.73453 14.2244 7.73254 12.5011ZM31.2638 17.8848L30.6813 17.5486C30.7496 17.1868 30.7496 16.8154 30.6813 16.4536L31.2638 16.1173C31.4935 15.9847 31.6612 15.7663 31.7299 15.5101C31.7986 15.2538 31.7627 14.9808 31.63 14.7511C31.4974 14.5213 31.279 14.3537 31.0228 14.285C30.7666 14.2163 30.4935 14.2522 30.2638 14.3848L29.68 14.7223C29.4007 14.4827 29.0795 14.2966 28.7325 14.1736V13.5011C28.7325 13.2359 28.6272 12.9815 28.4397 12.794C28.2521 12.6065 27.9978 12.5011 27.7325 12.5011C27.4673 12.5011 27.213 12.6065 27.0254 12.794C26.8379 12.9815 26.7325 13.2359 26.7325 13.5011V14.1736C26.3856 14.2966 26.0644 14.4827 25.785 14.7223L25.2013 14.3848C25.0875 14.3192 24.962 14.2766 24.8317 14.2594C24.7015 14.2423 24.5692 14.251 24.4423 14.285C24.3155 14.319 24.1965 14.3777 24.0923 14.4577C23.9881 14.5376 23.9007 14.6373 23.835 14.7511C23.7694 14.8649 23.7268 14.9904 23.7096 15.1207C23.6925 15.2509 23.7012 15.3832 23.7352 15.5101C23.7692 15.6369 23.8279 15.7559 23.9079 15.8601C23.9878 15.9643 24.0875 16.0517 24.2013 16.1173L24.7838 16.4536C24.7155 16.8154 24.7155 17.1868 24.7838 17.5486L24.2013 17.8848C23.9716 18.0175 23.8039 18.2359 23.7352 18.4921C23.6665 18.7483 23.7024 19.0213 23.835 19.2511C23.9677 19.4808 24.1861 19.6485 24.4423 19.7172C24.6985 19.7859 24.9716 19.75 25.2013 19.6173L25.785 19.2798C26.0644 19.5195 26.3856 19.7056 26.7325 19.8286V20.5011C26.7325 20.7663 26.8379 21.0207 27.0254 21.2082C27.213 21.3957 27.4673 21.5011 27.7325 21.5011C27.9978 21.5011 28.2521 21.3957 28.4397 21.2082C28.6272 21.0207 28.7325 20.7663 28.7325 20.5011V19.8286C29.0795 19.7056 29.4007 19.5195 29.68 19.2798L30.2638 19.6173C30.4157 19.7055 30.5882 19.7516 30.7638 19.7511C30.984 19.7512 31.1981 19.6786 31.3728 19.5446C31.5475 19.4105 31.6731 19.2226 31.7301 19.0099C31.7871 18.7972 31.7723 18.5716 31.688 18.3682C31.6037 18.1648 31.4545 17.9949 31.2638 17.8848ZM26.7325 17.0011C26.7325 16.8033 26.7912 16.61 26.9011 16.4455C27.011 16.2811 27.1671 16.1529 27.3499 16.0772C27.5326 16.0015 27.7337 15.9817 27.9276 16.0203C28.1216 16.0589 28.2998 16.1541 28.4397 16.294C28.5795 16.4338 28.6747 16.612 28.7133 16.806C28.7519 17 28.7321 17.201 28.6564 17.3838C28.5807 17.5665 28.4526 17.7227 28.2881 17.8326C28.1237 17.9424 27.9303 18.0011 27.7325 18.0011C27.4673 18.0011 27.213 17.8957 27.0254 17.7082C26.8379 17.5207 26.7325 17.2663 26.7325 17.0011Z" fill="#111111"/>
</svg>
