<svg width="29" height="29" viewBox="0 0 29 29" fill="none" xmlns="http://www.w3.org/2000/svg">
<path d="M25.5841 7.11312L25.0744 6.81891C25.1342 6.50233 25.1342 6.17736 25.0744 5.86078L25.5841 5.56656C25.7851 5.45053 25.9318 5.25939 25.9919 5.0352C26.052 4.81101 26.0206 4.57212 25.9045 4.37109C25.7885 4.17007 25.5974 4.02337 25.3732 3.96327C25.149 3.90317 24.9101 3.93459 24.7091 4.05062L24.1983 4.34594C23.9539 4.13622 23.6728 3.97344 23.3692 3.86578V3.27734C23.3692 3.04528 23.277 2.82272 23.113 2.65863C22.9489 2.49453 22.7263 2.40234 22.4942 2.40234C22.2622 2.40234 22.0396 2.49453 21.8755 2.65863C21.7114 2.82272 21.6192 3.04528 21.6192 3.27734V3.86578C21.3157 3.97344 21.0346 4.13622 20.7902 4.34594L20.2794 4.05062C20.1798 3.99317 20.07 3.95589 19.956 3.9409C19.8421 3.92591 19.7263 3.93351 19.6153 3.96327C19.5043 3.99303 19.4002 4.04436 19.309 4.11433C19.2179 4.18431 19.1414 4.27156 19.0839 4.37109C19.0265 4.47063 18.9892 4.58051 18.9742 4.69446C18.9592 4.80841 18.9668 4.92419 18.9966 5.0352C19.0263 5.14621 19.0777 5.25027 19.1476 5.34144C19.2176 5.43261 19.3048 5.50911 19.4044 5.56656L19.9141 5.86078C19.8543 6.17736 19.8543 6.50233 19.9141 6.81891L19.4044 7.11312C19.2375 7.20939 19.107 7.35806 19.0332 7.53605C18.9595 7.71405 18.9465 7.91142 18.9964 8.09754C19.0462 8.28365 19.1561 8.4481 19.309 8.56537C19.4619 8.68264 19.6492 8.74617 19.8419 8.74609C19.9955 8.74657 20.1465 8.70618 20.2794 8.62906L20.7902 8.33375C21.0346 8.54347 21.3157 8.70625 21.6192 8.81391V9.40234C21.6192 9.63441 21.7114 9.85697 21.8755 10.0211C22.0396 10.1852 22.2622 10.2773 22.4942 10.2773C22.7263 10.2773 22.9489 10.1852 23.113 10.0211C23.277 9.85697 23.3692 9.63441 23.3692 9.40234V8.81391C23.6728 8.70625 23.9539 8.54347 24.1983 8.33375L24.7091 8.62906C24.842 8.70618 24.9929 8.74657 25.1466 8.74609C25.3393 8.74617 25.5266 8.68264 25.6795 8.56537C25.8323 8.4481 25.9422 8.28365 25.9921 8.09754C26.042 7.91142 26.029 7.71405 25.9552 7.53605C25.8815 7.35806 25.751 7.20939 25.5841 7.11312ZM21.6192 6.33984C21.6192 6.16679 21.6705 5.99761 21.7667 5.85372C21.8628 5.70983 21.9995 5.59768 22.1594 5.53145C22.3193 5.46522 22.4952 5.44789 22.6649 5.48166C22.8347 5.51542 22.9906 5.59875 23.113 5.72113C23.2353 5.8435 23.3187 5.99941 23.3524 6.16914C23.3862 6.33887 23.3689 6.51481 23.3026 6.67469C23.2364 6.83458 23.1242 6.97123 22.9804 7.06738C22.8365 7.16353 22.6673 7.21484 22.4942 7.21484C22.2622 7.21484 22.0396 7.12266 21.8755 6.95856C21.7114 6.79447 21.6192 6.57191 21.6192 6.33984ZM24.8294 11.6019C24.6005 11.6402 24.3962 11.7678 24.2615 11.9567C24.1267 12.1456 24.0725 12.3803 24.1108 12.6092C24.1996 13.1398 24.2443 13.6769 24.2442 14.2148C24.2463 16.571 23.3803 18.8453 21.8117 20.6034C20.8359 19.1893 19.4636 18.0953 17.8677 17.4589C18.725 16.7837 19.3505 15.8581 19.6574 14.8108C19.9643 13.7636 19.9372 12.6467 19.5798 11.6156C19.2225 10.5845 18.5528 9.69031 17.6637 9.05747C16.7747 8.42463 15.7105 8.08457 14.6192 8.08457C13.5279 8.08457 12.4638 8.42463 11.5747 9.05747C10.6857 9.69031 10.0159 10.5845 9.65862 11.6156C9.30131 12.6467 9.2742 13.7636 9.58106 14.8108C9.88792 15.8581 10.5135 16.7837 11.3708 17.4589C9.77481 18.0953 8.40261 19.1893 7.42673 20.6034C6.19595 19.2165 5.392 17.5036 5.11153 15.6707C4.83106 13.8377 5.08602 11.9628 5.84575 10.2713C6.60549 8.5798 7.83765 7.14377 9.39408 6.13587C10.9505 5.12797 12.765 4.59111 14.6192 4.58984C15.1572 4.58976 15.6943 4.63439 16.2249 4.72328C16.4527 4.75923 16.6855 4.70376 16.8727 4.56894C17.0598 4.43412 17.1862 4.23085 17.2242 4.00336C17.2623 3.77586 17.209 3.54253 17.0759 3.35414C16.9428 3.16574 16.7407 3.03751 16.5136 2.99734C14.1374 2.59759 11.6956 2.96337 9.54077 4.04185C7.38596 5.12033 5.62966 6.85571 4.52543 8.99743C3.4212 11.1392 3.0262 13.5764 3.39744 15.9573C3.76868 18.3381 4.88697 20.5394 6.59083 22.2432C8.29469 23.9471 10.496 25.0654 12.8768 25.4366C15.2577 25.8079 17.6949 25.4129 19.8366 24.3086C21.9784 23.2044 23.7137 21.4481 24.7922 19.2933C25.8707 17.1385 26.2365 14.6967 25.8367 12.3205C25.7984 12.0916 25.6708 11.8873 25.4819 11.7526C25.293 11.6178 25.0583 11.5636 24.8294 11.6019ZM11.1192 13.3398C11.1192 12.6476 11.3245 11.9709 11.7091 11.3953C12.0937 10.8198 12.6403 10.3712 13.2798 10.1063C13.9194 9.84136 14.6231 9.77205 15.302 9.90709C15.981 10.0421 16.6046 10.3755 17.0941 10.865C17.5836 11.3545 17.9169 11.9781 18.052 12.657C18.187 13.336 18.1177 14.0397 17.8528 14.6792C17.5879 15.3188 17.1393 15.8654 16.5637 16.25C15.9882 16.6346 15.3115 16.8398 14.6192 16.8398C13.691 16.8398 12.8007 16.4711 12.1444 15.8147C11.488 15.1583 11.1192 14.2681 11.1192 13.3398ZM8.72173 21.8164C9.35472 20.8264 10.2267 20.0117 11.2574 19.4474C12.2881 18.8831 13.4442 18.5873 14.6192 18.5873C15.7943 18.5873 16.9504 18.8831 17.9811 19.4474C19.0117 20.0117 19.8837 20.8264 20.5167 21.8164C18.8305 23.1278 16.7554 23.8398 14.6192 23.8398C12.4831 23.8398 10.4079 23.1278 8.72173 21.8164Z" fill="#111111"/>
</svg>
