<svg width="25" height="24" viewBox="0 0 25 24" fill="none" xmlns="http://www.w3.org/2000/svg">
<path d="M23.6847 14.0992C23.6059 14.1583 23.5162 14.2013 23.4208 14.2257C23.3254 14.2502 23.2261 14.2556 23.1286 14.2417C23.0311 14.2277 22.9373 14.1947 22.8525 14.1445C22.7678 14.0944 22.6938 14.028 22.6347 13.9492C22.1826 13.3416 21.5942 12.8486 20.9168 12.5099C20.2394 12.1712 19.492 11.9963 18.7347 11.9992C18.5872 11.9992 18.443 11.9557 18.3201 11.8741C18.1972 11.7926 18.1011 11.6766 18.0437 11.5408C18.0048 11.4485 17.9847 11.3493 17.9847 11.2492C17.9847 11.149 18.0048 11.0499 18.0437 10.9576C18.1011 10.8217 18.1972 10.7058 18.3201 10.6242C18.443 10.5427 18.5872 10.4992 18.7347 10.4992C19.1555 10.4992 19.5678 10.3811 19.9249 10.1584C20.282 9.93579 20.5695 9.61746 20.7548 9.2396C20.94 8.86175 21.0156 8.43952 20.9728 8.02087C20.9301 7.60223 20.7709 7.20395 20.5132 6.87127C20.2555 6.5386 19.9096 6.28487 19.5149 6.13889C19.1203 5.99292 18.6925 5.96056 18.2804 6.04549C17.8682 6.13041 17.4881 6.32923 17.1833 6.61934C16.8785 6.90945 16.6611 7.27924 16.5559 7.68669C16.5313 7.7821 16.4881 7.87173 16.4288 7.95046C16.3696 8.02919 16.2954 8.09547 16.2105 8.14553C16.1256 8.19559 16.0317 8.22843 15.9342 8.2422C15.8366 8.25596 15.7373 8.25038 15.6418 8.22575C15.5464 8.20113 15.4568 8.15796 15.3781 8.09869C15.2993 8.03943 15.2331 7.96524 15.183 7.88037C15.1329 7.79549 15.1001 7.70158 15.0863 7.60401C15.0726 7.50643 15.0782 7.4071 15.1028 7.31169C15.2488 6.74667 15.5247 6.22353 15.9085 5.7839C16.2922 5.34426 16.7733 5.00026 17.3135 4.77927C17.8536 4.55828 18.4378 4.4664 19.0197 4.51094C19.6016 4.55548 20.165 4.73521 20.6652 5.03583C21.1654 5.33645 21.5886 5.74966 21.901 6.24258C22.2133 6.73551 22.4064 7.29454 22.4647 7.8752C22.523 8.45586 22.445 9.04212 22.2369 9.58733C22.0288 10.1325 21.6963 10.6217 21.2659 11.0158C22.2857 11.4573 23.1723 12.158 23.8375 13.0483C23.8966 13.1272 23.9395 13.2171 23.9638 13.3127C23.9881 13.4083 23.9933 13.5078 23.9791 13.6054C23.9649 13.703 23.9316 13.7969 23.8811 13.8816C23.8305 13.9664 23.7638 14.0403 23.6847 14.0992ZM18.6334 19.8742C18.6877 19.9596 18.7241 20.055 18.7405 20.1548C18.7569 20.2546 18.753 20.3567 18.7289 20.455C18.7049 20.5532 18.6612 20.6456 18.6005 20.7265C18.5398 20.8074 18.4634 20.8753 18.3758 20.9259C18.2882 20.9765 18.1913 21.0089 18.0909 21.0211C17.9905 21.0333 17.8887 21.025 17.7915 20.9968C17.6944 20.9687 17.6039 20.9211 17.5256 20.8571C17.4473 20.793 17.3828 20.7138 17.3359 20.6242C16.8635 19.8242 16.1906 19.1612 15.3837 18.7006C14.5768 18.2401 13.6637 17.9978 12.7347 17.9978C11.8056 17.9978 10.8925 18.2401 10.0856 18.7006C9.27874 19.1612 8.60587 19.8242 8.13341 20.6242C8.08652 20.7138 8.02199 20.793 7.9437 20.8571C7.8654 20.9211 7.77496 20.9687 7.67781 20.9968C7.58067 21.025 7.47882 21.0333 7.37841 21.0211C7.27799 21.0089 7.18109 20.9765 7.09351 20.9259C7.00594 20.8753 6.92951 20.8074 6.86882 20.7265C6.80814 20.6456 6.76445 20.5532 6.74038 20.455C6.71632 20.3567 6.71237 20.2546 6.72879 20.1548C6.74521 20.055 6.78164 19.9596 6.83591 19.8742C7.56303 18.6249 8.67172 17.6417 9.99903 17.0692C9.25215 16.4973 8.70325 15.7058 8.42947 14.8059C8.1557 13.906 8.17081 12.9429 8.4727 12.052C8.77459 11.1611 9.34807 10.3872 10.1125 9.83907C10.877 9.29096 11.794 8.99619 12.7347 8.99619C13.6753 8.99619 14.5923 9.29096 15.3568 9.83907C16.1212 10.3872 16.6947 11.1611 16.9966 12.052C17.2985 12.9429 17.3136 13.906 17.0398 14.8059C16.7661 15.7058 16.2172 16.4973 15.4703 17.0692C16.7976 17.6417 17.9063 18.6249 18.6334 19.8742ZM12.7347 16.4992C13.328 16.4992 13.908 16.3232 14.4014 15.9936C14.8947 15.664 15.2792 15.1954 15.5063 14.6472C15.7334 14.0991 15.7928 13.4959 15.677 12.9139C15.5613 12.332 15.2755 11.7974 14.856 11.3779C14.4364 10.9583 13.9019 10.6726 13.3199 10.5568C12.738 10.4411 12.1348 10.5005 11.5866 10.7276C11.0384 10.9546 10.5699 11.3391 10.2403 11.8325C9.91061 12.3258 9.73466 12.9058 9.73466 13.4992C9.73466 14.2948 10.0507 15.0579 10.6133 15.6205C11.1759 16.1831 11.939 16.4992 12.7347 16.4992ZM7.48466 11.2492C7.48466 11.0503 7.40564 10.8595 7.26499 10.7189C7.12434 10.5782 6.93357 10.4992 6.73466 10.4992C6.31384 10.4992 5.90147 10.3811 5.54438 10.1584C5.18729 9.93579 4.8998 9.61746 4.71456 9.2396C4.52933 8.86175 4.45377 8.43952 4.49647 8.02087C4.53917 7.60223 4.69842 7.20395 4.95613 6.87127C5.21385 6.5386 5.55969 6.28487 5.95438 6.13889C6.34907 5.99292 6.77678 5.96056 7.18894 6.04549C7.6011 6.13041 7.98118 6.32923 8.28601 6.61934C8.59084 6.90945 8.8082 7.27924 8.91341 7.68669C8.96314 7.87939 9.08738 8.04444 9.2588 8.14553C9.43022 8.24662 9.63478 8.27548 9.82747 8.22575C10.0202 8.17602 10.1852 8.05179 10.2863 7.88037C10.3874 7.70895 10.4163 7.50439 10.3665 7.31169C10.2205 6.74667 9.94464 6.22353 9.56086 5.7839C9.17708 5.34426 8.69599 5.00026 8.15587 4.77927C7.61574 4.55828 7.0315 4.4664 6.44962 4.51094C5.86774 4.55548 5.30429 4.73521 4.80409 5.03583C4.30389 5.33645 3.88076 5.74966 3.56837 6.24258C3.25597 6.73551 3.06293 7.29454 3.0046 7.8752C2.94627 8.45586 3.02427 9.04212 3.23239 9.58733C3.44051 10.1325 3.773 10.6217 4.20341 11.0158C3.18461 11.4577 2.29908 12.1584 1.63466 13.0483C1.51519 13.2074 1.46382 13.4075 1.49187 13.6045C1.51991 13.8015 1.62506 13.9792 1.78419 14.0987C1.94332 14.2182 2.14339 14.2696 2.34039 14.2415C2.5374 14.2135 2.71519 14.1083 2.83466 13.9492C3.28671 13.3416 3.87511 12.8486 4.5525 12.5099C5.22988 12.1712 5.97732 11.9963 6.73466 11.9992C6.93357 11.9992 7.12434 11.9202 7.26499 11.7795C7.40564 11.6389 7.48466 11.4481 7.48466 11.2492Z" fill="#111111"/>
</svg>
