<svg width="15" height="15" viewBox="0 0 15 15" fill="none" xmlns="http://www.w3.org/2000/svg">
<path d="M5.52606 11.4792L5.52605 11.4792C5.47148 11.5338 5.42818 11.5985 5.39865 11.6699C5.36911 11.7412 5.35391 11.8176 5.35391 11.8948C5.35391 11.972 5.36911 12.0484 5.39865 12.1197L5.53723 12.0623L5.39865 12.1197C5.42818 12.191 5.47147 12.2558 5.52605 12.3104C5.58063 12.365 5.64542 12.4082 5.71673 12.4378C5.78804 12.4673 5.86446 12.4825 5.94165 12.4825C6.01884 12.4825 6.09526 12.4673 6.16657 12.4378C6.23788 12.4082 6.30267 12.365 6.35725 12.3104L10.7322 7.93543C10.7322 7.93541 10.7322 7.93539 10.7322 7.93537C10.7868 7.88082 10.8302 7.81605 10.8597 7.74475C10.8893 7.67343 10.9045 7.59698 10.9045 7.51977C10.9045 7.44257 10.8893 7.36612 10.8597 7.2948C10.8302 7.2235 10.7868 7.15873 10.7322 7.10418C10.7322 7.10416 10.7322 7.10414 10.7322 7.10412L6.35725 2.72918C6.24702 2.61895 6.09753 2.55703 5.94165 2.55703C5.78577 2.55703 5.63628 2.61895 5.52605 2.72918C5.41583 2.8394 5.35391 2.9889 5.35391 3.14477C5.35391 3.30065 5.41583 3.45015 5.52605 3.56037L5.52606 3.56038L9.48599 7.51977L5.52606 11.4792Z" fill="white" stroke="white" stroke-width="0.3"/>
</svg>
