<svg width="13" height="13" viewBox="0 0 13 13" fill="none" xmlns="http://www.w3.org/2000/svg">
<path d="M5.75398 6.1483C5.70516 6.19706 5.66644 6.25496 5.64002 6.3187C5.6136 6.38243 5.6 6.45075 5.6 6.51974C5.6 6.58873 5.6136 6.65705 5.64002 6.72078C5.66643 6.78449 5.70513 6.84237 5.75392 6.89112C5.75394 6.89114 5.75396 6.89116 5.75398 6.89118L9.50392 10.6411L9.60998 10.5351L9.50392 10.6411C9.55269 10.6899 9.61059 10.7286 9.67431 10.755C9.73803 10.7814 9.80632 10.7949 9.87529 10.7949C9.94427 10.7949 10.0126 10.7814 10.0763 10.755C10.14 10.7286 10.1979 10.6899 10.2467 10.6411L10.1406 10.5351L10.2467 10.6411C10.2954 10.5923 10.3341 10.5344 10.3605 10.4707C10.3869 10.407 10.4005 10.3387 10.4005 10.2697C10.4005 10.2008 10.3869 10.1325 10.3605 10.0688C10.3341 10.005 10.2954 9.94713 10.2467 9.89836L10.2467 9.89835L6.8676 6.51974L10.2467 3.14113L10.2467 3.14112C10.3452 3.04262 10.4005 2.90903 10.4005 2.76974C10.4005 2.63045 10.3452 2.49686 10.2467 2.39836L10.2467 2.39836C10.1482 2.29987 10.0146 2.24453 9.87529 2.24453C9.736 2.24453 9.60241 2.29987 9.50392 2.39836L9.50392 2.39836L5.75398 6.1483ZM5.75398 6.1483L5.85998 6.25443M5.75398 6.1483L5.75392 6.14836L5.85998 6.25443M5.85998 6.25443C5.82512 6.28925 5.79746 6.33061 5.77859 6.37614C5.75971 6.42166 5.75 6.47046 5.75 6.51974C5.75 6.56902 5.75971 6.61782 5.77859 6.66334C5.79746 6.70887 5.82512 6.75023 5.85998 6.78505L10.1406 3.03505C10.211 2.96469 10.2505 2.86925 10.2505 2.76974C10.2505 2.67023 10.211 2.57479 10.1406 2.50443C10.0702 2.43406 9.97481 2.39453 9.87529 2.39453C9.77578 2.39453 9.68035 2.43406 9.60998 2.50443L5.85998 6.25443ZM3.1176 6.51974L6.49667 3.14113L6.49667 3.14112C6.59517 3.04262 6.6505 2.90903 6.6505 2.76974C6.6505 2.63045 6.59517 2.49686 6.49667 2.39836C6.39818 2.29987 6.26459 2.24453 6.1253 2.24453C5.986 2.24453 5.85241 2.29987 5.75392 2.39836L2.00398 6.1483C2.00397 6.14831 2.00396 6.14831 2.00396 6.14832C2.00394 6.14833 2.00393 6.14835 2.00392 6.14836C1.95513 6.19711 1.91643 6.25499 1.89002 6.3187C1.8636 6.38243 1.85 6.45075 1.85 6.51974C1.85 6.58873 1.8636 6.65705 1.89002 6.72078C1.91643 6.78449 1.95513 6.84237 2.00392 6.89112C2.00394 6.89114 2.00396 6.89116 2.00398 6.89118L5.75392 10.6411C5.80269 10.6899 5.86059 10.7286 5.92431 10.755C5.98803 10.7814 6.05632 10.7949 6.1253 10.7949C6.19427 10.7949 6.26256 10.7814 6.32628 10.755C6.39 10.7286 6.4479 10.6899 6.49667 10.6411L6.39061 10.5351L6.49667 10.6411C6.54544 10.5923 6.58413 10.5345 6.61053 10.4707C6.63692 10.407 6.6505 10.3387 6.6505 10.2697C6.6505 10.2008 6.63692 10.1325 6.61053 10.0688C6.58413 10.005 6.54544 9.94713 6.49667 9.89836L6.49667 9.89835L3.1176 6.51974Z" fill="white" stroke="white" stroke-width="0.3"/>
</svg>
