<svg width="25" height="25" viewBox="0 0 25 25" fill="none" xmlns="http://www.w3.org/2000/svg">
<path d="M14.6797 9.51953V5.01953C14.6797 4.82062 14.7587 4.62985 14.8994 4.4892C15.04 4.34855 15.2308 4.26953 15.4297 4.26953C15.6286 4.26953 15.8194 4.34855 15.96 4.4892C16.1007 4.62985 16.1797 4.82062 16.1797 5.01953V8.76953H19.9297C20.1286 8.76953 20.3194 8.84855 20.46 8.9892C20.6007 9.12985 20.6797 9.32062 20.6797 9.51953C20.6797 9.71844 20.6007 9.90921 20.46 10.0499C20.3194 10.1905 20.1286 10.2695 19.9297 10.2695H15.4297C15.2308 10.2695 15.04 10.1905 14.8994 10.0499C14.7587 9.90921 14.6797 9.71844 14.6797 9.51953ZM9.42969 14.7695H4.92969C4.73078 14.7695 4.54001 14.8485 4.39936 14.9892C4.25871 15.1299 4.17969 15.3206 4.17969 15.5195C4.17969 15.7184 4.25871 15.9092 4.39936 16.0499C4.54001 16.1905 4.73078 16.2695 4.92969 16.2695H8.67969V20.0195C8.67969 20.2184 8.75871 20.4092 8.89936 20.5499C9.04001 20.6905 9.23078 20.7695 9.42969 20.7695C9.6286 20.7695 9.81937 20.6905 9.96002 20.5499C10.1007 20.4092 10.1797 20.2184 10.1797 20.0195V15.5195C10.1797 15.3206 10.1007 15.1299 9.96002 14.9892C9.81937 14.8485 9.6286 14.7695 9.42969 14.7695ZM19.9297 14.7695H15.4297C15.2308 14.7695 15.04 14.8485 14.8994 14.9892C14.7587 15.1299 14.6797 15.3206 14.6797 15.5195V20.0195C14.6797 20.2184 14.7587 20.4092 14.8994 20.5499C15.04 20.6905 15.2308 20.7695 15.4297 20.7695C15.6286 20.7695 15.8194 20.6905 15.96 20.5499C16.1007 20.4092 16.1797 20.2184 16.1797 20.0195V16.2695H19.9297C20.1286 16.2695 20.3194 16.1905 20.46 16.0499C20.6007 15.9092 20.6797 15.7184 20.6797 15.5195C20.6797 15.3206 20.6007 15.1299 20.46 14.9892C20.3194 14.8485 20.1286 14.7695 19.9297 14.7695ZM9.42969 4.26953C9.23078 4.26953 9.04001 4.34855 8.89936 4.4892C8.75871 4.62985 8.67969 4.82062 8.67969 5.01953V8.76953H4.92969C4.73078 8.76953 4.54001 8.84855 4.39936 8.9892C4.25871 9.12985 4.17969 9.32062 4.17969 9.51953C4.17969 9.71844 4.25871 9.90921 4.39936 10.0499C4.54001 10.1905 4.73078 10.2695 4.92969 10.2695H9.42969C9.6286 10.2695 9.81937 10.1905 9.96002 10.0499C10.1007 9.90921 10.1797 9.71844 10.1797 9.51953V5.01953C10.1797 4.82062 10.1007 4.62985 9.96002 4.4892C9.81937 4.34855 9.6286 4.26953 9.42969 4.26953Z" fill="#00BEEA"/>
</svg>
