<svg width="15" height="15" viewBox="0 0 15 15" fill="none" xmlns="http://www.w3.org/2000/svg">
<path d="M7.69116 9.31411L11.6506 5.35418L11.6506 5.35418C11.7608 5.24395 11.9103 5.18203 12.0662 5.18203C12.222 5.18203 12.3715 5.24395 12.4818 5.35418C12.592 5.4644 12.6539 5.6139 12.6539 5.76977C12.6539 5.92565 12.592 6.07515 12.4818 6.18537L8.10682 10.5603L8.10676 10.5604L7.69116 9.31411ZM7.69116 9.31411L3.73177 5.35418L3.73176 5.35418C3.67718 5.2996 3.61239 5.25631 3.54108 5.22677C3.46977 5.19723 3.39334 5.18203 3.31616 5.18203C3.23898 5.18203 3.16255 5.19723 3.09124 5.22677C3.01993 5.25631 2.95514 5.2996 2.90056 5.35418C2.84599 5.40875 2.80269 5.47355 2.77316 5.54485C2.74362 5.61616 2.72842 5.69259 2.72842 5.76977C2.72842 5.84696 2.74362 5.92339 2.77316 5.99469C2.80269 6.066 2.84599 6.13079 2.90056 6.18537L7.27551 10.5603M7.69116 9.31411L7.27551 10.5603M7.27551 10.5603L7.27556 10.5604L7.38163 10.4543L7.27551 10.5603Z" fill="white" stroke="white" stroke-width="0.3"/>
</svg>
