<svg width="24" height="25" viewBox="0 0 24 25" fill="none" xmlns="http://www.w3.org/2000/svg">
<path d="M20.25 10.6373V19.6373C20.25 20.0351 20.092 20.4167 19.8107 20.698C19.5294 20.9793 19.1478 21.1373 18.75 21.1373H5.25C4.85218 21.1373 4.47064 20.9793 4.18934 20.698C3.90804 20.4167 3.75 20.0351 3.75 19.6373V10.6373C3.75 10.2395 3.90804 9.85795 4.18934 9.57665C4.47064 9.29534 4.85218 9.13731 5.25 9.13731H7.5C7.69891 9.13731 7.88968 9.21633 8.03033 9.35698C8.17098 9.49763 8.25 9.6884 8.25 9.88731C8.25 10.0862 8.17098 10.277 8.03033 10.4176C7.88968 10.5583 7.69891 10.6373 7.5 10.6373H5.25V19.6373H18.75V10.6373H16.5C16.3011 10.6373 16.1103 10.5583 15.9697 10.4176C15.829 10.277 15.75 10.0862 15.75 9.88731C15.75 9.6884 15.829 9.49763 15.9697 9.35698C16.1103 9.21633 16.3011 9.13731 16.5 9.13731H18.75C19.1478 9.13731 19.5294 9.29534 19.8107 9.57665C20.092 9.85795 20.25 10.2395 20.25 10.6373ZM8.78063 6.66793L11.25 4.19762V12.8873C11.25 13.0862 11.329 13.277 11.4697 13.4176C11.6103 13.5583 11.8011 13.6373 12 13.6373C12.1989 13.6373 12.3897 13.5583 12.5303 13.4176C12.671 13.277 12.75 13.0862 12.75 12.8873V4.19762L15.2194 6.66793C15.3601 6.80867 15.551 6.88773 15.75 6.88773C15.949 6.88773 16.1399 6.80867 16.2806 6.66793C16.4214 6.5272 16.5004 6.33633 16.5004 6.13731C16.5004 5.93829 16.4214 5.74741 16.2806 5.60668L12.5306 1.85668C12.461 1.78695 12.3783 1.73163 12.2872 1.69389C12.1962 1.65615 12.0986 1.63672 12 1.63672C11.9014 1.63672 11.8038 1.65615 11.7128 1.69389C11.6217 1.73163 11.539 1.78695 11.4694 1.85668L7.71937 5.60668C7.57864 5.74741 7.49958 5.93829 7.49958 6.13731C7.49958 6.33633 7.57864 6.5272 7.71938 6.66793C7.86011 6.80866 8.05098 6.88773 8.25 6.88773C8.44902 6.88773 8.63989 6.80867 8.78063 6.66793Z" fill="white"/>
</svg>
