<svg width="25" height="25" viewBox="0 0 25 25" fill="none" xmlns="http://www.w3.org/2000/svg">
<path d="M20.4642 8.23891L15.2142 2.98891C15.1445 2.91928 15.0618 2.86407 14.9707 2.82643C14.8797 2.78879 14.7821 2.76945 14.6836 2.76953H5.68359C5.28577 2.76953 4.90424 2.92757 4.62293 3.20887C4.34163 3.49018 4.18359 3.87171 4.18359 4.26953V20.7695C4.18359 21.1674 4.34163 21.5489 4.62293 21.8302C4.90424 22.1115 5.28577 22.2695 5.68359 22.2695H19.1836C19.5814 22.2695 19.9629 22.1115 20.2443 21.8302C20.5256 21.5489 20.6836 21.1674 20.6836 20.7695V8.76953C20.6837 8.67101 20.6643 8.57344 20.6267 8.48239C20.5891 8.39135 20.5338 8.30861 20.4642 8.23891ZM15.4336 5.32984L18.1233 8.01953H15.4336V5.32984ZM19.1836 20.7695H5.68359V4.26953H13.9336V8.76953C13.9336 8.96844 14.0126 9.15921 14.1533 9.29986C14.2939 9.44051 14.4847 9.51953 14.6836 9.51953H19.1836V20.7695ZM15.2142 13.4889C15.2839 13.5586 15.3392 13.6413 15.3769 13.7324C15.4146 13.8234 15.434 13.921 15.434 14.0195C15.434 14.1181 15.4146 14.2157 15.3769 14.3067C15.3392 14.3977 15.2839 14.4805 15.2142 14.5502C15.1445 14.6198 15.0618 14.6751 14.9708 14.7128C14.8797 14.7505 14.7821 14.7699 14.6836 14.7699C14.585 14.7699 14.4875 14.7505 14.3964 14.7128C14.3054 14.6751 14.2227 14.6198 14.153 14.5502L13.1836 13.5798V17.7695C13.1836 17.9684 13.1046 18.1592 12.9639 18.2999C12.8233 18.4405 12.6325 18.5195 12.4336 18.5195C12.2347 18.5195 12.0439 18.4405 11.9033 18.2999C11.7626 18.1592 11.6836 17.9684 11.6836 17.7695V13.5798L10.7142 14.5502C10.6445 14.6198 10.5618 14.6751 10.4708 14.7128C10.3797 14.7505 10.2821 14.7699 10.1836 14.7699C10.085 14.7699 9.98747 14.7505 9.89642 14.7128C9.80538 14.6751 9.72265 14.6198 9.65297 14.5502C9.58329 14.4805 9.52801 14.3977 9.4903 14.3067C9.45259 14.2157 9.43318 14.1181 9.43318 14.0195C9.43318 13.921 9.45259 13.8234 9.4903 13.7324C9.52801 13.6413 9.58329 13.5586 9.65297 13.4889L11.903 11.2389C11.9726 11.1692 12.0553 11.1139 12.1464 11.0761C12.2374 11.0384 12.335 11.0189 12.4336 11.0189C12.5322 11.0189 12.6298 11.0384 12.7208 11.0761C12.8118 11.1139 12.8946 11.1692 12.9642 11.2389L15.2142 13.4889Z" fill="white"/>
</svg>
