<svg width="25" height="25" viewBox="0 0 25 25" fill="none" xmlns="http://www.w3.org/2000/svg">
<path d="M20.6836 5.01953V8.76953C20.6836 8.96844 20.6046 9.15921 20.4639 9.29986C20.3233 9.44051 20.1325 9.51953 19.9336 9.51953C19.7347 9.51953 19.5439 9.44051 19.4033 9.29986C19.2626 9.15921 19.1836 8.96844 19.1836 8.76953V5.76953H16.1836C15.9847 5.76953 15.7939 5.69051 15.6533 5.54986C15.5126 5.40921 15.4336 5.21844 15.4336 5.01953C15.4336 4.82062 15.5126 4.62985 15.6533 4.4892C15.7939 4.34855 15.9847 4.26953 16.1836 4.26953H19.9336C20.1325 4.26953 20.3233 4.34855 20.4639 4.4892C20.6046 4.62985 20.6836 4.82062 20.6836 5.01953ZM8.68359 19.2695H5.68359V16.2695C5.68359 16.0706 5.60458 15.8799 5.46392 15.7392C5.32327 15.5985 5.13251 15.5195 4.93359 15.5195C4.73468 15.5195 4.54392 15.5985 4.40326 15.7392C4.26261 15.8799 4.18359 16.0706 4.18359 16.2695V20.0195C4.18359 20.2184 4.26261 20.4092 4.40326 20.5499C4.54392 20.6905 4.73468 20.7695 4.93359 20.7695H8.68359C8.88251 20.7695 9.07327 20.6905 9.21392 20.5499C9.35458 20.4092 9.43359 20.2184 9.43359 20.0195C9.43359 19.8206 9.35458 19.6299 9.21392 19.4892C9.07327 19.3485 8.88251 19.2695 8.68359 19.2695ZM19.9336 15.5195C19.7347 15.5195 19.5439 15.5985 19.4033 15.7392C19.2626 15.8799 19.1836 16.0706 19.1836 16.2695V19.2695H16.1836C15.9847 19.2695 15.7939 19.3485 15.6533 19.4892C15.5126 19.6299 15.4336 19.8206 15.4336 20.0195C15.4336 20.2184 15.5126 20.4092 15.6533 20.5499C15.7939 20.6905 15.9847 20.7695 16.1836 20.7695H19.9336C20.1325 20.7695 20.3233 20.6905 20.4639 20.5499C20.6046 20.4092 20.6836 20.2184 20.6836 20.0195V16.2695C20.6836 16.0706 20.6046 15.8799 20.4639 15.7392C20.3233 15.5985 20.1325 15.5195 19.9336 15.5195ZM8.68359 4.26953H4.93359C4.73468 4.26953 4.54392 4.34855 4.40326 4.4892C4.26261 4.62985 4.18359 4.82062 4.18359 5.01953V8.76953C4.18359 8.96844 4.26261 9.15921 4.40326 9.29986C4.54392 9.44051 4.73468 9.51953 4.93359 9.51953C5.13251 9.51953 5.32327 9.44051 5.46392 9.29986C5.60458 9.15921 5.68359 8.96844 5.68359 8.76953V5.76953H8.68359C8.88251 5.76953 9.07327 5.69051 9.21392 5.54986C9.35458 5.40921 9.43359 5.21844 9.43359 5.01953C9.43359 4.82062 9.35458 4.62985 9.21392 4.4892C9.07327 4.34855 8.88251 4.26953 8.68359 4.26953Z" fill="white"/>
</svg>
