<svg width="40" height="41" viewBox="0 0 40 41" fill="none" xmlns="http://www.w3.org/2000/svg">
<path d="M13.1016 13.9849L19.8309 17.768M13.1016 13.9849V21.3342L19.8309 25.3345M13.1016 13.9849L19.8309 10.0156L26.901 13.9849M19.8309 17.768L26.901 13.9849M19.8309 17.768V25.3345M26.901 13.9849V21.3342L19.8309 25.3345" stroke="#111111" stroke-width="1.87495" stroke-linecap="round" stroke-linejoin="round"/>
<path fill-rule="evenodd" clip-rule="evenodd" d="M32.1868 7.6523H7.81241C6.7769 7.6523 5.93745 8.49174 5.93745 9.52725V26.3481C5.93745 27.3836 6.7769 28.2231 7.81241 28.2231H32.1868C33.2223 28.2231 34.0618 27.3836 34.0618 26.3481V9.52725C34.0618 8.49174 33.2223 7.6523 32.1868 7.6523ZM7.81241 5.77734C5.74139 5.77734 4.0625 7.45624 4.0625 9.52725V26.3481C4.0625 28.4191 5.74139 30.098 7.81241 30.098H19.0629C19.0624 30.1106 19.0621 30.1232 19.0621 30.1359V33.3218H14.9997C14.482 33.3218 14.0623 33.7416 14.0623 34.2593C14.0623 34.7771 14.482 35.1968 14.9997 35.1968H24.9995C25.5172 35.1968 25.937 34.7771 25.937 34.2593C25.937 33.7416 25.5172 33.3218 24.9995 33.3218H20.9371V30.1359C20.9371 30.1232 20.9368 30.1106 20.9363 30.098H32.1868C34.2578 30.098 35.9367 28.4191 35.9367 26.3481V9.52725C35.9367 7.45624 34.2578 5.77734 32.1868 5.77734H7.81241Z" fill="#111111"/>
</svg>
