<svg width="32" height="32" viewBox="0 0 32 32" fill="none" xmlns="http://www.w3.org/2000/svg">
<path d="M10.4766 10.7966L15.8602 13.8232M10.4766 10.7966V16.6762L15.8602 19.8765M10.4766 10.7966L15.8602 7.62109L21.5164 10.7966M15.8602 13.8232L21.5164 10.7966M15.8602 13.8232V19.8765M21.5164 10.7966V16.6762L15.8602 19.8765" stroke="#111111" stroke-width="1.87495" stroke-linecap="round" stroke-linejoin="round"/>
<path fill-rule="evenodd" clip-rule="evenodd" d="M25.0001 6.10542H6.99991C5.9644 6.10542 5.12495 6.94487 5.12495 7.98038V19.9376C5.12495 20.9731 5.9644 21.8125 6.99991 21.8125H25.0001C26.0356 21.8125 26.875 20.9731 26.875 19.9376V7.98038C26.875 6.94487 26.0356 6.10542 25.0001 6.10542ZM6.99991 4.23047C4.92889 4.23047 3.25 5.90936 3.25 7.98038V19.9376C3.25 22.0086 4.92889 23.6875 6.99991 23.6875H15.063C15.0627 23.6976 15.0625 23.7076 15.0625 23.7178V26.0791H12C11.4822 26.0791 11.0625 26.4988 11.0625 27.0166C11.0625 27.5344 11.4822 27.9541 12 27.9541H20C20.5178 27.9541 20.9375 27.5344 20.9375 27.0166C20.9375 26.4988 20.5178 26.0791 20 26.0791H16.9375V23.7178C16.9375 23.7076 16.9373 23.6976 16.937 23.6875H25.0001C27.0711 23.6875 28.75 22.0086 28.75 19.9376V7.98038C28.75 5.90936 27.0711 4.23047 25.0001 4.23047H6.99991Z" fill="#111111"/>
</svg>
