<svg width="46" height="34" viewBox="0 0 46 34" fill="none" xmlns="http://www.w3.org/2000/svg">
    <style>
        .bak-color{fill: #858585;}
        .icon-color{fill: #3d3d3d;}
    </style>
    <g opacity="1">
        <rect class="bak-color" x="0.414062" width="45.5512" height="33.9997" rx="0.995603" fill="#848484"/>
        <path class="icon-color" d="M29.9392 12.6666L23.729 9.26868C23.563 9.177 23.3766 9.12891 23.187 9.12891C22.9974 9.12891 22.8109 9.177 22.645 9.26868L16.4348 12.6681C16.2575 12.7651 16.1094 12.908 16.0061 13.0818C15.9028 13.2556 15.8481 13.4539 15.8477 13.656V20.4054C15.8481 20.6076 15.9028 20.8059 16.0061 20.9797C16.1094 21.1535 16.2575 21.2964 16.4348 21.3934L22.645 24.7928C22.8109 24.8845 22.9974 24.9325 23.187 24.9325C23.3766 24.9325 23.563 24.8845 23.729 24.7928L29.9392 21.3934C30.1165 21.2964 30.2646 21.1535 30.3678 20.9797C30.4711 20.8059 30.5259 20.6076 30.5263 20.4054V13.6568C30.5262 13.4542 30.4717 13.2555 30.3684 13.0813C30.2651 12.9071 30.1168 12.7639 29.9392 12.6666ZM23.187 10.2567L28.8566 13.3618L23.187 16.4669L17.5174 13.3618L23.187 10.2567ZM16.9768 14.3498L22.6224 17.4393V23.4936L16.9768 20.4061V14.3498ZM23.7515 23.4936V17.4422L29.3972 14.3498V20.4033L23.7515 23.4936Z" fill="#3D3D3D"/>
    </g>
</svg>
