<svg width="16" height="17" viewBox="0 0 16 17" fill="none" xmlns="http://www.w3.org/2000/svg">
<path d="M3.00781 13.1914V7.69141C3.00781 7.5588 3.06049 7.43162 3.15426 7.33785C3.24803 7.24408 3.3752 7.19141 3.50781 7.19141H9.5083L13.0083 10.6914V13.1914" stroke="black" stroke-width="0.674126" stroke-linecap="round" stroke-linejoin="round"/>
<path d="M9.50781 7.19141V10.6914H13.0083" stroke="black" stroke-width="0.674126" stroke-linecap="round" stroke-linejoin="round"/>
<path d="M5.82366 14.3192L5.00781 13.5034L5.82366 12.6875" stroke="black" stroke-width="0.674126" stroke-linecap="round" stroke-linejoin="round"/>
<path d="M7.08465 13.5039H5.00781" stroke="black" stroke-width="0.674126" stroke-linecap="round" stroke-linejoin="round"/>
<path d="M10.1914 12.6875L11.0073 13.5034L10.1914 14.3192" stroke="black" stroke-width="0.674126" stroke-linecap="round" stroke-linejoin="round"/>
<path d="M8.93359 13.5039H11.0104" stroke="black" stroke-width="0.674126" stroke-linecap="round" stroke-linejoin="round"/>
<path d="M4.5083 5.6875H3.50781C3.3752 5.6875 3.24803 5.63483 3.15426 5.54106C3.06049 5.44729 3.00781 5.32011 3.00781 5.1875V3.1875" stroke="black" stroke-width="0.674126" stroke-linecap="round" stroke-linejoin="round"/>
<path d="M13.0078 2.69531V5.19531C13.0078 5.32792 12.9551 5.4551 12.8614 5.54887C12.7676 5.64263 12.6404 5.69531 12.5078 5.69531H12.0078" stroke="black" stroke-width="0.674126" stroke-linecap="round" stroke-linejoin="round"/>
<path d="M7.00781 5.69531H9.50781" stroke="black" stroke-width="0.674126" stroke-linecap="round" stroke-linejoin="round"/>
</svg>
