<svg width="34" height="35" viewBox="0 0 34 35" fill="none" xmlns="http://www.w3.org/2000/svg">
<g filter="url(#filter0_d_16851_45963)">
<path d="M17.0273 7.92578C15.099 7.92578 13.2139 8.49761 11.6105 9.56895C10.0072 10.6403 8.75748 12.163 8.01952 13.9446C7.28157 15.7262 7.08849 17.6866 7.46469 19.5779C7.8409 21.4692 8.7695 23.2065 10.1331 24.5701C11.4966 25.9336 13.2339 26.8622 15.1252 27.2384C17.0165 27.6146 18.9769 27.4216 20.7585 26.6836C22.5401 25.9457 24.0628 24.696 25.1342 23.0926C26.2055 21.4892 26.7773 19.6041 26.7773 17.6758C26.7724 15.0914 25.7436 12.6144 23.9162 10.787C22.0888 8.95956 19.6117 7.93074 17.0273 7.92578ZM20.4398 18.3039L15.9398 21.3039C15.8157 21.3807 15.6733 21.4228 15.5273 21.4258C15.4037 21.4257 15.2817 21.3968 15.1711 21.3414C15.0512 21.2767 14.9512 21.1805 14.8818 21.0633C14.8124 20.946 14.7763 20.812 14.7773 20.6758V14.6758C14.7763 14.5395 14.8124 14.4056 14.8818 14.2883C14.9512 14.171 15.0512 14.0749 15.1711 14.0102C15.2915 13.9492 15.4257 13.9206 15.5604 13.9272C15.6952 13.9338 15.826 13.9753 15.9398 14.0477L20.4398 17.0477C20.5443 17.1158 20.6301 17.2089 20.6895 17.3186C20.7489 17.4283 20.78 17.5511 20.78 17.6758C20.78 17.8005 20.7489 17.9233 20.6895 18.0329C20.6301 18.1426 20.5443 18.2358 20.4398 18.3039Z" fill="white"/>
</g>
<defs>
<filter id="filter0_d_16851_45963" x="0.277344" y="0.925782" width="33.5" height="33.5" filterUnits="userSpaceOnUse" color-interpolation-filters="sRGB">
<feFlood flood-opacity="0" result="BackgroundImageFix"/>
<feColorMatrix in="SourceAlpha" type="matrix" values="0 0 0 0 0 0 0 0 0 0 0 0 0 0 0 0 0 0 127 0" result="hardAlpha"/>
<feOffset/>
<feGaussianBlur stdDeviation="3.5"/>
<feComposite in2="hardAlpha" operator="out"/>
<feColorMatrix type="matrix" values="0 0 0 0 0 0 0 0 0 0 0 0 0 0 0 0 0 0 0.9 0"/>
<feBlend mode="normal" in2="BackgroundImageFix" result="effect1_dropShadow_16851_45963"/>
<feBlend mode="normal" in="SourceGraphic" in2="effect1_dropShadow_16851_45963" result="shape"/>
</filter>
</defs>
</svg>
