<svg width="25" height="25" viewBox="0 0 25 25" fill="none" xmlns="http://www.w3.org/2000/svg">
<path d="M12.4313 8.01756C11.5413 8.01756 10.6713 8.28148 9.93126 8.77595C9.19124 9.27041 8.61447 9.97322 8.27387 10.7955C7.93328 11.6178 7.84416 12.5226 8.0178 13.3955C8.19143 14.2684 8.62001 15.0702 9.24935 15.6995C9.87869 16.3289 10.6805 16.7575 11.5534 16.9311C12.4263 17.1047 13.3311 17.0156 14.1534 16.675C14.9757 16.3344 15.6785 15.7576 16.1729 15.0176C16.6674 14.2776 16.9313 13.4076 16.9313 12.5176C16.9301 11.3245 16.4556 10.1806 15.6119 9.33695C14.7683 8.49331 13.6244 8.0188 12.4313 8.01756ZM12.4313 15.5176C11.838 15.5176 11.258 15.3416 10.7646 15.012C10.2713 14.6823 9.88675 14.2138 9.65969 13.6656C9.43263 13.1174 9.37322 12.5142 9.48897 11.9323C9.60473 11.3503 9.89045 10.8158 10.31 10.3962C10.7296 9.97668 11.2641 9.69096 11.8461 9.5752C12.428 9.45945 13.0312 9.51886 13.5794 9.74592C14.1276 9.97298 14.5961 10.3575 14.9257 10.8509C15.2554 11.3442 15.4313 11.9242 15.4313 12.5176C15.4313 13.3132 15.1153 14.0763 14.5527 14.6389C13.99 15.2015 13.227 15.5176 12.4313 15.5176ZM22.7382 10.5685C22.7173 10.4629 22.6739 10.363 22.611 10.2757C22.5481 10.1883 22.4671 10.1155 22.3735 10.0622L19.577 8.4685L19.5657 5.31662C19.5654 5.20807 19.5415 5.10089 19.4957 5.00248C19.4499 4.90407 19.3832 4.81677 19.3004 4.74662C18.286 3.88853 17.1177 3.23093 15.8579 2.80881C15.7587 2.77523 15.6535 2.7628 15.5492 2.77233C15.4449 2.78185 15.3438 2.81312 15.2523 2.86412L12.4313 4.441L9.60758 2.86131C9.51604 2.81002 9.41475 2.77852 9.31027 2.76883C9.20578 2.75914 9.10043 2.77148 9.00102 2.80506C7.74209 3.23027 6.57523 3.89037 5.56227 4.75037C5.47955 4.82042 5.413 4.90756 5.3672 5.0058C5.32139 5.10404 5.29743 5.21104 5.29696 5.31944L5.28289 8.47412L2.48633 10.0679C2.39277 10.1211 2.31177 10.1939 2.24884 10.2813C2.18592 10.3686 2.14253 10.4685 2.12164 10.5741C1.8657 11.8603 1.8657 13.1842 2.12164 14.4704C2.14253 14.576 2.18592 14.6759 2.24884 14.7632C2.31177 14.8506 2.39277 14.9234 2.48633 14.9766L5.28289 16.5704L5.29414 19.7222C5.29448 19.8308 5.31838 19.938 5.36419 20.0364C5.40999 20.1348 5.47662 20.2221 5.55946 20.2922C6.5739 21.1503 7.7421 21.8079 9.00196 22.2301C9.10117 22.2636 9.20632 22.2761 9.31063 22.2665C9.41493 22.257 9.51609 22.2257 9.60758 22.1747L12.4313 20.5941L15.2551 22.1738C15.3668 22.2361 15.4928 22.2684 15.6207 22.2676C15.7026 22.2675 15.784 22.2542 15.8616 22.2282C17.1204 21.8035 18.2873 21.1441 19.3004 20.2847C19.3831 20.2147 19.4497 20.1276 19.4955 20.0293C19.5413 19.9311 19.5652 19.8241 19.5657 19.7157L19.5798 16.561L22.3763 14.9672C22.4699 14.914 22.5509 14.8412 22.6138 14.7538C22.6767 14.6665 22.7201 14.5666 22.741 14.461C22.9955 13.1759 22.9946 11.8532 22.7382 10.5685ZM21.332 13.8413L18.6535 15.3647C18.5362 15.4315 18.439 15.5286 18.3723 15.646C18.3179 15.7397 18.2607 15.8391 18.2026 15.9329C18.1282 16.0511 18.0885 16.1879 18.0882 16.3276L18.0741 19.351C17.3542 19.9164 16.5522 20.3684 15.6957 20.6916L12.9938 19.186C12.8817 19.1239 12.7555 19.0917 12.6273 19.0922H12.6095C12.496 19.0922 12.3816 19.0922 12.2682 19.0922C12.134 19.0889 12.0014 19.1213 11.8838 19.186L9.18008 20.6954C8.32181 20.3747 7.51754 19.9248 6.79508 19.3613L6.78477 16.3426C6.78431 16.2026 6.74469 16.0656 6.67039 15.9469C6.61227 15.8532 6.55508 15.7594 6.50164 15.6601C6.43538 15.5409 6.33823 15.4418 6.22039 15.3732L3.53914 13.846C3.40039 12.9683 3.40039 12.0743 3.53914 11.1966L6.21289 9.67037C6.33025 9.60364 6.42741 9.50648 6.49414 9.38912C6.54852 9.29537 6.60571 9.196 6.66383 9.10225C6.73823 8.98402 6.77787 8.84725 6.77821 8.70756L6.79227 5.68412C7.5122 5.11876 8.31426 4.66667 9.17071 4.3435L11.8688 5.84912C11.9863 5.91421 12.119 5.94659 12.2532 5.94287C12.3666 5.94287 12.481 5.94287 12.5945 5.94287C12.7286 5.94622 12.8613 5.91387 12.9788 5.84912L15.6826 4.33975C16.5409 4.66044 17.3451 5.11031 18.0676 5.67381L18.0779 8.69256C18.0784 8.83252 18.118 8.96957 18.1923 9.08819C18.2504 9.18194 18.3076 9.27569 18.361 9.37506C18.4273 9.49423 18.5244 9.59333 18.6423 9.66194L21.3235 11.1891C21.4641 12.0675 21.4657 12.9625 21.3282 13.8413H21.332Z" fill="white"/>
</svg>
