<svg width="17" height="17" viewBox="0 0 17 17" fill="none" xmlns="http://www.w3.org/2000/svg">
<path d="M3.38672 16.4414V7.69141C3.38672 7.5588 3.4394 7.43162 3.53317 7.33785C3.62693 7.24408 3.75411 7.19141 3.88672 7.19141H9.88721L13.3872 10.6914V16.4414" stroke="black" stroke-width="0.684191" stroke-linecap="round" stroke-linejoin="round"/>
<path d="M9.88672 7.19141V10.6914H13.3872" stroke="black" stroke-width="0.684191" stroke-linecap="round" stroke-linejoin="round"/>
<path d="M9.20201 15.6959L8.38616 16.5117L7.57031 15.6959" stroke="black" stroke-width="0.684191" stroke-linecap="round" stroke-linejoin="round"/>
<path d="M8.38672 14.4349V16.5117" stroke="black" stroke-width="0.684191" stroke-linecap="round" stroke-linejoin="round"/>
<path d="M7.57031 11.3203L8.38616 10.5045L9.20201 11.3203" stroke="black" stroke-width="0.684191" stroke-linecap="round" stroke-linejoin="round"/>
<path d="M8.38672 12.582V10.5052" stroke="black" stroke-width="0.684191" stroke-linecap="round" stroke-linejoin="round"/>
<path d="M4.88721 5.6836H3.88672C3.75411 5.6836 3.62693 5.63092 3.53317 5.53715C3.4394 5.44338 3.38672 5.3162 3.38672 5.1836V3.18359" stroke="black" stroke-width="0.684191" stroke-linecap="round" stroke-linejoin="round"/>
<path d="M13.3867 2.69141V5.19141C13.3867 5.32401 13.334 5.45119 13.2403 5.54496C13.1465 5.63873 13.0193 5.69141 12.8867 5.69141H12.3867" stroke="black" stroke-width="0.684191" stroke-linecap="round" stroke-linejoin="round"/>
<path d="M7.38672 5.69531H9.88672" stroke="black" stroke-width="0.684191" stroke-linecap="round" stroke-linejoin="round"/>
</svg>
