<svg width="33" height="33" viewBox="0 0 33 33" fill="none" xmlns="http://www.w3.org/2000/svg">
<path d="M16.4994 9.01862C16.7646 9.01862 17.019 9.12397 17.2065 9.31151C17.394 9.49905 17.4994 9.7534 17.4994 10.0186V17.0186C17.4994 17.2838 17.394 17.5382 17.2065 17.7257C17.019 17.9133 16.7646 18.0186 16.4994 18.0186C16.2342 18.0186 15.9798 17.9133 15.7923 17.7257C15.6048 17.5382 15.4994 17.2838 15.4994 17.0186V10.0186C15.4994 9.7534 15.6048 9.49905 15.7923 9.31151C15.9798 9.12397 16.2342 9.01862 16.4994 9.01862ZM14.9994 21.5186C14.9994 21.8153 15.0874 22.1053 15.2522 22.352C15.417 22.5986 15.6513 22.7909 15.9254 22.9044C16.1995 23.018 16.5011 23.0477 16.792 22.9898C17.083 22.9319 17.3503 22.7891 17.5601 22.5793C17.7698 22.3695 17.9127 22.1022 17.9706 21.8113C18.0285 21.5203 17.9987 21.2187 17.8852 20.9446C17.7717 20.6705 17.5794 20.4362 17.3328 20.2714C17.0861 20.1066 16.7961 20.0186 16.4994 20.0186C16.1016 20.0186 15.72 20.1767 15.4387 20.458C15.1574 20.7393 14.9994 21.1208 14.9994 21.5186ZM30.4994 16.0186C30.5001 16.2806 30.4489 16.5401 30.3487 16.7821C30.2485 17.0241 30.1013 17.2439 29.9156 17.4286L17.9094 29.4361C17.5347 29.8086 17.0278 30.0177 16.4994 30.0177C15.971 30.0177 15.4641 29.8086 15.0894 29.4361L3.0894 17.4286C2.7169 17.0539 2.50781 16.547 2.50781 16.0186C2.50781 15.4902 2.7169 14.9833 3.0894 14.6086L15.0956 2.60112C15.4704 2.22861 15.9773 2.01953 16.5056 2.01953C17.034 2.01953 17.5409 2.22861 17.9156 2.60112L29.9219 14.6086C30.1064 14.7939 30.2525 15.0139 30.3516 15.2559C30.4507 15.4979 30.501 15.7571 30.4994 16.0186ZM28.4994 16.0186L16.4994 4.01862L4.4994 16.0186L16.4994 28.0186L28.4994 16.0186Z" fill="#111111"/>
</svg>
