<svg width="31" height="31" viewBox="0 0 31 31" fill="none" xmlns="http://www.w3.org/2000/svg">
<path d="M8.7693 26.4858L20.6443 15.3093L26.2325 20.8975M8.7693 26.4858H22.7399C25.0546 26.4858 26.9311 24.6093 26.9311 22.2946V13.9122M8.7693 26.4858C6.45458 26.4858 4.57812 24.6093 4.57812 22.2946V8.32399C4.57812 6.00927 6.45458 4.13281 8.7693 4.13281H17.8502M28.3281 9.72105L25.534 6.92693M25.534 6.92693L22.7399 4.13281M25.534 6.92693L22.7399 9.72105M25.534 6.92693L28.3281 4.13281M12.9605 10.4196C12.9605 11.5769 12.0223 12.5152 10.8649 12.5152C9.70753 12.5152 8.7693 11.5769 8.7693 10.4196C8.7693 9.26221 9.70753 8.32399 10.8649 8.32399C12.0223 8.32399 12.9605 9.26221 12.9605 10.4196Z" stroke="white" stroke-width="2.54883" stroke-linecap="round" stroke-linejoin="round"/>
</svg>
