<svg width="22" height="22" viewBox="0 0 22 22" fill="none" xmlns="http://www.w3.org/2000/svg">
<path d="M14.6666 3.17878C16.0248 3.85377 16.9583 5.25538 16.9583 6.875C16.9583 8.49462 16.0248 9.89623 14.6666 10.5712M16.4999 15.3692C17.8854 15.9961 19.1331 17.0179 20.1666 18.3333M1.83325 18.3333C3.61754 16.0624 6.04 14.6667 8.70825 14.6667C11.3765 14.6667 13.799 16.0624 15.5833 18.3333M12.8333 6.875C12.8333 9.15317 10.9864 11 8.70825 11C6.43008 11 4.58325 9.15317 4.58325 6.875C4.58325 4.59683 6.43008 2.75 8.70825 2.75C10.9864 2.75 12.8333 4.59683 12.8333 6.875Z" stroke="#18181D" stroke-width="1.83537" stroke-linecap="round" stroke-linejoin="round"/>
</svg>
