<svg width="130" height="120" viewBox="0 0 130 120" fill="none" xmlns="http://www.w3.org/2000/svg">
<g clip-path="url(#clip0_15079_63218)">
<path d="M72.6829 86.8305C72.2779 86.8305 71.9573 86.4987 71.9573 86.1078C71.9433 81.5043 68.2312 77.1146 62.5001 74.9295C59.6092 73.8159 56.9039 72.4352 54.4545 70.8238C54.1199 70.6044 54.0271 70.1545 54.2464 69.8199C54.4658 69.4824 54.9213 69.3924 55.2504 69.6118C57.6154 71.1669 60.2279 72.4998 63.0203 73.5741C69.013 75.8575 72.9978 80.4245 73.3803 85.3514C78.2734 85.1939 88.4225 85.2642 93.6671 85.2501C93.6812 84.0606 93.5884 82.6601 93.7683 81.2766C94.2127 77.8176 96.2908 74.2968 100.129 70.5116C100.416 70.2304 100.875 70.2332 101.156 70.5201C101.437 70.8069 101.434 71.2653 101.147 71.5465C97.5985 75.0448 95.5991 78.3857 95.2054 81.4678C95.0113 82.9329 95.1688 84.4515 95.0929 86.0094C95.0732 86.3947 94.7582 86.6984 94.373 86.7012C92.1542 86.7152 102.407 86.6562 72.68 86.8305H72.6829Z" fill="black"/>
<path d="M46.5382 63.5573C46.3273 63.5573 46.1164 63.4645 45.973 63.2874C38.8301 54.4544 36.5354 42.3397 39.9859 31.676C49.7553 1.50166 99.0439 -12.8965 117.503 18.3717C122.337 26.5635 123.569 36.6929 120.889 46.167C120.652 47.1063 119.229 46.7548 119.488 45.7902C122.07 36.6901 120.891 26.9657 116.254 19.1085C98.5939 -10.8099 50.8493 2.83743 41.3667 32.1231C38.068 42.3256 40.2671 53.9201 47.1035 62.3762C47.4887 62.8543 47.1428 63.5573 46.5382 63.5573Z" fill="black"/>
<path d="M55.7704 110.853C37.7558 109.273 19.0662 108.961 0.79852 108.573C0.0139305 108.556 -0.0198153 107.403 0.00549407 107.257C2.47456 94.5824 2.53643 81.1656 0.182659 68.4603C0.0336156 67.6645 0.607294 66.9277 1.40032 66.8743C17.0527 65.8197 35.6663 64.2505 55.0111 60.6172C55.8913 60.4485 56.7068 61.2134 56.5634 62.1386C54.2068 77.4086 54.4234 93.7078 57.1877 109.281C57.3424 110.156 56.6365 110.929 55.7676 110.851L55.7704 110.853ZM1.50999 107.139C19.5331 107.521 37.9189 107.842 55.7366 109.394C52.9779 93.7612 52.7614 77.4086 55.1095 62.0767C35.8041 65.6903 17.258 67.2595 1.63373 68.3141C3.97062 81.0306 3.92844 94.4389 1.50999 107.139Z" fill="black"/>
<path d="M34.0802 75.0603C34.9351 79.8101 27.6769 81.5367 26.6364 76.7561C25.5791 71.8826 33.1578 69.9394 34.0802 75.0603Z" fill="#F1D22F"/>
<path d="M84.8734 55.5964C80.3289 51.291 77.6968 44.9805 76.4285 39.1594C75.1574 33.3382 75.7676 27.1937 78.1664 21.6678C78.6304 20.5992 79.1675 19.539 79.9943 18.6673C82.1681 16.3726 85.2221 16.5497 87.2721 18.6982C88.2732 19.7471 88.8469 21.066 89.2941 22.3877C92.9161 33.133 89.0072 45.1071 84.8734 55.5992V55.5964Z" fill="#23B882"/>
<path d="M83.0004 74.7319C84.7299 75.404 86.943 75.1678 88.321 74.0598C89.4852 73.1233 89.9577 71.7257 90.1376 70.3759C91.0628 63.4523 79.3221 62.7071 79.7299 70.4208C79.8255 72.2122 81.0291 73.967 82.9976 74.7291L83.0004 74.7319Z" fill="#23B882"/>
<path d="M83.8384 98.2142C79.9829 98.2142 76.1275 97.8065 72.3817 96.991C71.4846 96.7941 70.5454 96.5523 69.7805 95.9392C67.3564 93.996 68.3969 90.1715 68.5769 88.6754C68.6247 88.2846 68.6753 87.8824 68.8075 87.469C69.0549 86.7041 69.5358 86.0461 70.2698 85.7227V85.7114C70.7928 85.658 68.1972 85.1828 89.3137 85.2334C92.0217 85.2418 94.2687 85.2474 95.3795 85.2278C97.3761 85.1996 98.4981 85.6524 99.3305 88.5686C99.9633 90.793 100.52 93.248 98.9199 95.1518C97.9048 96.3554 96.3665 96.766 95.0026 97.0528C91.3496 97.8262 87.5926 98.2142 83.8356 98.2142H83.8384ZM70.7282 87.1119C70.0251 87.604 70.0926 88.6389 69.9183 89.5444C69.5808 91.2598 69.3249 93.712 70.6916 94.8087C71.2119 95.2249 71.9346 95.4077 72.6939 95.5736C79.8873 97.1372 87.4998 97.1597 94.7073 95.6327C98.7737 94.7722 99.0859 92.9921 97.9413 88.9651C97.3001 86.7238 96.7433 86.6507 95.4076 86.6788C90.9756 86.7576 71.7152 86.4342 70.7282 87.1119Z" fill="black"/>
<path d="M72.3762 105.856C71.4848 105.651 70.5258 105.428 69.7722 104.79C67.8571 103.288 68.0399 100.442 68.4983 98.1421C68.5883 97.5459 68.6248 96.9441 68.7964 96.3564C69.1029 95.434 69.9662 94.2304 70.7283 94.835C71.2261 95.2344 71.9375 95.3975 72.694 95.5718C83.9679 98.0268 95.1715 96.0471 97.14 94.79C97.4212 94.6101 97.7868 94.6466 98.0287 94.8744C98.7486 95.5549 99.0776 96.5083 99.3279 97.4363C99.9747 99.7507 100.486 102.163 98.9313 104.011C97.933 105.192 96.392 105.614 95.0225 105.912C87.5478 107.476 79.7216 107.45 72.3762 105.85V105.856ZM70.388 96.3423C70.0534 96.8654 70.0787 97.4138 69.9269 98.4008C69.581 100.144 69.2941 102.571 70.6918 103.668C71.1951 104.095 71.9038 104.259 72.6546 104.433C79.8425 105.999 87.4634 106.022 94.7188 104.5C95.8492 104.253 97.1175 103.915 97.8234 103.083C98.6501 102.093 98.5123 100.544 98.4955 100.69C98.4589 99.4385 97.7615 96.9863 97.3509 96.3339C96.5916 96.6967 95.7592 96.902 95.014 97.0566C83.7176 99.4723 72.424 97.4335 70.388 96.3452V96.3423Z" fill="black"/>
<path d="M79.5218 112.063C77.1089 110.871 75.461 108.354 75.4132 105.801C75.4048 105.359 75.79 105.008 76.2456 105.07C81.15 105.795 86.1022 105.809 90.956 105.112C91.4818 105.033 91.9121 105.539 91.7518 106.048C89.9155 111.847 83.979 114.198 79.5246 112.063H79.5218ZM76.9571 106.633C78.0988 112.485 86.7799 113.422 89.938 106.709C85.641 107.221 81.285 107.198 76.9571 106.633Z" fill="black"/>
<path d="M80.43 53.979C76.3777 50.1404 73.3012 44.1702 71.7742 37.1708C69.7945 28.0988 72.8457 18.8525 75.5228 16.0234C78.0088 13.3969 81.5521 13.6444 83.8524 16.0516C85.0166 17.2692 85.6297 18.8047 86.0346 20.0083C89.7101 30.9166 85.8237 43.0004 81.6027 53.7175C81.4143 54.1984 80.8012 54.3305 80.43 53.979ZM76.5774 17.0218C74.3108 19.4177 71.2821 28.1044 73.1915 36.8615C74.5583 43.1213 77.1932 48.5066 80.6578 52.1567C84.5836 42.0667 88.0819 30.6241 84.6623 20.4723C84.2827 19.3446 83.7652 18.0566 82.8035 17.0527C81.0121 15.177 78.4418 15.0476 76.5774 17.0189V17.0218Z" fill="black"/>
<path d="M78.7964 73.2601C73.1328 71.061 74.2379 62.9114 79.7722 62.1437C84.477 61.4828 87.4157 64.5987 86.9151 68.3248C86.6676 70.1695 85.9674 71.5672 84.8341 72.4755C83.2959 73.7128 80.8156 74.0419 78.7964 73.2573V73.2601ZM79.3195 71.9074C80.8493 72.5008 82.7841 72.2646 83.923 71.3478C84.7694 70.6673 85.2784 69.6155 85.4781 68.1335C85.8493 65.3439 83.7121 63.066 79.9691 63.5807C75.8802 64.1487 75.0703 70.2595 79.3195 71.9074Z" fill="black"/>
<path d="M10.1153 101.478C9.47408 101.478 9.14787 100.708 9.595 100.247C16.0404 93.6128 15.7705 87.8535 17.3537 85.1679C18.1861 83.7534 19.5219 82.8619 20.928 82.7804C24.086 82.5976 25.7002 86.0706 26.2542 87.2095C27.9865 90.7866 34.0269 99.9879 34.2519 100.418C34.37 100.643 34.3616 100.913 34.2294 101.13C33.8273 101.793 34.5753 101.343 10.1181 101.478H10.1153ZM11.7632 100.027H32.289C31.1614 98.236 26.5016 91.0594 24.9437 87.8423C23.726 85.3282 22.424 84.1359 21.0095 84.2287C19.924 84.2905 19.0551 85.137 18.5995 85.9075C17.2665 88.1713 17.3987 93.5087 11.7604 100.03L11.7632 100.027Z" fill="black"/>
<path d="M45.6635 101.474H33.6022C33.3097 101.474 33.0482 101.3 32.9329 101.033C32.826 100.839 31.5156 98.8279 30.1911 96.7216C30.0505 96.4966 30.0448 96.2126 30.1714 95.982C31.9627 92.7733 32.0949 90.1861 32.9723 88.6676C33.6388 87.5287 34.7214 86.8059 35.8688 86.7328C38.3547 86.5781 39.6933 89.3369 40.1348 90.2367C41.1922 92.419 44.3277 97.3177 45.6663 99.41C46.0291 99.978 46.2625 100.344 46.2962 100.405C46.5578 100.895 46.2006 101.474 45.6579 101.474H45.6635ZM34.0128 100.023H44.3418C42.9357 97.8267 39.8986 93.0686 38.8328 90.8695C37.9217 89.0022 36.9712 88.1276 35.9588 88.1783C35.1798 88.2289 34.5527 88.8391 34.2293 89.3959C33.4981 90.667 33.4166 92.9758 31.6478 96.3082C32.6264 97.8633 33.5656 99.3116 34.0128 100.026V100.023Z" fill="black"/>
<path d="M24.4597 75.8574C23.1999 70.0616 32.2185 67.7556 33.3264 73.8805C34.3473 79.561 25.6999 81.5717 24.4597 75.8574ZM25.8771 75.5481C26.7151 79.3979 32.5897 77.9721 31.8979 74.1364C31.1527 70.0025 25.0194 71.5998 25.8771 75.5481Z" fill="black"/>
<path d="M45.537 116.098C45.4891 116.098 45.4385 116.092 45.3907 116.084C39.578 114.9 33.6444 114.714 27.7529 115.527C27.3592 115.58 26.988 115.305 26.9346 114.908C26.8783 114.512 27.1568 114.146 27.5533 114.09C33.6078 113.252 39.7074 113.443 45.6804 114.664C46.0741 114.742 46.3272 115.128 46.2484 115.518C46.1781 115.862 45.8744 116.098 45.5398 116.098H45.537Z" fill="black"/>
<path d="M40.9533 119.159C40.8999 119.159 40.8436 119.154 40.7874 119.14C38.0118 118.484 35.1659 118.33 32.3256 118.676C31.9291 118.718 31.5636 118.439 31.5186 118.043C31.4707 117.646 31.7548 117.284 32.1513 117.236C35.1631 116.87 38.1805 117.036 41.1192 117.728C41.5101 117.821 41.752 118.212 41.6592 118.6C41.5804 118.934 41.2823 119.159 40.9533 119.159Z" fill="black"/>
<path d="M30.2868 41.7237C29.8678 29.609 36.2513 17.6461 46.5522 11.2485C46.8897 11.0404 47.3396 11.1416 47.5506 11.4819C47.7615 11.8221 47.6574 12.2693 47.3171 12.4802C37.4521 18.6079 31.3357 30.0674 31.7378 41.6731C31.7688 42.6349 30.3205 42.6883 30.2868 41.7237Z" fill="black"/>
<path d="M25.4919 27.2694C25.1039 27.171 24.8676 26.7773 24.9689 26.3892C26.4734 20.4472 30.222 15.0338 35.2529 11.5355C35.5819 11.3077 36.0347 11.3892 36.2625 11.7155C36.4931 12.0445 36.4087 12.4972 36.0825 12.725C31.3328 16.0265 27.7951 21.1362 26.375 26.7436C26.2822 27.1204 25.8997 27.3679 25.4948 27.2694H25.4919Z" fill="black"/>
<path d="M106.097 75.7229C96.5749 71.7999 93.3887 60.855 98.2593 52.1374C103.276 43.1357 114.899 41.454 122.492 46.4512C133.723 53.8865 132.059 70.1942 119.494 75.6272C115.335 77.4326 110.456 77.5198 106.097 75.7229ZM113.012 45.1267C96.1193 45.1267 91.513 68.1441 106.651 74.3815C110.585 76.0013 115.056 75.9703 118.917 74.2971C130.439 69.314 131.957 54.4546 121.693 47.6632C119.117 45.9675 116.06 45.1295 113.012 45.1295V45.1267Z" fill="black"/>
<path d="M110.579 69.7426L110.38 57.5463C110.365 56.7336 111.257 56.2386 111.949 56.6633C115.146 58.6233 118.315 60.3163 121.518 62.3016C122.101 62.6644 122.174 63.5052 121.656 63.9524C118.67 66.5452 115.534 68.6515 112.109 70.62C111.434 71.008 110.59 70.5187 110.579 69.7426Z" fill="#F1D22F"/>
<path d="M107.922 66.4907L107.722 54.2916C107.699 52.8912 109.226 52.0616 110.396 52.7787C113.616 54.7556 116.684 56.3839 119.966 58.4199C120.95 59.0329 121.097 60.4559 120.199 61.2376C117.421 63.6505 114.35 65.7961 110.537 67.9868C109.384 68.6477 107.938 67.8237 107.919 66.4936L107.922 66.4907ZM109.373 66.4654C109.375 66.6848 109.615 66.8423 109.817 66.7241C113.546 64.5813 116.544 62.4891 119.249 60.1381C119.398 60.0087 119.37 59.7528 119.204 59.6488C116.023 57.6747 112.851 55.9817 109.64 54.0104C109.429 53.8811 109.17 54.0273 109.176 54.2635L109.375 66.4598L109.373 66.4654Z" fill="black"/>
</g>
<defs>
<clipPath id="clip0_15079_63218">
<rect width="130" height="118.307" fill="white" transform="translate(0 0.84375)"/>
</clipPath>
</defs>
</svg>
