<svg width="22" height="22" viewBox="0 0 22 22" fill="none" xmlns="http://www.w3.org/2000/svg">
<path d="M13.7496 17.4154C13.7496 18.9341 12.5184 20.1654 10.9996 20.1654C9.48079 20.1654 8.24958 18.9341 8.24958 17.4154M12.6464 5.71738C13.0456 5.30495 13.2912 4.74301 13.2912 4.1237C13.2912 2.85805 12.2652 1.83203 10.9996 1.83203C9.73392 1.83203 8.70791 2.85805 8.70791 4.1237C8.70791 4.74301 8.95358 5.30495 9.35278 5.71738M2.33416 7.62808C2.32101 6.29768 3.03829 5.05532 4.19702 4.40151M19.665 7.62808C19.6781 6.29768 18.9609 5.05532 17.8021 4.40151M16.4996 10.2654C16.4996 9.00117 15.9201 7.78875 14.8887 6.89482C13.8572 6.0009 12.4583 5.4987 10.9996 5.4987C9.54089 5.4987 8.14194 6.0009 7.11049 6.89482C6.07904 7.78875 5.49958 9.00117 5.49958 10.2654C5.49958 12.357 4.98086 13.8867 4.33364 14.9813C3.59597 16.2289 3.22714 16.8526 3.2417 17.0016C3.25837 17.1721 3.28905 17.2259 3.42731 17.327C3.54815 17.4154 4.15529 17.4154 5.36958 17.4154H16.6296C17.8439 17.4154 18.451 17.4154 18.5719 17.327C18.7101 17.2259 18.7408 17.1721 18.7575 17.0016C18.772 16.8526 18.4032 16.2289 17.6655 14.9813C17.0183 13.8867 16.4996 12.357 16.4996 10.2654Z" stroke="#18181D" stroke-width="1.8501" stroke-linecap="round" stroke-linejoin="round"/>
</svg>
