<svg width="22" height="22" viewBox="0 0 22 22" fill="none" xmlns="http://www.w3.org/2000/svg">
<path d="M13.7413 14.745L14.263 15.5006L14.2845 15.4857L14.3051 15.4697L13.7413 14.745ZM13.7413 13.9565L14.3438 13.2637L14.3125 13.2364L14.2788 13.2121L13.7413 13.9565ZM10.5188 11.6298L11.0564 10.8853L10.9634 10.8182L10.8568 10.776L10.5188 11.6298ZM9.45892 11.9773L10.3771 11.973L10.3771 11.9602L10.3766 11.9473L9.45892 11.9773ZM9.48012 16.5479L8.56191 16.5521L8.56211 16.5936L8.56604 16.6349L9.48012 16.5479ZM10.5789 16.9288L10.879 17.7965L10.9975 17.7555L11.1006 17.6843L10.5789 16.9288ZM5.50038 9.69946H16.5004V7.86304H5.50038V9.69946ZM18.8822 10.8438V17.7188H20.7186V10.8438H18.8822ZM16.5004 18.863H5.50038V20.6995H16.5004V18.863ZM3.11859 18.6422V10.8438H1.28217V18.6422H3.11859ZM5.50038 18.863C4.66757 18.863 4.06995 18.8629 3.62776 18.8459C3.1616 18.828 2.97638 18.793 2.91248 18.7709C2.89706 18.7656 2.94691 18.78 3.00989 18.8404C3.07893 18.9066 3.11297 18.9789 3.12599 19.0193C3.12905 19.0288 3.11859 18.9879 3.11859 18.6422H1.28217C1.28217 18.866 1.27171 19.2522 1.37789 19.582C1.44248 19.7827 1.55386 19.9885 1.73891 20.1659C1.91791 20.3376 2.12245 20.441 2.31328 20.5068C2.66187 20.6272 3.09541 20.6633 3.55738 20.681C4.04331 20.6996 4.68318 20.6995 5.50038 20.6995V18.863ZM18.8822 17.7188C18.8822 18.2698 18.8787 18.5594 18.8448 18.7504C18.8206 18.8865 18.8126 18.8002 18.9012 18.7448C18.9032 18.7436 18.7966 18.8016 18.3446 18.833C17.92 18.8625 17.3395 18.863 16.5004 18.863V20.6995C17.3113 20.6995 17.9682 20.7 18.4718 20.665C18.9479 20.632 19.46 20.5611 19.8745 20.3021C20.3757 19.9889 20.5739 19.5158 20.6529 19.0719C20.722 18.6828 20.7186 18.199 20.7186 17.7188H18.8822ZM16.5004 9.69946C17.3395 9.69946 17.92 9.7 18.3446 9.72948C18.7966 9.76087 18.9032 9.81895 18.9012 9.81771C18.8126 9.76231 18.8206 9.676 18.8448 9.81209C18.8787 10.0031 18.8822 10.2927 18.8822 10.8438H20.7186C20.7186 10.3635 20.722 9.87966 20.6529 9.49065C20.5739 9.04666 20.3757 8.57362 19.8745 8.26042C19.46 8.00136 18.9479 7.93053 18.4718 7.89747C17.9682 7.8625 17.3113 7.86304 16.5004 7.86304V9.69946ZM5.50038 7.86304C4.68948 7.86304 4.03251 7.8625 3.52895 7.89747C3.05285 7.93053 2.54072 8.00136 2.12623 8.26042C1.6251 8.57362 1.42683 9.04666 1.3479 9.49065C1.27874 9.87966 1.28217 10.3635 1.28217 10.8438H3.11859C3.11859 10.2927 3.12201 10.0031 3.15598 9.81209C3.18017 9.676 3.18816 9.76231 3.09953 9.81771C3.09754 9.81895 3.20416 9.76087 3.65618 9.72948C4.08075 9.7 4.66128 9.69946 5.50038 9.69946V7.86304ZM14.3051 15.4697C14.4334 15.3699 14.8339 15.0626 14.9088 14.5361C14.9953 13.9286 14.6131 13.4979 14.3438 13.2637L13.1388 14.6494C13.1965 14.6996 13.1805 14.6992 13.1507 14.645C13.113 14.5765 13.067 14.4444 13.0907 14.2773C13.1127 14.1233 13.1815 14.0297 13.2032 14.003C13.2221 13.9798 13.2247 13.9836 13.1775 14.0202L14.3051 15.4697ZM14.2788 13.2121L11.0564 10.8853L9.98131 12.3742L13.2038 14.701L14.2788 13.2121ZM10.8568 10.776C10.4571 10.6178 9.97476 10.5522 9.52982 10.682C9.30012 10.749 9.04219 10.881 8.84047 11.1222C8.62831 11.376 8.5308 11.6891 8.54119 12.0073L10.3766 11.9473C10.38 12.0492 10.3459 12.1847 10.2493 12.3003C10.1631 12.4034 10.0727 12.4366 10.0443 12.4449C10.0152 12.4534 10.0153 12.4474 10.05 12.4504C10.082 12.4532 10.128 12.4626 10.1808 12.4835L10.8568 10.776ZM8.54072 11.9816L8.56191 16.5521L10.3983 16.5436L10.3771 11.973L8.54072 11.9816ZM8.56604 16.6349C8.58995 16.8859 8.67137 17.152 8.84808 17.3874C9.02784 17.6268 9.26744 17.7825 9.52017 17.8669C9.99016 18.0238 10.4847 17.9329 10.879 17.7965L10.2787 16.061C10.1757 16.0966 10.1066 16.1089 10.0694 16.1121C10.0304 16.1155 10.0485 16.1072 10.1016 16.1249C10.1637 16.1457 10.2491 16.1948 10.3167 16.2849C10.3813 16.3709 10.3927 16.4447 10.3942 16.4608L8.56604 16.6349ZM11.1006 17.6843L14.263 15.5006L13.2195 13.9894L10.0571 16.1732L11.1006 17.6843Z" fill="#18181D"/>
<path d="M3.41739 5.60938H18.7698" stroke="#18181D" stroke-width="1.83643" stroke-linecap="round"/>
<path d="M5.65704 2.29297H16.5317" stroke="#18181D" stroke-width="1.83643" stroke-linecap="round"/>
</svg>
