<svg width="22" height="22" viewBox="0 0 22 22" fill="none" xmlns="http://www.w3.org/2000/svg">
<g clip-path="url(#clip0_14478_55895)">
<path d="M5.49992 5.4987L7.33325 3.66536M7.33325 3.66536L5.49992 1.83203M7.33325 3.66536H5.49992C3.47487 3.66536 1.83325 5.30699 1.83325 7.33203M16.4999 16.4987L14.6666 18.332M14.6666 18.332L16.4999 20.1654M14.6666 18.332H16.4999C18.525 18.332 20.1666 16.6904 20.1666 14.6654M12.299 12.2978C13.0161 12.6403 13.8189 12.832 14.6666 12.832C17.7042 12.832 20.1666 10.3696 20.1666 7.33203C20.1666 4.29447 17.7042 1.83203 14.6666 1.83203C11.629 1.83203 9.16659 4.29447 9.16659 7.33203C9.16659 8.17969 9.35834 8.98256 9.70084 9.69963M12.8333 14.6654C12.8333 17.7029 10.3708 20.1654 7.33325 20.1654C4.29569 20.1654 1.83325 17.7029 1.83325 14.6654C1.83325 11.6278 4.29569 9.16536 7.33325 9.16536C10.3708 9.16536 12.8333 11.6278 12.8333 14.6654Z" stroke="#18181D" stroke-width="1.83736" stroke-linecap="round" stroke-linejoin="round"/>
</g>
<defs>
<clipPath id="clip0_14478_55895">
<rect width="22" height="22" fill="white"/>
</clipPath>
</defs>
</svg>
