<svg width="22" height="22" viewBox="0 0 22 22" fill="none" xmlns="http://www.w3.org/2000/svg">
<path d="M11.9166 4.58333C11.9166 5.59586 9.65935 6.41667 6.87492 6.41667C4.09048 6.41667 1.83325 5.59586 1.83325 4.58333M11.9166 4.58333C11.9166 3.57081 9.65935 2.75 6.87492 2.75C4.09048 2.75 1.83325 3.57081 1.83325 4.58333M11.9166 4.58333V5.95833M1.83325 4.58333V15.5833C1.83325 16.5959 4.09048 17.4167 6.87492 17.4167M6.87492 10.0833C6.72042 10.0833 6.56754 10.0808 6.41658 10.0759C3.84694 9.99165 1.83325 9.20634 1.83325 8.25M6.87492 13.75C4.09048 13.75 1.83325 12.9292 1.83325 11.9167M20.1666 10.5417C20.1666 11.5542 17.9094 12.375 15.1249 12.375C12.3405 12.375 10.0833 11.5542 10.0833 10.5417M20.1666 10.5417C20.1666 9.52915 17.9094 8.70833 15.1249 8.70833C12.3405 8.70833 10.0833 9.52915 10.0833 10.5417M20.1666 10.5417V17.4167C20.1666 18.4292 17.9094 19.25 15.1249 19.25C12.3405 19.25 10.0833 18.4292 10.0833 17.4167V10.5417M20.1666 13.9792C20.1666 14.9917 17.9094 15.8125 15.1249 15.8125C12.3405 15.8125 10.0833 14.9917 10.0833 13.9792" stroke="#18181D" stroke-width="1.84701" stroke-linecap="round" stroke-linejoin="round"/>
</svg>
