<svg width="134" height="28" viewBox="0 0 134 28" fill="none" xmlns="http://www.w3.org/2000/svg">
<g clip-path="url(#clip0_14658_60223)">
<path d="M48.0195 9.76953C42.859 9.76953 38.7536 14.4069 39.6669 19.736C40.2432 23.0877 42.8412 25.8187 46.1752 26.528C48.5781 27.0423 50.8481 26.528 52.6481 25.3399V26.732H56.4254L56.5229 19.266C56.5406 18.8847 56.5229 18.5744 56.5229 18.2197C56.5229 13.5468 52.6924 9.76953 48.0195 9.76953ZM48.8175 22.8837C45.6077 23.4157 42.859 20.667 43.3821 17.4572C43.7013 15.5153 45.2708 13.9459 47.2215 13.6178C50.4313 13.0858 53.1801 15.8345 52.6569 19.0443C52.3377 20.9862 50.7683 22.5556 48.8175 22.8837Z" fill="#0F0F10"/>
<path d="M63.1875 13.0586H59.4102V26.7314H63.1875V13.0586Z" fill="#276AE2"/>
<path d="M61.6626 6.05388C60.0134 5.79674 58.6124 7.20658 58.8607 8.85583C59.0203 9.88439 59.8627 10.7267 60.8912 10.8864C62.5405 11.1435 63.9503 9.73365 63.6932 8.0844C63.5336 7.05584 62.6912 6.21348 61.6626 6.05388Z" fill="#27C3E2"/>
<path d="M32.1279 26.8554C30.3191 28.15 27.8097 27.7332 26.5152 25.9332L24.3516 23.0515L29.122 16.3924C29.1841 16.3038 29.2284 16.2062 29.2816 16.1176L33.0589 21.2515C34.3535 23.0604 33.9368 25.5697 32.1368 26.8643L32.1279 26.8554ZM28.1112 14.4417C29.1841 12.6595 28.7408 10.3363 27.0294 9.10382C25.2206 7.80925 22.7112 8.22599 21.4167 10.026L13.5517 21.0032C12.2571 22.8121 12.6739 25.3214 14.4739 26.616C16.2827 27.9106 18.7921 27.4938 20.0866 25.6938L23.1812 21.3756L27.9516 14.7166C28.0137 14.6279 28.058 14.5304 28.1112 14.4417ZM15.8128 14.4417C16.8857 12.6595 16.4423 10.3363 14.731 9.10382C12.9222 7.80925 10.4128 8.22599 9.11824 10.026L1.25328 21.0032C-0.0412916 22.8121 0.375454 25.3214 2.17544 26.616C3.98429 27.9106 6.49363 27.4938 7.78821 25.6938L10.8828 21.3756L15.6532 14.7166C15.7152 14.6279 15.7596 14.5304 15.8128 14.4417ZM17.7635 8.87328C19.9802 8.87328 21.7802 7.07329 21.7802 4.85656C21.7802 2.63983 19.9891 0.839844 17.7724 0.839844C15.5556 0.839844 13.7556 2.63983 13.7556 4.85656C13.7556 7.07329 15.5556 8.87328 17.7724 8.87328H17.7635Z" fill="#0F0F10"/>
<path d="M75.2476 14.4254C75.5402 13.317 76.1343 12.3417 76.9323 11.5614C75.8151 10.4796 74.2989 9.79688 72.623 9.79688C69.7413 9.79688 67.3206 11.7653 66.6112 14.4254C66.4782 14.9397 66.3984 15.4717 66.3984 16.0215V26.6972H70.1935V16.0215C70.1935 14.6826 71.2841 13.5919 72.623 13.5919C73.8821 13.5919 74.9018 14.5584 75.026 15.7821V26.7061H75.0348V16.0303C75.0348 15.4806 75.1146 14.9397 75.2476 14.4343V14.4254Z" fill="#276AE2"/>
<path d="M87.2458 14.3456C86.5099 11.7299 84.1069 9.79688 81.2607 9.79688C79.5759 9.79688 78.0508 10.4708 76.9336 11.5614C77.7139 12.3151 78.308 13.2638 78.6094 14.3456C78.7158 14.7269 78.7868 15.1259 78.8223 15.5338V26.6972H78.8311V16.0215C78.8311 14.6826 79.9218 13.5919 81.2607 13.5919C82.5198 13.5919 83.5395 14.5584 83.6636 15.7821V26.7061H87.4586V15.5426C87.4232 15.1348 87.3522 14.7358 87.2458 14.3545V14.3456Z" fill="#27C3E2"/>
<path d="M78.8135 15.5329C78.7781 15.1251 78.7071 14.726 78.6007 14.3448C78.2992 13.2719 77.7052 12.3231 76.9249 11.5605C76.1268 12.332 75.5416 13.3162 75.2401 14.4246C75.1071 14.9388 75.0273 15.4709 75.0273 16.0206V26.6964H78.8135V15.5329Z" fill="#4F9BE2"/>
<path d="M110.983 14.3437C110.247 11.7279 107.844 9.79492 104.998 9.79492C103.313 9.79492 101.788 10.4688 100.671 11.5594C99.5534 10.4777 98.0372 9.79492 96.3613 9.79492C93.4796 9.79492 91.0589 11.7634 90.3495 14.4235C90.2165 14.9377 90.1367 15.4698 90.1367 16.0195V26.6953H93.9318V16.0195C93.9318 14.6806 95.0224 13.59 96.3613 13.59C97.6204 13.59 98.6401 14.5565 98.7642 15.7801V26.7042H102.577V16.0284C102.577 14.6895 103.668 13.5988 105.007 13.5988C106.266 13.5988 107.285 14.5653 107.409 15.789V26.713H111.205V15.5496C111.169 15.1417 111.098 14.7427 110.992 14.3614L110.983 14.3437Z" fill="#0F0F10"/>
<path d="M130.479 13.6621H118.899C117.229 13.6621 115.875 15.0158 115.875 16.6857V23.6729C115.875 25.3428 117.229 26.6965 118.899 26.6965H130.479C132.149 26.6965 133.502 25.3428 133.502 23.6729V16.6857C133.502 15.0158 132.149 13.6621 130.479 13.6621Z" fill="#23B882"/>
<path d="M124.264 12.4824C124.113 12.4824 123.962 12.4204 123.847 12.3051L121.79 10.0706C121.577 9.84009 121.595 9.48541 121.825 9.28147C122.056 9.06867 122.41 9.0864 122.614 9.31694L124.335 11.1879L127.943 8.58099C128.192 8.40365 128.546 8.45685 128.724 8.70512C128.91 8.9534 128.848 9.30807 128.6 9.48541L124.592 12.3938C124.494 12.4647 124.379 12.5002 124.264 12.5002V12.4824Z" fill="#23B882"/>
<path d="M123.2 17.0039H119.175C119.033 17.0039 118.917 17.0216 118.829 17.0571C118.731 17.0926 118.651 17.1369 118.598 17.199C118.536 17.261 118.492 17.332 118.465 17.4029C118.439 17.4739 118.43 17.5448 118.43 17.6157C118.43 17.7842 118.492 17.9349 118.598 18.0591C118.713 18.1832 118.908 18.2541 119.175 18.2541H120.363V22.5812C120.363 22.7053 120.389 22.8206 120.434 22.9181C120.487 23.0157 120.549 23.0955 120.629 23.1576C120.708 23.2196 120.797 23.264 120.895 23.2906C120.992 23.3172 121.09 23.3349 121.196 23.3349C121.294 23.3349 121.391 23.3172 121.489 23.2906C121.586 23.264 121.675 23.2196 121.755 23.1576C121.835 23.0955 121.897 23.0157 121.95 22.9181C122.003 22.8206 122.021 22.7053 122.021 22.5812V18.2541H123.191C123.333 18.2541 123.448 18.2364 123.537 18.2009C123.635 18.1655 123.706 18.1211 123.768 18.0679C123.83 18.0059 123.874 17.9438 123.901 17.864C123.927 17.7931 123.936 17.7221 123.936 17.6512C123.936 17.4739 123.874 17.3231 123.768 17.199C123.652 17.0748 123.457 17.0039 123.191 17.0039H123.2Z" fill="white"/>
<path d="M130.57 17.4034C130.526 17.3236 130.455 17.2438 130.375 17.1817C130.295 17.1197 130.207 17.0664 130.1 17.0398C129.95 16.9955 129.817 16.9866 129.701 16.9955C129.586 17.0044 129.489 17.0398 129.409 17.0753C129.32 17.1196 129.258 17.1729 129.205 17.2438C129.16 17.297 129.134 17.3502 129.107 17.4034L127.733 21.1718L126.341 17.4034C126.296 17.3059 126.234 17.2172 126.155 17.1551C126.075 17.093 125.986 17.0487 125.889 17.0221C125.791 16.9955 125.693 16.9866 125.587 16.9955C125.481 17.0044 125.383 17.031 125.286 17.0664C125.197 17.1019 125.117 17.1463 125.046 17.2083C124.975 17.2704 124.913 17.3413 124.869 17.4211C124.825 17.5098 124.798 17.5985 124.789 17.7049C124.789 17.8113 124.798 17.9177 124.842 18.0241L126.713 22.759C126.74 22.8211 126.775 22.892 126.82 22.9541C126.873 23.025 126.935 23.096 127.015 23.158C127.094 23.2201 127.192 23.2733 127.307 23.3176C127.423 23.362 127.564 23.3797 127.715 23.3797C127.866 23.3797 127.99 23.362 128.105 23.3265C128.221 23.291 128.318 23.2467 128.398 23.1846C128.478 23.1226 128.549 23.0605 128.602 22.9896C128.655 22.9186 128.699 22.8477 128.726 22.7679L130.588 17.9797C130.624 17.8822 130.632 17.7847 130.624 17.696C130.615 17.5985 130.588 17.5098 130.535 17.4211L130.57 17.4034Z" fill="white"/>
</g>
<defs>
<clipPath id="clip0_14658_60223">
<rect width="133.004" height="26.7693" fill="white" transform="translate(0.5 0.839844)"/>
</clipPath>
</defs>
</svg>
