<svg width="40" height="12" viewBox="0 0 40 12" fill="none" xmlns="http://www.w3.org/2000/svg">
<path d="M4.61507 2.03906C1.80669 2.03906 -0.427461 4.56274 0.0695539 7.4628C0.383204 9.2868 1.79704 10.773 3.61139 11.159C4.91907 11.4389 6.15437 11.159 7.13392 10.5124V11.27H9.18954L9.24262 7.20705C9.25227 6.99956 9.24262 6.83067 9.24262 6.63766C9.24262 4.09468 7.15805 2.03906 4.61507 2.03906ZM5.04936 9.17581C3.30257 9.46534 1.8067 7.96947 2.09139 6.22267C2.26511 5.16591 3.1192 4.31182 4.18079 4.13328C5.92758 3.84376 7.42345 5.33963 7.13875 7.08642C6.96503 8.14318 6.11094 8.99727 5.04936 9.17581Z" fill="#0F0F10"/>
<path d="M12.8693 3.82812H10.8137V11.2689H12.8693V3.82812Z" fill="#276AE2"/>
<path d="M12.0438 0.0165648C11.1463 -0.123371 10.3839 0.643865 10.519 1.54139C10.6059 2.10113 11.0643 2.55954 11.624 2.6464C12.5216 2.78634 13.2888 2.0191 13.1488 1.12158C13.062 0.561834 12.6036 0.103422 12.0438 0.0165648Z" fill="#27C3E2"/>
<path d="M19.4376 4.57354C19.5968 3.97037 19.9201 3.43957 20.3544 3.01494C19.7464 2.42624 18.9212 2.05469 18.0092 2.05469C16.441 2.05469 15.1237 3.12592 14.7376 4.57354C14.6653 4.85341 14.6218 5.14294 14.6218 5.44211V11.2519H16.6871V5.44211C16.6871 4.71348 17.2806 4.11995 18.0092 4.11995C18.6945 4.11995 19.2494 4.64592 19.3169 5.31183V11.2567H19.3218V5.44694C19.3218 5.14776 19.3652 4.85341 19.4376 4.57837V4.57354Z" fill="#276AE2"/>
<path d="M25.9654 4.53011C25.5649 3.10662 24.2573 2.05469 22.7083 2.05469C21.7915 2.05469 20.9615 2.42142 20.3535 3.01494C20.7781 3.4251 21.1015 3.94141 21.2655 4.53011C21.3234 4.7376 21.362 4.95475 21.3813 5.17671V11.2519H21.3861V5.44211C21.3861 4.71348 21.9797 4.11995 22.7083 4.11995C23.3935 4.11995 23.9484 4.64592 24.016 5.31183V11.2567H26.0813V5.18154C26.062 4.95957 26.0233 4.74243 25.9654 4.53494V4.53011Z" fill="#27C3E2"/>
<path d="M21.3734 5.1774C21.3541 4.95543 21.3155 4.73829 21.2576 4.5308C21.0936 3.94692 20.7703 3.43061 20.3456 3.01562C19.9113 3.43543 19.5929 3.97105 19.4288 4.57423C19.3564 4.8541 19.313 5.14362 19.313 5.4428V11.2526H21.3734V5.1774Z" fill="#4F9BE2"/>
<path d="M38.8818 4.52621C38.4813 3.10272 37.1737 2.05078 35.6247 2.05078C34.7079 2.05078 33.8779 2.41751 33.2699 3.01103C32.6619 2.42234 31.8368 2.05078 30.9248 2.05078C29.3565 2.05078 28.0392 3.12202 27.6532 4.56963C27.5808 4.84951 27.5374 5.13903 27.5374 5.4382V11.248H29.6026V5.4382C29.6026 4.70957 30.1961 4.11605 30.9248 4.11605C31.61 4.11605 32.1649 4.64201 32.2325 5.30792V11.2528H34.3074V5.44303C34.3074 4.7144 34.9009 4.12087 35.6295 4.12087C36.3147 4.12087 36.8697 4.64684 36.9372 5.31274V11.2576H39.0025V5.18246C38.9832 4.96049 38.9446 4.74335 38.8867 4.53586L38.8818 4.52621Z" fill="#0F0F10"/>
</svg>
