<svg width="25" height="25" viewBox="0 0 25 25" fill="none" xmlns="http://www.w3.org/2000/svg">
<path d="M14.6977 10.876C14.8786 11.3987 15.4489 11.6758 15.9716 11.4949C16.4943 11.314 16.7714 10.7437 16.5905 10.221L14.6977 10.876ZM14.0241 9.3263L14.0681 8.32582C14.0535 8.32517 14.0388 8.32485 14.0241 8.32485V9.3263ZM11.6241 12.993V13.9944V12.993ZM14.0241 16.6596V17.6611V16.6596ZM11.6241 16.6596L11.5801 17.6601C11.5948 17.6608 11.6094 17.6611 11.6241 17.6611V16.6596ZM10.9505 15.1099C10.7696 14.5872 10.1993 14.3102 9.67664 14.491C9.15396 14.6719 8.87686 15.2422 9.05773 15.7649L10.9505 15.1099ZM13.8256 7.49297C13.8256 6.93988 13.3772 6.49152 12.8241 6.49152C12.271 6.49152 11.8227 6.93988 11.8227 7.49297H13.8256ZM11.8227 9.3263C11.8227 9.87938 12.271 10.3277 12.8241 10.3277C13.3772 10.3277 13.8256 9.87938 13.8256 9.3263H11.8227ZM13.8256 16.6596C13.8256 16.1065 13.3772 15.6582 12.8241 15.6582C12.271 15.6582 11.8227 16.1065 11.8227 16.6596H13.8256ZM11.8227 18.493C11.8227 19.0461 12.271 19.4944 12.8241 19.4944C13.3772 19.4944 13.8256 19.0461 13.8256 18.493H11.8227ZM16.5905 10.221C16.4067 9.68997 16.0701 9.22411 15.621 8.88529L14.4147 10.4842C14.5431 10.581 14.6426 10.7168 14.6977 10.876L16.5905 10.221ZM15.621 8.88529C15.1717 8.5463 14.6309 8.35057 14.0681 8.32582L13.9801 10.3268C14.1352 10.3336 14.2866 10.3875 14.4147 10.4842L15.621 8.88529ZM14.0241 8.32485H11.6241V10.3277H14.0241V8.32485ZM11.6241 8.32485C10.8751 8.32485 10.1606 8.62806 9.63673 9.16166L11.0659 10.5649C11.2172 10.4108 11.4183 10.3277 11.6241 10.3277V8.32485ZM9.63673 9.16166C9.11344 9.69464 8.82267 10.4137 8.82267 11.1596H10.8256C10.8256 10.9331 10.9141 10.7195 11.0659 10.5649L9.63673 9.16166ZM8.82267 11.1596C8.82267 11.9056 9.11344 12.6246 9.63673 13.1576L11.0659 11.7544C10.9141 11.5997 10.8256 11.3861 10.8256 11.1596H8.82267ZM9.63673 13.1576C10.1606 13.6912 10.8751 13.9944 11.6241 13.9944V11.9915C11.4183 11.9915 11.2172 11.9084 11.0659 11.7544L9.63673 13.1576ZM11.6241 13.9944H14.0241V11.9915H11.6241V13.9944ZM14.0241 13.9944C14.2299 13.9944 14.4311 14.0775 14.5823 14.2315L16.0115 12.8283C15.4876 12.2947 14.7731 11.9915 14.0241 11.9915V13.9944ZM14.5823 14.2315C14.7342 14.3862 14.8227 14.5998 14.8227 14.8263H16.8256C16.8256 14.0803 16.5348 13.3613 16.0115 12.8283L14.5823 14.2315ZM14.8227 14.8263C14.8227 15.0528 14.7342 15.2664 14.5823 15.4211L16.0115 16.8243C16.5348 16.2913 16.8256 15.5723 16.8256 14.8263H14.8227ZM14.5823 15.4211C14.4311 15.5751 14.2299 15.6582 14.0241 15.6582V17.6611C14.7731 17.6611 15.4876 17.3579 16.0115 16.8243L14.5823 15.4211ZM14.0241 15.6582H11.6241V17.6611H14.0241V15.6582ZM11.6681 15.6592C11.513 15.6523 11.3616 15.5984 11.2335 15.5017L10.0272 17.1006C10.4765 17.4396 11.0173 17.6354 11.5801 17.6601L11.6681 15.6592ZM11.2335 15.5017C11.1052 15.4049 11.0056 15.2691 10.9505 15.1099L9.05773 15.7649C9.2415 16.296 9.57811 16.7618 10.0272 17.1006L11.2335 15.5017ZM11.8227 7.49297V9.3263H13.8256V7.49297H11.8227ZM11.8227 16.6596V18.493H13.8256V16.6596H11.8227ZM21.4227 12.893C21.4227 17.6418 17.573 21.4915 12.8241 21.4915V23.4944C18.6791 23.4944 23.4256 18.748 23.4256 12.893H21.4227ZM12.8241 21.4915C8.07527 21.4915 4.22557 17.6418 4.22557 12.893H2.22267C2.22267 18.748 6.9691 23.4944 12.8241 23.4944V21.4915ZM4.22557 12.893C4.22557 8.14412 8.07527 4.29442 12.8241 4.29442V2.29152C6.9691 2.29152 2.22267 7.03795 2.22267 12.893H4.22557ZM12.8241 4.29442C17.573 4.29442 21.4227 8.14412 21.4227 12.893H23.4256C23.4256 7.03795 18.6791 2.29152 12.8241 2.29152V4.29442Z" fill="#2E8C6A"/>
</svg>
