<svg width="23" height="23" viewBox="0 0 23 23" fill="none" xmlns="http://www.w3.org/2000/svg">
    <style>
        .channel{stroke:18181d;}
    </style>
    <g opacity="0.7">
        <path class="channel" fill-rule="evenodd" clip-rule="evenodd" d="M12.5388 3.9568C12.1469 2.34773 9.85703 2.34773 9.46507 3.9568C9.40655 4.19858 9.29177 4.42314 9.13007 4.61219C8.96837 4.80124 8.76432 4.94944 8.53453 5.04474C8.30473 5.14003 8.05568 5.17973 7.80765 5.16059C7.55961 5.14145 7.3196 5.06403 7.10714 4.93461C5.69197 4.07232 4.07257 5.69169 4.93487 7.10684C5.49187 8.0207 4.99779 9.21306 3.95808 9.46577C2.34796 9.85668 2.34796 12.1475 3.95808 12.5374C4.19993 12.596 4.42453 12.7109 4.61358 12.8727C4.80264 13.0345 4.9508 13.2387 5.046 13.4686C5.14121 13.6986 5.18077 13.9477 5.16146 14.1958C5.14214 14.4439 5.06451 14.6839 4.93487 14.8963C4.07257 16.3115 5.69197 17.9309 7.10714 17.0686C7.31956 16.9389 7.55959 16.8613 7.8077 16.842C8.0558 16.8227 8.30495 16.8622 8.53487 16.9574C8.76479 17.0527 8.96898 17.2008 9.1308 17.3899C9.29262 17.5789 9.40751 17.8035 9.4661 18.0454C9.85703 19.6555 12.1479 19.6555 12.5378 18.0454C12.5966 17.8036 12.7116 17.5792 12.8735 17.3903C13.0353 17.2014 13.2395 17.0533 13.4693 16.9581C13.6992 16.8629 13.9482 16.8233 14.1963 16.8425C14.4443 16.8617 14.6843 16.9392 14.8968 17.0686C16.3119 17.9309 17.9313 16.3115 17.069 14.8963C16.9396 14.6839 16.8622 14.4439 16.843 14.1958C16.8238 13.9478 16.8634 13.6988 16.9586 13.4689C17.0537 13.2391 17.2018 13.0349 17.3907 12.8731C17.5797 12.7112 17.8041 12.5962 18.0458 12.5374C19.6559 12.1465 19.6559 9.85565 18.0458 9.46577C17.804 9.40717 17.5794 9.29229 17.3903 9.13047C17.2013 8.96865 17.0531 8.76447 16.9579 8.53455C16.8627 8.30464 16.8231 8.05548 16.8425 7.80739C16.8618 7.55929 16.9394 7.31926 17.069 7.10684C17.9313 5.69169 16.3119 4.07232 14.8968 4.93461C14.6843 5.06424 14.4443 5.14188 14.1962 5.16119C13.9481 5.1805 13.699 5.14094 13.469 5.04574C13.2391 4.95053 13.0349 4.80237 12.8731 4.61332C12.7113 4.42427 12.5964 4.19968 12.5378 3.95783L12.5388 3.9568Z" stroke="#18181D" stroke-width="1.83366"/>
        <path class="channel" d="M12.8356 11.0015C12.8356 12.0142 12.0147 12.8351 11.002 12.8351C9.98925 12.8351 9.16829 12.0142 9.16829 11.0015C9.16829 9.98876 9.98925 9.16781 11.002 9.16781C12.0147 9.16781 12.8356 9.98876 12.8356 11.0015Z" stroke="#18181D" stroke-width="1.83366"/>
    </g>
</svg>
