<svg width="23" height="23" viewBox="0 0 23 23" fill="none" xmlns="http://www.w3.org/2000/svg">
<path d="M5.01287 10.1185C5.01287 6.0684 8.29584 2.78516 12.3456 2.78516C16.3953 2.78516 19.6783 6.0684 19.6783 10.1185C19.6783 11.1727 19.4559 12.1749 19.0554 13.0808L19.6797 17.4511L15.9347 16.5148C14.8738 17.1115 13.6494 17.4518 12.3456 17.4518M3.18056 14.7018C3.18056 15.3607 3.31956 15.9871 3.56982 16.5533L3.17969 19.2847L5.52007 18.6995C6.18308 19.0724 6.94824 19.2852 7.76307 19.2852C10.2939 19.2852 12.3456 17.2331 12.3456 14.7018C12.3456 12.1705 10.2939 10.1185 7.76307 10.1185C5.23222 10.1185 3.18056 12.1705 3.18056 14.7018Z" stroke="white" stroke-width="2" stroke-linecap="round" stroke-linejoin="round"/>
</svg>
