<svg width="19" height="19" viewBox="0 0 19 19" fill="none" xmlns="http://www.w3.org/2000/svg">
<path d="M2.76953 14.75H2.77853M5.76953 14.75C5.76953 13.9544 5.45346 13.1913 4.89085 12.6287C4.32824 12.0661 3.56518 11.75 2.76953 11.75M8.76953 14.75C8.76953 13.1587 8.13739 11.6326 7.01217 10.5074C5.88695 9.38214 4.36083 8.75 2.76953 8.75M11.7695 14.75H14.0195C14.6163 14.75 15.1886 14.5129 15.6105 14.091C16.0325 13.669 16.2695 13.0967 16.2695 12.5V6.5C16.2695 5.90326 16.0325 5.33097 15.6105 4.90901C15.1886 4.48705 14.6163 4.25 14.0195 4.25H5.01953C4.55789 4.25438 4.10877 4.40066 3.7331 4.669C3.35743 4.93733 3.0734 5.31473 2.91953 5.75" stroke="white" stroke-width="1.52539" stroke-linecap="round" stroke-linejoin="round"/>
</svg>
