<svg width="29" height="29" viewBox="0 0 29 29" fill="none" xmlns="http://www.w3.org/2000/svg">
<path d="M9.76553 24.0744C9.37224 24.2044 9.15878 24.6286 9.28875 25.0219C9.41873 25.4151 9.84292 25.6286 10.2362 25.4986L9.76553 24.0744ZM16.7897 25.2352L16.7223 24.4883L16.7897 25.2352ZM20.8631 24.3378L21.1897 25.0129L20.8631 24.3378ZM24.7552 20.8275L24.1744 20.353L24.7552 20.8275ZM22.0932 18.631L22.6212 19.1636L22.0932 18.631ZM20.3006 20.4082L20.8287 20.9408L20.3006 20.4082ZM15.432 20.4468C15.0178 20.4468 14.682 20.7826 14.682 21.1968C14.682 21.611 15.0178 21.9468 15.432 21.9468V20.4468ZM24.3413 18.4103L23.9278 19.036L24.3413 18.4103ZM11.3785 17.8215L11.7117 18.4935L11.3785 17.8215ZM16.2506 17.3797L16.4464 16.6557L16.2506 17.3797ZM18.1532 17.8941L17.9575 18.6181L17.9575 18.6181L18.1532 17.8941ZM18.7561 20.1447L18.228 19.6121L18.7561 20.1447ZM17.1669 20.6642C16.8727 20.9558 16.8707 21.4307 17.1623 21.7248C17.4539 22.019 17.9288 22.021 18.223 21.7294L17.1669 20.6642ZM10.2362 25.4986C10.4306 25.4344 10.7612 25.4087 11.2633 25.4442C11.7502 25.4786 12.3136 25.5627 12.9405 25.6603C14.1506 25.8488 15.6131 26.0946 16.8572 25.9822L16.7223 24.4883C15.7034 24.5803 14.4504 24.3774 13.1713 24.1782C12.5535 24.082 11.9288 23.9875 11.3691 23.9479C10.8246 23.9094 10.25 23.9143 9.76553 24.0744L10.2362 25.4986ZM16.8572 25.9822C18.6245 25.8226 19.4253 25.8666 21.1897 25.0129L20.5364 23.6627C19.0611 24.3765 18.545 24.3236 16.7223 24.4883L16.8572 25.9822ZM21.1897 25.0129C22.7657 24.2504 24.3589 22.4981 25.336 21.3019L24.1744 20.353C23.19 21.558 21.7806 23.0607 20.5364 23.6627L21.1897 25.0129ZM21.5651 18.0984L19.7726 19.8756L20.8287 20.9408L22.6212 19.1636L21.5651 18.0984ZM18.3805 20.4468H15.432V21.9468H18.3805V20.4468ZM19.7726 19.8756C19.4045 20.2406 18.9038 20.4468 18.3805 20.4468V21.9468C19.2975 21.9468 20.1783 21.5856 20.8287 20.9408L19.7726 19.8756ZM24.7549 17.7846C23.7526 17.1222 22.4185 17.2523 21.5651 18.0984L22.6212 19.1636C22.9689 18.8189 23.5167 18.7643 23.9278 19.036L24.7549 17.7846ZM25.336 21.3019C26.2649 20.1649 25.9195 18.5544 24.7549 17.7846L23.9278 19.036C24.4145 19.3577 24.4946 19.961 24.1744 20.353L25.336 21.3019ZM5.02237 17.4596H8.6431V15.9596H5.02237V17.4596ZM8.79828 17.607V25.6839H10.2983V17.607H8.79828ZM8.6431 25.8314H5.02237V27.3314H8.6431V25.8314ZM4.86719 25.6839V17.607H3.36719V25.6839H4.86719ZM5.02237 25.8314C4.93057 25.8314 4.86719 25.7593 4.86719 25.6839H3.36719C3.36719 26.5999 4.11433 27.3314 5.02237 27.3314V25.8314ZM8.79828 25.6839C8.79828 25.7593 8.7349 25.8314 8.6431 25.8314V27.3314C9.55114 27.3314 10.2983 26.5999 10.2983 25.6839H8.79828ZM8.6431 17.4596C8.73489 17.4596 8.79828 17.5317 8.79828 17.607H10.2983C10.2983 16.6911 9.55114 15.9596 8.6431 15.9596V17.4596ZM5.02237 15.9596C4.11433 15.9596 3.36719 16.6911 3.36719 17.607H4.86719C4.86719 17.5317 4.93057 17.4596 5.02237 17.4596V15.9596ZM10.334 19.1764L11.7117 18.4935L11.0454 17.1496L9.66776 17.8325L10.334 19.1764ZM14.2122 17.9083H14.5834V16.4083H14.2122V17.9083ZM16.0548 18.1037L17.9575 18.6181L18.349 17.1701L16.4464 16.6557L16.0548 18.1037ZM18.228 19.6121L17.1669 20.6642L18.223 21.7294L19.2841 20.6773L18.228 19.6121ZM17.9575 18.6181C18.4115 18.7409 18.5502 19.2927 18.228 19.6121L19.2841 20.6773C20.4363 19.535 19.9066 17.5913 18.349 17.1701L17.9575 18.6181ZM14.5834 17.9083C15.0805 17.9083 15.5754 17.974 16.0548 18.1037L16.4464 16.6557C15.8392 16.4915 15.2127 16.4083 14.5834 16.4083V17.9083ZM11.7117 18.4935C12.4878 18.1088 13.3439 17.9083 14.2122 17.9083V16.4083C13.1132 16.4083 12.029 16.662 11.0454 17.1496L11.7117 18.4935ZM20.5657 10.4275C20.5657 11.9898 19.2865 13.2673 17.6949 13.2673V14.7673C20.1027 14.7673 22.0657 12.8304 22.0657 10.4275H20.5657ZM17.6949 13.2673C16.1034 13.2673 14.8242 11.9898 14.8242 10.4275H13.3242C13.3242 12.8304 15.2871 14.7673 17.6949 14.7673V13.2673ZM14.8242 10.4275C14.8242 8.86525 16.1034 7.58779 17.6949 7.58779V6.08779C15.2871 6.08779 13.3242 8.0247 13.3242 10.4275H14.8242ZM17.6949 7.58779C19.2865 7.58779 20.5657 8.86525 20.5657 10.4275H22.0657C22.0657 8.0247 20.1027 6.08779 17.6949 6.08779V7.58779ZM14.0742 9.67754C12.4826 9.67754 11.2035 8.40007 11.2035 6.83779H9.70346C9.70346 9.24063 11.6664 11.1775 14.0742 11.1775V9.67754ZM11.2035 6.83779C11.2035 5.27551 12.4826 3.99805 14.0742 3.99805V2.49805C11.6664 2.49805 9.70346 4.43495 9.70346 6.83779H11.2035ZM14.0742 3.99805C15.6657 3.99805 16.9449 5.27551 16.9449 6.83779H18.4449C18.4449 4.43495 16.482 2.49805 14.0742 2.49805V3.99805Z" fill="#F1D22F"/>
</svg>
