<svg width="60" height="60" viewBox="0 0 60 60" fill="none" xmlns="http://www.w3.org/2000/svg">
<path d="M21.1672 32.2061L20.6824 31.6339L20.6824 31.6339L21.1672 32.2061ZM21.2993 32.0797L20.7649 31.5534L20.7643 31.554L21.2993 32.0797ZM15.745 36.8004L15.2601 36.2282L15.2601 36.2282L15.745 36.8004ZM15.4479 37.1131L16.0636 37.5415L16.0636 37.5415L15.4479 37.1131ZM44.2313 32.3981L43.7119 32.9391V32.9391L44.2313 32.3981ZM39.6036 27.9554L39.0842 28.4964V28.4964L39.6036 27.9554ZM37.885 27.9433L37.3733 27.395L37.3714 27.3968L37.885 27.9433ZM29.3132 35.9996L29.8249 36.5479L29.8268 36.5461L29.3132 35.9996ZM27.5682 35.9614L27.0312 36.4851L27.0323 36.4861L27.5682 35.9614ZM27.5457 35.9384L27.0082 36.4614L27.0087 36.462L27.5457 35.9384ZM27.4232 35.8194L27.9142 35.2525L27.9142 35.2525L27.4232 35.8194ZM23.2474 32.2025L23.7384 31.6356L23.7384 31.6356L23.2474 32.2025ZM23.1244 32.0831L23.662 31.5602L23.6615 31.5596L23.1244 32.0831ZM23.1024 32.0605L23.6395 31.5371L23.6385 31.536L23.1024 32.0605ZM21.323 32.0556L20.7897 31.5282L20.7886 31.5293L21.323 32.0556ZM40.7988 16.4995V15.7495C40.3846 15.7495 40.0488 16.0853 40.0488 16.4995H40.7988ZM41.6568 16.4995H42.4068C42.4068 16.0853 42.071 15.7495 41.6568 15.7495V16.4995ZM41.6568 17.2261V17.9761C42.071 17.9761 42.4068 17.6403 42.4068 17.2261H41.6568ZM40.7988 17.2261H40.0488C40.0488 17.6403 40.3846 17.9761 40.7988 17.9761V17.2261ZM5.25 15V45H6.75V15H5.25ZM15 54.75H45V53.25H15V54.75ZM54.75 45V15H53.25V45H54.75ZM45 5.25H15V6.75H45V5.25ZM54.75 15C54.75 9.61522 50.3848 5.25 45 5.25V6.75C49.5563 6.75 53.25 10.4437 53.25 15H54.75ZM45 54.75C50.3848 54.75 54.75 50.3848 54.75 45H53.25C53.25 49.5563 49.5563 53.25 45 53.25V54.75ZM5.25 45C5.25 50.3848 9.61522 54.75 15 54.75V53.25C10.4437 53.25 6.75 49.5563 6.75 45H5.25ZM6.75 15C6.75 10.4437 10.4437 6.75 15 6.75V5.25C9.61522 5.25 5.25 9.61522 5.25 15H6.75ZM21.6521 32.7783C21.729 32.7131 21.7955 32.6447 21.8342 32.6053L20.7643 31.554C20.7175 31.6016 20.6984 31.6203 20.6824 31.6339L21.6521 32.7783ZM16.2298 37.3726L21.6521 32.7783L20.6824 31.6339L15.2601 36.2282L16.2298 37.3726ZM16.0636 37.5415C16.0925 37.5 16.1412 37.4477 16.2298 37.3726L15.2601 36.2282C15.1285 36.3397 14.9684 36.4893 14.8323 36.6847L16.0636 37.5415ZM15.75 38.5411C15.75 38.1825 15.8601 37.8339 16.0636 37.5415L14.8323 36.6847C14.4545 37.2277 14.25 37.8751 14.25 38.5411H15.75ZM15.75 43.75V38.5411H14.25V43.75H15.75ZM16.25 44.25C15.9739 44.25 15.75 44.0261 15.75 43.75H14.25C14.25 44.8546 15.1454 45.75 16.25 45.75V44.25ZM43.75 44.25H16.25V45.75H43.75V44.25ZM44.25 43.75C44.25 44.0261 44.0261 44.25 43.75 44.25V45.75C44.8546 45.75 45.75 44.8546 45.75 43.75H44.25ZM44.25 34.2015V43.75H45.75V34.2015H44.25ZM43.7119 32.9391C44.0557 33.2691 44.25 33.725 44.25 34.2015H45.75C45.75 33.3166 45.3891 32.4699 44.7507 31.857L43.7119 32.9391ZM39.0842 28.4964L43.7119 32.9391L44.7507 31.857L40.123 27.4144L39.0842 28.4964ZM38.3967 28.4916C38.5908 28.3105 38.8926 28.3126 39.0842 28.4964L40.123 27.4144C39.3569 26.6789 38.1496 26.6704 37.3733 27.395L38.3967 28.4916ZM29.8268 36.5461L38.3986 28.4898L37.3714 27.3968L28.7995 35.4531L29.8268 36.5461ZM27.0323 36.4861C27.7845 37.2545 29.0249 37.2946 29.8249 36.5479L28.8014 35.4513C28.6018 35.6376 28.2914 35.628 28.1041 35.4367L27.0323 36.4861ZM27.0087 36.462L27.0312 36.4851L28.1052 35.4378L28.0826 35.4148L27.0087 36.462ZM26.9321 36.3863C26.9469 36.3991 26.9647 36.4168 27.0082 36.4614L28.0831 35.4153C28.0472 35.3784 27.9854 35.3142 27.9142 35.2525L26.9321 36.3863ZM22.7563 32.7694L26.9321 36.3863L27.9142 35.2525L23.7384 31.6356L22.7563 32.7694ZM22.5867 32.6059C22.6228 32.6431 22.6848 32.7075 22.7563 32.7694L23.7384 31.6356C23.7235 31.6227 23.7057 31.605 23.662 31.5602L22.5867 32.6059ZM22.5652 32.5839L22.5872 32.6065L23.6615 31.5596L23.6395 31.5371L22.5652 32.5839ZM21.8563 32.5829C22.0504 32.3866 22.3729 32.3873 22.5662 32.5849L23.6385 31.536C22.8587 30.7389 21.5728 30.7363 20.7897 31.5282L21.8563 32.5829ZM21.8336 32.6059L21.8573 32.5819L20.7886 31.5293L20.7649 31.5534L21.8336 32.6059ZM40.7988 17.2495H41.6568V15.7495H40.7988V17.2495ZM40.9068 16.4995V17.2261H42.4068V16.4995H40.9068ZM41.6568 16.4761H40.7988V17.9761H41.6568V16.4761ZM41.5488 17.2261V16.4995H40.0488V17.2261H41.5488Z" fill="black"/>
</svg>
