<svg width="22" height="23" viewBox="0 0 22 23" fill="none" xmlns="http://www.w3.org/2000/svg">
    <style>
        .content{stroke: 18181d;}
    </style>
    <g opacity="0.7" clip-path="url(#clip0_14435_74247)">
        <path class="content" d="M10.9999 20.1693V1.83594M6.41659 20.1693V15.5859M6.41659 6.41927V1.83594M15.5833 20.1693V15.5859M15.5833 6.41927V1.83594M1.83325 6.41927H20.1666M1.83325 15.5859H20.1666M20.1666 15.7693V6.23594C20.1666 4.69579 20.1666 3.92572 19.8669 3.33746C19.6032 2.82002 19.1825 2.39932 18.6651 2.13567C18.0768 1.83594 17.3067 1.83594 15.7666 1.83594L6.23325 1.83594C4.69311 1.83594 3.92304 1.83594 3.33478 2.13567C2.81733 2.39932 2.39664 2.82002 2.13298 3.33746C1.83325 3.92572 1.83325 4.69579 1.83325 6.23594L1.83325 15.7693C1.83325 17.3094 1.83325 18.0795 2.13298 18.6677C2.39664 19.1852 2.81733 19.6059 3.33478 19.8695C3.92304 20.1693 4.69311 20.1693 6.23325 20.1693H15.7666C17.3067 20.1693 18.0768 20.1693 18.6651 19.8695C19.1825 19.6059 19.6032 19.1852 19.8669 18.6677C20.1666 18.0795 20.1666 17.3094 20.1666 15.7693Z" stroke="#18181D" stroke-width="1.83736" stroke-linecap="round" stroke-linejoin="round"/>
    </g>
    <defs>
        <clipPath id="clip0_14435_74247">
            <rect width="22" height="22" fill="white" transform="translate(0 0.00390625)"/>
        </clipPath>
    </defs>
</svg>
