<svg width="23" height="23" viewBox="0 0 23 23" fill="none" xmlns="http://www.w3.org/2000/svg">
    <style>
        .dashboard{fill: #18181D;}
    </style>
    <g opacity="0.7">
        <path class="dashboard" d="M9.302 2.886a.944.944 0 0 0-1.889 0h1.889zm-1.889 17.6a.944.944 0 1 0 1.889 0H7.413zM5.608 3.83h11V1.942h-11V3.83zm13.355 2.356v11h1.889v-11h-1.889zm-2.355 13.356h-11v1.888h11v-1.888zM3.252 17.186v-11H1.363v11h1.889zm2.356 2.356a2.356 2.356 0 0 1-2.356-2.356H1.363c0 2.344 1.9 4.244 4.245 4.244v-1.888zm13.355-2.356a2.356 2.356 0 0 1-2.355 2.356v1.888c2.344 0 4.244-1.9 4.244-4.244h-1.889zM16.608 3.83a2.356 2.356 0 0 1 2.355 2.356h1.889c0-2.344-1.9-4.244-4.244-4.244V3.83zm-11-1.888a4.244 4.244 0 0 0-4.245 4.244h1.889A2.356 2.356 0 0 1 5.608 3.83V1.942zm1.805.944v17.6h1.889v-17.6H7.413zM2.858 9.88h16.5V7.992h-16.5V9.88z" fill="#18181D"/>
    </g>
</svg>
