<svg width="23" height="23" viewBox="0 0 23 23" fill="none" xmlns="http://www.w3.org/2000/svg">
    <style>
        .earn{fill:#18181D;}
    </style>
    <g>
        <path class="earn" d="M7.82608 18.5127C7.33005 18.6767 7.06083 19.2117 7.22476 19.7077C7.38868 20.2037 7.92368 20.4729 8.41971 20.309L7.82608 18.5127ZM13.457 19.7634L13.3719 18.8214L13.457 19.7634ZM16.6575 19.0583L17.0694 19.9098L16.6575 19.0583ZM19.7156 16.3002L18.983 15.7018V15.7018L19.7156 16.3002ZM17.624 14.5744L18.29 15.2461L17.624 14.5744ZM16.2156 15.9708L16.8816 16.6425L16.2156 15.9708ZM12.3902 15.6444C11.8678 15.6444 11.4443 16.0679 11.4443 16.5904C11.4443 17.1128 11.8678 17.5363 12.3902 17.5363V15.6444ZM19.3904 14.401L18.8688 15.1901L19.3904 14.401ZM9.20535 13.9384L9.62547 14.7859H9.62547L9.20535 13.9384ZM13.0334 13.5912L13.2803 12.6781L13.0334 13.5912ZM14.5283 13.9954L14.2814 14.9085H14.2814L14.5283 13.9954ZM15.002 15.7637L14.336 15.092H14.336L15.002 15.7637ZM13.5022 15.9186C13.1312 16.2864 13.1287 16.8854 13.4965 17.2563C13.8643 17.6273 14.4632 17.6299 14.8342 17.2621L13.5022 15.9186ZM8.41971 20.309C8.50348 20.2813 8.70519 20.2562 9.08966 20.2834C9.45489 20.3092 9.88295 20.3728 10.3777 20.4498C11.3121 20.5953 12.511 20.7986 13.5421 20.7055L13.3719 18.8214C12.6249 18.8888 11.6903 18.7396 10.6688 18.5805C10.1856 18.5053 9.6802 18.4286 9.22309 18.3962C8.78522 18.3653 8.27572 18.3641 7.82608 18.5127L8.41971 20.309ZM13.5421 20.7055C14.9175 20.5813 15.6144 20.6138 17.0694 19.9098L16.2455 18.2068C15.155 18.7344 14.8173 18.6908 13.3719 18.8214L13.5421 20.7055ZM17.0694 19.9098C18.3866 19.2725 19.6821 17.8363 20.4481 16.8986L18.983 15.7018C18.2078 16.6507 17.1442 17.772 16.2455 18.2068L17.0694 19.9098ZM16.958 13.9027L15.5496 15.299L16.8816 16.6425L18.29 15.2461L16.958 13.9027ZM14.7069 15.6444H12.3902V17.5363H14.7069V15.6444ZM15.5496 15.299C15.3275 15.5193 15.0245 15.6444 14.7069 15.6444V17.5363C15.521 17.5363 16.3034 17.2157 16.8816 16.6425L15.5496 15.299ZM19.912 13.6119C18.9839 12.9985 17.7488 13.1187 16.958 13.9027L18.29 15.2461C18.4429 15.0945 18.6864 15.0695 18.8688 15.1901L19.912 13.6119ZM20.4481 16.8986C21.3227 15.8281 20.9882 14.3232 19.912 13.6119L18.8688 15.1901C19.0901 15.3364 19.0899 15.5709 18.983 15.7018L20.4481 16.8986ZM4.21121 14.0106H7.05607V12.1188H4.21121V14.0106ZM6.82137 13.7698V20.116H8.7132V13.7698H6.82137ZM7.05607 19.8752H4.21121V21.767H7.05607V19.8752ZM4.44591 20.116V13.7698H2.55409V20.116H4.44591ZM4.21121 19.8752C4.33315 19.8752 4.44591 19.9754 4.44591 20.116H2.55409C2.55409 21.0355 3.30369 21.767 4.21121 21.767V19.8752ZM6.82137 20.116C6.82137 19.9754 6.93414 19.8752 7.05607 19.8752V21.767C7.96359 21.767 8.7132 21.0355 8.7132 20.116H6.82137ZM7.05607 14.0106C6.93413 14.0106 6.82137 13.9105 6.82137 13.7698H8.7132C8.7132 12.8504 7.9636 12.1188 7.05607 12.1188V14.0106ZM4.21121 12.1188C3.30369 12.1188 2.55409 12.8504 2.55409 13.7698H4.44591C4.44591 13.9105 4.33315 14.0106 4.21121 14.0106V12.1188ZM8.54302 15.3225L9.62547 14.7859L8.78523 13.0909L7.70277 13.6275L8.54302 15.3225ZM11.4318 14.3632H11.7235V12.4714H11.4318V14.3632ZM12.7865 14.5043L14.2814 14.9085L14.7752 13.0823L13.2803 12.6781L12.7865 14.5043ZM14.336 15.092L13.5022 15.9186L14.8342 17.2621L15.6679 16.4355L14.336 15.092ZM14.2814 14.9085C14.3757 14.934 14.3918 15.0367 14.336 15.092L15.6679 16.4355C16.7706 15.3423 16.2614 13.4842 14.7752 13.0823L14.2814 14.9085ZM11.7235 14.3632C12.0826 14.3632 12.4401 14.4107 12.7865 14.5043L13.2803 12.6781C12.7729 12.5409 12.2493 12.4714 11.7235 12.4714V14.3632ZM9.62547 14.7859C10.1859 14.508 10.8044 14.3632 11.4318 14.3632V12.4714C10.5134 12.4714 9.60734 12.6833 8.78523 13.0909L9.62547 14.7859ZM16.0672 8.12882C16.0672 9.15648 15.2247 10.0034 14.1682 10.0034V11.8952C16.2541 11.8952 17.959 10.2166 17.959 8.12882H16.0672ZM14.1682 10.0034C13.1118 10.0034 12.2693 9.15648 12.2693 8.12882H10.3774C10.3774 10.2166 12.0823 11.8952 14.1682 11.8952V10.0034ZM12.2693 8.12882C12.2693 7.10115 13.1118 6.25422 14.1682 6.25422V4.36239C12.0823 4.36239 10.3774 6.04103 10.3774 8.12882H12.2693ZM14.1682 6.25422C15.2247 6.25422 16.0672 7.10115 16.0672 8.12882H17.959C17.959 6.04103 16.2541 4.36239 14.1682 4.36239V6.25422ZM11.3234 7.1829C10.2669 7.1829 9.42442 6.33597 9.42442 5.30831H7.53259C7.53259 7.39609 9.23745 9.07473 11.3234 9.07473V7.1829ZM9.42442 5.30831C9.42442 4.28064 10.2669 3.43371 11.3234 3.43371V1.54188C9.23745 1.54188 7.53259 3.22052 7.53259 5.30831H9.42442ZM11.3234 3.43371C12.3798 3.43371 13.2223 4.28064 13.2223 5.30831H15.1141C15.1141 3.22052 13.4093 1.54188 11.3234 1.54188V3.43371Z" fill="#18181D"/>
    </g>
</svg>
