<svg width="85" height="84" viewBox="0 0 85 84" fill="none" xmlns="http://www.w3.org/2000/svg">
    <ellipse cx="42.933" cy="41.894" rx="41.959" ry="41.722" fill="url(#a8gtpfxysa)"/>
    <path d="M42.934 61.974c-10.368 0-18.794-8.38-18.794-18.688 0-10.31 8.426-18.688 18.794-18.688.716 0 1.31.59 1.31 1.303s-.594 1.304-1.31 1.304c-8.917 0-16.172 7.215-16.172 16.08 0 8.867 7.255 16.08 16.172 16.08 8.916 0 16.171-7.214 16.171-16.08 0-.712.594-1.303 1.311-1.303s1.311.59 1.311 1.304c0 10.308-8.426 18.688-18.793 18.688z" fill="#0F5FC2"/>
    <path d="M58.668 35.897h-6.993a1.317 1.317 0 0 1-1.312-1.304V27.64c0-.713.595-1.304 1.312-1.304.716 0 1.31.591 1.31 1.304v5.65h5.683c.716 0 1.31.59 1.31 1.303s-.594 1.304-1.31 1.304z" fill="#0F5FC2"/>
    <path d="M51.673 35.897a1.306 1.306 0 0 1-.927-2.225l8.742-8.692a1.324 1.324 0 0 1 1.854 0 1.306 1.306 0 0 1 0 1.842L52.6 35.514a1.3 1.3 0 0 1-.927.383zM36.806 53.96V35.053h7.091c1.453 0 2.672.27 3.657.812.99.542 1.738 1.287 2.243 2.235.511.942.767 2.013.767 3.213 0 1.212-.256 2.29-.767 3.231-.51.942-1.265 1.684-2.262 2.226-.997.535-2.225.803-3.684.803h-4.7v-2.816h4.239c.849 0 1.544-.148 2.086-.444a2.797 2.797 0 0 0 1.2-1.218c.265-.517.398-1.111.398-1.782s-.133-1.262-.398-1.773c-.258-.51-.661-.908-1.209-1.191-.542-.29-1.24-.434-2.096-.434h-3.14v16.047h-3.425z" fill="#0F5FC2"/>
    <defs>
        <linearGradient id="a8gtpfxysa" x1="75.451" y1=".172" x2="43.252" y2="83.738" gradientUnits="userSpaceOnUse">
            <stop stop-color="#0F5FC2"/>
            <stop offset="1" stop-color="#EFFFF6"/>
        </linearGradient>
    </defs>
</svg>
