<svg width="130" height="128" viewBox="0 0 130 128" fill="none" xmlns="http://www.w3.org/2000/svg">
<g clip-path="url(#clip0_14296_71669)">
<path d="M84.4824 88.2662C84.4824 87.8725 84.8002 87.5547 85.1939 87.5547C85.5876 87.5547 85.9279 87.8725 85.9279 88.2662C85.9279 89.2364 84.4824 89.1942 84.4824 88.2662Z" fill="black"/>
<path d="M5.20724 92.9847C2.44009 92.9847 0.0863176 90.7322 0.0863176 87.8554L0.00195312 12.5938C0.00195312 9.60171 2.54976 7.22826 5.55313 7.4701L123.467 17.0905C126.079 17.3042 128.109 19.4414 128.191 22.0623L129.999 81.6827C130.064 83.6906 128.942 85.5578 127.139 86.4437C126.785 86.6152 126.36 86.469 126.186 86.1175C126.012 85.7631 126.158 85.3385 126.512 85.1641C127.811 84.5258 128.624 83.1759 128.576 81.7277L126.768 22.1073C126.709 20.2119 125.241 18.6681 123.351 18.5106L5.43784 8.89024C3.24436 8.71307 1.4249 10.4397 1.4249 12.5938L1.50926 87.8526C1.50926 89.9645 3.26686 91.649 5.40128 91.5562L46.4193 89.492C46.7961 89.4583 47.1448 89.7733 47.1645 90.167C47.1842 90.5607 46.8805 90.8925 46.4896 90.9122L5.47158 92.9763C5.38159 92.9819 5.29442 92.9819 5.20443 92.9819L5.20724 92.9847Z" fill="black"/>
<path d="M59.778 90.2462C58.8613 90.2462 58.8247 88.871 59.7443 88.8232L72.9951 88.168L73.0457 89.5909C69.4687 89.7681 59.1818 90.2771 59.8174 90.2462C59.8061 90.2462 59.7921 90.2462 59.7808 90.2462H59.778Z" fill="black"/>
<path d="M84.4824 88.2662C84.4824 87.8725 84.8002 87.5547 85.1939 87.5547C85.5876 87.5547 85.9279 87.8725 85.9279 88.2662C85.9279 89.2364 84.4824 89.1942 84.4824 88.2662Z" fill="black"/>
<path d="M5.20725 92.9877C2.44009 92.9877 0.0863264 90.7352 0.0863264 87.8583L0.0722656 78.9213C0.0722656 78.522 0.392851 78.207 0.783739 78.207H87.516C87.9097 78.207 88.2275 78.5248 88.2275 78.9185C88.2275 79.3122 87.9097 79.63 87.516 79.63H1.49803L1.51209 87.8555C1.51209 89.9674 3.26968 91.6519 5.4041 91.5591L46.4221 89.495C46.7933 89.4472 47.1476 89.7762 47.1673 90.1699C47.187 90.5636 46.8833 90.8954 46.4924 90.9151L5.4744 92.9792C5.38441 92.9849 5.29724 92.9849 5.20725 92.9849V92.9877Z" fill="black"/>
<path d="M126.19 86.1204C126.015 85.7661 126.161 85.3415 126.516 85.1671C127.815 84.5287 128.628 83.1789 128.58 81.7307L128.515 79.63H126.786C126.392 79.63 126.074 79.3122 126.074 78.9185C126.074 78.5248 126.392 78.207 126.786 78.207H129.204C129.589 78.207 129.904 78.5136 129.916 78.896L130 81.6857C130.065 83.6935 128.943 85.5608 127.14 86.4466C126.78 86.621 126.358 86.4691 126.187 86.1204H126.19Z" fill="black"/>
<path d="M59.778 90.2462C58.8613 90.2462 58.8247 88.871 59.7443 88.8232L72.9951 88.168L73.0457 89.5909C69.4687 89.7681 59.1818 90.2771 59.8174 90.2462C59.8061 90.2462 59.7921 90.2462 59.7808 90.2462H59.778Z" fill="black"/>
<path d="M10.4539 87.9891L9.75082 82.2242C9.63552 81.2962 11.05 81.1078 11.1625 82.0527L11.8656 87.8176C11.9809 88.7456 10.5692 88.9396 10.4539 87.9891Z" fill="black"/>
<path d="M15.3542 87.4599L14.6512 81.6978C14.5359 80.767 15.9504 80.5814 16.0629 81.5263L16.7659 87.2884C16.8812 88.2164 15.4695 88.4104 15.3542 87.4599Z" fill="black"/>
<path d="M24.9232 88.1238C23.8461 87.0551 24.4451 85.3032 23.8124 82.7104C23.7167 82.3082 23.5705 81.698 23.9361 81.2424C24.5519 80.486 25.6206 81.144 26.3995 81.6249C27.1082 82.0636 29.2201 82.9719 30.2859 83.3853C30.7724 83.5287 31.5233 83.7452 31.5823 84.4905C31.5739 84.6817 31.5964 84.7548 31.498 84.9826C31.3292 85.3875 30.9215 85.6013 30.6206 85.7587C30.4659 85.8544 27.4316 87.716 27.1026 87.9607C26.332 88.5428 25.6093 88.8015 24.9232 88.121V88.1238ZM25.2437 82.5923C25.7668 85.0726 25.4518 86.6418 25.9243 87.1114C25.823 86.968 28.9558 85.1176 29.6644 84.6704C26.4023 83.3937 25.39 82.6738 25.2437 82.5923Z" fill="black"/>
<path d="M43.2782 87.7271C42.4964 87.3953 41.8974 87.1928 40.4154 86.6416C40.2383 86.5713 39.8614 86.5235 39.0825 86.6501C38.3035 86.7766 38.0785 86.996 37.6652 86.7597C37.159 86.4701 37.1871 85.8205 37.2461 85.2356C37.4036 84.2991 36.9003 82.6681 38.7675 82.9268C39.4228 82.9774 39.0825 83.0618 41.4306 81.6501L42.9548 80.7305C43.132 80.6068 43.5566 80.3087 44.0572 80.5365C44.5999 80.7839 44.5718 81.3885 44.5605 81.591C44.6449 83.9195 44.7349 86.5348 44.7152 85.8992C44.7433 86.5966 45.2017 87.2153 44.6168 87.7215C44.2203 88.0702 43.745 87.969 43.2782 87.7215V87.7271ZM40.916 85.3087C42.3474 85.8402 42.8423 86.0173 43.3148 86.2029C43.3063 86.1214 43.2979 86.0398 43.2951 85.9555C43.2951 85.888 43.1657 82.4178 43.1601 82.2744L42.1646 82.8734C39.8811 84.2485 39.8924 84.4341 38.7197 84.3554C38.7141 84.451 38.7366 84.0123 38.6719 85.2806C39.3356 85.1428 40.258 85.064 40.9132 85.3087H40.916Z" fill="black"/>
<path d="M94.4489 113.416C89.6176 114.186 84.6879 112.696 81.1137 109.999C81.1137 104.774 78.6193 101.008 74.0552 98.5001C73.3015 95.4123 73.0456 92.1249 73.1581 88.9219C74.8932 89.6615 76.6311 90.4011 78.3662 91.1266C80.4107 91.9899 84.1958 94.5349 84.9832 93.7447C85.1688 101.501 87.6885 109.358 94.4489 113.413V113.416Z" fill="black"/>
<path d="M91.8137 114.339C87.7783 114.339 83.7204 112.857 80.6861 110.571C80.5061 110.436 80.402 110.225 80.402 110.003C80.402 104.944 77.9639 101.462 73.7119 99.1282C73.5376 99.0326 73.411 98.8667 73.3632 98.6727C72.6321 95.6749 72.3227 92.3875 72.4465 88.9005C72.4633 88.4027 72.9723 88.0793 73.4364 88.2705C79.5275 90.8718 78.8638 90.5006 80.9251 91.6226C81.7884 92.0923 83.5573 93.0456 84.5387 93.2199C84.9408 92.8122 85.6776 93.054 85.6945 93.7346C85.8182 98.8892 87.1653 108.22 94.8143 112.809C95.0702 112.964 95.2024 113.262 95.1461 113.555C95.0899 113.85 94.8537 114.075 94.5584 114.123C93.6444 114.269 92.7277 114.342 91.8109 114.342L91.8137 114.339ZM81.8222 109.64C84.7215 111.729 88.6163 113.057 92.4324 112.902C87.5252 109.125 84.6709 102.736 84.3025 94.6204C84.1113 94.5613 83.8807 94.6204 82.393 93.9539C79.55 92.5591 79.2912 92.2919 78.0905 91.7829C76.6759 91.1924 75.2614 90.5906 73.8469 89.986C73.8188 92.8403 74.0972 95.5399 74.6765 98.0315C79.325 100.675 81.735 104.632 81.825 109.637L81.8222 109.64Z" fill="black"/>
<path d="M106.933 60.2144C97.8414 61.6795 86.6547 73.3612 85.2148 88.4652C85.4314 87.3882 81.8628 86.2718 80.4623 85.3634C78.4404 84.0249 76.2638 82.9309 74 82.0901C75.2964 76.0131 78.2126 70.2763 82.369 65.6503C90.8673 56.2549 100.974 55.6896 106.933 60.2144Z" fill="black"/>
<path d="M84.5025 88.447L84.4519 88.3036C84.2522 88.0083 82.5453 87.1956 81.9885 86.9453C78.9879 85.6011 78.4311 84.4987 73.7489 82.7608C73.417 82.6371 73.2258 82.2912 73.3017 81.9453C74.6291 75.7136 77.5818 69.9149 81.8366 65.1793C90.6246 55.4605 101.139 54.9318 107.362 59.6506C107.86 60.0274 107.663 60.8204 107.045 60.9217C98.5548 62.2799 87.4046 73.4329 85.9283 88.4582C85.8833 89.4706 84.4716 89.3665 84.4997 88.447H84.5025ZM74.8259 81.6472C76.9519 82.4824 78.9766 83.5313 80.8523 84.7743C81.89 85.4436 83.1724 85.8007 84.705 86.7428C86.6876 73.0758 96.1476 62.5696 105.169 59.9121C94.2382 53.7451 78.7517 64.6899 74.8259 81.6472Z" fill="black"/>
<path d="M58.6003 126.81C54.6295 125.41 51.3956 122.654 47.6076 121.18C41.4237 118.784 33.724 120.236 28.8787 124.712C28.1419 125.416 26.8849 125.019 26.7246 123.967C25.2651 115.176 24.8067 112.412 24.3764 109.802C24.2808 109.246 24.4439 108.672 24.8151 108.275C32.3629 99.6759 45.4197 98.9673 53.8703 106.422C57.2195 109.392 59.9614 113.874 64.3258 114.918C66.1622 115.34 68.62 115.005 69.9445 113.284C71.5193 111.256 70.8191 108.157 69.3624 106.268C67.7004 104.097 65.0738 102.747 62.7538 101.557C50.6897 95.2777 49.5002 94.8643 47.7341 93.2192C44.3708 90.0134 44.6633 85.9386 47.8579 83.2305C49.3174 81.9959 51.0722 81.3182 52.5935 80.8205C61.7218 77.8649 72.5092 79.2569 80.8472 84.7743C82.4248 85.7952 85.3326 86.4616 85.8697 88.0589C86.0103 88.6467 85.9062 89.1388 85.9062 89.51L85.8781 93.2811C85.8472 94.195 85.0907 94.7659 84.2893 94.6197C82.4923 94.2991 79.7758 92.4993 78.0857 91.785C77.9338 91.7232 70.4732 88.5707 69.4608 88.1405C67.228 87.2069 64.6998 86.1467 62.3123 87.1984C61.3674 87.609 60.6813 88.4273 60.521 89.3328C60.1695 91.2338 61.8118 92.339 63.6397 93.253C70.1751 96.5797 81.823 97.9661 81.823 110.002C81.9411 115.497 79.2977 120.978 74.922 124.288C70.2763 127.778 64.0249 128.728 58.6003 126.813V126.81ZM48.1222 119.853C51.9861 121.352 55.3185 124.142 59.0755 125.466C63.994 127.207 69.8798 126.296 74.0671 123.149C78.0828 120.109 80.5097 115.075 80.4001 110.013C80.4001 94.4228 57.4782 97.9493 59.1205 89.0741C59.3652 87.7102 60.3691 86.4869 61.7415 85.8908C64.683 84.5916 67.6413 85.8317 70.0148 86.8272C79.922 91.0314 78.7831 90.4521 80.9259 91.6163C81.7893 92.0859 83.5581 93.0393 84.5395 93.2136L84.4636 92.1422C84.4917 89.3019 84.472 89.5466 84.503 89.0685C84.5592 88.2333 84.472 88.4808 84.4467 88.298C84.3427 88.1461 83.6312 87.758 83.3725 87.6146C82.3433 87.0325 81.1397 86.6529 80.0682 85.9583C72.0339 80.6405 61.688 79.3638 53.035 82.1675C51.6458 82.6231 50.0514 83.2333 48.7774 84.3103C46.1903 86.501 46.0047 89.5944 48.71 92.1759C50.282 93.6411 51.3056 93.9898 63.4062 100.286C65.8556 101.543 68.634 102.972 70.4872 105.393C72.3151 107.761 73.1025 111.529 71.0694 114.147C69.593 116.068 66.7527 116.934 63.9996 116.299C59.1458 115.137 56.1903 110.373 52.9282 107.485C45.057 100.545 32.9141 101.2 25.8697 109.232C25.7206 109.389 25.5238 108.433 28.0885 123.503C33.3556 118.776 41.5615 117.311 48.1222 119.853Z" fill="black"/>
<path d="M57.2769 57.5597L56.6161 33.1531C56.5711 31.5249 58.3427 30.5153 59.7404 31.3505C66.183 35.206 72.561 38.5243 79.012 42.4304C80.1847 43.1418 80.3506 44.8235 79.3242 45.7346C73.4046 50.9877 67.1729 55.2706 60.3619 59.2808C59.0205 60.071 57.3219 59.112 57.2797 57.5569L57.2769 57.5597Z" fill="#23B882"/>
<path d="M52.2576 52.5856L51.5968 28.1789C51.5377 25.9967 53.9056 24.6187 55.7981 25.7464C62.1733 29.5625 68.6075 32.9118 75.0726 36.8291C76.653 37.7852 76.878 40.0406 75.486 41.2751C70.0107 46.1345 63.9506 50.4652 56.4112 54.9028C54.5973 55.9686 52.3139 54.6806 52.2548 52.5856H52.2576ZM53.6806 52.5462C53.7087 53.567 54.8251 54.1885 55.6913 53.6767C63.1491 49.2869 69.139 45.0068 74.5439 40.2093C75.2104 39.6159 75.1007 38.5079 74.3358 38.0467C67.9522 34.18 61.4956 30.8139 55.0698 26.9697C54.1474 26.4157 52.9944 27.0794 53.0225 28.1395L53.6834 52.5462H53.6806Z" fill="black"/>
<path d="M103.673 116.741C100.86 116.741 98.0399 116.058 95.298 114.691C94.879 114.483 94.4628 114.258 94.0747 114.019C87.9808 110.363 84.4965 103.167 84.2716 93.7602C84.2688 93.5802 84.3306 93.4058 84.4487 93.2737C84.5753 92.6269 82.9527 79.4829 93.6754 67.5763C109.553 50.0341 134.303 60.2759 125.953 96.1111C123.49 106.645 114.485 116.738 103.673 116.738V116.741ZM85.7001 93.9514C85.8576 99.1482 87.2749 108.282 94.8143 112.804C95.1743 113.026 95.5539 113.229 95.9336 113.417C108.681 119.761 121.485 108.974 124.57 95.7877C132.486 61.817 109.876 51.7973 94.7356 68.5324C89.6484 74.1792 86.3498 81.7776 85.9223 89.1876C85.897 89.6291 85.9167 89.0948 85.8801 93.2765C85.8604 93.5408 85.8014 93.763 85.7001 93.9514Z" fill="black"/>
<path d="M84.2708 93.7674C84.2286 92.0182 84.3074 90.21 84.5042 88.3934C84.5436 88.0334 84.8445 87.7634 85.2045 87.7578C86.1353 87.8225 85.9103 88.7027 85.9103 89.507C85.7781 92.8112 86.1353 93.5227 85.5194 94.2201C85.3254 94.4395 84.2905 94.4114 84.2736 93.7646L84.2708 93.7674Z" fill="black"/>
<path d="M109.448 68.6142C111.087 67.6806 113.413 67.6947 114.805 68.9208C117.046 70.8977 116.985 76.2099 113.669 78.873C112.738 79.621 111.45 80.2678 110.207 79.8938C108.886 79.4973 107.606 78.558 106.951 77.4303C105.427 74.8094 106.436 70.3268 109.451 68.6114L109.448 68.6142Z" fill="#F1D22F"/>
<path d="M107.311 78.5869C104.018 77.597 102.202 74.6218 103.042 70.8394C103.515 68.7163 104.741 66.953 106.409 66.0053C108.397 64.8749 111.051 65.0436 112.587 66.3962C115.171 68.6741 115.081 74.498 111.425 77.4367C110.253 78.3788 108.759 79.0172 107.314 78.5841L107.311 78.5869ZM104.432 71.1488C103.765 74.1437 105.09 76.4328 107.722 77.2258C108.793 77.5464 109.946 76.8012 110.534 76.3315C113.461 73.9778 113.579 69.1746 111.645 67.4677C110.562 66.5143 108.568 66.4159 107.112 67.2455C105.793 67.9963 104.817 69.4193 104.432 71.1516V71.1488Z" fill="black"/>
<path d="M105.742 100.337C107.381 99.4033 109.707 99.4173 111.099 100.643C111.881 101.332 112.3 102.311 112.497 103.292C113.52 108.36 109.215 112.432 106.498 111.616C105.177 111.22 103.897 110.281 103.242 109.153C101.718 106.532 102.727 102.049 105.742 100.334V100.337Z" fill="#F1D22F"/>
<path d="M103.601 110.303C100.311 109.313 98.4886 106.332 99.3322 102.555C99.8046 100.432 101.031 98.6716 102.696 97.7211C104.681 96.5906 107.338 96.7565 108.874 98.112C111.464 100.398 111.365 106.222 107.712 109.152C106.543 110.095 105.035 110.736 103.601 110.3V110.303ZM105.589 98.3932C103.047 98.3932 101.267 100.418 100.721 102.862C100.055 105.857 101.379 108.146 104.012 108.939C105.086 109.259 106.236 108.517 106.824 108.045C110.252 105.294 110.212 98.3932 105.592 98.3932H105.589Z" fill="black"/>
<path d="M117.218 85.3681C118.857 84.4345 121.183 84.4486 122.575 85.6747C124.816 87.6516 124.754 92.9638 121.439 95.6269C120.508 96.3749 119.22 97.0217 117.977 96.6477C116.655 96.2512 115.376 95.3119 114.72 94.1842C113.196 91.5633 114.206 87.0807 117.22 85.3653L117.218 85.3681Z" fill="#F1D22F"/>
<path d="M115.079 95.3362C111.788 94.3519 109.969 91.3682 110.81 87.5887C111.282 85.4655 112.508 83.7051 114.176 82.7574C116.164 81.6241 118.819 81.7929 120.354 83.1483C122.936 85.4262 122.854 91.2501 119.193 94.1888C118.02 95.1309 116.518 95.7721 115.079 95.3362ZM112.199 87.898C111.532 90.8958 112.857 93.1821 115.489 93.9751C116.563 94.2957 117.714 93.5533 118.301 93.0808C121.246 90.7186 121.336 85.9155 119.412 84.2169C118.329 83.258 116.338 83.1596 114.879 83.9948C113.56 84.7428 112.584 86.1686 112.199 87.898Z" fill="black"/>
<path d="M95.6218 83.4424C97.2613 82.5087 99.587 82.5228 100.979 83.7489C103.22 85.7258 103.158 91.038 99.8429 93.7011C98.912 94.4491 97.6241 95.0959 96.3811 94.7219C95.0594 94.3254 93.7799 93.3861 93.1246 92.2584C91.6005 89.6375 92.61 85.155 95.6246 83.4395L95.6218 83.4424Z" fill="#F1D22F"/>
<path d="M93.4809 93.4111C90.1907 92.4212 88.3713 89.446 89.2121 85.6636C89.6845 83.5405 90.9106 81.7773 92.5782 80.8296C94.5664 79.6991 97.2211 79.8678 98.7565 81.2205C101.341 83.4983 101.254 89.3223 97.5951 92.261C96.4224 93.203 94.9292 93.8414 93.4837 93.4083L93.4809 93.4111ZM90.6013 85.973C89.9348 88.9679 91.2593 91.257 93.8915 92.05C96.0709 92.7025 99.8983 89.0551 98.9871 84.5472C98.7875 83.5602 98.3938 82.8009 97.8173 82.2919C96.7346 81.3358 94.7408 81.2373 93.2841 82.0697C91.9652 82.8206 90.9894 84.2435 90.6041 85.9758L90.6013 85.973Z" fill="black"/>
<path d="M75.5828 90.3377C75.1919 90.2871 74.9163 89.9328 74.9669 89.5419L75.7487 83.4142C75.7993 83.0261 76.1593 82.7506 76.5445 82.7984C76.9354 82.849 77.2082 83.2033 77.1604 83.5942L76.3786 89.7219C76.328 90.1212 75.9568 90.3884 75.5828 90.3377Z" fill="black"/>
<path d="M64.9304 85.6253L64.3342 80.6028C64.2245 79.6832 65.6334 79.478 65.7487 80.4369L66.3449 85.4594C66.3899 85.8503 66.1115 86.2018 65.7206 86.2496C65.3606 86.303 64.9782 86.0359 64.9304 85.6281V85.6253Z" fill="black"/>
<path d="M59.9661 88.2592C57.3339 86.1023 54.5415 84.0831 51.6703 82.2552C51.3384 82.0443 51.24 81.6056 51.4509 81.2738C51.6618 80.9448 52.1005 80.8463 52.4323 81.0544C55.3514 82.9105 58.1888 84.9661 60.866 87.1568C61.1697 87.4043 61.2147 87.8542 60.9644 88.1579C60.7169 88.4616 60.2698 88.5094 59.9633 88.2592H59.9661Z" fill="black"/>
<path d="M51.7117 94.6121C55.1875 93.4338 58.8236 92.8714 62.471 92.9079C63.3709 92.922 63.4468 94.2549 62.4541 94.3309C58.9333 94.2831 55.4912 94.8342 52.1701 95.9619C51.2561 96.2628 50.8399 94.9102 51.7117 94.6149V94.6121Z" fill="black"/>
<path d="M66.565 102.288C69.7483 100.983 73.0892 100.122 76.5003 99.7313C76.8884 99.6863 77.2427 99.9675 77.2877 100.358C77.3327 100.749 77.0515 101.101 76.6634 101.146C73.3844 101.52 70.1673 102.349 67.1077 103.606C66.2247 103.964 65.7073 102.645 66.5678 102.288H66.565Z" fill="black"/>
<path d="M79.8061 116.74L71.2656 113.228C70.9028 113.079 70.7285 112.662 70.8775 112.3C71.0266 111.937 71.4428 111.762 71.8055 111.914L80.346 115.427C81.2122 115.781 80.675 117.108 79.8033 116.743L79.8061 116.74Z" fill="black"/>
<path d="M68.985 126.441L63.3269 115.904C63.1413 115.558 63.2707 115.127 63.6166 114.939C63.9625 114.756 64.3927 114.883 64.5811 115.229L70.2392 125.766C70.4248 126.112 70.2954 126.542 69.9495 126.73C69.598 126.916 69.1706 126.784 68.985 126.441Z" fill="black"/>
<path d="M50.7625 122.071C50.3154 116.787 50.8244 111.52 52.2699 106.419C52.3767 106.042 52.7732 105.823 53.1473 105.929C53.5241 106.036 53.7462 106.43 53.6366 106.81C52.2389 111.745 51.7496 116.841 52.1799 121.953C52.2136 122.344 51.924 122.687 51.5303 122.721C51.1113 122.749 50.7935 122.442 50.7625 122.071Z" fill="black"/>
<path d="M37.8349 119.732C36.3361 114.088 36.5301 107.93 38.3749 102.39C38.4986 102.019 38.9007 101.813 39.2748 101.94C39.646 102.064 39.8484 102.468 39.7247 102.84C37.9671 108.118 37.7843 113.99 39.2101 119.369C39.3113 119.749 39.0835 120.137 38.7039 120.238C38.3355 120.34 37.9362 120.12 37.8321 119.732H37.8349Z" fill="black"/>
<path d="M109.619 119.041C109.251 119.041 108.939 118.757 108.91 118.385C108.88 117.995 109.172 117.651 109.566 117.621C113.621 117.3 117.51 114.792 119.473 111.229C119.661 110.883 120.094 110.759 120.44 110.947C120.783 111.139 120.91 111.569 120.721 111.915C118.534 115.888 114.2 118.684 109.678 119.038C109.658 119.038 109.642 119.038 109.622 119.038L109.619 119.041Z" fill="black"/>
<path d="M114.178 121.141C113.866 121.141 113.577 120.933 113.492 120.615C113.388 120.236 113.613 119.845 113.993 119.743C116.594 119.038 118.976 117.502 120.694 115.424C120.942 115.12 121.392 115.075 121.695 115.328C121.996 115.579 122.041 116.029 121.791 116.33C119.887 118.633 117.249 120.331 114.364 121.116C114.302 121.133 114.24 121.141 114.178 121.141Z" fill="black"/>
<path d="M45.0276 7.14861L18.6581 4.00744C18.2672 3.95963 17.9888 3.6053 18.0366 3.21722C18.0816 2.82633 18.4359 2.54512 18.8268 2.59574L45.1963 5.73691C46.13 5.84939 45.9669 7.2639 45.0276 7.15142V7.14861Z" fill="black"/>
<path d="M37.6059 3.04496L26.1295 1.44485C25.7415 1.39142 25.4687 1.03146 25.5249 0.640574C25.5784 0.252497 25.9411 -0.0259053 26.3292 0.035962L37.8056 1.63607C38.1937 1.68951 38.4664 2.04946 38.4102 2.44035C38.354 2.83686 37.9856 3.1012 37.6059 3.04496Z" fill="black"/>
</g>
<defs>
<clipPath id="clip0_14296_71669">
<rect width="130" height="127.759" fill="white" transform="translate(0 0.03125)"/>
</clipPath>
</defs>
</svg>
