<svg width="74" height="75" viewBox="0 0 74 75" fill="none" xmlns="http://www.w3.org/2000/svg">
<g opacity="0.8">
<path d="M27.8377 64.3968L26.4566 62.0188L27.8377 64.3968ZM25.5442 62.6619L22.815 62.3244V62.3244L25.5442 62.6619ZM23.7286 52.9575L21.3271 54.2972L21.3352 54.3118L21.3435 54.3263L23.7286 52.9575ZM20.9877 48.0444L23.3893 46.7046L23.3812 46.6901L23.3728 46.6756L20.9877 48.0444ZM64.1176 43.3255L65.4987 45.7035L64.1176 43.3255ZM63.806 40.4917L64.9326 37.9831L64.9326 37.9831L63.806 40.4917ZM56.4428 33.9571L54.0404 35.2953L54.049 35.3107L54.0577 35.3259L56.4428 33.9571ZM53.8407 29.2858L56.2431 27.9475L56.2345 27.9322L56.2258 27.917L53.8407 29.2858ZM27.8058 22.2013L29.187 24.5793L27.8058 22.2013ZM45.005 64.1678L46.3861 66.5458L45.005 64.1678ZM6.71899 36.6263C6.93317 38.1299 8.32572 39.1752 9.82932 38.961C11.3329 38.7468 12.3782 37.3543 12.164 35.8507L6.71899 36.6263ZM14.125 25.9139C14.9194 24.6194 14.514 22.926 13.2196 22.1316C11.9251 21.3372 10.2317 21.7426 9.43734 23.0371L14.125 25.9139ZM36.7925 7.19722C35.274 7.22603 34.0663 8.48038 34.0951 9.99889C34.124 11.5174 35.3783 12.725 36.8968 12.6962L36.7925 7.19722ZM46.4366 15.8589C47.618 16.8133 49.3495 16.6293 50.3039 15.4479C51.2583 14.2665 51.0743 12.535 49.8929 11.5806L46.4366 15.8589ZM28.2734 62.9994C28.6612 59.863 28.4266 55.6185 26.1137 51.5886L21.3435 54.3263C22.8954 57.0302 23.1044 59.984 22.815 62.3244L28.2734 62.9994ZM26.1302 51.6177L23.3893 46.7046L18.5862 49.3842L21.3271 54.2972L26.1302 51.6177ZM64.9326 37.9831C62.8336 37.0404 60.4086 35.3424 58.8279 32.5882L54.0577 35.3259C56.3683 39.3519 59.8404 41.7253 62.6793 43.0003L64.9326 37.9831ZM58.8452 32.6188L56.2431 27.9475L51.4383 30.6241L54.0404 35.2953L58.8452 32.6188ZM56.2258 27.917C50.1983 17.4146 36.8601 13.7624 26.4247 19.8233L29.187 24.5793C36.9512 20.0699 46.9254 22.7613 51.4556 30.6547L56.2258 27.917ZM65.4987 45.7035C67.2529 44.6846 67.6262 42.813 67.4691 41.5335C67.3124 40.2571 66.5541 38.7113 64.9326 37.9831L62.6793 43.0003C62.124 42.7509 62.0255 42.3293 62.0101 42.2036C61.9943 42.075 61.9903 41.3808 62.7364 40.9475L65.4987 45.7035ZM23.3728 46.6756C18.914 38.9064 21.545 29.0178 29.187 24.5793L26.4247 19.8233C16.1312 25.8017 12.6571 39.0538 18.6026 49.4133L23.3728 46.6756ZM26.4566 62.0188C27.2269 61.5713 27.8431 61.9469 27.94 62.0221C28.0363 62.0969 28.3481 62.3952 28.2734 62.9994L22.815 62.3244C22.5943 64.1088 23.5425 65.5709 24.5669 66.3663C25.5919 67.1622 27.4278 67.815 29.2189 66.7748L26.4566 62.0188ZM62.7364 40.9475L26.4566 62.0188L29.2189 66.7748L65.4987 45.7035L62.7364 40.9475ZM46.1737 53.7308C47.6588 56.3184 46.7328 59.9841 43.6239 61.7898L46.3861 66.5458C51.8344 63.3815 54.0906 56.4759 50.9439 50.9931L46.1737 53.7308ZM43.6239 61.7898C40.5223 63.5912 36.9281 62.568 35.4498 59.9921L30.6795 62.7298C33.8329 68.2243 40.9305 69.7144 46.3861 66.5458L43.6239 61.7898ZM27.6036 15.3749C28.501 16.9386 27.9619 18.9305 26.4247 19.8233L29.187 24.5793C33.3545 22.1588 34.77 16.8124 32.3738 12.6372L27.6036 15.3749ZM26.4247 19.8233C24.8971 20.7105 22.9363 20.1907 22.0443 18.6365L17.2741 21.3743C19.6758 25.559 25.0097 27.0055 29.187 24.5793L26.4247 19.8233ZM22.0443 18.6365C21.1469 17.0729 21.686 15.081 23.2233 14.1882L20.461 9.43214C16.2934 11.8527 14.8779 17.199 17.2741 21.3743L22.0443 18.6365ZM23.2233 14.1882C24.7508 13.301 26.7116 13.8208 27.6036 15.3749L32.3738 12.6372C29.9721 8.45245 24.6382 7.006 20.461 9.43214L23.2233 14.1882ZM12.164 35.8507C11.6645 32.3442 12.3368 28.8277 14.125 25.9139L9.43734 23.0371C6.93374 27.1167 6.05137 31.9396 6.71899 36.6263L12.164 35.8507ZM36.8968 12.6962C40.4214 12.6294 43.799 13.7281 46.4366 15.8589L49.8929 11.5806C46.1789 8.58015 41.5176 7.10758 36.7925 7.19722L36.8968 12.6962Z" fill="#848589"/>
</g>
</svg>
