<svg width="131" height="123" viewBox="0 0 131 123" fill="none" xmlns="http://www.w3.org/2000/svg">
<path d="M15.7886 89.3229C14.7565 88.288 2.80817 22.5453 0.460118 11.4011C-0.32163 7.63863 0.372944 5.85861 4.10453 5.75456C5.04937 5.73769 93.2688 1.32278 105.122 0.729441C106.379 0.667576 107.498 1.60961 107.636 2.90596L116.066 73.9326C116.176 74.838 114.787 75.0321 114.677 74.0957L106.246 3.06063C106.187 2.49822 105.704 2.07641 105.164 2.12421C93.7778 2.69506 5.08593 7.12965 4.14671 7.15496C2.0911 7.2112 1.05346 7.36868 1.83239 11.1171C2.00674 11.9467 16.32 87.526 16.8403 88.4061C18.1844 89.7728 20.316 89.6912 22.3716 89.6041C27.4389 89.4157 4.01735 90.293 71.9226 87.7425C72.8983 87.7678 72.8534 89.1063 71.976 89.1401C71.7988 89.1457 28.1109 90.7879 22.4278 90.9988C19.9307 91.1029 17.5545 91.1254 15.7914 89.3201L15.7886 89.3229Z" fill="black"/>
<path d="M25.0884 54.9773C21.7365 52.6405 19.3687 48.7992 18.5926 44.4378C17.8502 40.2647 18.6713 36.2069 20.9041 33.0124C25.0294 27.1268 33.3811 25.2849 39.5142 28.9069C45.622 32.5063 48.5662 40.9733 46.0803 47.7869C43.0968 55.9053 32.7653 60.3342 25.0856 54.9745L25.0884 54.9773ZM22.0514 33.8139C17.6112 40.1663 19.8749 49.6372 25.8899 53.83C31.095 57.4632 37.7707 56.0881 41.896 51.8475C48.4621 45.1155 45.4026 33.9967 38.8112 30.1104C33.308 26.8597 25.7858 28.4963 22.0542 33.8139H22.0514Z" fill="black"/>
<path d="M31.3197 45.9179C29.1713 45.3471 27.6275 43.3955 27.2282 41.1459C26.3283 36.0786 31.5053 32.9376 35.3072 35.1816C37.6468 36.5595 38.7773 39.8018 37.8268 42.4057C36.8398 45.08 33.8815 46.5956 31.3197 45.9123V45.9179ZM28.6061 40.9013C29.2641 44.5991 33.1279 45.9179 35.5968 43.373C37.7002 41.219 36.7188 37.6365 34.5986 36.3851C31.9046 34.7963 27.9003 36.9222 28.6061 40.9013Z" fill="black"/>
<path d="M32.7059 56.8708C28.5047 56.8708 24.4188 54.8883 21.9695 51.5589C21.7811 51.3001 21.7896 50.9458 21.992 50.7012C27.6442 43.8145 37.7198 42.476 44.9749 47.6698C45.2364 47.8582 45.3376 48.2013 45.2167 48.4993C43.313 53.1926 38.2935 56.8708 32.7059 56.8708ZM23.4318 51.1652C25.9486 54.2444 30.0992 55.8922 34.1738 55.3804C38.2344 54.8714 41.9913 52.1297 43.6954 48.4853C37.2221 44.2082 28.5835 45.3414 23.429 51.1652H23.4318Z" fill="black"/>
<path d="M73.4827 68.3278C65.623 61.2133 65.4206 61.5873 64.487 59.9507C63.0275 57.3974 58.5986 51.4611 58.1599 50.4797C57.9012 49.9061 58.4833 49.3071 59.0625 49.5462C60.1649 49.9989 67.0431 53.6377 70.2179 55.069C71.6239 55.7017 71.6717 56.1095 79.4499 62.909C79.7845 63.2099 79.7564 63.7385 79.3936 64.0001C78.0607 64.959 78.2716 66.0163 78.2126 66.1597C78.2013 66.4072 78.1872 66.6546 78.1282 66.8936C77.9988 67.4729 77.6305 67.9229 77.1468 68.0916C76.6687 68.2519 76.2441 68.1141 75.9348 68.0185C75.7942 68.0185 75.0378 67.6023 74.4894 68.2575C74.2363 68.5556 73.7864 68.5977 73.4855 68.3278H73.4827ZM60.7666 51.9364C62.2655 54.096 64.5995 57.3299 65.7018 59.2589C66.4498 60.5694 66.4695 60.1279 73.9608 66.8768C75.1615 66.0922 76.4213 66.7699 76.6997 66.7699C76.6912 66.7699 76.7419 66.6968 76.7672 66.5815C76.8965 66.0388 76.6209 64.7818 77.9257 63.4292L70.7888 57.0937C70.0239 56.4132 70.8787 57.0656 60.7666 51.9392V51.9364Z" fill="black"/>
<path d="M93.1822 118.678C80.8289 98.0372 72.2184 94.0441 69.4963 84.3678C67.1398 75.9458 71.7685 67.4787 74.6396 66.6857C76.7345 66.0924 78.6299 68.0495 79.3469 70.2007C80.5308 73.8311 80.0724 77.6161 81.6809 80.6953C83.3428 83.8982 87.5665 86.0635 91.6749 84.4916C92.0349 84.3538 92.4398 84.5337 92.5776 84.8937C92.7154 85.2536 92.5354 85.6585 92.1755 85.7963C87.44 87.6073 82.4205 85.1552 80.4436 81.3421C78.6692 77.9423 79.1698 74.1545 78.0224 70.6394C77.5866 69.3262 76.3633 67.653 75.022 68.0327C74.4118 68.2014 73.9253 68.7638 73.4866 69.3459C70.4862 73.4655 69.471 79.0812 70.8461 83.991C73.4754 93.3326 81.8581 97.0276 94.3857 117.96C94.5826 118.292 94.4757 118.72 94.1439 118.919C93.8177 119.116 93.3846 119.012 93.185 118.68L93.1822 118.678Z" fill="black"/>
<path d="M120.725 118.655C118.346 114.31 116.184 110.014 115.832 105.23C115.211 96.4821 121.628 86.2266 118.968 79.4889C117.652 76.1032 114.179 73.9829 111.392 72.0679L111.597 73.1955C111.755 74.0645 110.492 74.3485 110.242 73.5246C108.473 67.7486 103.752 56.5764 97.72 56.402C96.1565 56.3261 94.6183 56.9954 93.2404 57.5662C81.9697 62.223 81.067 62.4198 79.751 63.6515C77.2117 66.0248 78.6543 69.2081 82.234 69.2221C85.5719 69.2221 89.0026 66.4776 92.7539 67.5855C95.5434 68.4066 97.0704 71.1006 97.5709 73.3474L97.6187 73.5667C98.063 75.6336 98.4848 77.5852 97.9112 79.6661C97.81 80.0401 97.4247 80.2538 97.0535 80.1554C96.6823 80.0541 96.463 79.6689 96.5642 79.2977C97.0451 77.5458 96.6767 75.8389 96.2521 73.862L96.2071 73.6483C95.6869 71.3171 94.1768 69.464 92.3602 68.9297C90.1331 68.2773 87.5263 69.4471 85.8053 69.9589C83.3673 70.735 81.9247 70.6366 82.0653 70.6197C81.7841 70.6197 81.4664 70.5832 81.0839 70.5101C76.8518 69.7255 75.772 65.4568 78.7977 62.6307C80.4147 61.1178 81.9753 60.7073 92.7089 56.2727C94.219 55.6512 95.9231 54.937 97.765 55.0044C102.399 55.1422 106.668 60.1364 110.456 69.852C110.844 69.8802 111.375 70.4032 112.705 71.2637C118.76 75.3243 121.729 78.3107 120.863 85.6079C120.081 92.2471 116.766 98.608 117.23 105.132C117.562 109.642 119.567 113.621 121.954 117.989C122.14 118.326 122.016 118.751 121.676 118.936C121.344 119.119 120.914 119.001 120.728 118.658L120.725 118.655Z" fill="black"/>
<path d="M62.3001 51.8252C61.7967 52.3707 61.2933 52.9163 60.79 53.4478C59.9942 52.3426 59.2799 51.2515 58.8047 50.1914C59.9661 50.6666 61.1246 51.2262 62.3001 51.828V51.8252Z" fill="black"/>
<path d="M98.7135 93.1092C95.4515 89.6391 83.1123 77.0918 78.7451 73.0846C78.3908 72.7641 78.5314 72.2691 78.2615 70.6297C78.0646 69.4374 78.8548 68.8581 80.064 69.0409C81.9143 69.2518 83.8125 69.1028 85.3844 68.6163C85.6178 68.546 85.8737 68.5994 86.0565 68.7597C107.048 87.4007 106.981 86.5684 106.925 87.367C106.88 88.0363 105.983 88.2584 105.625 87.7157C102.816 85.2439 89.8274 73.962 85.4181 70.0589C82.533 70.8434 79.8643 70.4048 79.6422 70.3991C79.7631 71.1387 79.7772 71.5774 79.8728 72.2185C84.3411 76.3494 96.1433 88.3456 99.5824 91.9872C100.027 92.1953 100.148 92.8533 99.6977 93.1542L99.6133 93.2104C99.3349 93.3988 98.9525 93.3595 98.7163 93.1092H98.7135Z" fill="black"/>
<path d="M98.1932 92.3795C97.8417 91.7777 97.7686 91.055 97.9739 90.2845C98.9497 86.6373 105.251 84.2611 107.006 87.2869C107.358 87.8887 107.431 88.6142 107.225 89.3818C106.244 93.0431 99.9339 95.3799 98.1932 92.3795ZM104.186 87.3206C102.15 87.3206 99.768 88.9994 99.3265 90.6473C98.7866 92.6607 101.604 92.7422 103.606 91.5781C103.606 91.5781 103.606 91.5781 103.609 91.5781C106.12 90.1383 107.023 87.3234 104.186 87.3234V87.3206Z" fill="black"/>
<path d="M74.1154 67.7332C75.0546 67.0161 76.1485 67.2973 76.5731 68.4306C77.0681 69.7523 76.6125 73.4923 76.3116 74.9911C76.2048 75.5254 76.0557 76.0962 75.6311 76.4365C74.7284 77.1592 72.6419 76.5349 71.5508 75.9613C70.6538 75.4888 70.1842 75.2273 70.5301 74.2206C71.1318 72.4771 72.9597 68.6162 74.1126 67.736L74.1154 67.7332Z" fill="black"/>
<path d="M86.5988 60.1347C86.3767 60.0531 86.1292 60.1094 85.8958 60.1656C84.5292 60.5059 83.1513 60.8461 81.8605 61.4113C80.9832 61.7938 76.737 64.2431 78.4383 65.5197C79.1441 66.0512 80.4742 65.6885 81.2447 65.4972C85.1759 64.5327 88.2636 60.7449 86.596 60.1319L86.5988 60.1347Z" fill="black"/>
<path d="M12.7687 15.054C13.7388 12.8128 16.5593 12.5653 18.1903 14.202C19.9225 15.9454 18.7583 18.8334 16.6943 19.4324C14.4925 20.0707 11.5707 17.8211 12.7687 15.0512V15.054Z" fill="#F1D22F"/>
<path d="M10.3782 18.6958C8.37323 16.8483 9.51211 14.5846 9.52617 14.444C11.4271 10.0572 18.1563 12.4137 17.0006 16.882C16.2357 19.8375 12.8584 20.9904 10.3754 18.6958H10.3782ZM10.8085 14.998C9.87768 17.1492 12.1864 18.9236 13.8961 18.4286C14.7228 18.1896 15.4118 17.4444 15.648 16.5305C16.3791 13.7044 12.0261 12.1943 10.8085 14.998Z" fill="black"/>
<path d="M25.7549 13.1174C27.0512 11.8829 29.1546 12.0741 30.4172 13.3452C33.0437 15.9857 29.1265 20.8393 25.6818 17.6588C24.2785 16.3653 24.5035 14.3097 25.7549 13.1202V13.1174Z" fill="#F1D22F"/>
<path d="M22.6049 17.8377C20.9036 16.2685 21.1258 13.7489 22.6696 12.2782C25.3298 9.7446 30.2143 12.2136 29.2273 16.0211C28.4652 18.9737 25.0908 20.1323 22.6021 17.8377H22.6049ZM23.038 14.1398C22.1016 16.3023 24.4356 18.0654 26.1256 17.5705C27.7228 17.1065 28.648 14.84 27.3207 13.5043C26.0131 12.1911 23.7972 12.3767 23.038 14.1398Z" fill="black"/>
<path d="M37.9814 12.258C39.2778 11.0235 41.3812 11.2147 42.6438 12.4858C45.2703 15.1263 41.3531 19.9799 37.9083 16.7995C36.5051 15.5059 36.7301 13.4503 37.9814 12.2608V12.258Z" fill="#F1D22F"/>
<path d="M34.8314 16.9779C33.6447 15.884 33.3185 14.253 33.9793 12.7261C35.8634 8.36739 42.6095 10.6901 41.4565 15.1641C40.686 18.1449 37.2975 19.2556 34.8314 16.9779ZM35.2644 13.28C34.328 15.4425 36.662 17.2056 38.352 16.7135C39.1788 16.4745 39.8649 15.7265 40.1011 14.8154C40.8351 11.9752 36.4652 10.4933 35.2616 13.2828L35.2644 13.28Z" fill="black"/>
<path d="M64.7968 43.6026C64.4369 43.7404 64.0319 43.5548 63.897 43.192C63.762 42.8321 63.9448 42.43 64.3075 42.2922C67.6145 41.0633 69.5745 45.242 72.319 45.1773C72.8308 45.1605 72.9124 43.057 73.9556 42.1825C75.103 41.2292 76.9702 40.7793 78.3284 41.7804C79.4672 42.6156 79.3885 43.2989 80.2068 42.1516C82.9036 38.3497 86.2274 43.6448 93.1507 40.5571C93.505 40.3997 93.9183 40.5571 94.073 40.9115C94.2305 41.263 94.073 41.6763 93.7187 41.8338C91.0304 43.0289 87.9849 43.282 85.1391 42.5396L84.8636 42.4665C83.6572 42.1459 82.4058 41.8113 81.7366 42.4665C81.2388 42.9502 80.8733 44.0159 79.7709 44.1425C78.663 44.2578 78.0387 43.2961 77.4988 42.9052C76.7283 42.3343 75.5613 42.6634 74.8527 43.2539C74.0878 43.8978 74.2397 46.5159 72.3612 46.5721C69.0908 46.6818 67.1167 42.7168 64.7996 43.5998L64.7968 43.6026Z" fill="black"/>
<path d="M54.5586 71.5178C45.7794 72.4711 37.0171 73.1966 28.2379 74.1555C27.9398 74.1892 27.6698 73.9896 27.6248 73.6915C27.3661 71.9255 27.0596 69.8446 26.8009 68.0759C26.7559 67.7693 26.9696 67.491 27.2761 67.446C41.9466 65.1935 50.6752 65.2273 50.8242 65.2132C51.0463 65.1935 51.2572 65.3032 51.3669 65.4972C52.4214 67.3897 53.8809 68.8464 54.9916 70.6798C55.2025 71.0257 54.9607 71.4756 54.5614 71.5206L54.5586 71.5178Z" fill="#23B882"/>
<path d="M68.2332 33.0616C66.4166 32.308 64.0207 33.3793 63.3655 35.2297C63.2362 35.5924 62.834 35.7836 62.4741 35.6543C60.68 35.0131 64.5691 30.033 68.7674 31.768C70.7809 32.5976 72.4737 35.0947 74.355 34.5295C76.4781 33.8968 76.5006 29.5212 79.4054 28.6467C81.7338 27.9437 83.5925 30.0808 85.3669 30.9891C88.0299 32.3558 91.8515 30.6095 92.5489 27.6878C92.7654 26.7795 94.1236 27.1197 93.9099 28.014C92.9988 31.8159 88.1987 34.0149 84.7286 32.2377C82.912 31.3069 81.3626 29.5184 79.8075 29.988C77.6816 30.6292 77.6648 35.0047 74.7515 35.8736C71.9451 36.7032 70.1453 33.8574 68.2303 33.0644L68.2332 33.0616Z" fill="black"/>
<path d="M23.9859 71.4451L23.162 65.8294C23.0607 65.1489 23.5388 64.5106 24.2221 64.4065C39.1456 62.1147 47.3596 62.2103 47.8095 62.1681C48.3129 62.1288 48.7881 62.3762 49.0271 62.8065C50.0395 64.6202 51.5186 66.1163 52.6378 67.9666C53.113 68.7483 52.5956 69.7663 51.6845 69.8647C43.0066 70.8096 34.2105 71.5351 25.3638 72.5024C24.7002 72.5783 24.0815 72.12 23.9831 71.4451H23.9859ZM24.5652 65.7676L25.3469 71.0964C33.9602 70.1572 42.7225 69.4288 51.3218 68.4981C50.2307 66.7658 48.909 65.4386 47.8489 63.5685C47.1262 63.6276 39.7952 63.4392 24.5624 65.7676H24.5652Z" fill="black"/>
<path d="M112.981 118.725C104.46 118.436 95.8921 119.082 87.5179 120.657C87.1438 120.727 86.7727 120.48 86.7024 120.1C86.6321 119.721 86.8795 119.355 87.2591 119.285C95.7346 117.69 104.407 117.041 113.029 117.328C118.493 117.516 124.763 118.152 129.853 121.436C130.177 121.644 130.272 122.077 130.061 122.403C128.965 124.093 128.453 119.254 112.981 118.725Z" fill="black"/>
<path d="M4.01404 25.8824L108.259 14.1308C109.179 14.024 109.336 15.416 108.417 15.52L4.17151 27.2743C3.24635 27.3699 3.10012 25.9892 4.01404 25.8852V25.8824Z" fill="black"/>
<path d="M32.1485 95.853C31.7801 95.853 31.4708 95.5633 31.4511 95.1921C31.4314 94.8069 31.7267 94.4779 32.112 94.4582L62.6873 92.8441C63.0529 92.7991 63.4016 93.1197 63.4212 93.5049C63.4409 93.8902 63.1457 94.2192 62.7604 94.2388C49.1839 94.9559 55.5588 94.6185 32.1485 95.8558V95.853Z" fill="black"/>
<path d="M46.3495 98.2731L58.0757 97.2523C58.4441 97.2214 58.7984 97.5026 58.8321 97.8878C58.8659 98.2703 58.5818 98.6105 58.1966 98.6443L46.4704 99.6651C45.5312 99.7269 45.4412 98.349 46.3495 98.2731Z" fill="black"/>
<path d="M65.6208 61.0774C64.9853 61.0774 64.6788 60.2956 65.1484 59.8626L69.9457 55.4477C70.2297 55.189 70.6712 55.2086 70.9327 55.4898C71.1943 55.7739 71.1746 56.2154 70.8906 56.4797L66.0932 60.8946C65.9582 61.0183 65.7895 61.0802 65.6208 61.0802V61.0774Z" fill="black"/>
</svg>
