<svg width="22" height="23" viewBox="0 0 22 23" fill="none" xmlns="http://www.w3.org/2000/svg">
    <style>
        .exchange{stroke:18181d;}
    </style>
    <g opacity="0.7" clip-path="url(#clip0_14435_74243)">
        <path class="exchange" d="M5.49992 5.5026L7.33325 3.66927M7.33325 3.66927L5.49992 1.83594M7.33325 3.66927H5.49992C3.47487 3.66927 1.83325 5.31089 1.83325 7.33594M16.4999 16.5026L14.6666 18.3359M14.6666 18.3359L16.4999 20.1693M14.6666 18.3359H16.4999C18.525 18.3359 20.1666 16.6943 20.1666 14.6693M12.299 12.3017C13.0161 12.6442 13.8189 12.8359 14.6666 12.8359C17.7042 12.8359 20.1666 10.3735 20.1666 7.33594C20.1666 4.29837 17.7042 1.83594 14.6666 1.83594C11.629 1.83594 9.16659 4.29837 9.16659 7.33594C9.16659 8.18359 9.35834 8.98646 9.70084 9.70353M12.8333 14.6693C12.8333 17.7068 10.3708 20.1693 7.33325 20.1693C4.29569 20.1693 1.83325 17.7068 1.83325 14.6693C1.83325 11.6317 4.29569 9.16927 7.33325 9.16927C10.3708 9.16927 12.8333 11.6317 12.8333 14.6693Z" stroke="#18181D" stroke-width="1.83736" stroke-linecap="round" stroke-linejoin="round"/>
    </g>
    <defs>
        <clipPath id="clip0_14435_74243">
        <rect width="22" height="22" fill="white" transform="translate(0 0.00390625)"/>
        </clipPath>
    </defs>
</svg>
