<svg width="25" height="25" viewBox="0 0 25 25" fill="none" xmlns="http://www.w3.org/2000/svg">
    <path d="M2.988 6.99a.75.75 0 1 0-1.379.59l1.38-.59zm12.898 6.624-.275-.698.275.698zm-6.546.409a.75.75 0 0 0-1.257-.818l1.257.818zm-2.67 1.353a.75.75 0 0 0 1.257.818l-1.257-.818zm16.318-7.795a.75.75 0 1 0-1.378-.591l1.378.59zm-3.69 3.833-.512-.547.513.547zm.97 2.03a.75.75 0 0 0 1.061-1.06l-1.06 1.06zm-8.72 3.341a.75.75 0 0 0 1.5 0h-1.5zm5.122-.59a.75.75 0 0 0 1.257-.819l-1.257.818zm-10.84-4.25a.75.75 0 1 0-1.061-1.061l1.06 1.06zm-2.562.439a.75.75 0 1 0 1.061 1.06l-1.06-1.06zm9.03 1.151c-3.223 0-5.538-1.605-7.075-3.26a13.637 13.637 0 0 1-1.702-2.28 11.71 11.71 0 0 1-.506-.946 3.903 3.903 0 0 1-.027-.059V6.99l-.69.296a76 76 0 0 0-.688.297l.001.002.003.006a3.317 3.317 0 0 0 .04.088 13.201 13.201 0 0 0 .58 1.084c.41.69 1.033 1.61 1.89 2.534 1.714 1.845 4.399 3.74 8.175 3.74v-1.5zm3.313-.619c-.97.382-2.07.62-3.312.62v1.5c1.438 0 2.724-.277 3.862-.724l-.55-1.396zm-7.528.289L6.67 15.376l1.257.818 1.413-2.171-1.257-.818zm14.216-5.92-.69-.296v.002a13.3 13.3 0 0 1-2.823 3.876l1.026 1.094a14.798 14.798 0 0 0 3.122-4.26l.038-.085.011-.024.003-.007.002-.003V7.58l-.69-.296zm-3.514 3.582c-.858.806-1.912 1.552-3.174 2.049l.55 1.396c1.473-.58 2.684-1.444 3.651-2.351l-1.027-1.094zm-.017 1.077 1.5 1.5 1.061-1.06-1.5-1.5-1.06 1.06zm-7.22 2.341v2.5h1.5v-2.5h-1.5zm3.71-.262 1.412 2.171 1.257-.818-1.412-2.171-1.258.818zm-10.49-3.14-1.5 1.5 1.061 1.061 1.5-1.5-1.06-1.06z" fill="#18181d"/>
</svg>
