<svg width="25" height="25" viewBox="0 0 25 25" fill="none" xmlns="http://www.w3.org/2000/svg">
    <path fill-rule="evenodd" clip-rule="evenodd" d="M12.299 8.535a3.75 3.75 0 1 0 0 7.5 3.75 3.75 0 0 0 0-7.5zm-2.25 3.75a2.25 2.25 0 1 1 4.5 0 2.25 2.25 0 0 1-4.5 0z" fill="#18181d"/>
    <path fill-rule="evenodd" clip-rule="evenodd" d="M12.299 3.535c-4.514 0-7.555 2.704-9.32 4.997l-.031.041c-.4.519-.767.996-1.016 1.56-.268.605-.383 1.264-.383 2.152 0 .889.115 1.547.383 2.152.249.564.616 1.042 1.016 1.56l.031.041c1.765 2.293 4.806 4.997 9.32 4.997s7.555-2.704 9.32-4.997l.031-.041c.4-.518.767-.996 1.016-1.56.267-.605.383-1.263.383-2.152 0-.888-.116-1.547-.383-2.151-.25-.565-.617-1.042-1.016-1.56l-.032-.042c-1.764-2.293-4.805-4.997-9.32-4.997zm-8.13 5.912c1.628-2.117 4.28-4.412 8.13-4.412 3.85 0 6.501 2.295 8.13 4.412.44.57.696.91.865 1.293.158.357.255.794.255 1.545 0 .751-.097 1.188-.255 1.546-.169.382-.426.723-.864 1.292-1.63 2.117-4.282 4.412-8.131 4.412-3.85 0-6.502-2.295-8.13-4.412-.44-.57-.696-.91-.865-1.292-.158-.358-.255-.795-.255-1.546 0-.75.097-1.188.255-1.545.169-.383.425-.723.864-1.293z" fill="#18181d"/>
</svg>
