<svg width="28" height="28" viewBox="0 0 28 28" fill="none" xmlns="http://www.w3.org/2000/svg">
<path d="M11.6666 17.4987L8.07885 21.1313C7.5784 21.6381 7.32817 21.8914 7.11309 21.9093C6.92649 21.9248 6.7438 21.8498 6.62193 21.7076C6.48146 21.5438 6.48146 21.1877 6.48146 20.4755V18.6556C6.48146 18.0167 5.95823 17.5543 5.32605 17.4617V17.4617C3.79601 17.2376 2.59439 16.036 2.37027 14.506C2.33331 14.2537 2.33331 13.9526 2.33331 13.3505V7.93203C2.33331 5.97185 2.33331 4.99176 2.71479 4.24306C3.05035 3.5845 3.58578 3.04907 4.24435 2.71351C4.99304 2.33203 5.97313 2.33203 7.93331 2.33203H16.5666C18.5268 2.33203 19.5069 2.33203 20.2556 2.71351C20.9142 3.04907 21.4496 3.5845 21.7852 4.24306C22.1666 4.99176 22.1666 5.97185 22.1666 7.93203V12.832M22.1666 25.6654L19.6275 23.9001C19.2706 23.6519 19.0921 23.5278 18.8979 23.4399C18.7255 23.3618 18.5443 23.305 18.3582 23.2707C18.1485 23.232 17.9311 23.232 17.4964 23.232H15.4C14.0932 23.232 13.4398 23.232 12.9407 22.9777C12.5016 22.754 12.1447 22.3971 11.921 21.958C11.6666 21.4589 11.6666 20.8055 11.6666 19.4987V16.5654C11.6666 15.2586 11.6666 14.6052 11.921 14.1061C12.1447 13.667 12.5016 13.3101 12.9407 13.0864C13.4398 12.832 14.0932 12.832 15.4 12.832H21.9333C23.2401 12.832 23.8935 12.832 24.3926 13.0864C24.8317 13.3101 25.1886 13.667 25.4123 14.1061C25.6666 14.6052 25.6666 15.2586 25.6666 16.5654V19.732C25.6666 20.8192 25.6666 21.3628 25.489 21.7916C25.2522 22.3634 24.798 22.8176 24.2262 23.0544C23.7974 23.232 23.2538 23.232 22.1666 23.232V25.6654Z" stroke="#18181D" stroke-width="2.33333" stroke-linecap="round" stroke-linejoin="round"/>
</svg>
