<svg width="19" height="19" viewBox="0 0 19 19" fill="none" xmlns="http://www.w3.org/2000/svg">
<path d="M12.8338 8.05109C13.1413 7.74362 13.1413 7.24513 12.8338 6.93766C12.5264 6.6302 12.0279 6.6302 11.7204 6.93766L12.8338 8.05109ZM6.94743 11.7106C6.63996 12.0181 6.63996 12.5166 6.94743 12.8241C7.25489 13.1315 7.75339 13.1315 8.06085 12.8241L6.94743 11.7106ZM11.7204 12.8241C12.0279 13.1315 12.5264 13.1315 12.8338 12.8241C13.1413 12.5166 13.1413 12.0181 12.8338 11.7106L11.7204 12.8241ZM8.06085 6.93766C7.75339 6.63019 7.25489 6.63019 6.94743 6.93766C6.63996 7.24512 6.63996 7.74362 6.94743 8.05109L8.06085 6.93766ZM15.8533 9.88086C15.8533 13.174 13.1837 15.8435 9.89062 15.8435V17.4182C14.0534 17.4182 17.4279 14.0436 17.4279 9.88086H15.8533ZM9.89062 15.8435C6.59752 15.8435 3.92794 13.174 3.92794 9.88086H2.35331C2.35331 14.0436 5.72788 17.4182 9.89062 17.4182V15.8435ZM3.92794 9.88086C3.92794 6.58776 6.59752 3.91817 9.89062 3.91817V2.34355C5.72788 2.34355 2.35331 5.71812 2.35331 9.88086H3.92794ZM9.89062 3.91817C13.1837 3.91817 15.8533 6.58776 15.8533 9.88086H17.4279C17.4279 5.71812 14.0534 2.34355 9.89062 2.34355V3.91817ZM11.7204 6.93766L9.33391 9.32414L10.4473 10.4376L12.8338 8.05109L11.7204 6.93766ZM9.33391 9.32415L6.94743 11.7106L8.06085 12.8241L10.4473 10.4376L9.33391 9.32415ZM12.8338 11.7106L10.4473 9.32415L9.33391 10.4376L11.7204 12.8241L12.8338 11.7106ZM10.4473 9.32415L8.06085 6.93766L6.94743 8.05109L9.33391 10.4376L10.4473 9.32415Z" fill="#848589"/>
</svg>
