<svg width="21" height="21" viewBox="0 0 21 21" fill="none" xmlns="http://www.w3.org/2000/svg">
<path d="M5.15334 8.89844V3.82031C5.15334 3.65455 5.08749 3.49558 4.97028 3.37837C4.85307 3.26116 4.6941 3.19531 4.52834 3.19531C4.36258 3.19531 4.20361 3.26116 4.0864 3.37837C3.96919 3.49558 3.90334 3.65455 3.90334 3.82031V8.89844C3.36558 9.03613 2.88894 9.34888 2.54856 9.78738C2.20819 10.2259 2.02344 10.7652 2.02344 11.3203C2.02344 11.8754 2.20819 12.4147 2.54856 12.8532C2.88894 13.2918 3.36558 13.6045 3.90334 13.7422V17.5703C3.90334 17.7361 3.96919 17.895 4.0864 18.0123C4.20361 18.1295 4.36258 18.1953 4.52834 18.1953C4.6941 18.1953 4.85307 18.1295 4.97028 18.0123C5.08749 17.895 5.15334 17.7361 5.15334 17.5703V13.7422C5.6911 13.6045 6.16774 13.2918 6.50811 12.8532C6.84849 12.4147 7.03324 11.8754 7.03324 11.3203C7.03324 10.7652 6.84849 10.2259 6.50811 9.78738C6.16774 9.34888 5.6911 9.03613 5.15334 8.89844ZM4.52834 12.5703C4.28111 12.5703 4.03944 12.497 3.83388 12.3597C3.62832 12.2223 3.4681 12.0271 3.37349 11.7987C3.27888 11.5703 3.25413 11.3189 3.30236 11.0765C3.35059 10.834 3.46964 10.6112 3.64446 10.4364C3.81927 10.2616 4.042 10.1426 4.28448 10.0943C4.52695 10.0461 4.77829 10.0709 5.00669 10.1655C5.2351 10.2601 5.43032 10.4203 5.56768 10.6259C5.70503 10.8314 5.77834 11.0731 5.77834 11.3203C5.77834 11.6518 5.64664 11.9698 5.41222 12.2042C5.1778 12.4386 4.85986 12.5703 4.52834 12.5703ZM10.7783 5.14844V3.82031C10.7783 3.65455 10.7125 3.49558 10.5953 3.37837C10.4781 3.26116 10.3191 3.19531 10.1533 3.19531C9.98758 3.19531 9.82861 3.26116 9.7114 3.37837C9.59419 3.49558 9.52834 3.65455 9.52834 3.82031V5.14844C8.99058 5.28613 8.51394 5.59888 8.17356 6.03738C7.83319 6.47589 7.64844 7.01521 7.64844 7.57031C7.64844 8.12542 7.83319 8.66474 8.17356 9.10324C8.51394 9.54175 8.99058 9.8545 9.52834 9.99219V17.5703C9.52834 17.7361 9.59419 17.895 9.7114 18.0123C9.82861 18.1295 9.98758 18.1953 10.1533 18.1953C10.3191 18.1953 10.4781 18.1295 10.5953 18.0123C10.7125 17.895 10.7783 17.7361 10.7783 17.5703V9.99219C11.3161 9.8545 11.7927 9.54175 12.1331 9.10324C12.4735 8.66474 12.6582 8.12542 12.6582 7.57031C12.6582 7.01521 12.4735 6.47589 12.1331 6.03738C11.7927 5.59888 11.3161 5.28613 10.7783 5.14844ZM10.1533 8.82031C9.90611 8.82031 9.66444 8.747 9.45888 8.60965C9.25332 8.4723 9.0931 8.27707 8.99849 8.04867C8.90388 7.82026 8.87913 7.56893 8.92736 7.32645C8.97559 7.08397 9.09464 6.86125 9.26946 6.68643C9.44427 6.51161 9.667 6.39256 9.90948 6.34433C10.152 6.2961 10.4033 6.32085 10.6317 6.41546C10.8601 6.51007 11.0553 6.67029 11.1927 6.87585C11.33 7.08141 11.4033 7.32309 11.4033 7.57031C11.4033 7.90183 11.2716 8.21978 11.0372 8.4542C10.8028 8.68862 10.4849 8.82031 10.1533 8.82031ZM18.2783 13.8203C18.2778 13.2661 18.0935 12.7276 17.7542 12.2894C17.4149 11.8511 16.9398 11.5378 16.4033 11.3984V3.82031C16.4033 3.65455 16.3375 3.49558 16.2203 3.37837C16.1031 3.26116 15.9441 3.19531 15.7783 3.19531C15.6126 3.19531 15.4536 3.26116 15.3364 3.37837C15.2192 3.49558 15.1533 3.65455 15.1533 3.82031V11.3984C14.6156 11.5361 14.1389 11.8489 13.7986 12.2874C13.4582 12.7259 13.2734 13.2652 13.2734 13.8203C13.2734 14.3754 13.4582 14.9147 13.7986 15.3532C14.1389 15.7918 14.6156 16.1045 15.1533 16.2422V17.5703C15.1533 17.7361 15.2192 17.895 15.3364 18.0123C15.4536 18.1295 15.6126 18.1953 15.7783 18.1953C15.9441 18.1953 16.1031 18.1295 16.2203 18.0123C16.3375 17.895 16.4033 17.7361 16.4033 17.5703V16.2422C16.9398 16.1028 17.4149 15.7895 17.7542 15.3512C18.0935 14.913 18.2778 14.3746 18.2783 13.8203ZM15.7783 15.0703C15.5311 15.0703 15.2894 14.997 15.0839 14.8597C14.8783 14.7223 14.7181 14.5271 14.6235 14.2987C14.5289 14.0703 14.5041 13.8189 14.5524 13.5765C14.6006 13.334 14.7196 13.1112 14.8945 12.9364C15.0693 12.7616 15.292 12.6426 15.5345 12.5943C15.777 12.5461 16.0283 12.5709 16.2567 12.6655C16.4851 12.7601 16.6803 12.9203 16.8177 13.1258C16.955 13.3314 17.0283 13.5731 17.0283 13.8203C17.0283 14.1518 16.8966 14.4698 16.6622 14.7042C16.4278 14.9386 16.1099 15.0703 15.7783 15.0703Z" fill="#848589"/>
</svg>
