<svg width="19" height="19" viewBox="0 0 19 19" fill="none" xmlns="http://www.w3.org/2000/svg">
<path d="M7.26953 2.75H4.26953C3.4411 2.75 2.76953 3.42157 2.76953 4.25V7.25M7.26953 16.25H4.26953C3.4411 16.25 2.76953 15.5784 2.76953 14.75V11.75M11.7695 2.75H14.7695C15.598 2.75 16.2695 3.42157 16.2695 4.25V7.25M16.2695 11.75V14.75C16.2695 15.5784 15.598 16.25 14.7695 16.25H11.7695M7.83203 12.0312H11.207C11.673 12.0312 12.0508 11.6535 12.0508 11.1875V7.8125C12.0508 7.34651 11.673 6.96875 11.207 6.96875H7.83203C7.36604 6.96875 6.98828 7.34651 6.98828 7.8125V11.1875C6.98828 11.6535 7.36604 12.0312 7.83203 12.0312Z" stroke="white" stroke-width="1.51107" stroke-linecap="round"/>
</svg>
