<svg width="25" height="25" viewBox="0 0 25 25" fill="none" xmlns="http://www.w3.org/2000/svg">
<path d="M12.3836 9.47852H14.3836L12.1836 19.4785H10.1836L12.3836 9.47852ZM14.0636 5.47852C13.8658 5.47852 13.6725 5.53716 13.508 5.64705C13.3436 5.75693 13.2154 5.91311 13.1397 6.09583C13.064 6.27856 13.0442 6.47962 13.0828 6.67361C13.1214 6.86759 13.2166 7.04577 13.3565 7.18562C13.4963 7.32547 13.6745 7.42072 13.8685 7.4593C14.0625 7.49789 14.2636 7.47808 14.4463 7.4024C14.629 7.32671 14.7852 7.19853 14.8951 7.03409C15.0049 6.86964 15.0636 6.6763 15.0636 6.47852C15.0636 6.2133 14.9582 5.95895 14.7707 5.77141C14.5832 5.58387 14.3288 5.47852 14.0636 5.47852Z" fill="#848589"/>
</svg>
