<svg width="25" height="25" viewBox="0 0 25 25" fill="none" xmlns="http://www.w3.org/2000/svg">
<path d="M3.625 12.6823H21.625V14.1823H17.2592C17.4961 14.6795 17.6156 15.2245 17.6086 15.7752C17.6227 16.2977 17.5105 16.8159 17.2817 17.2858C17.053 17.7558 16.7143 18.1636 16.2944 18.4749C15.2829 19.1866 14.0628 19.5401 12.8275 19.4794C11.925 19.4854 11.0312 19.3018 10.2042 18.9404C9.44887 18.627 8.79417 18.1123 8.31152 17.4522C7.86712 16.822 7.63262 16.0678 7.64136 15.2967V15.1834H7.92859V15.1823H8.27008V15.1834H9.645V15.2967C9.62933 15.6481 9.69882 15.9981 9.84753 16.3168C9.99625 16.6356 10.2198 16.9136 10.4991 17.1274C11.1765 17.6097 11.997 17.8491 12.8275 17.8066C13.5606 17.8546 14.2895 17.6629 14.9042 17.2604C15.132 17.092 15.3151 16.8702 15.4374 16.6145C15.5596 16.3588 15.6173 16.0771 15.6054 15.7939C15.6214 15.5203 15.5709 15.247 15.4582 14.9972C15.3455 14.7474 15.1741 14.5286 14.9585 14.3595C14.8701 14.2955 14.7783 14.2363 14.6835 14.1823H3.625V12.6823ZM16.9697 7.53917C16.5482 6.88418 15.9521 6.35995 15.2486 6.02556C14.4644 5.65197 13.6043 5.46502 12.7357 5.47936C11.5246 5.42738 10.3338 5.8034 9.37219 6.54149C8.95935 6.86034 8.62634 7.27084 8.39948 7.74056C8.17262 8.21028 8.05813 8.72632 8.06506 9.24791C8.06156 9.7422 8.17159 10.2307 8.38666 10.6758H10.9833C10.9 10.6221 10.798 10.57 10.7306 10.5151C10.5272 10.365 10.362 10.169 10.2486 9.94309C10.1351 9.71714 10.0766 9.4676 10.0778 9.21477C10.0627 8.92616 10.1174 8.63816 10.2373 8.37517C10.3571 8.11219 10.5385 7.88195 10.7662 7.70397C11.3423 7.30443 12.0359 7.1099 12.7357 7.15154C13.4967 7.10316 14.2481 7.34176 14.8417 7.82024C15.09 8.05403 15.2844 8.33904 15.4115 8.65549C15.5386 8.97194 15.5953 9.31225 15.5777 9.65282V9.76623H17.5809V9.65282C17.5842 8.90422 17.3721 8.17046 16.9697 7.53917Z" fill="#848589"/>
</svg>
