<svg width="25" height="25" viewBox="0 0 25 25" fill="none" xmlns="http://www.w3.org/2000/svg">
<path d="M15.8734 12.2785C16.3631 11.9804 16.7763 11.5719 17.0801 11.0858C17.3839 10.5997 17.57 10.0493 17.6234 9.47852C17.6327 8.9624 17.5402 8.44951 17.3512 7.96915C17.1623 7.48878 16.8805 7.05035 16.5221 6.6789C16.1636 6.30745 15.7355 6.01026 15.2622 5.80429C14.7888 5.59833 14.2796 5.48763 13.7634 5.47852H7.27344V19.4785H14.2734C14.7646 19.4733 15.2499 19.3714 15.7017 19.1786C16.1534 18.9858 16.5628 18.7059 16.9064 18.3549C17.2499 18.0039 17.521 17.5886 17.7041 17.1328C17.8872 16.677 17.9787 16.1897 17.9734 15.6985V15.5785C17.9738 14.8856 17.7764 14.207 17.4044 13.6225C17.0324 13.0379 16.5013 12.5717 15.8734 12.2785ZM9.27344 7.47852H13.4734C13.8996 7.46533 14.3196 7.5828 14.6771 7.81517C15.0346 8.04754 15.3125 8.38369 15.4734 8.77852C15.6363 9.3063 15.5836 9.8771 15.3269 10.3662C15.0702 10.8552 14.6303 11.2228 14.1034 11.3885C13.8988 11.4485 13.6867 11.4788 13.4734 11.4785H9.27344V7.47852ZM13.8734 17.4785H9.27344V13.4785H13.8734C14.2996 13.4653 14.7196 13.5828 15.0771 13.8152C15.4346 14.0475 15.7125 14.3837 15.8734 14.7785C16.0363 15.3063 15.9836 15.8771 15.7269 16.3662C15.4702 16.8552 15.0303 17.2228 14.5034 17.3885C14.2988 17.4485 14.0867 17.4788 13.8734 17.4785Z" fill="#848589"/>
</svg>
