<svg width="25" height="25" viewBox="0 0 25 25" fill="none" xmlns="http://www.w3.org/2000/svg">
<path d="M15.8266 13.9725C15.8266 13.9725 12.2266 17.8725 12.2266 20.2725C12.22 20.7518 12.3079 21.2278 12.4853 21.6731C12.6626 22.1185 12.926 22.5245 13.2603 22.8681C13.9354 23.562 14.8585 23.9593 15.8266 23.9725C16.7946 23.9858 17.7283 23.6139 18.4221 22.9388C18.7657 22.6045 19.0401 22.2058 19.2296 21.7655C19.4191 21.3252 19.52 20.8518 19.5266 20.3725V20.2725C19.5266 17.8725 15.8266 13.9725 15.8266 13.9725ZM14.3566 12.6155L15.0256 11.8915L12.7266 5.47852H10.7266L5.72656 19.4785H7.72656L9.15656 15.4785H12.0996C12.7782 14.4694 13.5313 13.5124 14.3526 12.6155H14.3566ZM11.7266 8.27852L13.5866 13.4785H9.87056L11.7266 8.27852Z" fill="#848589"/>
</svg>
