<svg width="134" height="28" viewBox="0 0 134 28" fill="none" xmlns="http://www.w3.org/2000/svg">
<g opacity="0.6" clip-path="url(#clip0_14836_61095)">
<path d="M47.5183 9.59766C42.3577 9.59766 38.2523 14.2351 39.1656 19.5641C39.742 22.9158 42.34 25.6468 45.6739 26.3561C48.0769 26.8704 50.3468 26.3561 52.1468 25.168V26.5601H55.9241L56.0217 19.0941C56.0394 18.7129 56.0217 18.4025 56.0217 18.0478C56.0217 13.375 52.1911 9.59766 47.5183 9.59766ZM48.3163 22.7118C45.1065 23.2439 42.3577 20.4951 42.8809 17.2853C43.2001 15.3434 44.7695 13.774 46.7202 13.4459C49.9301 12.9139 52.6788 15.6626 52.1557 18.8725C51.8365 20.8143 50.267 22.3838 48.3163 22.7118Z" fill="white"/>
<path d="M62.6893 12.8867H58.912V26.5595H62.6893V12.8867Z" fill="white"/>
<path d="M61.163 5.882C59.5138 5.62486 58.1128 7.0347 58.3611 8.68395C58.5207 9.71251 59.363 10.5549 60.3916 10.7145C62.0408 10.9716 63.4507 9.56178 63.1935 7.91253C63.0339 6.88396 62.1916 6.04161 61.163 5.882Z" fill="white"/>
<path d="M31.6279 26.6835C29.8191 27.9781 27.3097 27.5614 26.0152 25.7614L23.8516 22.8796L28.622 16.2206C28.6841 16.1319 28.7284 16.0344 28.7816 15.9457L32.5589 21.0796C33.8535 22.8885 33.4368 25.3978 31.6368 26.6924L31.6279 26.6835ZM27.6112 14.2698C28.6841 12.4876 28.2408 10.1644 26.5294 8.93194C24.7206 7.63737 22.2112 8.05412 20.9167 9.8541L13.0517 20.8314C11.7571 22.6402 12.1739 25.1496 13.9739 26.4441C15.7827 27.7387 18.2921 27.322 19.5866 25.522L22.6812 21.2038L27.4516 14.5447C27.5137 14.456 27.558 14.3585 27.6112 14.2698ZM15.3128 14.2698C16.3857 12.4876 15.9423 10.1644 14.231 8.93194C12.4222 7.63737 9.91282 8.05412 8.61824 9.8541L0.75328 20.8314C-0.541292 22.6402 -0.124546 25.1496 1.67544 26.4441C3.48429 27.7387 5.99363 27.322 7.28821 25.522L10.3828 21.2038L15.1532 14.5447C15.2152 14.456 15.2596 14.3585 15.3128 14.2698ZM17.2635 8.7014C19.4802 8.7014 21.2802 6.90142 21.2802 4.68469C21.2802 2.46796 19.4891 0.667969 17.2724 0.667969C15.0556 0.667969 13.2556 2.46796 13.2556 4.68469C13.2556 6.90142 15.0556 8.7014 17.2724 8.7014H17.2635Z" fill="white"/>
<path d="M74.7494 14.2535C75.042 13.1452 75.636 12.1698 76.4341 11.3895C75.3168 10.3078 73.8006 9.625 72.1247 9.625C69.243 9.625 66.8223 11.5935 66.113 14.2535C65.98 14.7678 65.9002 15.2998 65.9002 15.8496V26.5254H69.6952V15.8496C69.6952 14.5107 70.7858 13.42 72.1247 13.42C73.3838 13.42 74.4035 14.3865 74.5277 15.6102V26.5342H74.5365V15.8584C74.5365 15.3087 74.6164 14.7678 74.7494 14.2624V14.2535Z" fill="white"/>
<path d="M86.7464 14.1737C86.0104 11.558 83.6075 9.625 80.7612 9.625C79.0765 9.625 77.5513 10.2989 76.4341 11.3895C77.2144 12.1432 77.8085 13.092 78.11 14.1737C78.2164 14.555 78.2873 14.954 78.3228 15.3619V26.5254H78.3316V15.8496C78.3316 14.5107 79.4223 13.42 80.7612 13.42C82.0203 13.42 83.04 14.3865 83.1641 15.6102V26.5342H86.9592V15.3708C86.9237 14.9629 86.8528 14.5639 86.7464 14.1826V14.1737Z" fill="white"/>
<path d="M78.3141 15.363C78.2787 14.9551 78.2077 14.5561 78.1013 14.1748C77.7998 13.1019 77.2058 12.1532 76.4255 11.3906C75.6275 12.162 75.0422 13.1463 74.7408 14.2546C74.6078 14.7689 74.528 15.3009 74.528 15.8507V26.5265H78.3141V15.363Z" fill="white"/>
<path d="M110.482 14.1737C109.746 11.558 107.343 9.625 104.497 9.625C102.812 9.625 101.287 10.2989 100.17 11.3895C99.0525 10.3078 97.5363 9.625 95.8604 9.625C92.9787 9.625 90.558 11.5935 89.8486 14.2535C89.7156 14.7678 89.6358 15.2998 89.6358 15.8496V26.5254H93.4309V15.8496C93.4309 14.5107 94.5215 13.42 95.8604 13.42C97.1195 13.42 98.1392 14.3865 98.2633 15.6102V26.5342H102.076V15.8584C102.076 14.5195 103.167 13.4289 104.506 13.4289C105.765 13.4289 106.784 14.3954 106.909 15.619V26.5431H110.704V15.3796C110.668 14.9718 110.597 14.5727 110.491 14.1915L110.482 14.1737Z" fill="white"/>
<path d="M129.98 13.4883H118.4C116.73 13.4883 115.376 14.842 115.376 16.5119V23.499C115.376 25.1689 116.73 26.5227 118.4 26.5227H129.98C131.65 26.5227 133.004 25.1689 133.004 23.499V16.5119C133.004 14.842 131.65 13.4883 129.98 13.4883Z" fill="white"/>
<path d="M123.764 12.3106C123.613 12.3106 123.463 12.2485 123.347 12.1332L121.29 9.89876C121.077 9.66822 121.095 9.31354 121.326 9.1096C121.556 8.89679 121.911 8.91453 122.115 9.14507L123.835 11.016L127.444 8.40911C127.692 8.23177 128.047 8.28497 128.224 8.53325C128.41 8.78152 128.348 9.1362 128.1 9.31354L124.092 12.2219C123.995 12.2928 123.879 12.3283 123.764 12.3283V12.3106Z" fill="white"/>
<path d="M122.702 16.832H118.676C118.534 16.832 118.419 16.8498 118.331 16.8852C118.233 16.9207 118.153 16.965 118.1 17.0271C118.038 17.0892 117.994 17.1601 117.967 17.231C117.94 17.302 117.932 17.3729 117.932 17.4438C117.932 17.6123 117.994 17.7631 118.1 17.8872C118.215 18.0113 118.41 18.0823 118.676 18.0823H119.864V22.4093C119.864 22.5335 119.891 22.6487 119.935 22.7463C119.989 22.8438 120.051 22.9236 120.131 22.9857C120.21 23.0477 120.299 23.0921 120.397 23.1187C120.494 23.1453 120.592 23.163 120.698 23.163C120.796 23.163 120.893 23.1453 120.991 23.1187C121.088 23.0921 121.177 23.0477 121.257 22.9857C121.336 22.9236 121.398 22.8438 121.452 22.7463C121.505 22.6487 121.523 22.5335 121.523 22.4093V18.0823H122.693C122.835 18.0823 122.95 18.0645 123.039 18.0291C123.136 17.9936 123.207 17.9493 123.269 17.8961C123.331 17.834 123.376 17.7719 123.402 17.6921C123.429 17.6212 123.438 17.5503 123.438 17.4793C123.438 17.302 123.376 17.1512 123.269 17.0271C123.154 16.903 122.959 16.832 122.693 16.832H122.702Z" fill="#2A2A2A"/>
<path d="M130.071 17.2315C130.026 17.1517 129.955 17.0719 129.876 17.0098C129.796 16.9478 129.707 16.8946 129.601 16.868C129.45 16.8236 129.317 16.8148 129.202 16.8236C129.086 16.8325 128.989 16.868 128.909 16.9034C128.82 16.9478 128.758 17.001 128.705 17.0719C128.661 17.1251 128.634 17.1783 128.608 17.2315L127.233 21L125.841 17.2315C125.797 17.134 125.735 17.0453 125.655 16.9832C125.575 16.9212 125.486 16.8768 125.389 16.8502C125.291 16.8236 125.194 16.8148 125.087 16.8236C124.981 16.8325 124.883 16.8591 124.786 16.8946C124.697 16.93 124.617 16.9744 124.546 17.0364C124.476 17.0985 124.413 17.1694 124.369 17.2493C124.325 17.3379 124.298 17.4266 124.289 17.533C124.289 17.6394 124.298 17.7458 124.343 17.8522L126.213 22.5871C126.24 22.6492 126.276 22.7201 126.32 22.7822C126.373 22.8531 126.435 22.9241 126.515 22.9862C126.595 23.0482 126.692 23.1014 126.808 23.1458C126.923 23.1901 127.065 23.2078 127.215 23.2078C127.366 23.2078 127.49 23.1901 127.606 23.1546C127.721 23.1192 127.818 23.0748 127.898 23.0128C127.978 22.9507 128.049 22.8886 128.102 22.8177C128.155 22.7467 128.2 22.6758 128.226 22.596L130.088 17.8079C130.124 17.7103 130.133 17.6128 130.124 17.5241C130.115 17.4266 130.088 17.3379 130.035 17.2493L130.071 17.2315Z" fill="#2A2A2A"/>
</g>
<defs>
<clipPath id="clip0_14836_61095">
<rect width="133.004" height="26.7693" fill="white" transform="translate(0 0.667969)"/>
</clipPath>
</defs>
</svg>
