<svg width="21" height="21" viewBox="0 0 21 21" fill="none" xmlns="http://www.w3.org/2000/svg">
<path d="M10.5986 18.5015V6.86518M9.24442 6.16711C9.38848 6.19944 9.54028 6.15981 9.644 6.0561C9.74771 5.95238 9.78728 5.80052 9.75501 5.65652C9.62571 5.12837 9.14943 3.35983 8.66038 2.87078C8.05108 2.26148 7.05941 2.25894 6.45312 2.86522C5.84688 3.47147 5.84933 4.46313 6.45868 5.07248C6.95573 5.56954 8.71628 6.03783 9.24442 6.16711ZM10.7232 5.65648C10.6909 5.80054 10.7305 5.95234 10.8342 6.05606C10.938 6.15977 11.0898 6.19934 11.2338 6.16707C11.762 6.03777 13.5305 5.56149 14.0196 5.07244C14.6289 4.46314 14.6314 3.47147 14.0251 2.86518C13.4189 2.25894 12.4272 2.26139 11.8179 2.87074C11.3208 3.36779 10.8525 5.12834 10.7232 5.65648ZM3.03494 10.9379H17.8713C18.1926 10.9379 18.4531 10.6774 18.4531 10.3561V7.447C18.4531 7.12567 18.1926 6.86518 17.8713 6.86518H3.03494C2.71361 6.86518 2.45312 7.12567 2.45312 7.447V10.3561C2.45312 10.6774 2.71361 10.9379 3.03494 10.9379ZM16.9986 10.9379V17.9197C16.9986 18.2411 16.7381 18.5015 16.4168 18.5015H4.48949C4.16816 18.5015 3.90767 18.2411 3.90767 17.9197V10.9379H16.9986Z" stroke="#23B882" stroke-width="2" stroke-linecap="round" stroke-linejoin="round"/>
</svg>
