<svg width="20" height="19" viewBox="0 0 20 19" fill="none" xmlns="http://www.w3.org/2000/svg">
    <style>
        .heart{stroke: #fff;}
    </style>
<path class="heart" fill-rule="evenodd" clip-rule="evenodd" d="M3.47887 4.96446C4.17839 4.26306 5.12701 3.86904 6.11613 3.86904C7.10525 3.86904 8.05387 4.26306 8.75339 4.96446L9.84634 6.05974L10.9393 4.96446C11.2834 4.60712 11.695 4.3221 12.1501 4.12601C12.6052 3.92993 13.0947 3.82672 13.59 3.82241C14.0853 3.81809 14.5765 3.91275 15.0349 4.10087C15.4933 4.28899 15.9098 4.5668 16.26 4.91809C16.6103 5.26937 16.8873 5.6871 17.0748 6.1469C17.2624 6.6067 17.3568 7.09936 17.3525 7.59614C17.3481 8.09292 17.2452 8.58386 17.0497 9.04032C16.8543 9.49678 16.5701 9.90962 16.2138 10.2548L9.84634 16.6422L3.47887 10.2548C2.77957 9.55314 2.38672 8.60168 2.38672 7.60961C2.38672 6.61753 2.77957 5.66607 3.47887 4.96446V4.96446Z" stroke="white" stroke-width="1.60225" stroke-linejoin="round"/>
</svg>
