<svg width="94" height="93" viewBox="0 0 104 103" fill="none" xmlns="http://www.w3.org/2000/svg">
<g clip-path="url(#clip0_14894_62557)">
<path d="M59.6574 102.355H42.9566C38.9672 102.355 35.7093 99.1083 35.7093 95.1074V86.6827C35.7093 83.6192 34.269 80.7728 31.857 79.0925C22.7579 72.7368 17.3281 62.3231 17.3281 51.2349C17.3281 32.4994 32.5658 17.2617 51.3013 17.2617C70.0026 17.2617 84.9201 31.8935 85.263 50.5833C85.4688 61.7972 80.1419 72.3824 71.0085 78.8981C68.4365 80.7385 66.8933 83.642 66.8933 86.6713V95.1074C66.8933 99.0968 63.6469 102.355 59.646 102.355H59.6574ZM51.3013 21.8456C35.092 21.8456 21.9006 35.0371 21.9006 51.2463C21.9006 60.837 26.5987 69.8447 34.4747 75.3545C38.1098 77.8922 40.2817 82.1331 40.2817 86.6941V95.1188C40.2817 96.5934 41.482 97.7937 42.9566 97.7937H59.6574C61.132 97.7937 62.3323 96.5934 62.3323 95.1188V86.6827C62.3323 82.1788 64.5842 77.8808 68.3679 75.183C76.2782 69.5361 80.8849 60.3798 80.702 50.6748C80.4048 34.5112 67.4877 21.8456 51.3127 21.8456H51.3013Z" fill="#23B882"/>
<path d="M65.0417 52.4806C64.996 49.8628 64.4244 47.3594 63.3385 45.0389C61.601 41.3009 58.606 38.226 54.9023 36.4084L56.9256 32.3047C61.5552 34.5909 65.3046 38.4317 67.4765 43.1071C68.8254 46.0106 69.5456 49.1427 69.6027 52.3891L65.0303 52.4806H65.0417Z" fill="#23B882"/>
<path d="M53.5881 0.0351562H49.0156V9.32863H53.5881V0.0351562Z" fill="#23B882"/>
<path d="M16.3543 14.1379L13.1211 17.3711L19.6926 23.9426L22.9258 20.7094L16.3543 14.1379Z" fill="#23B882"/>
<path d="M9.29347 50.4492H0V55.0217H9.29347V50.4492Z" fill="#23B882"/>
<path d="M20.6769 81.1121L14.1055 87.6836L17.3387 90.9168L23.9101 84.3453L20.6769 81.1121Z" fill="#23B882"/>
<path d="M84.3074 80.1184L81.0742 83.3516L87.6457 89.923L90.8789 86.6898L84.3074 80.1184Z" fill="#23B882"/>
<path d="M104.001 49.0508H94.707V53.6232H104.001V49.0508Z" fill="#23B882"/>
<path d="M86.6613 13.159L80.0898 19.7305L83.323 22.9637L89.8945 16.3922L86.6613 13.159Z" fill="#23B882"/>
</g>
<defs>
<clipPath id="clip0_14894_62557">
<rect width="104" height="102.32" fill="white" transform="translate(0 0.0351562)"/>
</clipPath>
</defs>
</svg>
