<svg width="80" height="82" viewBox="0 0 90 92" fill="none" xmlns="http://www.w3.org/2000/svg">
<g clip-path="url(#clip0_14894_62480)">
<path d="M3.821 91.7568C2.92493 91.7568 2.0639 91.4041 1.40444 90.7468C0.525889 89.8683 0.192872 88.626 0.514935 87.4254L5.60878 68.4084C5.72928 67.9593 5.66355 67.4685 5.42255 67.0238C1.66516 60.1071 -0.203681 52.2505 0.0176003 44.2998C0.337472 32.8282 5.05667 21.9898 13.301 13.7783C21.5432 5.56902 32.4035 0.891448 43.8772 0.611013C50.3141 0.45765 56.5516 1.6254 62.4254 4.09454C68.0889 6.47605 73.1301 9.93548 77.4112 14.3786C81.6878 18.8174 84.9544 23.9813 87.119 29.7215C89.3713 35.6939 90.309 41.9949 89.9103 48.4515C89.2398 59.2833 84.5951 69.5367 76.8328 77.321C69.0704 85.1075 58.8323 89.7828 48.0027 90.4861C40.4331 90.9769 32.8373 89.5638 26.0411 86.3979C25.6248 86.2029 25.1713 86.1569 24.7616 86.2664L16.6334 88.4486L4.72804 91.6363C4.42569 91.7174 4.12335 91.7568 3.82319 91.7568H3.821ZM44.9727 4.10331C44.6353 4.10331 44.3001 4.10769 43.9627 4.11645C22.2706 4.64665 4.12773 22.7172 3.52304 44.3983C3.3171 51.7313 5.03914 58.9766 8.50296 65.3499C9.17556 66.5856 9.35084 67.9921 8.99591 69.3133L3.93055 88.2207L15.7242 85.0636L23.8502 82.8815C25.053 82.5594 26.3566 82.6777 27.52 83.2211C33.786 86.1394 40.7881 87.4452 47.7749 86.9894C68.5161 85.642 85.1253 68.9824 86.4114 48.2368C87.141 36.4454 83.0505 25.2849 74.8872 16.8127C67.0745 8.70201 56.2208 4.10331 44.9727 4.10331Z" fill="#23B882"/>
<path d="M31.2332 37.2207C30.2648 37.2207 29.4805 36.4363 29.4805 35.468V32.9988C29.4805 32.0304 30.2648 31.2461 31.2332 31.2461C32.2016 31.2461 32.9859 32.0304 32.9859 32.9988V35.468C32.9859 36.4363 32.2016 37.2207 31.2332 37.2207Z" fill="#23B882"/>
<path d="M59.7137 37.2207C58.7453 37.2207 57.9609 36.4363 57.9609 35.468V32.9988C57.9609 32.0304 58.7453 31.2461 59.7137 31.2461C60.682 31.2461 61.4664 32.0304 61.4664 32.9988V35.468C61.4664 36.4363 60.682 37.2207 59.7137 37.2207Z" fill="#23B882"/>
<path d="M45.0005 61.1099C36.3158 61.1099 28.5447 55.5735 26.0273 51.8315L28.9369 49.875C30.7509 52.5698 37.3236 57.6045 45.0005 57.6045C52.6775 57.6045 59.2523 52.5698 61.0642 49.875L63.9737 51.8315C61.4564 55.5735 53.6853 61.1099 45.0005 61.1099Z" fill="#23B882"/>
</g>
<defs>
<clipPath id="clip0_14894_62480">
<rect width="90" height="91.159" fill="white" transform="translate(0 0.59375)"/>
</clipPath>
</defs>
</svg>
