<svg width="99" height="96" viewBox="0 0 109 106" fill="none" xmlns="http://www.w3.org/2000/svg">
<g clip-path="url(#clip0_14894_62490)">
<path d="M39.3685 41.0074C35.6981 38.9156 33.418 34.9919 33.418 30.7715C33.418 26.5511 35.7003 22.623 39.3772 20.5312L41.09 23.5433C38.4937 25.0202 36.8826 27.7919 36.8826 30.7737C36.8826 33.7554 38.4937 36.5228 41.0857 37.9996L39.3707 41.0096L39.3685 41.0074Z" fill="#23B882"/>
<path d="M29.1624 51.887C21.59 47.5692 16.8867 39.4792 16.8867 30.772C16.8867 22.0649 21.5965 13.9641 29.1776 9.64844L30.8926 12.6605C24.392 16.3612 20.3514 23.3014 20.3514 30.7742C20.3514 38.2471 24.3855 45.1785 30.8775 48.8792L29.1624 51.8892V51.887Z" fill="#23B882"/>
<path d="M17.7419 60.7524C6.99063 54.6221 0.3125 43.1346 0.3125 30.7722C0.3125 18.4099 6.9993 6.90721 17.7636 0.78125L19.4764 3.79334C9.79268 9.30432 3.77716 19.642 3.77716 30.7722C3.77716 41.9025 9.78619 52.2271 19.4569 57.7425L17.7419 60.7524Z" fill="#23B882"/>
<path d="M69.2584 41.0096L67.5434 37.9996C70.1354 36.5228 71.7465 33.7533 71.7465 30.7737C71.7465 27.794 70.1332 25.0202 67.5391 23.5433L69.2519 20.5312C72.9266 22.623 75.2111 26.5468 75.2111 30.7715C75.2111 34.9962 72.9309 38.9156 69.2606 41.0074L69.2584 41.0096Z" fill="#23B882"/>
<path d="M79.4628 51.8892L77.7456 48.8792C84.2397 45.1764 88.2717 38.2384 88.2717 30.7742C88.2717 23.31 84.2332 16.3612 77.7305 12.6605L79.4433 9.64844C87.0244 13.9641 91.7342 22.0584 91.7342 30.772C91.7342 39.4857 87.0309 47.5692 79.4585 51.887L79.4628 51.8892Z" fill="#23B882"/>
<path d="M90.8829 60.7546L89.1679 57.7446C98.8408 52.2293 104.848 41.896 104.848 30.7744C104.848 19.6528 98.8322 9.30648 89.1484 3.79334L90.8613 0.78125C101.626 6.90721 108.312 18.3991 108.312 30.7722C108.312 43.1454 101.634 54.6221 90.8829 60.7502V60.7546Z" fill="#23B882"/>
<path d="M33.6144 105.57C33.229 105.57 32.8479 105.442 32.5339 105.191C31.9709 104.74 31.7457 103.991 31.9666 103.305L51.2301 43.5999C51.5549 41.9606 52.8022 40.8281 54.3136 40.8281C55.8251 40.8281 57.0767 41.9628 57.3972 43.6064L76.4398 104.037L73.1354 105.078L67.1177 85.9835L34.4979 105.325C34.2251 105.487 33.9198 105.567 33.6144 105.567V105.57ZM54.3093 45.3387L36.6677 100.011L66.048 82.5903L54.3093 45.3387Z" fill="#23B882"/>
<path d="M54.3109 37.2469C50.738 37.2469 47.832 34.3409 47.832 30.768C47.832 27.195 50.738 24.2891 54.3109 24.2891C57.8839 24.2891 60.7899 27.195 60.7899 30.768C60.7899 34.3409 57.8839 37.2469 54.3109 37.2469ZM54.3109 27.7559C52.6501 27.7559 51.2967 29.1071 51.2967 30.7701C51.2967 32.4332 52.6479 33.7844 54.3109 33.7844C55.974 33.7844 57.3252 32.4332 57.3252 30.7701C57.3252 29.1071 55.974 27.7559 54.3109 27.7559Z" fill="#23B882"/>
<path d="M52.2476 68.1216L50.0508 70.8008L67.0133 84.7092L69.2101 82.03L52.2476 68.1216Z" fill="#23B882"/>
</g>
<defs>
<clipPath id="clip0_14894_62490">
<rect width="108" height="104.787" fill="white" transform="translate(0.308594 0.78125)"/>
</clipPath>
</defs>
</svg>
