<svg width="101" height="76" viewBox="0 0 111 86" fill="none" xmlns="http://www.w3.org/2000/svg">
<g clip-path="url(#clip0_14894_62506)">
<path d="M42.6503 70.5436C42.2571 70.5436 41.864 70.4411 41.5107 70.2388C40.807 69.8314 40.3711 69.0793 40.3711 68.2644V38.3385C40.3711 37.5237 40.807 36.7716 41.5107 36.3641C42.2172 35.9567 43.0833 35.9567 43.7899 36.3641L69.7044 51.3271C70.411 51.7345 70.844 52.4867 70.844 53.3015C70.844 54.1163 70.411 54.8684 69.7044 55.2758L43.7899 70.2388C43.4366 70.4411 43.0435 70.5436 42.6503 70.5436ZM44.9295 42.2872V64.3157L64.0064 53.3015L44.9295 42.2872Z" fill="#23B882"/>
<path d="M101.379 85.6036H9.84014C4.74898 85.6036 0.609375 81.464 0.609375 76.3729V9.97686C0.609375 4.88569 4.74898 0.746094 9.84014 0.746094H101.379C106.467 0.746094 110.609 4.88569 110.609 9.97686V76.3729C110.609 81.464 106.467 85.6036 101.379 85.6036ZM9.84014 5.3045C7.26465 5.3045 5.16778 7.40136 5.16778 9.97686V76.3729C5.16778 78.9484 7.26465 81.0452 9.84014 81.0452H101.379C103.954 81.0452 106.051 78.9484 106.051 76.3729V9.97686C106.051 7.40136 103.954 5.3045 101.379 5.3045H9.84014Z" fill="#23B882"/>
<path d="M108.328 14.707H2.88672V19.2654H108.328V14.707Z" fill="#23B882"/>
<path d="M29.7482 1.7948L16.1641 15.3789L19.3873 18.6022L32.9714 5.01808L29.7482 1.7948Z" fill="#23B882"/>
<path d="M50.4435 1.7909L36.8594 15.375L40.0827 18.5983L53.6668 5.01417L50.4435 1.7909Z" fill="#23B882"/>
<path d="M71.1388 1.7948L57.5547 15.3789L60.778 18.6022L74.3621 5.01808L71.1388 1.7948Z" fill="#23B882"/>
<path d="M91.8302 1.7948L78.2461 15.3789L81.4694 18.6022L95.0535 5.01808L91.8302 1.7948Z" fill="#23B882"/>
</g>
<defs>
<clipPath id="clip0_14894_62506">
<rect width="110" height="84.8575" fill="white" transform="translate(0.609375 0.746094)"/>
</clipPath>
</defs>
</svg>
