<svg width="22" height="23" viewBox="0 0 22 23" fill="none" xmlns="http://www.w3.org/2000/svg">
    <style>
        .help-center{stroke: 18181d;}
    </style>
    <g opacity="0.7">
        <path class="help-center" d="M9.62474 8.25596C9.78625 7.79682 10.105 7.40966 10.5247 7.16305C10.9443 6.91644 11.4376 6.82629 11.9173 6.90858C12.397 6.99086 12.8322 7.24026 13.1456 7.61261C13.459 7.98496 13.6306 8.45623 13.6299 8.94294C13.6299 10.3169 11.5689 11.0039 11.5689 11.0039M11.5955 13.7539H11.6046M11.4581 18.3372C15.7613 18.3372 19.2497 14.8488 19.2497 10.5456C19.2497 6.24235 15.7613 2.75391 11.4581 2.75391C7.15485 2.75391 3.6664 6.24235 3.6664 10.5456C3.6664 11.4164 3.80926 12.2539 4.07283 13.0358C4.17201 13.3301 4.2216 13.4772 4.23055 13.5902C4.23938 13.7018 4.2327 13.7801 4.20509 13.8886C4.17712 13.9985 4.11538 14.1128 3.99191 14.3413L2.49255 17.1166C2.27869 17.5124 2.17175 17.7104 2.19568 17.8631C2.21653 17.9962 2.29484 18.1133 2.40981 18.1835C2.54182 18.264 2.76559 18.2408 3.21315 18.1946L7.90742 17.7093C8.04958 17.6946 8.12066 17.6873 8.18544 17.6898C8.24916 17.6922 8.29415 17.6982 8.35628 17.7125C8.41946 17.7271 8.49891 17.7577 8.6578 17.8189C9.52684 18.1537 10.471 18.3372 11.4581 18.3372Z" stroke="#18181D" stroke-width="1.83736" stroke-linecap="round" stroke-linejoin="round"/>
    </g>
</svg>
