<svg width="95" height="95" viewBox="0 0 105 105" fill="none" xmlns="http://www.w3.org/2000/svg">
<g clip-path="url(#clip0_14894_62536)">
<path d="M52.0825 85.7603C42.2246 85.7603 34.2031 77.7388 34.2031 67.8809V46.4067C34.2031 36.5488 42.2246 28.5273 52.0825 28.5273C61.9404 28.5273 69.9618 36.5488 69.9618 46.4067V67.8809C69.9618 77.7388 61.9404 85.7603 52.0825 85.7603ZM52.0825 31.9048C44.0864 31.9048 37.5806 38.4106 37.5806 46.4067V67.8809C37.5806 75.877 44.0864 82.3828 52.0825 82.3828C60.0786 82.3828 66.5844 75.877 66.5844 67.8809V46.4067C66.5844 38.4106 60.0786 31.9048 52.0825 31.9048Z" fill="#23B882"/>
<path d="M52.0834 92.2201C39.2491 92.2201 28.8086 81.7796 28.8086 68.9453H32.186C32.186 79.9157 41.1109 88.8427 52.0834 88.8427C63.0559 88.8427 71.9808 79.9178 71.9808 68.9453H75.3582C75.3582 81.7796 64.9177 92.2201 52.0834 92.2201Z" fill="#23B882"/>
<path d="M43.1075 46.4766H35.8945V49.854H43.1075V46.4766Z" fill="#23B882"/>
<path d="M43.1075 55.457H35.8945V58.8345H43.1075V55.457Z" fill="#23B882"/>
<path d="M43.1075 64.4336H35.8945V67.811H43.1075V64.4336Z" fill="#23B882"/>
<path d="M68.2716 46.4766H61.0586V49.854H68.2716V46.4766Z" fill="#23B882"/>
<path d="M68.2716 55.457H61.0586V58.8345H68.2716V55.457Z" fill="#23B882"/>
<path d="M68.2716 64.4336H61.0586V67.811H68.2716V64.4336Z" fill="#23B882"/>
<path d="M53.772 90.5312H50.3945V102.513H53.772V90.5312Z" fill="#23B882"/>
<path d="M62.2596 100.82H41.9062V104.198H62.2596V100.82Z" fill="#23B882"/>
<path d="M21.6197 65.7815C19.7072 61.4964 18.7383 56.9262 18.7383 52.1999C18.7383 33.8097 33.7004 18.8477 52.0906 18.8477C70.4808 18.8477 85.4344 33.8097 85.4344 52.1999C85.4344 56.9347 84.4676 61.5006 82.5615 65.773L79.4774 64.3967C81.1894 60.5612 82.0591 56.4576 82.0591 52.1999C82.0591 35.6716 68.6168 22.2251 52.0927 22.2251C35.5685 22.2251 22.1178 35.6716 22.1178 52.1999C22.1178 56.4492 22.9896 60.557 24.7079 64.4052L21.6239 65.7815H21.6197Z" fill="#23B882"/>
<path d="M89.0046 72.4081L86.043 70.7848C88.3692 66.544 89.8595 61.9633 90.4738 57.1758L93.8238 57.6064C93.1546 62.8161 91.5334 67.7979 89.0025 72.4102L89.0046 72.4081Z" fill="#23B882"/>
<path d="M15.1615 72.4247C11.7819 66.263 9.99609 59.2696 9.99609 52.2002C9.99609 28.995 28.8781 10.1172 52.0875 10.1172C75.2969 10.1172 94.1705 28.995 94.1705 52.2002H90.793C90.793 30.8568 73.4309 13.4946 52.0875 13.4946C30.7442 13.4946 13.3735 30.8568 13.3735 52.2002C13.3735 58.7039 15.0158 65.1358 18.121 70.7993L15.1594 72.4226L15.1615 72.4247Z" fill="#23B882"/>
<path d="M96.2019 79.7342L93.3374 77.9441C98.1566 70.233 100.704 61.3313 100.704 52.1995C100.704 25.3868 78.8946 3.57276 52.0861 3.57276C34.0168 3.57276 17.537 13.5024 9.07857 29.4883L6.09375 27.9094C15.1411 10.8153 32.765 0.195312 52.0882 0.195312C65.978 0.195312 79.036 5.60556 88.856 15.4276C98.6759 25.2496 104.084 38.3098 104.084 52.1995C104.084 61.9646 101.359 71.4869 96.2019 79.7342Z" fill="#23B882"/>
<path d="M7.97259 79.7408C2.81143 71.4978 0.0820312 61.9712 0.0820312 52.1957C0.0820312 45.9073 1.19237 39.7624 3.38137 33.9258L6.54351 35.1121C4.49593 40.5667 3.45948 46.3147 3.45948 52.1935C3.45948 61.3359 6.00945 70.2397 10.835 77.9445L7.97259 79.7366V79.7408Z" fill="#23B882"/>
</g>
<defs>
<clipPath id="clip0_14894_62536">
<rect width="104" height="104.006" fill="white" transform="translate(0.0820312 0.191406)"/>
</clipPath>
</defs>
</svg>
