<svg width="94" height="95" viewBox="0 0 104 105" fill="none" xmlns="http://www.w3.org/2000/svg">
<g clip-path="url(#clip0_14894_62526)">
<path d="M63.7784 71.0275C63.2317 71.0275 62.685 70.8218 62.2628 70.4077C61.4103 69.5714 61.3968 68.1992 62.2331 67.3467C64.5904 64.9434 66.0085 62.0746 66.447 58.8215C67.2291 52.9783 67.3428 51.2543 67.2129 47.2948C67.1831 46.3719 67.7406 45.5329 68.6013 45.2027C68.6013 45.2027 70.8368 44.0281 71.8003 38.9021C72.3984 35.6815 72.1467 33.0968 71.0858 31.6272C70.5012 30.818 69.673 30.3498 68.5553 30.1955C67.7921 30.09 67.1398 29.5893 66.8475 28.8748C66.6635 28.4445 62.0788 18.087 47.7564 19.7379C40.9957 20.5146 36.0375 23.5594 33.7966 28.3092C31.2309 33.7464 32.3892 40.7777 37.0524 48.1392C37.388 48.5018 37.5964 48.9809 37.6099 49.5167C37.702 52.8267 37.9401 55.9581 38.3217 58.8242C38.7169 61.7417 39.8996 64.3534 41.8347 66.5862C42.6168 67.4902 42.5221 68.8569 41.6182 69.6418C40.7142 70.4239 39.3475 70.3292 38.5626 69.4253C36.0646 66.5456 34.5381 63.1707 34.0266 59.4006C33.6504 56.5778 33.4069 53.5223 33.2986 50.3097C27.8912 41.7006 26.6733 33.2484 29.8777 26.4607C32.7817 20.3062 38.955 16.3927 47.2584 15.4374C61.9353 13.7431 68.4768 22.9152 70.2955 26.1386C72.0655 26.6203 73.5378 27.6271 74.5933 29.0913C76.3796 31.565 76.8857 35.2349 76.0548 39.6978C75.0994 44.7724 73.0019 47.2433 71.5729 48.38C71.646 52.0094 71.4349 54.1826 70.7394 59.3979C70.171 63.5983 68.3496 67.2926 65.3238 70.3779C64.8989 70.8109 64.3387 71.0275 63.7784 71.0275Z" fill="#23B882"/>
<path d="M17.3924 89.0441L15.8984 84.9791L29.2168 80.0804C29.8474 79.8477 30.459 79.5554 31.0382 79.2117L32.7649 78.1778C36.0235 76.2319 38.0452 72.6648 38.0452 68.8704V67.8555H42.3754V68.8704C42.3754 74.1804 39.5445 79.1711 34.9869 81.8937L33.2602 82.9276C32.4537 83.4093 31.5957 83.8207 30.7134 84.1455L17.3951 89.0441H17.3924Z" fill="#23B882"/>
<path d="M86.6093 89.0448L73.2909 84.1462C72.4059 83.8214 71.5507 83.4128 70.7442 82.9283L69.0175 81.8944C64.4598 79.1718 61.6289 74.1811 61.6289 68.8711H65.9592C65.9592 72.6655 67.9809 76.2326 71.2394 78.1785L72.9661 79.2124C73.5426 79.5588 74.1543 79.8511 74.7876 80.0811L88.1059 84.9798L86.612 89.0448H86.6093Z" fill="#23B882"/>
<path d="M52.0014 104.191C23.3267 104.191 0 80.8647 0 52.1928C0 23.5208 23.3267 0.191406 52.0014 0.191406C80.676 0.191406 104.003 23.5181 104.003 52.1928C104.003 80.8674 80.676 104.191 52.0014 104.191ZM52.0014 4.5217C25.7165 4.5217 4.33029 25.9079 4.33029 52.1928C4.33029 78.4776 25.7165 99.8611 52.0014 99.8611C78.2862 99.8611 99.6724 78.4776 99.6724 52.1928C99.6724 25.9079 78.2862 4.5217 52.0014 4.5217Z" fill="#23B882"/>
</g>
<defs>
<clipPath id="clip0_14894_62526">
<rect width="104" height="104" fill="white" transform="translate(0 0.191406)"/>
</clipPath>
</defs>
</svg>
