<svg width="96" height="95" viewBox="0 0 106 105" fill="none" xmlns="http://www.w3.org/2000/svg">
<g clip-path="url(#clip0_14894_62518)">
<path d="M52.8516 104.062C24.1862 104.062 0.851562 80.7275 0.851562 52.0508C0.851562 23.3741 24.1862 0.0507812 52.8516 0.0507812C57.7845 0.0507812 62.6605 0.744114 67.3547 2.09668L66.0931 6.46127C61.8081 5.22237 57.3525 4.58586 52.8516 4.58586C26.6868 4.59723 5.39801 25.886 5.39801 52.0508C5.39801 78.2156 26.6868 99.5043 52.8516 99.5043C79.0164 99.5043 100.305 78.2156 100.305 52.0508C100.305 40.4573 96.0769 29.2958 88.4048 20.6235L91.8146 17.6114C100.226 27.1135 104.852 39.3435 104.852 52.0508C104.852 80.7275 81.5169 104.051 52.8516 104.051V104.062Z" fill="#23B882"/>
<path d="M39.7227 80.1302V28.6758H57.1128C61.1478 28.6758 64.4553 29.4032 67.0241 30.8467C69.5928 32.2902 71.5023 34.2452 72.7412 36.7116C73.9801 39.1781 74.6053 41.9173 74.6053 44.9521C74.6053 47.9868 73.9915 50.7374 72.764 53.2152C71.5364 55.6931 69.6383 57.6708 67.0695 59.137C64.5122 60.6032 61.2274 61.3306 57.2265 61.3306H44.7692V55.8067H57.0333C59.7952 55.8067 62.0116 55.3293 63.6938 54.3746C65.3646 53.4198 66.5808 52.1241 67.3537 50.4874C68.1266 48.8506 68.5017 47.0093 68.5017 44.9521C68.5017 42.8948 68.1266 41.0535 67.3537 39.4281C66.5922 37.8028 65.3646 36.5298 63.6711 35.5977C61.9775 34.6657 59.7384 34.1997 56.9423 34.1997H45.9854V80.1302H39.7568H39.7227Z" fill="#23B882"/>
</g>
<defs>
<clipPath id="clip0_14894_62518">
<rect width="104.244" height="104.244" fill="white" transform="translate(0.847656 0.0507812)"/>
</clipPath>
</defs>
</svg>
