<svg width="19" height="19" viewBox="0 0 19 19" fill="none" xmlns="http://www.w3.org/2000/svg">
<path d="M5.16739 16.2007L11.9613 9.80643L15.1585 13.0036M5.16739 16.2007H13.1602C14.4845 16.2007 15.5581 15.1272 15.5581 13.8029V9.80643M5.16739 16.2007C3.84309 16.2007 2.76953 15.1272 2.76953 13.8029V5.81001C2.76953 4.48571 3.84309 3.41215 5.16739 3.41215H10.3627M14.7588 7.27144L14.7588 5.01072M14.7588 5.01072L14.7588 2.75M14.7588 5.01072L12.4981 5.01072M14.7588 5.01072L17.0195 5.01072M7.56524 7.00893C7.56524 7.67108 7.02847 8.20786 6.36632 8.20786C5.70417 8.20786 5.16739 7.67108 5.16739 7.00893C5.16739 6.34678 5.70417 5.81001 6.36632 5.81001C7.02847 5.81001 7.56524 6.34678 7.56524 7.00893Z" stroke="white" stroke-width="1.4974" stroke-linecap="round" stroke-linejoin="round"/>
</svg>
