<svg width="22" height="23" viewBox="0 0 22 23" fill="none" xmlns="http://www.w3.org/2000/svg">
<path d="M18.7344 12.5161C19.247 12.5161 19.6625 12.1005 19.6625 11.5879C19.6625 11.0753 19.247 10.6597 18.7344 10.6597V12.5161ZM18.3218 11.5879C18.3218 15.6316 15.0437 18.9097 11 18.9097V20.7661C16.069 20.7661 20.1782 16.6568 20.1782 11.5879H18.3218ZM11 18.9097C6.95626 18.9097 3.67816 15.6316 3.67816 11.5879H1.82184C1.82184 16.6568 5.93104 20.7661 11 20.7661V18.9097ZM3.67816 11.5879C3.67816 7.54415 6.95626 4.26605 11 4.26605V2.40973C5.93104 2.40973 1.82184 6.51893 1.82184 11.5879H3.67816ZM11 4.26605C15.0437 4.26605 18.3218 7.54415 18.3218 11.5879H20.1782C20.1782 6.51893 16.069 2.40973 11 2.40973V4.26605ZM11 18.9097C10.8087 18.9097 10.5534 18.825 10.2402 18.5223C9.92255 18.2152 9.59409 17.726 9.29813 17.0495C8.7074 15.6993 8.31879 13.769 8.31879 11.5879H6.46246C6.46246 13.9631 6.88183 16.1579 7.59744 17.7935C7.95465 18.61 8.40394 19.329 8.94994 19.8569C9.5004 20.389 10.1946 20.7661 11 20.7661V18.9097ZM8.31879 11.5879C8.31879 9.40677 8.7074 7.47652 9.29813 6.12628C9.59409 5.44979 9.92255 4.96061 10.2402 4.65352C10.5534 4.35074 10.8087 4.26605 11 4.26605V2.40973C10.1946 2.40973 9.5004 2.78674 8.94994 3.31892C8.40394 3.84677 7.95465 4.56577 7.59744 5.38223C6.88183 7.01791 6.46246 9.21266 6.46246 11.5879H8.31879ZM11 20.7661C11.8054 20.7661 12.4996 20.389 13.0501 19.8569C13.5961 19.329 14.0454 18.61 14.4026 17.7935C15.1182 16.1579 15.5375 13.9631 15.5375 11.5879H13.6812C13.6812 13.769 13.2926 15.6993 12.7019 17.0495C12.4059 17.726 12.0774 18.2152 11.7598 18.5223C11.4466 18.825 11.1913 18.9097 11 18.9097V20.7661ZM15.5375 11.5879C15.5375 9.21266 15.1182 7.01791 14.4026 5.38223C14.0454 4.56577 13.5961 3.84677 13.0501 3.31892C12.4996 2.78674 11.8054 2.40973 11 2.40973V4.26605C11.1913 4.26605 11.4466 4.35074 11.7598 4.65352C12.0774 4.96061 12.4059 5.44979 12.7019 6.12628C13.2926 7.47652 13.6812 9.40677 13.6812 11.5879H15.5375ZM2.75 12.5161L18.7344 12.5161V10.6597L2.75 10.6597L2.75 12.5161Z" fill="#18181D"/>
</svg>
