<svg width="19" height="19" viewBox="0 0 19 19" fill="none" xmlns="http://www.w3.org/2000/svg">
<path d="M8.91868 2.31836C8.91868 1.90504 8.58363 1.56999 8.17031 1.56999C7.757 1.56999 7.42194 1.90504 7.42194 2.31836H8.91868ZM7.42194 16.7184C7.42194 17.1317 7.757 17.4667 8.17031 17.4667C8.58363 17.4667 8.91868 17.1317 8.91868 16.7184H7.42194ZM5.02031 3.06673H14.0203V1.56999H5.02031V3.06673ZM15.9719 5.01836V14.0184H17.4687V5.01836H15.9719ZM14.0203 15.97H5.02031V17.4667H14.0203V15.97ZM3.06868 14.0184V5.01836H1.57194V14.0184H3.06868ZM5.02031 15.97C3.94246 15.97 3.06868 15.0962 3.06868 14.0184H1.57194C1.57194 15.9228 3.11583 17.4667 5.02031 17.4667V15.97ZM15.9719 14.0184C15.9719 15.0962 15.0982 15.97 14.0203 15.97V17.4667C15.9248 17.4667 17.4687 15.9228 17.4687 14.0184H15.9719ZM14.0203 3.06673C15.0982 3.06673 15.9719 3.94051 15.9719 5.01836H17.4687C17.4687 3.11388 15.9248 1.56999 14.0203 1.56999V3.06673ZM5.02031 1.56999C3.11583 1.56999 1.57194 3.11388 1.57194 5.01836H3.06868C3.06868 3.94051 3.94246 3.06673 5.02031 3.06673V1.56999ZM7.42194 2.31836V16.7184H8.91868V2.31836H7.42194ZM8.17031 10.2667H16.2703V8.76999H8.17031V10.2667Z" fill="white"/>
</svg>
