<svg width="25" height="26" viewBox="0 0 25 26" fill="none" xmlns="http://www.w3.org/2000/svg">
<path d="M12.4791 12.7372H12.5337M10.2753 8.65844C8.84226 9.45362 7.87233 10.9821 7.87233 12.7372C7.87233 14.4922 8.84226 16.0208 10.2753 16.8159M14.7921 8.65844C16.2252 9.45362 17.1951 10.9821 17.1951 12.7372C17.1951 14.4922 16.2252 16.0208 14.7921 16.8159M7.87233 20.8128C5.08574 19.2008 3.21094 16.1879 3.21094 12.7372C3.21094 9.28644 5.08574 6.27358 7.87233 4.66162M17.1951 20.8128C19.9817 19.2008 21.8565 16.1879 21.8565 12.7372C21.8565 9.28644 19.9817 6.27358 17.1951 4.66162" stroke="white" stroke-width="2.06971" stroke-linecap="round"/>
</svg>
