<svg width="23" height="23" viewBox="0 0 23 23" fill="none" xmlns="http://www.w3.org/2000/svg">
    <style>
        .login{stroke: #18181d;}
    </style>
<path class="login" d="M2.6543 11.8569L15.4876 11.8569M15.4876 11.8569L12.2793 9.10693M15.4876 11.8569L12.2793 14.6069" stroke="#18181D" stroke-width="1.89" stroke-linecap="round" stroke-linejoin="round"/>
<path class="login" d="M9.07422 7.2745C9.08532 5.28072 9.17373 4.20097 9.87808 3.49662C10.6835 2.69116 11.9799 2.69116 14.5726 2.69116L15.4893 2.69116C18.082 2.69116 19.3784 2.69116 20.1838 3.49662C20.9893 4.30207 20.9893 5.59844 20.9893 8.19116L20.9893 15.5245C20.9893 18.1172 20.9893 19.4136 20.1838 20.219C19.3784 21.0245 18.082 21.0245 15.4893 21.0245H14.5726C11.9799 21.0245 10.6835 21.0245 9.87808 20.219C9.17373 19.5147 9.08532 18.4349 9.07422 16.4412" stroke="#18181D" stroke-width="1.89" stroke-linecap="round"/>
</svg>
