<svg width="23" height="23" viewBox="0 0 23 23" fill="none" xmlns="http://www.w3.org/2000/svg">
    <style>
        .log-out{stroke: #18181d;}
    </style>
<g clip-path="url(#clip0_264_7822)">
<path class="log-out" d="M9.14648 7.2745C9.15758 5.28072 9.246 4.20097 9.95035 3.49662C10.7558 2.69116 12.0522 2.69116 14.6449 2.69116L15.5616 2.69116C18.1543 2.69116 19.4506 2.69116 20.2561 3.49662C21.0616 4.30207 21.0616 5.59844 21.0616 8.19116L21.0616 15.5245C21.0616 18.1172 21.0616 19.4136 20.2561 20.219C19.4506 21.0245 18.1543 21.0245 15.5616 21.0245H14.6449C12.0522 21.0245 10.7558 21.0245 9.95035 20.219C9.246 19.5147 9.15758 18.4349 9.14648 16.4412" stroke="#18181D" stroke-width="1.89" stroke-linecap="round"/>
<path class="log-out" d="M14.6445 11.8577L2.72786 11.8577M2.72786 11.8577L5.9362 9.10767M2.72786 11.8577L5.9362 14.6077" stroke="#18181D" stroke-width="1.89" stroke-linecap="round" stroke-linejoin="round"/>
</g>
<defs>
<clipPath id="clip0_264_7822">
<rect x="0.894531" y="0.857666" width="22" height="22" rx="4.64254" fill="white"/>
</clipPath>
</defs>
</svg>
