<svg width="19" height="19" viewBox="0 0 19 19" fill="none" xmlns="http://www.w3.org/2000/svg">
<g opacity="0.7">
    <path d="M6.6024 9.66971C6.28506 9.93417 6.24218 10.4058 6.50663 10.7232C6.77109 11.0405 7.24273 11.0834 7.56007 10.8189L6.6024 9.66971ZM10.0644 7.75838L10.5432 7.18377C10.2658 6.95262 9.86291 6.95262 9.58553 7.18377L10.0644 7.75838ZM12.5687 10.8189C12.886 11.0834 13.3576 11.0405 13.6221 10.7232C13.8866 10.4058 13.8437 9.93417 13.5263 9.66971L12.5687 10.8189ZM7.56007 10.8189L10.5432 8.33298L9.58553 7.18377L6.6024 9.66971L7.56007 10.8189ZM9.58553 8.33298L12.5687 10.8189L13.5263 9.66971L10.5432 7.18377L9.58553 8.33298ZM15.9161 9.44629C15.9161 12.7611 13.2289 15.4483 9.91406 15.4483V16.9443C14.0551 16.9443 17.412 13.5873 17.412 9.44629H15.9161ZM9.91406 15.4483C6.59923 15.4483 3.91203 12.7611 3.91203 9.44629H2.4161C2.4161 13.5873 5.77305 16.9443 9.91406 16.9443V15.4483ZM3.91203 9.44629C3.91203 6.13146 6.59923 3.44425 9.91406 3.44425V1.94832C5.77305 1.94832 2.4161 5.30528 2.4161 9.44629H3.91203ZM9.91406 3.44425C13.2289 3.44425 15.9161 6.13146 15.9161 9.44629H17.412C17.412 5.30528 14.0551 1.94832 9.91406 1.94832V3.44425Z" fill="#18181D"/>
</g>
</svg>
