<svg width="23" height="23" viewBox="0 0 23 23" fill="none" xmlns="http://www.w3.org/2000/svg">
    <style>
        .studio{fill: #18181D;}
    </style>
    <path class="studio" d="m15.05 12.63-.517-.792-.013.009-.013.009.542.775zm0-1.26-.562.761.043.031.045.026.473-.819zM9.992 7.646l.561-.762-.026-.02-.028-.018-.507.8zm-1.06.556L9.88 8.2v-.017l-.946.02zm.022 7.313-.946.002v.027l.001.027.945-.056zm1.098.609.458.828.044-.024.04-.029-.542-.775zM6.25 4.035h11V2.143h-11v1.892zm13.354 2.354v11h1.892v-11h-1.892zM17.25 19.743h-11v1.892h11v-1.892zM3.896 17.389v-11H2.004v11h1.892zm2.354 2.354a2.354 2.354 0 0 1-2.354-2.354H2.004a4.246 4.246 0 0 0 4.246 4.246v-1.892zm13.354-2.354c0 1.3-1.054 2.354-2.354 2.354v1.892a4.246 4.246 0 0 0 4.246-4.246h-1.892zM17.25 4.035c1.3 0 2.354 1.054 2.354 2.354h1.892c0-2.345-1.901-4.246-4.246-4.246v1.892zm-11-1.892a4.246 4.246 0 0 0-4.246 4.246h1.892c0-1.3 1.054-2.354 2.354-2.354V2.143zm9.315 11.28c.4-.26.915-.73.914-1.442 0-.734-.542-1.19-.956-1.43l-.947 1.637c.094.055.108.081.092.06a.443.443 0 0 1-.08-.265c0-.14.053-.223.064-.237.007-.01-.018.027-.119.092l1.032 1.586zm.045-2.815-5.056-3.723-1.121 1.523 5.055 3.723 1.122-1.523zm-5.11-3.76c-.437-.277-1.054-.438-1.639-.165-.637.298-.886.938-.873 1.539l1.891-.039c0-.05.01-.027-.021.032a.427.427 0 0 1-.196.182c-.183.086-.262-.007-.175.049L10.5 6.847zM7.988 8.204l.02 7.313 1.893-.005L9.879 8.2l-1.891.005zm.022 7.367c.03.493.202 1.16.83 1.495.618.33 1.26.113 1.671-.114l-.916-1.656c-.088.05-.12.05-.102.048a.413.413 0 0 1 .238.053.421.421 0 0 1 .182.177c.01.02-.008-.007-.014-.116l-1.889.113zm2.586 1.328 4.995-3.494-1.084-1.55-4.996 3.494 1.085 1.55z" fill="#18181D"/>
</svg>
