<svg width="21" height="20" viewBox="0 0 21 20" fill="none" xmlns="http://www.w3.org/2000/svg">
<path d="M10.1494 18.0445V6.40815M8.7952 5.71008C8.93926 5.74241 9.09106 5.70278 9.19478 5.59907C9.29849 5.49535 9.33806 5.34349 9.30579 5.19949C9.17649 4.67134 8.70021 2.9028 8.21116 2.41375C7.60186 1.80444 6.61019 1.80191 6.00391 2.40819C5.39766 3.01444 5.40011 4.0061 6.00946 4.61545C6.50652 5.11251 8.26706 5.5808 8.7952 5.71008ZM10.274 5.19945C10.2417 5.34351 10.2813 5.49531 10.385 5.59902C10.4887 5.70274 10.6406 5.7423 10.7846 5.71004C11.3128 5.58074 13.0813 5.10446 13.5703 4.61541C14.1796 4.00611 14.1822 3.01444 13.5759 2.40815C12.9697 1.80191 11.978 1.80436 11.3686 2.4137C10.8716 2.91076 10.4033 4.67131 10.274 5.19945ZM2.58572 10.4809H17.4221C17.7434 10.4809 18.0039 10.2204 18.0039 9.89906V6.98997C18.0039 6.66864 17.7434 6.40815 17.4221 6.40815H2.58572C2.2644 6.40815 2.00391 6.66864 2.00391 6.98997V9.89906C2.00391 10.2204 2.2644 10.4809 2.58572 10.4809ZM16.5494 10.4809V17.4627C16.5494 17.784 16.2889 18.0445 15.9675 18.0445H4.04027C3.71894 18.0445 3.45845 17.784 3.45845 17.4627V10.4809H16.5494Z" stroke="white" stroke-width="1.5" stroke-linecap="round" stroke-linejoin="round"/>
</svg>
