<svg width="16" height="16" viewBox="0 0 16 16" fill="none" xmlns="http://www.w3.org/2000/svg">
<path d="M7.96484 7.86332H8M6.54653 5.2383C5.62423 5.75007 5 6.7338 5 7.86332C5 8.99285 5.62423 9.97657 6.54653 10.4883M9.45347 5.2383C10.3758 5.75007 11 6.7338 11 7.86332C11 8.99285 10.3758 9.97657 9.45347 10.4883M5 13.0606C3.2066 12.0232 2 10.0842 2 7.86332C2 5.64248 3.2066 3.70344 5 2.66602M11 13.0606C12.7934 12.0232 14 10.0842 14 7.86332C14 5.64248 12.7934 3.70344 11 2.66602" stroke="#EF222E" stroke-width="1.5" stroke-linecap="round"/>
</svg>
