<svg width="69" height="45" viewBox="0 0 69 45" fill="none" xmlns="http://www.w3.org/2000/svg">
<rect width="69" height="45" fill="#EEEEEE"/>
<g opacity="0.6">
<path d="M27.3501 21.8052C27.0257 22.1296 27.0257 22.6556 27.3501 22.98C27.6745 23.3044 28.2005 23.3044 28.5249 22.98L27.3501 21.8052ZM31.6875 18.6426L32.2749 18.0552C31.9505 17.7307 31.4245 17.7307 31.1001 18.0552L31.6875 18.6426ZM33.5625 20.5176L32.9751 21.105C33.2995 21.4294 33.8255 21.4294 34.1499 21.105L33.5625 20.5176ZM37.7812 16.2988L38.3687 15.7114C38.0442 15.387 37.5183 15.387 37.1938 15.7114L37.7812 16.2988ZM40.9438 20.6362C41.2683 20.9607 41.7942 20.9607 42.1187 20.6362C42.4431 20.3118 42.4431 19.7858 42.1187 19.4614L40.9438 20.6362ZM28.5249 22.98L32.2749 19.23L31.1001 18.0552L27.3501 21.8052L28.5249 22.98ZM31.1001 19.23L32.9751 21.105L34.1499 19.9302L32.2749 18.0552L31.1001 19.23ZM34.1499 21.105L38.3687 16.8862L37.1938 15.7114L32.9751 19.9302L34.1499 21.105ZM37.1938 16.8862L40.9438 20.6362L42.1187 19.4614L38.3687 15.7114L37.1938 16.8862ZM29.8125 9.62956H39.1875V7.9681H29.8125V9.62956ZM41.1693 11.6113V20.9863H42.8307V11.6113H41.1693ZM39.1875 22.9681H29.8125V24.6296H39.1875V22.9681ZM27.8307 20.9863V11.6113H26.1693V20.9863H27.8307ZM29.8125 22.9681C28.718 22.9681 27.8307 22.0808 27.8307 20.9863H26.1693C26.1693 22.9984 27.8004 24.6296 29.8125 24.6296V22.9681ZM41.1693 20.9863C41.1693 22.0808 40.282 22.9681 39.1875 22.9681V24.6296C41.1996 24.6296 42.8307 22.9984 42.8307 20.9863H41.1693ZM39.1875 9.62956C40.282 9.62956 41.1693 10.5168 41.1693 11.6113H42.8307C42.8307 9.59923 41.1996 7.9681 39.1875 7.9681V9.62956ZM29.8125 7.9681C27.8004 7.9681 26.1693 9.59923 26.1693 11.6113H27.8307C27.8307 10.5168 28.718 9.62956 29.8125 9.62956V7.9681ZM31.7943 13.0176C31.7943 13.3354 31.5366 13.5931 31.2187 13.5931V15.2546C32.4542 15.2546 33.4557 14.253 33.4557 13.0176H31.7943ZM31.2187 13.5931C30.9009 13.5931 30.6432 13.3354 30.6432 13.0176H28.9818C28.9818 14.253 29.9833 15.2546 31.2187 15.2546V13.5931ZM30.6432 13.0176C30.6432 12.6997 30.9009 12.4421 31.2187 12.4421V10.7806C29.9833 10.7806 28.9818 11.7821 28.9818 13.0176H30.6432ZM31.2187 12.4421C31.5366 12.4421 31.7943 12.6997 31.7943 13.0176H33.4557C33.4557 11.7821 32.4542 10.7806 31.2187 10.7806V12.4421Z" fill="#18181D"/>
</g>
<path opacity="0.6" d="M10.2045 36.7012V30.883H12.2386C12.6439 30.883 12.9782 30.9531 13.2415 31.0932C13.5047 31.2315 13.7008 31.418 13.8295 31.6529C13.9583 31.8858 14.0227 32.1444 14.0227 32.4284C14.0227 32.6784 13.9782 32.8849 13.8892 33.0478C13.8021 33.2106 13.6866 33.3394 13.5426 33.4341C13.4006 33.5288 13.2462 33.5989 13.0795 33.6444V33.7012C13.2576 33.7125 13.4366 33.775 13.6165 33.8887C13.7964 34.0023 13.947 34.1652 14.0682 34.3773C14.1894 34.5894 14.25 34.8489 14.25 35.1557C14.25 35.4474 14.1837 35.7097 14.0511 35.9426C13.9186 36.1756 13.7093 36.3603 13.4233 36.4966C13.1373 36.633 12.7652 36.7012 12.3068 36.7012H10.2045ZM10.9091 36.0762H12.3068C12.767 36.0762 13.0938 35.9872 13.2869 35.8091C13.482 35.6292 13.5795 35.4114 13.5795 35.1557C13.5795 34.9587 13.5294 34.7769 13.429 34.6103C13.3286 34.4417 13.1856 34.3072 13 34.2069C12.8144 34.1046 12.5947 34.0534 12.3409 34.0534H10.9091V36.0762ZM10.9091 33.4398H12.2159C12.428 33.4398 12.6193 33.3981 12.7898 33.3148C12.9621 33.2315 13.0985 33.1141 13.1989 32.9625C13.3011 32.811 13.3523 32.633 13.3523 32.4284C13.3523 32.1728 13.2633 31.9559 13.0852 31.7779C12.9072 31.598 12.625 31.508 12.2386 31.508H10.9091V33.4398ZM16.3953 36.8034C16.1188 36.8034 15.8678 36.7514 15.6425 36.6472C15.4171 36.5411 15.2381 36.3887 15.1055 36.1898C14.9729 35.9891 14.9067 35.7466 14.9067 35.4625C14.9067 35.2125 14.9559 35.0099 15.0544 34.8546C15.1529 34.6974 15.2845 34.5743 15.4493 34.4853C15.614 34.3962 15.7959 34.33 15.9947 34.2864C16.1955 34.2409 16.3972 34.205 16.5998 34.1784C16.865 34.1444 17.08 34.1188 17.2447 34.1017C17.4114 34.0828 17.5326 34.0516 17.6084 34.008C17.686 33.9644 17.7248 33.8887 17.7248 33.7807V33.758C17.7248 33.4777 17.6481 33.2599 17.4947 33.1046C17.3432 32.9493 17.1131 32.8716 16.8044 32.8716C16.4843 32.8716 16.2334 32.9417 16.0515 33.0819C15.8697 33.222 15.7419 33.3716 15.668 33.5307L15.0317 33.3034C15.1453 33.0383 15.2968 32.8319 15.4862 32.6841C15.6775 32.5345 15.8858 32.4303 16.1112 32.3716C16.3385 32.311 16.562 32.2807 16.7817 32.2807C16.9218 32.2807 17.0828 32.2978 17.2646 32.3319C17.4483 32.3641 17.6254 32.4313 17.7959 32.5336C17.9682 32.6358 18.1112 32.7902 18.2248 32.9966C18.3385 33.2031 18.3953 33.4796 18.3953 33.8262V36.7012H17.7248V36.1103H17.6907C17.6453 36.205 17.5695 36.3063 17.4635 36.4142C17.3574 36.5222 17.2163 36.6141 17.0402 36.6898C16.864 36.7656 16.6491 36.8034 16.3953 36.8034ZM16.4976 36.2012C16.7627 36.2012 16.9862 36.1491 17.168 36.0449C17.3517 35.9408 17.49 35.8063 17.5828 35.6415C17.6775 35.4767 17.7248 35.3034 17.7248 35.1216V34.508C17.6964 34.5421 17.6339 34.5733 17.5373 34.6017C17.4426 34.6283 17.3328 34.6519 17.2078 34.6728C17.0847 34.6917 16.9644 34.7087 16.847 34.7239C16.7315 34.7372 16.6377 34.7485 16.5657 34.758C16.3915 34.7807 16.2286 34.8176 16.0771 34.8688C15.9275 34.918 15.8063 34.9928 15.7135 35.0932C15.6226 35.1917 15.5771 35.3262 15.5771 35.4966C15.5771 35.7296 15.6633 35.9057 15.8356 36.025C16.0099 36.1425 16.2305 36.2012 16.4976 36.2012ZM20.0839 34.0762V36.7012H19.4135V32.3375H20.0612V33.0194H20.118C20.2203 32.7978 20.3756 32.6197 20.5839 32.4853C20.7922 32.3489 21.0612 32.2807 21.3907 32.2807C21.6862 32.2807 21.9447 32.3413 22.1663 32.4625C22.3879 32.5819 22.5602 32.7637 22.6833 33.008C22.8064 33.2504 22.868 33.5572 22.868 33.9284V36.7012H22.1975V33.9739C22.1975 33.6311 22.1085 33.3641 21.9305 33.1728C21.7525 32.9796 21.5082 32.883 21.1975 32.883C20.9835 32.883 20.7922 32.9294 20.6237 33.0222C20.457 33.115 20.3254 33.2504 20.2288 33.4284C20.1322 33.6065 20.0839 33.8224 20.0839 34.0762ZM24.558 34.0762V36.7012H23.8876V32.3375H24.5353V33.0194H24.5921C24.6944 32.7978 24.8497 32.6197 25.058 32.4853C25.2664 32.3489 25.5353 32.2807 25.8649 32.2807C26.1603 32.2807 26.4188 32.3413 26.6404 32.4625C26.862 32.5819 27.0344 32.7637 27.1575 33.008C27.2806 33.2504 27.3421 33.5572 27.3421 33.9284V36.7012H26.6717V33.9739C26.6717 33.6311 26.5827 33.3641 26.4046 33.1728C26.2266 32.9796 25.9823 32.883 25.6717 32.883C25.4577 32.883 25.2664 32.9294 25.0978 33.0222C24.9311 33.115 24.7995 33.2504 24.7029 33.4284C24.6063 33.6065 24.558 33.8224 24.558 34.0762ZM30.1913 36.7921C29.7708 36.7921 29.4081 36.6993 29.1032 36.5137C28.8002 36.3262 28.5663 36.0648 28.4015 35.7296C28.2386 35.3925 28.1572 35.0004 28.1572 34.5534C28.1572 34.1065 28.2386 33.7125 28.4015 33.3716C28.5663 33.0288 28.7954 32.7618 29.089 32.5705C29.3844 32.3773 29.7291 32.2807 30.1231 32.2807C30.3504 32.2807 30.5748 32.3186 30.7964 32.3944C31.018 32.4701 31.2197 32.5932 31.4015 32.7637C31.5833 32.9322 31.7282 33.1557 31.8361 33.4341C31.9441 33.7125 31.9981 34.0553 31.9981 34.4625V34.7466H28.6344V34.1671H31.3163C31.3163 33.9209 31.267 33.7012 31.1685 33.508C31.0719 33.3148 30.9337 33.1623 30.7538 33.0506C30.5757 32.9389 30.3655 32.883 30.1231 32.883C29.856 32.883 29.625 32.9493 29.4299 33.0819C29.2367 33.2125 29.088 33.383 28.9839 33.5932C28.8797 33.8034 28.8276 34.0288 28.8276 34.2694V34.6557C28.8276 34.9853 28.8844 35.2646 28.9981 35.4938C29.1136 35.7211 29.2736 35.8944 29.4782 36.0137C29.6827 36.1311 29.9204 36.1898 30.1913 36.1898C30.3674 36.1898 30.5265 36.1652 30.6685 36.1159C30.8125 36.0648 30.9365 35.9891 31.0407 35.8887C31.1449 35.7864 31.2254 35.6595 31.2822 35.508L31.9299 35.6898C31.8617 35.9095 31.7471 36.1027 31.5861 36.2694C31.4252 36.4341 31.2263 36.5629 30.9896 36.6557C30.7528 36.7466 30.4867 36.7921 30.1913 36.7921ZM32.8124 36.7012V32.3375H33.4601V32.9966H33.5056C33.5851 32.7807 33.7291 32.6055 33.9374 32.4711C34.1457 32.3366 34.3806 32.2694 34.642 32.2694C34.6912 32.2694 34.7527 32.2703 34.8266 32.2722C34.9005 32.2741 34.9563 32.2769 34.9942 32.2807V32.9625C34.9715 32.9569 34.9194 32.9483 34.838 32.937C34.7584 32.9237 34.6741 32.9171 34.5851 32.9171C34.373 32.9171 34.1836 32.9616 34.017 33.0506C33.8522 33.1377 33.7215 33.2589 33.6249 33.4142C33.5302 33.5676 33.4829 33.7428 33.4829 33.9398V36.7012H32.8124ZM38.4233 30.883V36.7012H37.7188V30.883H38.4233ZM39.5395 36.7012V32.3375H40.1872V33.0194H40.244C40.3349 32.7864 40.4817 32.6055 40.6844 32.4767C40.887 32.3461 41.1304 32.2807 41.4145 32.2807C41.7024 32.2807 41.9419 32.3461 42.1332 32.4767C42.3264 32.6055 42.477 32.7864 42.5849 33.0194H42.6304C42.7421 32.794 42.9097 32.615 43.1332 32.4824C43.3567 32.348 43.6247 32.2807 43.9372 32.2807C44.3274 32.2807 44.6465 32.4029 44.8946 32.6472C45.1427 32.8896 45.2668 33.2675 45.2668 33.7807V36.7012H44.5963V33.7807C44.5963 33.4587 44.5082 33.2286 44.3321 33.0904C44.156 32.9521 43.9486 32.883 43.7099 32.883C43.4031 32.883 43.1654 32.9758 42.9969 33.1614C42.8283 33.3451 42.744 33.5781 42.744 33.8603V36.7012H42.0622V33.7125C42.0622 33.4644 41.9817 33.2646 41.8207 33.1131C41.6597 32.9597 41.4524 32.883 41.1986 32.883C41.0243 32.883 40.8615 32.9294 40.7099 33.0222C40.5603 33.115 40.4391 33.2438 40.3463 33.4086C40.2554 33.5714 40.2099 33.7599 40.2099 33.9739V36.7012H39.5395ZM47.5711 36.8034C47.2946 36.8034 47.0437 36.7514 46.8183 36.6472C46.5929 36.5411 46.4139 36.3887 46.2814 36.1898C46.1488 35.9891 46.0825 35.7466 46.0825 35.4625C46.0825 35.2125 46.1317 35.0099 46.2302 34.8546C46.3287 34.6974 46.4603 34.5743 46.6251 34.4853C46.7899 34.3962 46.9717 34.33 47.1706 34.2864C47.3713 34.2409 47.573 34.205 47.7757 34.1784C48.0408 34.1444 48.2558 34.1188 48.4206 34.1017C48.5872 34.0828 48.7085 34.0516 48.7842 34.008C48.8619 33.9644 48.9007 33.8887 48.9007 33.7807V33.758C48.9007 33.4777 48.824 33.2599 48.6706 33.1046C48.5191 32.9493 48.2889 32.8716 47.9802 32.8716C47.6602 32.8716 47.4092 32.9417 47.2274 33.0819C47.0456 33.222 46.9177 33.3716 46.8439 33.5307L46.2075 33.3034C46.3211 33.0383 46.4727 32.8319 46.662 32.6841C46.8533 32.5345 47.0617 32.4303 47.287 32.3716C47.5143 32.311 47.7378 32.2807 47.9575 32.2807C48.0977 32.2807 48.2586 32.2978 48.4405 32.3319C48.6242 32.3641 48.8013 32.4313 48.9717 32.5336C49.1441 32.6358 49.287 32.7902 49.4007 32.9966C49.5143 33.2031 49.5711 33.4796 49.5711 33.8262V36.7012H48.9007V36.1103H48.8666C48.8211 36.205 48.7454 36.3063 48.6393 36.4142C48.5333 36.5222 48.3922 36.6141 48.216 36.6898C48.0399 36.7656 47.8249 36.8034 47.5711 36.8034ZM47.6734 36.2012C47.9386 36.2012 48.162 36.1491 48.3439 36.0449C48.5276 35.9408 48.6658 35.8063 48.7586 35.6415C48.8533 35.4767 48.9007 35.3034 48.9007 35.1216V34.508C48.8723 34.5421 48.8098 34.5733 48.7132 34.6017C48.6185 34.6283 48.5086 34.6519 48.3836 34.6728C48.2605 34.6917 48.1403 34.7087 48.0228 34.7239C47.9073 34.7372 47.8136 34.7485 47.7416 34.758C47.5674 34.7807 47.4045 34.8176 47.253 34.8688C47.1033 34.918 46.9821 34.9928 46.8893 35.0932C46.7984 35.1917 46.753 35.3262 46.753 35.4966C46.753 35.7296 46.8391 35.9057 47.0115 36.025C47.1857 36.1425 47.4064 36.2012 47.6734 36.2012ZM52.3507 38.4284C52.0268 38.4284 51.7484 38.3868 51.5154 38.3034C51.2825 38.222 51.0884 38.1141 50.9331 37.9796C50.7796 37.847 50.6575 37.705 50.5666 37.5534L51.1007 37.1784C51.1613 37.258 51.238 37.3489 51.3308 37.4512C51.4236 37.5553 51.5505 37.6453 51.7115 37.7211C51.8743 37.7987 52.0874 37.8375 52.3507 37.8375C52.7029 37.8375 52.9937 37.7523 53.2228 37.5819C53.452 37.4114 53.5666 37.1444 53.5666 36.7807V35.8944H53.5098C53.4605 35.9739 53.3904 36.0724 53.2995 36.1898C53.2105 36.3053 53.0817 36.4086 52.9132 36.4995C52.7465 36.5885 52.5211 36.633 52.237 36.633C51.8848 36.633 51.5685 36.5497 51.2882 36.383C51.0098 36.2163 50.7891 35.9739 50.6262 35.6557C50.4652 35.3375 50.3848 34.9512 50.3848 34.4966C50.3848 34.0497 50.4634 33.6605 50.6206 33.329C50.7777 32.9957 50.9965 32.7381 51.2768 32.5563C51.5571 32.3726 51.881 32.2807 52.2484 32.2807C52.5325 32.2807 52.7579 32.3281 52.9245 32.4228C53.0931 32.5156 53.2219 32.6216 53.3109 32.7409C53.4018 32.8584 53.4719 32.955 53.5211 33.0307H53.5893V32.3375H54.237V36.8262C54.237 37.2012 54.1518 37.5061 53.9813 37.7409C53.8128 37.9777 53.5855 38.151 53.2995 38.2608C53.0154 38.3726 52.6992 38.4284 52.3507 38.4284ZM52.3279 36.0307C52.5969 36.0307 52.8242 35.9692 53.0098 35.8461C53.1954 35.723 53.3365 35.5459 53.4331 35.3148C53.5296 35.0837 53.5779 34.8072 53.5779 34.4853C53.5779 34.1709 53.5306 33.8934 53.4359 33.6529C53.3412 33.4123 53.201 33.2239 53.0154 33.0875C52.8298 32.9512 52.6007 32.883 52.3279 32.883C52.0438 32.883 51.8071 32.955 51.6177 33.0989C51.4302 33.2428 51.2891 33.436 51.1944 33.6784C51.1016 33.9209 51.0552 34.1898 51.0552 34.4853C51.0552 34.7883 51.1026 35.0563 51.1973 35.2892C51.2938 35.5203 51.4359 35.7021 51.6234 35.8347C51.8128 35.9654 52.0476 36.0307 52.3279 36.0307ZM57.0883 36.7921C56.6678 36.7921 56.3051 36.6993 56.0002 36.5137C55.6972 36.3262 55.4633 36.0648 55.2985 35.7296C55.1356 35.3925 55.0542 35.0004 55.0542 34.5534C55.0542 34.1065 55.1356 33.7125 55.2985 33.3716C55.4633 33.0288 55.6925 32.7618 55.986 32.5705C56.2815 32.3773 56.6262 32.2807 57.0201 32.2807C57.2474 32.2807 57.4718 32.3186 57.6934 32.3944C57.915 32.4701 58.1167 32.5932 58.2985 32.7637C58.4803 32.9322 58.6252 33.1557 58.7332 33.4341C58.8411 33.7125 58.8951 34.0553 58.8951 34.4625V34.7466H55.5315V34.1671H58.2133C58.2133 33.9209 58.164 33.7012 58.0656 33.508C57.969 33.3148 57.8307 33.1623 57.6508 33.0506C57.4728 32.9389 57.2625 32.883 57.0201 32.883C56.7531 32.883 56.522 32.9493 56.3269 33.0819C56.1337 33.2125 55.9851 33.383 55.8809 33.5932C55.7767 33.8034 55.7247 34.0288 55.7247 34.2694V34.6557C55.7247 34.9853 55.7815 35.2646 55.8951 35.4938C56.0106 35.7211 56.1707 35.8944 56.3752 36.0137C56.5798 36.1311 56.8175 36.1898 57.0883 36.1898C57.2644 36.1898 57.4235 36.1652 57.5656 36.1159C57.7095 36.0648 57.8336 35.9891 57.9377 35.8887C58.0419 35.7864 58.1224 35.6595 58.1792 35.508L58.8269 35.6898C58.7587 35.9095 58.6442 36.1027 58.4832 36.2694C58.3222 36.4341 58.1233 36.5629 57.8866 36.6557C57.6498 36.7466 57.3837 36.7921 57.0883 36.7921Z" fill="#18181D"/>
</svg>
