<svg width="26" height="27" viewBox="0 0 26 27" fill="none" xmlns="http://www.w3.org/2000/svg">
<path d="M21.6654 17.7758C21.0465 16.8776 20.4453 15.5535 20.4453 13.9569L20.4719 11.7729C20.4719 7.44084 17.1503 3.929 13.0529 3.929C12.6121 3.929 12.1804 3.97024 11.7611 4.04928M10.1459 21.8996C10.9174 22.494 11.9361 22.8555 13.0529 22.8555C14.1696 22.8555 15.1884 22.494 15.9598 21.8996M17.1226 18.8407H4.8854C4.4258 18.8407 4.1691 18.1443 4.44712 17.7574C5.09223 16.8595 5.71488 15.5426 5.71488 13.9569L5.74149 11.6591C5.74149 9.81665 6.35114 8.12479 7.36879 6.79667M19.4481 21.7085L6.0762 3.35547" stroke="#23B882" stroke-width="2.18132" stroke-linecap="round"/>
</svg>
