<svg width="130" height="146" viewBox="0 0 130 146" fill="none" xmlns="http://www.w3.org/2000/svg">
<g clip-path="url(#clip0_15079_63777)">
<path d="M119.95 90.3562C83.0095 87.4288 43.5565 84.6292 3.1028 85.3837C2.67257 85.4336 2.36393 85.0782 2.34523 84.676C1.26031 62.4445 1.08261 39.1562 0.000807127 16.931C-0.0178984 16.5226 0.290742 16.1796 0.696028 16.1516C40.9004 13.5921 81.3603 8.46363 120.957 0.90038C121.39 0.816206 121.802 1.13108 121.839 1.56754C123.909 26.3617 123.575 53.5345 120.751 89.6704C120.72 90.0632 120.377 90.3843 119.95 90.3531V90.3562ZM119.326 88.813C122.057 53.5283 122.4 26.8355 120.424 2.51529C81.2668 9.96007 41.2713 15.0293 1.52219 17.5919C2.56346 39.4025 2.75363 62.1047 3.7949 83.8841C42.8021 83.2107 80.3253 85.7329 119.323 88.8162L119.326 88.813Z" fill="white"/>
<path d="M53.9409 105.987C54.0001 105.579 54.3804 105.308 54.7857 105.357C55.191 105.417 55.4747 105.794 55.4155 106.202C55.4061 106.274 55.4092 106.355 55.4092 106.439C55.4092 107.424 53.7102 107.58 53.944 105.987H53.9409Z" fill="white"/>
<path d="M57.771 136.002C55.492 134.927 54.1857 133.143 53.7773 130.546C53.7773 129.471 55.2551 129.518 55.2551 130.415V130.431C55.5762 132.417 56.58 133.795 58.4007 134.655C59.9221 135.36 61.8612 135.687 63.8471 135.581C69.7019 135.276 71.5507 134.462 71.5507 127.142C71.5507 120.96 71.6411 115.252 71.7284 109.733C71.744 108.698 73.2311 108.808 73.2155 109.755C72.8975 129.726 73.3152 130.182 72.3644 132.716C71.0176 136.417 68.0153 136.856 63.922 137.068C61.8737 137.184 59.6758 136.888 57.7678 136.005L57.771 136.002Z" fill="white"/>
<path d="M54.961 98.834C54.961 98.834 54.9329 98.834 54.9205 98.834C54.5121 98.8122 54.1941 98.463 54.2159 98.0515C54.4404 93.8396 54.7584 90.0456 55.2759 85.3598C55.3195 84.967 55.678 84.6584 56.0522 84.6989L72.778 85.5469C73.1739 85.5656 73.4857 85.8929 73.4857 86.2889C73.4857 90.1609 73.4545 93.8584 73.3953 97.4779C73.389 97.8863 73.0554 98.2105 72.6502 98.2105H72.6377C72.2262 98.2043 71.8988 97.8644 71.9051 97.456C71.9612 94.0641 71.9923 90.6067 71.9955 86.9997L56.6757 86.2234C56.2049 90.5631 55.9119 94.1639 55.6999 98.1326C55.6781 98.5285 55.3507 98.8371 54.9579 98.8371L54.961 98.834Z" fill="white"/>
<path d="M54.499 119.319C54.0875 119.319 53.7539 118.994 53.7539 118.583V118.358C53.7539 117.947 54.0875 117.613 54.499 117.613C55.4998 117.613 55.4966 119.315 54.499 119.315V119.319Z" fill="white"/>
<path d="M57.4453 33.1528C64.1419 26.7431 75.9887 26.3253 83.7889 31.5348C91.586 36.7412 95.0776 46.6208 93.151 55.3999C91.6327 62.3178 86.8784 68.6808 80.1475 71.8856C73.6224 74.9908 65.152 74.9035 58.9979 71.0283C53.4985 67.5647 51.6123 59.487 50.8298 53.6634C49.9382 47.0354 52.3637 38.0225 57.4484 33.1559L57.4453 33.1528Z" fill="#F1D22F"/>
<path d="M47.254 65.0867C42.8301 62.3027 39.9682 56.2796 38.7461 47.1918C37.9012 40.9224 40.0118 31.3826 45.5861 26.0484C52.345 19.5825 64.5752 18.8187 72.8555 24.3462C80.5996 29.5214 84.5776 39.6535 82.5294 48.9907C80.902 56.4105 75.889 62.7641 69.1207 65.9877C62.0687 69.3454 53.2896 68.8902 47.254 65.0867ZM60.1576 22.1202C55.0697 22.1202 50.0691 23.8162 46.6149 27.124C41.396 32.1183 39.4257 41.0876 40.2207 46.9954C41.3836 55.628 44.0148 61.2895 48.0489 63.8304C53.751 67.4218 61.9627 67.7492 68.4816 64.6472C74.8383 61.62 79.5459 55.6498 81.0766 48.6727C83.8388 36.0839 75.1532 22.1202 60.1576 22.1202Z" fill="white"/>
<path d="M50.646 66.6162C50.0973 66.6162 49.7263 66.027 49.9882 65.5251C57.2178 51.7329 63.3408 37.975 68.7093 23.4627C68.8527 23.0792 69.2798 22.8797 69.6664 23.0231C70.0529 23.1665 70.2493 23.5936 70.1059 23.9802C64.7156 38.5549 58.5646 52.3689 51.3069 66.2172C51.1729 66.4697 50.9141 66.6162 50.646 66.6162Z" fill="white"/>
<path d="M85.2897 132.806C81.6359 132.806 77.3586 132.08 72.4671 130.15C72.0836 130 71.8966 129.567 72.0494 129.183C72.199 128.803 72.6292 128.61 73.0158 128.766C89.1961 135.147 98.2526 127.621 99.3656 125.872C99.9237 124.984 101.233 125.897 100.591 126.717C99.4747 128.401 94.2839 132.803 85.2928 132.803L85.2897 132.806Z" fill="white"/>
<path d="M99.9067 105.514C99.9067 105.514 99.8226 105.477 99.6948 105.471C91.826 104.816 86.1177 101.29 78.9628 99.0393C78.57 98.9177 78.3518 98.4999 78.4765 98.1071C78.5981 97.7174 79.0127 97.4961 79.4087 97.6208C81.803 98.3721 84.057 99.2762 86.2393 100.149C98.6753 105.125 99.4984 103.41 100.761 104.299C101.572 104.869 100.699 106.076 99.9036 105.518L99.9067 105.514Z" fill="white"/>
<path d="M55.1468 131.391C52.5498 130.826 50.4548 128.523 50.0495 125.788C49.6723 123.235 50.7791 120.476 52.8741 118.755C54.9691 117.037 57.4631 117.012 59.6797 116.305C62.417 115.438 64.8393 115.75 66.5041 117.19C68.4931 118.908 68.8361 122.135 67.2523 124.233C65.5252 126.527 63.4427 126.088 61.0047 125.916C59.9073 125.845 59.9136 126.219 59.8637 127.541C59.8419 128.095 59.82 128.725 59.6423 129.311C59.0999 131.095 56.9394 131.787 55.1468 131.394V131.391ZM62.5884 117.306C61.092 117.306 60.456 117.72 57.9838 118.266C56.4593 118.599 55.0221 118.917 53.8187 119.906C52.1227 121.299 51.2186 123.522 51.521 125.57C51.8328 127.671 53.4913 129.508 55.4648 129.938C56.5622 130.169 57.9339 129.81 58.2176 128.878C58.6385 127.494 57.7001 124.211 61.1045 124.432C61.3851 124.451 61.6594 124.476 61.9338 124.501C63.7014 124.663 64.9765 124.775 66.0614 123.338C67.7293 121.131 66.4729 117.306 62.5884 117.306Z" fill="white"/>
<path d="M51.342 120.939C49.8767 120.939 48.346 120.072 47.5915 118.651C46.2385 116.023 47.4949 113.8 48.8947 111.331C51.3607 106.907 55.6349 104.475 58.8585 104.344C59.2513 104.332 59.616 104.647 59.6316 105.058C59.6472 105.47 59.3292 105.816 58.9177 105.831C56.9131 105.912 55.4447 106.901 54.7433 107.253C51.4978 109.239 50.1479 112.191 49.9952 112.403C48.9321 114.283 47.9251 116.057 48.9071 117.962C49.487 119.056 51.0115 119.851 52.1837 119.262C52.5485 119.081 52.8821 118.775 53.2343 118.454C54.4876 117.307 54.9927 117.139 56.3675 117.061C57.5834 116.992 57.5927 116.874 57.758 116.178C58.6246 112.581 61.63 112.899 63.0173 111.409C63.2979 111.109 63.7687 111.094 64.0679 111.371C64.3703 111.652 64.3859 112.122 64.1053 112.422C62.5185 114.127 59.8873 113.912 59.2824 116.225C59.1079 116.939 59.0143 117.323 58.7057 117.7C57.8546 118.775 56.3737 118.408 55.5289 118.654C54.3006 119.003 53.5773 120.933 51.342 120.933V120.939Z" fill="white"/>
<path d="M48.3016 112.37C47.675 112.37 47.2074 111.939 47.1855 111.275C45.5925 107.597 46.88 102.833 50.2906 99.8806C53.137 97.4333 57.2647 96.1956 61.8974 96.4107C63.5965 96.4918 64.6315 98.1223 64.778 99.6904C64.8155 100.099 64.5162 100.464 64.1046 100.501C63.7025 100.538 63.3315 100.239 63.2941 99.8276C63.2099 98.9235 62.6674 97.9383 61.8257 97.8978C57.5733 97.7045 53.8135 98.8112 51.2602 101.009C48.3422 103.534 47.2011 107.743 48.6009 110.805C48.6851 110.773 48.7911 110.733 48.922 110.674C49.9695 110.184 50.8331 106.627 55.603 104.85C56.4978 104.523 57.4549 104.286 58.811 103.937C59.7868 103.703 60.1297 105.124 59.1976 105.377C57.2927 105.873 56.2764 106.085 55.0263 106.755C51.2103 108.735 51.3195 111.201 49.5424 112.027C49.1184 112.214 48.6944 112.37 48.3016 112.37Z" fill="white"/>
<path d="M104.265 140.288C106.594 130.53 106.953 120.086 105.291 110.129C105.113 109.066 105.774 108.084 106.672 108.105C113.883 108.274 121.322 107.644 128.289 105.446C129.315 105.122 130.222 106.272 129.951 107.513C127.46 119.011 126.637 131.387 126.855 143.294C126.88 144.575 125.777 145.404 124.835 144.818C119.058 141.223 112.259 140.391 105.949 142.343C104.911 142.664 103.966 141.532 104.262 140.288H104.265Z" fill="#23B882"/>
<path d="M119.055 137.188C113.483 133.721 106.993 132.87 100.782 134.79C99.208 135.283 97.7147 133.687 98.1512 131.85C100.461 122.174 100.814 111.848 99.1675 101.987C98.915 100.485 99.9126 99.0566 101.3 99.0972C109.474 99.2905 116.47 98.43 122.677 96.4753C124.283 95.9671 125.673 97.6381 125.29 99.4121C123.008 109.946 121.969 121.927 122.213 135.021C122.247 136.935 120.473 138.07 119.055 137.191V137.188ZM119.84 135.922C120.308 136.215 120.735 135.641 120.722 135.043C120.479 121.837 121.527 109.741 123.834 99.0941C123.962 98.508 123.628 97.7504 123.123 97.8907C116.76 99.8984 109.605 100.778 101.266 100.584C100.751 100.631 100.555 101.251 100.636 101.744C102.313 111.798 101.955 122.326 99.6009 132.197C99.4512 132.826 99.8534 133.525 100.343 133.369C106.771 131.38 113.723 132.115 119.843 135.925L119.84 135.922Z" fill="white"/>
<path d="M10.7393 10.1757C10.3277 10.1632 10.0035 9.82025 10.016 9.40873C10.0284 9.00032 10.387 8.65427 10.7798 8.68545C23.7427 9.05644 36.6713 7.60988 49.2227 4.38318C49.6217 4.2803 50.027 4.52036 50.1299 4.91941C50.2328 5.31534 49.9927 5.72063 49.5937 5.82351C36.9488 9.07514 23.9017 10.5466 10.7393 10.1725V10.1757Z" fill="white"/>
<path d="M19.2723 4.56178C18.8702 4.47761 18.6114 4.08479 18.6956 3.68262C18.7797 3.27734 19.1726 3.00923 19.5747 3.10587C25.0554 4.24379 30.9321 3.72939 36.1229 1.6562C36.5032 1.50967 36.9365 1.69049 37.0893 2.07083C37.2421 2.4543 37.055 2.88764 36.6747 3.03728C31.3405 5.16347 25.1646 5.78699 19.2723 4.56178Z" fill="white"/>
<path d="M76.2865 117.227C75.5414 115.126 76.2148 111.909 74.4596 110.755C72.4207 109.415 69.6523 112.136 67.3016 112.822C63.5636 113.919 59.4827 111.017 58.3355 107.691C57.3316 104.791 58.9309 101.907 62.8373 99.5661C67.7568 96.6231 73.9514 95.8905 79.4197 97.6114C79.8125 97.7361 80.0307 98.1507 79.906 98.5435C79.7813 98.9332 79.3698 99.1514 78.9707 99.0299C73.9078 97.4368 68.159 98.1133 63.6011 100.841C61.7274 101.964 58.7314 104.283 59.7415 107.204C60.6518 109.842 63.9689 112.239 66.8839 111.394C68.0904 111.042 69.2938 110.157 70.5377 109.574C72.3303 108.735 74.0574 108.71 75.2795 109.511C77.8453 111.195 76.9537 114.633 77.6925 116.731C78.6559 119.459 82.0291 120.32 84.1864 118.54C84.5044 118.278 84.9752 118.325 85.234 118.643C85.4958 118.961 85.4491 119.428 85.1311 119.69C82.1351 122.15 77.5772 120.865 76.2896 117.227H76.2865Z" fill="white"/>
<path d="M65.2524 102.098C67.815 100.436 69.2117 101.415 70.1937 104.19C70.9232 106.247 70.6801 107.127 68.4635 108.208C67.5282 108.664 66.5461 109.131 65.508 109.103C64.2672 109.069 63.0825 108.258 62.6024 107.114C62.1847 106.113 62.5931 104.838 63.1012 103.937C63.5439 103.152 64.4979 102.587 65.2524 102.098Z" fill="white"/>
<path d="M65.485 109.845C63.9449 109.801 62.5108 108.819 61.9153 107.401C61.2918 105.914 62.0837 104.224 62.4516 103.569C62.9691 102.646 63.9729 102.032 64.8459 101.471C66.1521 100.626 67.2682 100.355 68.2627 100.661C69.7093 101.094 70.3827 102.494 70.894 103.94C71.7482 106.353 71.3554 107.619 68.7896 108.875C67.7889 109.362 66.6572 109.889 65.485 109.842V109.845ZM65.6564 102.718C64.6838 103.345 64.0509 103.763 63.7485 104.299C63.3276 105.047 62.9847 106.104 63.2871 106.824C63.6549 107.7 64.5746 108.33 65.5255 108.355C66.4265 108.42 67.3243 107.931 68.1349 107.538C69.9743 106.637 70.1021 106.166 69.4911 104.436C68.6587 102.088 67.792 101.334 65.6564 102.718Z" fill="white"/>
<path d="M33.4578 48.701C33.4578 49.9979 33.2864 51.1951 32.9465 52.2987C32.6067 53.4023 32.1266 54.3657 31.5156 55.1887C30.9014 56.0118 30.1719 56.6509 29.327 57.106C28.4822 57.5612 27.5594 57.7888 26.5648 57.7888C25.5703 57.7888 24.6319 57.5612 23.7933 57.106C22.9547 56.6509 22.2283 56.0118 21.6141 55.1887C21 54.3657 20.523 53.4023 20.1832 52.2987C19.8433 51.1982 19.6719 49.9979 19.6719 48.701C19.6719 47.4041 19.8433 46.182 20.1832 45.0784C20.523 43.9779 21.0031 43.0177 21.6141 42.2009C22.2283 41.3841 22.9547 40.7512 23.7933 40.296C24.6319 39.8409 25.5579 39.6133 26.5648 39.6133C27.5718 39.6133 28.4822 39.8409 29.327 40.296C30.1719 40.7512 30.9014 41.3841 31.5156 42.2009C32.1297 43.0177 32.6067 43.9748 32.9465 45.0784C33.2864 46.182 33.4578 47.3885 33.4578 48.701ZM31.6964 48.701C31.6964 47.3231 31.475 46.101 31.0323 45.041C30.5896 43.981 29.9848 43.1486 29.221 42.5438C28.4572 41.939 27.5687 41.6366 26.5617 41.6366C25.5548 41.6366 24.6631 41.939 23.89 42.5438C23.1199 43.1486 22.5151 43.981 22.0786 45.041C21.6422 46.101 21.424 47.3199 21.424 48.701C21.424 50.0821 21.6422 51.2793 22.0786 52.3486C22.5151 53.4179 23.1199 54.2534 23.89 54.8583C24.66 55.4631 25.5516 55.7655 26.5617 55.7655C27.5718 55.7655 28.4572 55.4631 29.221 54.8583C29.9848 54.2534 30.5896 53.4148 31.0323 52.3486C31.475 51.2793 31.6964 50.0634 31.6964 48.701Z" fill="white"/>
<path fill-rule="evenodd" clip-rule="evenodd" d="M31.7557 55.3668L31.7552 55.3673C31.1168 56.2229 30.3545 56.892 29.4685 57.3694C28.5782 57.849 27.6062 58.088 26.5641 58.088C25.5229 58.088 24.5348 57.8495 23.6494 57.3689C22.7698 56.8915 22.011 56.2225 21.3729 55.3673C20.7358 54.5136 20.2443 53.5186 19.8957 52.3862C19.5461 51.254 19.3711 50.0236 19.3711 48.7002C19.3711 47.3773 19.546 46.1251 19.8957 44.9893L19.8957 44.9891C20.2446 43.8593 20.7394 42.8675 21.3731 42.0204L21.3736 42.0198C22.012 41.1707 22.7708 40.5085 23.6494 40.0316C24.5346 39.5512 25.5101 39.3125 26.5641 39.3125C27.619 39.3125 28.5785 39.5516 29.4685 40.0311C30.3536 40.508 31.1158 41.1702 31.7546 42.0198C32.3919 42.8675 32.8837 43.8566 33.2325 44.9893C33.5821 46.1249 33.757 47.3615 33.757 48.7002C33.757 50.0238 33.582 51.251 33.2325 52.3862C32.8836 53.5191 32.389 54.5137 31.7557 55.3668ZM31.3956 48.7002C31.3956 47.3541 31.1794 46.1726 30.7547 45.1558C30.3282 44.1346 29.7516 43.3464 29.034 42.7782C28.3253 42.217 27.503 41.9358 26.5609 41.9358C25.6191 41.9358 24.7931 42.2169 24.0743 42.7791C23.3513 43.347 22.7753 44.1344 22.3553 45.1544C21.9364 46.1716 21.7232 47.3506 21.7232 48.7002C21.7232 50.049 21.9361 51.2067 22.3556 52.2345C22.7758 53.2639 23.3519 54.054 24.0745 54.6215C24.7898 55.1834 25.6156 55.4647 26.5609 55.4647C27.506 55.4647 28.3252 55.1835 29.034 54.6223C29.7509 54.0546 30.3277 53.2607 30.7545 52.2328C31.1796 51.2057 31.3956 50.03 31.3956 48.7002ZM23.8892 42.543C24.6623 41.9382 25.554 41.6358 26.5609 41.6358C27.5679 41.6358 28.4564 41.9382 29.2202 42.543C29.9841 43.1478 30.5889 43.9802 31.0316 45.0402C31.4743 46.1002 31.6956 47.3223 31.6956 48.7002C31.6956 50.0626 31.4743 51.2785 31.0316 52.3478C30.5889 53.414 29.9841 54.2527 29.2202 54.8575C28.4564 55.4623 27.571 55.7647 26.5609 55.7647C25.5509 55.7647 24.6592 55.4623 23.8892 54.8575C23.1191 54.2527 22.5143 53.4172 22.0779 52.3478C21.6414 51.2785 21.4232 50.0813 21.4232 48.7002C21.4232 47.3192 21.6414 46.1002 22.0779 45.0402C22.5143 43.9802 23.1191 43.1478 23.8892 42.543ZM32.9458 52.2979C33.2856 51.1943 33.457 49.9972 33.457 48.7002C33.457 47.3877 33.2856 46.1812 32.9458 45.0776C32.6059 43.974 32.1289 43.0169 31.5148 42.2001C30.9006 41.3833 30.1711 40.7504 29.3262 40.2953C28.4814 39.8401 27.571 39.6125 26.5641 39.6125C25.5571 39.6125 24.6312 39.8401 23.7925 40.2953C22.9539 40.7504 22.2275 41.3833 21.6133 42.2001C21.0023 43.0169 20.5222 43.9771 20.1824 45.0776C19.8426 46.1812 19.6711 47.4033 19.6711 48.7002C19.6711 49.9972 19.8426 51.1974 20.1824 52.2979C20.5222 53.4016 20.9992 54.3649 21.6133 55.1879C22.2275 56.011 22.9539 56.6501 23.7925 57.1052C24.6312 57.5604 25.5696 57.788 26.5641 57.788C27.5586 57.788 28.4814 57.5604 29.3262 57.1052C30.1711 56.6501 30.9006 56.011 31.5148 55.1879C32.1258 54.3649 32.6059 53.4016 32.9458 52.2979Z" fill="white"/>
<path d="M37.0175 57.5345C36.7712 57.5345 36.5717 57.4348 36.4127 57.2321C36.2568 57.0295 36.1758 56.7863 36.1758 56.4995V40.8773C36.1758 40.5905 36.2537 40.3504 36.4127 40.1571C36.5686 39.9638 36.765 39.8672 36.9957 39.8672H44.1786C44.4093 39.8672 44.6088 39.9607 44.771 40.1447C44.9331 40.3286 45.0172 40.5655 45.0172 40.8523C45.0172 41.1205 44.9362 41.348 44.771 41.5351C44.6057 41.719 44.4093 41.8126 44.1786 41.8126H37.7315L37.853 41.6099V47.7921L37.7502 47.5146H43.2558C43.4865 47.5146 43.686 47.6113 43.8481 47.8046C44.0103 47.9978 44.0944 48.2379 44.0944 48.5247C44.0944 48.7772 44.0134 49.0017 43.8481 49.195C43.6829 49.3883 43.4865 49.4849 43.2558 49.4849H37.7096L37.853 49.2573V56.4995C37.853 56.7863 37.772 57.0295 37.6068 57.2321C37.4446 57.4348 37.2451 57.5345 37.0144 57.5345H37.0175Z" fill="white"/>
<path fill-rule="evenodd" clip-rule="evenodd" d="M36.1759 57.4165L36.1741 57.4143C35.9747 57.155 35.875 56.8462 35.875 56.4987V40.8765C35.875 40.5327 35.9697 40.2223 36.1793 39.9669C36.388 39.7087 36.6677 39.5664 36.9949 39.5664H44.1778C44.5007 39.5664 44.7803 39.7016 44.9952 39.9455C45.2124 40.1919 45.3165 40.5026 45.3165 40.8516C45.3165 41.1856 45.2133 41.4858 44.995 41.7329L44.9933 41.7348C44.7773 41.9753 44.5023 42.1118 44.1778 42.1118H38.1523V47.2138H43.255C43.5821 47.2138 43.8632 47.3558 44.0772 47.611C44.2893 47.8639 44.3937 48.1742 44.3937 48.5239C44.3937 48.8467 44.2879 49.1406 44.0754 49.3891C43.8602 49.6409 43.5837 49.7841 43.255 49.7841H38.1523V56.4987C38.1523 56.8461 38.0524 57.158 37.8394 57.4198C37.6273 57.6843 37.3463 57.8328 37.0167 57.8337M37.606 57.2313C37.7712 57.0287 37.8523 56.7855 37.8523 56.4987V49.4841H43.255C43.4857 49.4841 43.6821 49.3875 43.8474 49.1942C44.0126 49.0009 44.0937 48.7765 44.0937 48.5239C44.0937 48.2371 44.0095 47.9971 43.8474 47.8038C43.6853 47.6105 43.4857 47.5138 43.255 47.5138H37.8523V41.8118H44.1778C44.4085 41.8118 44.6049 41.7183 44.7702 41.5343C44.9354 41.3473 45.0165 41.1197 45.0165 40.8516C45.0165 40.5647 44.9323 40.3278 44.7702 40.1439C44.6081 39.9599 44.4085 39.8664 44.1778 39.8664H36.9949C36.7642 39.8664 36.5678 39.9631 36.4119 40.1563C36.2529 40.3496 36.175 40.5897 36.175 40.8765V56.4987C36.175 56.7855 36.2561 57.0287 36.4119 57.2313C36.5703 57.4331 36.7688 57.5329 37.0136 57.5337M36.1759 57.4165C36.3881 57.687 36.6718 57.8329 37.0136 57.8337L36.1759 57.4165ZM37.606 57.2313C37.4446 57.4331 37.2461 57.5328 37.0167 57.5337L37.606 57.2313Z" fill="white"/>
<path d="M48.5761 57.5345C48.3298 57.5345 48.1303 57.4348 47.9713 57.2321C47.8154 57.0295 47.7344 56.7863 47.7344 56.4995V40.8773C47.7344 40.5905 47.8123 40.3504 47.9713 40.1571C48.1272 39.9638 48.3236 39.8672 48.5543 39.8672H55.7372C55.9679 39.8672 56.1674 39.9607 56.3295 40.1447C56.4917 40.3286 56.5758 40.5655 56.5758 40.8523C56.5758 41.1205 56.4948 41.348 56.3295 41.5351C56.1643 41.719 55.9679 41.8126 55.7372 41.8126H49.29L49.4116 41.6099V47.7921L49.3088 47.5146H54.8144C55.0451 47.5146 55.2446 47.6113 55.4067 47.8046C55.5689 47.9978 55.653 48.2379 55.653 48.5247C55.653 48.7772 55.572 49.0017 55.4067 49.195C55.2415 49.3883 55.0451 49.4849 54.8144 49.4849H49.2682L49.4116 49.2573V56.4995C49.4116 56.7863 49.3306 57.0295 49.1653 57.2321C49.0032 57.4348 48.8037 57.5345 48.573 57.5345H48.5761Z" fill="white"/>
<path fill-rule="evenodd" clip-rule="evenodd" d="M47.7384 57.4165L47.7366 57.4143C47.5372 57.155 47.4375 56.8462 47.4375 56.4987V40.8765C47.4375 40.5327 47.5322 40.2223 47.7418 39.9669C47.9505 39.7087 48.2302 39.5664 48.5574 39.5664H55.7403C56.0632 39.5664 56.3428 39.7016 56.5577 39.9455C56.7749 40.1919 56.879 40.5026 56.879 40.8516C56.879 41.1856 56.7758 41.4858 56.5575 41.7329L56.5558 41.7348C56.3398 41.9753 56.0648 42.1118 55.7403 42.1118H49.7148V47.2138H54.8175C55.1446 47.2138 55.4257 47.3558 55.6397 47.611C55.8518 47.8639 55.9562 48.1742 55.9562 48.5239C55.9562 48.8467 55.8504 49.1406 55.6379 49.3891C55.4227 49.6409 55.1462 49.7841 54.8175 49.7841H49.7148V56.4987C49.7148 56.8461 49.6149 57.158 49.4019 57.4198C49.1898 57.6843 48.9088 57.8328 48.5792 57.8337M49.1685 57.2313C49.3337 57.0287 49.4148 56.7855 49.4148 56.4987V49.4841H54.8175C55.0482 49.4841 55.2446 49.3875 55.4099 49.1942C55.5751 49.0009 55.6562 48.7765 55.6562 48.5239C55.6562 48.2371 55.572 47.9971 55.4099 47.8038C55.2478 47.6105 55.0482 47.5138 54.8175 47.5138H49.4148V41.8118H55.7403C55.971 41.8118 56.1674 41.7183 56.3327 41.5343C56.4979 41.3473 56.579 41.1197 56.579 40.8516C56.579 40.5647 56.4948 40.3278 56.3327 40.1439C56.1706 39.9599 55.971 39.8664 55.7403 39.8664H48.5574C48.3267 39.8664 48.1303 39.9631 47.9744 40.1563C47.8154 40.3496 47.7375 40.5897 47.7375 40.8765V56.4987C47.7375 56.7855 47.8186 57.0287 47.9744 57.2313C48.1328 57.4331 48.3313 57.5329 48.5761 57.5337M47.7384 57.4165C47.9506 57.687 48.2343 57.8329 48.5761 57.8337L47.7384 57.4165ZM49.1685 57.2313C49.0071 57.4331 48.8086 57.5328 48.5792 57.5337L49.1685 57.2313Z" fill="white"/>
<path d="M72.8257 55.5393C73.0564 55.5393 73.256 55.6359 73.4181 55.8292C73.5802 56.0225 73.6644 56.2625 73.6644 56.5494C73.6644 56.8362 73.5833 57.07 73.4181 57.2571C73.256 57.441 73.0564 57.5345 72.8257 57.5345H65.7457C65.515 57.5345 65.3186 57.4348 65.1627 57.2321C65.0068 57.0295 64.9258 56.7863 64.9258 56.4995V40.8773C64.9258 40.5905 65.0068 40.3504 65.1721 40.1571C65.3342 39.9638 65.5399 39.8672 65.7862 39.8672C66.0169 39.8672 66.2165 39.9638 66.3786 40.1571C66.5407 40.3504 66.6249 40.5905 66.6249 40.8773V55.9944L66.2165 55.5393H72.8257Z" fill="white"/>
<path fill-rule="evenodd" clip-rule="evenodd" d="M72.8249 55.5385C73.0557 55.5385 73.2552 55.6351 73.4173 55.8284C73.5794 56.0217 73.6636 56.2618 73.6636 56.5486C73.6636 56.8354 73.5825 57.0692 73.4173 57.2563C73.2552 57.4402 73.0557 57.5337 72.8249 57.5337H65.7449C65.5142 57.5337 65.3178 57.434 65.1619 57.2313C65.0061 57.0287 64.925 56.7855 64.925 56.4987V40.8765C64.925 40.5897 65.0061 40.3496 65.1713 40.1563C65.3334 39.9631 65.5392 39.8664 65.7855 39.8664C66.0162 39.8664 66.2157 39.9631 66.3778 40.1563C66.5399 40.3496 66.6241 40.5897 66.6241 40.8765V55.5385H72.8249ZM66.9241 55.2385H72.8249C73.152 55.2385 73.4332 55.3805 73.6472 55.6356C73.8592 55.8885 73.9636 56.1989 73.9636 56.5486C73.9636 56.8965 73.8632 57.2046 73.6421 57.4549C73.6421 57.455 73.6422 57.4548 73.6421 57.4549M66.9241 55.2385V40.8765C66.9241 40.5268 66.8197 40.2164 66.6077 39.9636C66.3937 39.7084 66.1125 39.5664 65.7855 39.5664C65.4491 39.5664 65.1602 39.7033 64.9423 39.9625C64.7246 40.2178 64.625 40.5298 64.625 40.8765V56.4987C64.625 56.8462 64.7247 57.1549 64.9241 57.4142C65.1316 57.6839 65.4129 57.8337 65.7449 57.8337H72.8249C73.1477 57.8337 73.4272 57.6986 73.6421 57.4549" fill="white"/>
<path d="M77.7186 56.4995C77.7186 56.7863 77.6344 57.0295 77.463 57.2321C77.2915 57.4348 77.092 57.5345 76.8582 57.5345C76.5994 57.5345 76.3936 57.4348 76.244 57.2321C76.0944 57.0295 76.0195 56.7863 76.0195 56.4995V40.9022C76.0195 40.5998 76.1006 40.3504 76.2658 40.1571C76.4279 39.9638 76.6337 39.8672 76.88 39.8672C77.1107 39.8672 77.3102 39.9638 77.4723 40.1571C77.6344 40.3504 77.7186 40.5998 77.7186 40.9022V56.4995Z" fill="white"/>
<path fill-rule="evenodd" clip-rule="evenodd" d="M78.0178 56.4987C78.0178 56.8495 77.9128 57.1632 77.6912 57.4251C77.4714 57.6849 77.192 57.8337 76.8574 57.8337C76.5085 57.8337 76.2111 57.6928 76.0019 57.4095C75.8092 57.1486 75.7188 56.8408 75.7188 56.4987V40.9014C75.7188 40.544 75.8157 40.2209 76.0361 39.9625C76.2539 39.7033 76.5429 39.5664 76.8792 39.5664C77.2063 39.5664 77.4874 39.7084 77.7014 39.9636C77.9162 40.2197 78.0178 40.541 78.0178 40.9014V56.4987ZM76.265 40.1563C76.0998 40.3496 76.0188 40.599 76.0188 40.9014V56.4987C76.0188 56.7855 76.0936 57.0287 76.2432 57.2313C76.3929 57.434 76.5986 57.5337 76.8574 57.5337C77.0912 57.5337 77.2907 57.434 77.4622 57.2313C77.6337 57.0287 77.7178 56.7855 77.7178 56.4987V40.9014C77.7178 40.599 77.6337 40.3496 77.4715 40.1563C77.3094 39.9631 77.1099 39.8664 76.8792 39.8664C76.6329 39.8664 76.4272 39.9631 76.265 40.1563Z" fill="white"/>
<path d="M91.9193 39.8672C92.15 39.8672 92.3339 39.9545 92.4711 40.1322C92.6083 40.3099 92.6769 40.5312 92.6769 40.8025V56.4745C92.6769 56.7957 92.5958 57.0513 92.4306 57.2446C92.2653 57.4379 92.0689 57.5345 91.8382 57.5345C91.7167 57.5345 91.592 57.5065 91.4704 57.4472C91.3488 57.388 91.2521 57.3069 91.1835 57.2072L82.4263 42.9224L82.8347 42.62V56.6024C82.8347 56.8705 82.763 57.0949 82.6196 57.2726C82.4761 57.4503 82.2891 57.5376 82.0553 57.5376C81.837 57.5376 81.6593 57.4503 81.5222 57.2726C81.385 57.0949 81.3164 56.8736 81.3164 56.6024V40.8804C81.3164 40.578 81.3943 40.3348 81.5533 40.1478C81.7092 39.9638 81.8963 39.8703 82.1176 39.8703C82.2392 39.8703 82.367 39.8984 82.4949 39.9576C82.6258 40.0168 82.7224 40.1041 82.791 40.2226L91.4267 54.3047L91.1617 54.71V40.8056C91.1617 40.5375 91.2334 40.313 91.3768 40.1353C91.5202 39.9576 91.7011 39.8703 91.9193 39.8703V39.8672Z" fill="white"/>
<path fill-rule="evenodd" clip-rule="evenodd" d="M91.6185 39.5664H91.9185C92.2376 39.5664 92.5111 39.6932 92.7078 39.9481C92.893 40.188 92.9761 40.4774 92.9761 40.8017V56.4738C92.9761 56.8461 92.8811 57.1775 92.6578 57.4387C92.4426 57.6905 92.1662 57.8337 91.8375 57.8337C91.669 57.8337 91.4995 57.7947 91.3382 57.7161C91.1753 57.6368 91.0366 57.5234 90.9356 57.3763L90.9311 57.3699L83.1339 44.6512V56.6016C83.1339 56.9253 83.0462 57.2199 82.8522 57.4603C82.6498 57.7111 82.3757 57.8369 82.0545 57.8369C81.7418 57.8369 81.4769 57.7052 81.2839 57.4552C81.0987 57.2153 81.0156 56.9258 81.0156 56.6016V40.8796C81.0156 40.5241 81.1084 40.2063 81.324 39.9527C81.5296 39.71 81.7967 39.5695 82.1168 39.5695C82.2846 39.5695 82.4549 39.6082 82.619 39.6841C82.8034 39.7678 82.9472 39.8959 83.0478 40.0679L90.8609 52.8087V40.8048C90.8609 40.4811 90.9487 40.1864 91.1426 39.9461C91.2738 39.7835 91.4344 39.6712 91.6185 39.6138V39.5664ZM91.1609 53.2979V53.8718L82.7902 40.2218M82.8339 43.5878V44.1618V43.5878Z" fill="white"/>
<path d="M97.0738 39.8672H104.36C104.59 39.8672 104.79 39.9607 104.952 40.1447C105.114 40.3286 105.198 40.5655 105.198 40.8523C105.198 41.1392 105.117 41.3699 104.952 41.5476C104.787 41.7253 104.59 41.8126 104.36 41.8126H97.7691L97.953 41.3823V47.7671L97.7472 47.4897H103.437C103.668 47.4897 103.867 47.5832 104.029 47.7671C104.191 47.9511 104.275 48.188 104.275 48.4748C104.275 48.7616 104.194 48.9923 104.029 49.17C103.864 49.3477 103.668 49.435 103.437 49.435H97.8096L97.953 49.2075V55.745L97.8314 55.5673H104.36C104.59 55.5673 104.79 55.6671 104.952 55.8697C105.114 56.0724 105.198 56.3 105.198 56.5525C105.198 56.8393 105.117 57.0731 104.952 57.2602C104.79 57.4441 104.59 57.5376 104.36 57.5376H97.0738C96.8431 57.5376 96.6467 57.4379 96.4908 57.2352C96.335 57.0326 96.2539 56.7894 96.2539 56.5026V40.8804C96.2539 40.5936 96.3318 40.3535 96.4908 40.1602C96.6467 39.967 96.8431 39.8703 97.0738 39.8703V39.8672Z" fill="white"/>
<path fill-rule="evenodd" clip-rule="evenodd" d="M96.7731 39.5664H104.359C104.682 39.5664 104.961 39.7016 105.176 39.9455C105.393 40.1919 105.497 40.5026 105.497 40.8516C105.497 41.1986 105.397 41.5074 105.171 41.7511C104.952 41.9868 104.677 42.1118 104.359 42.1118H98.2522V47.1889H103.436C103.759 47.1889 104.038 47.3241 104.253 47.568C104.471 47.8144 104.575 48.1251 104.575 48.474C104.575 48.8211 104.475 49.1299 104.248 49.3735C104.029 49.6093 103.754 49.7343 103.436 49.7343H98.2522V55.2665H104.359C104.69 55.2665 104.973 55.4155 105.185 55.6815C105.387 55.9337 105.497 56.2265 105.497 56.5517C105.497 56.8996 105.397 57.2077 105.176 57.458C105.176 57.4581 105.176 57.4579 105.176 57.458C104.961 57.7017 104.682 57.8369 104.359 57.8369H97.0731C96.741 57.8369 96.4597 57.6871 96.2523 57.4174C96.0528 57.1581 95.9531 56.8493 95.9531 56.5018V40.8796C95.9531 40.5358 96.0478 40.2254 96.2575 39.97C96.2571 39.9704 96.2568 39.9708 96.2565 39.9711L96.4901 40.1595L96.2584 39.9689C96.2581 39.9693 96.2578 39.9696 96.2575 39.97C96.3991 39.7948 96.5734 39.673 96.7731 39.6127V39.5664ZM98.1941 55.5665H98.2522H98.1941ZM98.1941 55.5665H97.9522V49.4343H103.436C103.667 49.4343 103.863 49.347 104.028 49.1693C104.194 48.9916 104.275 48.7609 104.275 48.474C104.275 48.1872 104.19 47.9503 104.028 47.7664C103.866 47.5824 103.667 47.4889 103.436 47.4889H97.9522V41.8118H104.359C104.59 41.8118 104.786 41.7245 104.951 41.5468C105.116 41.3691 105.197 41.1384 105.197 40.8516C105.197 40.5647 105.113 40.3278 104.951 40.1439C104.789 39.9599 104.59 39.8664 104.359 39.8664H97.0731V39.8695" fill="white"/>
</g>
<defs>
<clipPath id="clip0_15079_63777">
<rect width="130" height="144.12" fill="white" transform="translate(0 0.894531)"/>
</clipPath>
</defs>
</svg>
