<svg width="22" height="23" viewBox="0 0 22 23" fill="none" xmlns="http://www.w3.org/2000/svg">
    <style>
        .point{stroke: 18181d;}
    </style>
    <g opacity="0.7">
        <path class="point" d="M11.9166 4.58724C11.9166 5.59976 9.65935 6.42057 6.87492 6.42057C4.09048 6.42057 1.83325 5.59976 1.83325 4.58724M11.9166 4.58724C11.9166 3.57472 9.65935 2.75391 6.87492 2.75391C4.09048 2.75391 1.83325 3.57472 1.83325 4.58724M11.9166 4.58724V5.96224M1.83325 4.58724V15.5872C1.83325 16.5998 4.09048 17.4206 6.87492 17.4206M6.87492 10.0872C6.72042 10.0872 6.56754 10.0847 6.41658 10.0798C3.84694 9.99556 1.83325 9.21025 1.83325 8.25391M6.87492 13.7539C4.09048 13.7539 1.83325 12.9331 1.83325 11.9206M20.1666 10.5456C20.1666 11.5581 17.9094 12.3789 15.1249 12.3789C12.3405 12.3789 10.0833 11.5581 10.0833 10.5456M20.1666 10.5456C20.1666 9.53305 17.9094 8.71224 15.1249 8.71224C12.3405 8.71224 10.0833 9.53305 10.0833 10.5456M20.1666 10.5456V17.4206C20.1666 18.4331 17.9094 19.2539 15.1249 19.2539C12.3405 19.2539 10.0833 18.4331 10.0833 17.4206V10.5456M20.1666 13.9831C20.1666 14.9956 17.9094 15.8164 15.1249 15.8164C12.3405 15.8164 10.0833 14.9956 10.0833 13.9831" stroke="#18181D" stroke-width="1.84701" stroke-linecap="round" stroke-linejoin="round"/>
    </g>
</svg>
