<svg width="41" height="41" viewBox="0 0 41 41" fill="none" xmlns="http://www.w3.org/2000/svg">
<g opacity="0.6">
<path d="M5.74746 31.5307C5.10964 32.1685 5.10964 33.2026 5.74746 33.8404C6.38529 34.4783 7.4194 34.4783 8.05723 33.8404L5.74746 31.5307ZM14.4023 25.1855L15.5572 24.0307C14.9194 23.3928 13.8853 23.3928 13.2475 24.0307L14.4023 25.1855ZM18.1523 28.9355L16.9975 30.0904C17.6353 30.7283 18.6694 30.7283 19.3072 30.0904L18.1523 28.9355ZM26.5898 20.498L27.7447 19.3432C27.1069 18.7053 26.0728 18.7053 25.435 19.3432L26.5898 20.498ZM32.935 29.1529C33.5728 29.7908 34.6069 29.7908 35.2447 29.1529C35.8825 28.5151 35.8825 27.481 35.2447 26.8432L32.935 29.1529ZM8.05723 33.8404L15.5572 26.3404L13.2475 24.0307L5.74746 31.5307L8.05723 33.8404ZM13.2475 26.3404L16.9975 30.0904L19.3072 27.7807L15.5572 24.0307L13.2475 26.3404ZM19.3072 30.0904L27.7447 21.6529L25.435 19.3432L16.9975 27.7807L19.3072 30.0904ZM25.435 21.6529L32.935 29.1529L35.2447 26.8432L27.7447 19.3432L25.435 21.6529ZM10.6523 7.1313H29.4023V3.8648H10.6523V7.1313ZM33.3941 11.123V29.873H36.6606V11.123H33.3941ZM29.4023 33.8648H10.6523V37.1313H29.4023V33.8648ZM6.66059 29.873V11.123H3.39409V29.873H6.66059ZM10.6523 33.8648C8.44776 33.8648 6.66059 32.0776 6.66059 29.873H3.39409C3.39409 33.8817 6.64372 37.1313 10.6523 37.1313V33.8648ZM33.3941 29.873C33.3941 32.0776 31.6069 33.8648 29.4023 33.8648V37.1313C33.411 37.1313 36.6606 33.8817 36.6606 29.873H33.3941ZM29.4023 7.1313C31.6069 7.1313 33.3941 8.91846 33.3941 11.123H36.6606C36.6606 7.11443 33.411 3.8648 29.4023 3.8648V7.1313ZM10.6523 3.8648C6.64372 3.8648 3.39409 7.11443 3.39409 11.123H6.66059C6.66059 8.91846 8.44776 7.1313 10.6523 7.1313V3.8648ZM14.6441 13.9355C14.6441 14.5868 14.1161 15.1148 13.4648 15.1148V18.3813C15.9202 18.3813 17.9106 16.3909 17.9106 13.9355H14.6441ZM13.4648 15.1148C12.8136 15.1148 12.2856 14.5868 12.2856 13.9355H9.01909C9.01909 16.3909 11.0095 18.3813 13.4648 18.3813V15.1148ZM12.2856 13.9355C12.2856 13.2843 12.8136 12.7563 13.4648 12.7563V9.4898C11.0095 9.4898 9.01909 11.4802 9.01909 13.9355H12.2856ZM13.4648 12.7563C14.1161 12.7563 14.6441 13.2843 14.6441 13.9355H17.9106C17.9106 11.4802 15.9202 9.4898 13.4648 9.4898V12.7563Z" fill="#18181D"/>
</g>
</svg>
