<svg width="41" height="41" viewBox="0 0 41 41" fill="none" xmlns="http://www.w3.org/2000/svg">
<g opacity="0.6">
<path d="M5.02734 32.1654H5.04734M11.694 32.1654C11.694 30.3973 10.9916 28.7016 9.74139 27.4513C8.49115 26.2011 6.79545 25.4987 5.02734 25.4987M18.3607 32.1654C18.3607 28.6291 16.9559 25.2378 14.4554 22.7373C11.9549 20.2368 8.56356 18.832 5.02734 18.832M25.0273 32.1654H30.0273C31.3534 32.1654 32.6252 31.6386 33.5629 30.7009C34.5006 29.7632 35.0273 28.4914 35.0273 27.1654V13.832C35.0273 12.5059 34.5006 11.2342 33.5629 10.2965C32.6252 9.35882 31.3534 8.83203 30.0273 8.83203H10.0273C9.00147 8.84177 8.00343 9.16684 7.16861 9.76314C6.33379 10.3594 5.7026 11.1981 5.36068 12.1654" stroke="#18181D" stroke-width="3.36327" stroke-linecap="round" stroke-linejoin="round"/>
</g>
</svg>
