<svg width="23" height="23" viewBox="0 0 23 23" fill="none" xmlns="http://www.w3.org/2000/svg">
    <style>
        .setting{stroke:#18181d;)
    </style>
    <g>
        <path class="setting" fill-rule="evenodd" clip-rule="evenodd" d="M13.2866 4.61088C12.8947 3.0021 10.6053 3.0021 10.2134 4.61088C10.1549 4.85262 10.0401 5.07714 9.87845 5.26616C9.71678 5.45517 9.51277 5.60335 9.28301 5.69863C9.05326 5.7939 8.80425 5.83359 8.55626 5.81446C8.30827 5.79532 8.0683 5.71791 7.85588 5.58852C6.44096 4.72638 4.82185 6.34547 5.684 7.76036C6.24089 8.67407 5.74691 9.86621 4.70737 10.1189C3.09754 10.5097 3.09754 12.8002 4.70737 13.19C4.94919 13.2486 5.17375 13.3634 5.36276 13.5252C5.55178 13.687 5.69992 13.8912 5.79511 14.121C5.8903 14.3509 5.92985 14.6 5.91054 14.8481C5.89123 15.0961 5.81361 15.3361 5.684 15.5485C4.82185 16.9634 6.44096 18.5825 7.85588 17.7203C8.06826 17.5907 8.30825 17.5131 8.55631 17.4938C8.80437 17.4745 9.05348 17.514 9.28336 17.6092C9.51324 17.7044 9.71739 17.8525 9.87918 18.0416C10.041 18.2306 10.1558 18.4551 10.2144 18.6969C10.6053 20.3067 12.8958 20.3067 13.2856 18.6969C13.3444 18.4553 13.4593 18.2309 13.6212 18.042C13.783 17.8531 13.9871 17.705 14.2169 17.6099C14.4467 17.5147 14.6957 17.4751 14.9437 17.4943C15.1917 17.5135 15.4317 17.591 15.6441 17.7203C17.059 18.5825 18.6782 16.9634 17.816 15.5485C17.6866 15.3361 17.6092 15.0961 17.59 14.8481C17.5708 14.6001 17.6104 14.3511 17.7056 14.1213C17.8007 13.8915 17.9488 13.6874 18.1376 13.5256C18.3265 13.3637 18.5509 13.2488 18.7926 13.19C20.4025 12.7991 20.4025 10.5087 18.7926 10.1189C18.5508 10.0603 18.3263 9.94543 18.1372 9.78363C17.9482 9.62184 17.8001 9.4177 17.7049 9.18782C17.6097 8.95795 17.5702 8.70884 17.5895 8.46078C17.6088 8.21273 17.6864 7.97274 17.816 7.76036C18.6782 6.34547 17.059 4.72638 15.6441 5.58852C15.4317 5.71813 15.1917 5.79575 14.9437 5.81506C14.6956 5.83436 14.4465 5.79481 14.2166 5.69963C13.9868 5.60444 13.7826 5.45631 13.6208 5.26729C13.459 5.07827 13.3442 4.85372 13.2856 4.61191L13.2866 4.61088Z" stroke="#18181D" stroke-width="1.89183"/>
        <path class="setting" d="M13.5833 11.6543C13.5833 12.6668 12.7625 13.4876 11.75 13.4876C10.7375 13.4876 9.91667 12.6668 9.91667 11.6543C9.91667 10.6418 10.7375 9.82096 11.75 9.82096C12.7625 9.82096 13.5833 10.6418 13.5833 11.6543Z" stroke="#18181D" stroke-width="1.89183"/>
    </g>
</svg>
