<svg width="22" height="23" viewBox="0 0 22 23" fill="none" xmlns="http://www.w3.org/2000/svg">
<path d="M10.9519 11.7674H11.0002M9.00173 8.15799C7.73356 8.86167 6.87524 10.2143 6.87524 11.7674C6.87524 13.3205 7.73356 14.6731 9.00173 15.3768M12.9988 8.15799C14.2669 8.86167 15.1252 10.2143 15.1252 11.7674C15.1252 13.3205 14.2669 14.6731 12.9988 15.3768M6.87524 18.9137C4.40931 17.4872 2.75024 14.8211 2.75024 11.7674C2.75024 8.71373 4.40931 6.04756 6.87524 4.62109M15.1252 18.9137C17.5912 17.4872 19.2502 14.8211 19.2502 11.7674C19.2502 8.71373 17.5912 6.04756 15.1252 4.62109" stroke="#18181D" stroke-width="1.90865" stroke-linecap="round"/>
</svg>
