<svg width="23" height="23" viewBox="0 0 23 23" fill="none" xmlns="http://www.w3.org/2000/svg">
    <style>
        .start-stream{stroke: #18181D;}
    </style>
    <g opacity="0.7">
        <path class="start-stream" d="M11.06 11.497h.047M9.11 7.887a4.124 4.124 0 0 0-2.127 3.61c0 1.553.859 2.906 2.127 3.61m3.997-7.22a4.124 4.124 0 0 1 2.126 3.61 4.124 4.124 0 0 1-2.126 3.61m-6.124 3.536a8.247 8.247 0 0 1-4.125-7.146c0-3.054 1.66-5.72 4.125-7.146m8.25 14.292a8.247 8.247 0 0 0 4.125-7.146 8.247 8.247 0 0 0-4.125-7.146" stroke="#18181D" stroke-width="1.909" stroke-linecap="round" />
    </g>
</svg>
