<svg width="39" height="39" viewBox="0 0 39 39" fill="none" xmlns="http://www.w3.org/2000/svg">
<path d="M24.7031 19.7773L31.978 14.7481C32.8921 14.248 33.513 14.5433 33.5781 15.6252L33.609 26.1514C33.6296 27.148 32.8287 27.4296 32.0655 26.9518L24.7031 21.5931V19.7773ZM24.7031 19.7773V16.3215C24.7031 14.3228 23.1081 12.7025 21.1406 12.7025H19.3594M12.2344 12.7025H8.67188C6.70436 12.7025 5.10938 14.3228 5.10938 16.3215V25.3691C5.10938 27.3679 6.70436 28.9882 8.67188 28.9882H21.1406C21.8882 28.9882 22.582 28.7543 23.155 28.3545M26.4844 31.7025L7.78125 6.36914" stroke="#848589" stroke-width="3.17529" stroke-linecap="round" stroke-linejoin="round"/>
</svg>
