<svg width="16" height="16" viewBox="0 0 16 16" fill="none" xmlns="http://www.w3.org/2000/svg">
<path d="M5.838 2.83763L6.58592 1.76281C6.77286 1.49415 7.07945 1.33398 7.40675 1.33398H8.26257C8.58865 1.33398 8.89425 1.49297 9.08143 1.75998L9.82042 2.8142M5.838 2.83763C5.60676 3.16752 5.2224 3.32918 4.81444 3.30036M5.838 2.83763C5.60564 3.16673 5.2224 3.33052 4.81444 3.30036M4.81444 3.30036L3.48536 3.21692C3.16452 3.19677 2.85355 3.33211 2.64963 3.58064L2.11321 4.23441C1.89701 4.49791 1.8299 4.85338 1.93516 5.17756L2.31608 6.35068M2.31608 6.35068C2.37537 6.5429 2.38295 6.74883 2.34053 6.94332M2.31608 6.35068C2.37621 6.54256 2.38351 6.74807 2.34025 6.94531M2.34053 6.94332C2.29754 7.13551 2.20538 7.31698 2.06855 7.46393M2.34053 6.94332L2.34025 6.94531M2.06855 7.46393L1.19973 8.39837C0.971331 8.64402 0.8813 8.98781 0.959984 9.31387L1.14451 10.0786C1.22294 10.4036 1.45858 10.6679 1.77249 10.7829L2.96624 11.2204C3.15617 11.2939 3.32026 11.4134 3.44444 11.5639M2.06855 7.46393C2.20622 7.31818 2.29754 7.1373 2.34025 6.94531M3.44444 11.5639C3.56779 11.7148 3.6518 11.897 3.68439 12.0942M3.44444 11.5639C3.56891 11.7148 3.6532 11.8965 3.68439 12.0942M3.44444 11.5639L3.44248 11.5617C3.43433 11.5519 3.42562 11.5416 3.41719 11.532M3.68439 12.0942L3.88778 13.3436C3.94104 13.6708 4.153 13.9503 4.45367 14.0899L5.22424 14.4476C5.5153 14.5828 5.85354 14.57 6.1336 14.4133L7.26081 13.7827M7.26081 13.7827C7.43754 13.6834 7.63478 13.6337 7.83202 13.6334M7.26081 13.7827C7.33077 13.7429 7.40411 13.7111 7.4794 13.6873C7.59376 13.651 7.71289 13.6332 7.83202 13.6334M7.83202 13.6334C7.93457 13.6336 8.03712 13.6472 8.13715 13.674C8.23015 13.6989 8.32062 13.7352 8.40631 13.7827M7.83202 13.6334C8.0301 13.6331 8.22846 13.6829 8.40631 13.7827M8.40631 13.7827L9.59274 14.425C9.87401 14.5772 10.2112 14.5858 10.4998 14.4479L11.267 14.0815C11.5666 13.9384 11.7757 13.6559 11.825 13.3275L12.0063 12.1193M12.0063 12.1193C12.0375 11.921 12.1204 11.7374 12.2435 11.5852M12.0063 12.1193C12.0364 11.9205 12.1198 11.7373 12.2435 11.5852M12.2435 11.5852C12.3657 11.4345 12.5278 11.3144 12.7166 11.2402M12.2435 11.5852C12.3654 11.4339 12.527 11.3135 12.7166 11.2402M12.7166 11.2402L13.9279 10.7655C14.2358 10.6448 14.4642 10.3796 14.5379 10.0571L14.7166 9.27458C14.7901 8.95295 14.7002 8.61579 14.4763 8.37343L13.5989 7.42329M13.5989 7.42329C13.4595 7.27583 13.3623 7.09968 13.3151 6.91247M13.5989 7.42329C13.5334 7.35442 13.4772 7.27913 13.4314 7.1993C13.3791 7.10865 13.3401 7.01216 13.3151 6.91247M13.3151 6.91247C13.2687 6.72661 13.2715 6.52964 13.3303 6.339L13.7077 5.12912C13.8081 4.80732 13.7396 4.45659 13.5255 4.19621L13.0079 3.56664C12.8016 3.31575 12.4864 3.18067 12.1624 3.2044L10.8524 3.30036M10.8524 3.30036C10.6496 3.31468 10.4501 3.27604 10.2725 3.19291M10.8524 3.30036C10.6493 3.3155 10.4501 3.27655 10.2725 3.19291M10.2725 3.19291C10.0938 3.10872 9.93702 2.97925 9.82042 2.8142M10.2725 3.19291C10.0935 3.10903 9.93646 2.9799 9.82042 2.8142M2.34025 6.94531L2.34081 6.94239M10.0913 8.00773C10.0913 9.25103 9.06068 10.2589 7.78959 10.2589C6.5185 10.2589 5.48791 9.25103 5.48791 8.00773C5.48791 6.76443 6.5185 5.75656 7.78959 5.75656C9.06068 5.75656 10.0913 6.76443 10.0913 8.00773Z" stroke="#848589" stroke-width="1.5"/>
</svg>
