<svg width="39" height="39" viewBox="0 0 39 39" fill="none" xmlns="http://www.w3.org/2000/svg">
<path d="M16.3915 3.83496C16.3915 2.92664 15.6552 2.19029 14.7469 2.19029C13.8385 2.19029 13.1022 2.92664 13.1022 3.83496H16.3915ZM13.1022 34.235C13.1022 35.1433 13.8385 35.8796 14.7469 35.8796C15.6552 35.8796 16.3915 35.1433 16.3915 34.235H13.1022ZM9.99687 5.47963H28.9969V2.19029H9.99687V5.47963ZM33.0522 9.53496V28.535H36.3415V9.53496H33.0522ZM28.9969 32.5903H9.99687V35.8796H28.9969V32.5903ZM5.94154 28.535V9.53496H2.65221V28.535H5.94154ZM9.99687 32.5903C7.75718 32.5903 5.94154 30.7747 5.94154 28.535H2.65221C2.65221 32.5913 5.94053 35.8796 9.99687 35.8796V32.5903ZM33.0522 28.535C33.0522 30.7747 31.2366 32.5903 28.9969 32.5903V35.8796C33.0532 35.8796 36.3415 32.5913 36.3415 28.535H33.0522ZM28.9969 5.47963C31.2366 5.47963 33.0522 7.29526 33.0522 9.53496H36.3415C36.3415 5.47861 33.0532 2.19029 28.9969 2.19029V5.47963ZM9.99687 2.19029C5.94053 2.19029 2.65221 5.47861 2.65221 9.53496H5.94154C5.94154 7.29526 7.75718 5.47963 9.99687 5.47963V2.19029ZM13.1022 3.83496V34.235H16.3915V3.83496H13.1022ZM5.24687 15.9296H33.7469V12.6403H5.24687V15.9296Z" fill="#848589"/>
</svg>
