<svg width="51" height="33" viewBox="0 0 51 33" fill="none" xmlns="http://www.w3.org/2000/svg">
<path d="M18.3501 15.8032C18.0257 16.1276 18.0257 16.6536 18.3501 16.978C18.6745 17.3025 19.2005 17.3025 19.5249 16.978L18.3501 15.8032ZM22.6875 12.6406L23.2749 12.0532C22.9505 11.7288 22.4245 11.7288 22.1001 12.0532L22.6875 12.6406ZM24.5625 14.5156L23.9751 15.103C24.2995 15.4275 24.8255 15.4275 25.1499 15.103L24.5625 14.5156ZM28.7812 10.2969L29.3687 9.70946C29.0442 9.38504 28.5183 9.38504 28.1938 9.70946L28.7812 10.2969ZM31.9438 14.6343C32.2683 14.9587 32.7942 14.9587 33.1187 14.6343C33.4431 14.3099 33.4431 13.7839 33.1187 13.4595L31.9438 14.6343ZM19.5249 16.978L23.2749 13.228L22.1001 12.0532L18.3501 15.8032L19.5249 16.978ZM22.1001 13.228L23.9751 15.103L25.1499 13.9282L23.2749 12.0532L22.1001 13.228ZM25.1499 15.103L29.3687 10.8843L28.1938 9.70946L23.9751 13.9282L25.1499 15.103ZM28.1938 10.8843L31.9438 14.6343L33.1187 13.4595L29.3687 9.70946L28.1938 10.8843ZM20.8125 3.6276H30.1875V1.96615H20.8125V3.6276ZM32.1693 5.60937V14.9844H33.8307V5.60937H32.1693ZM30.1875 16.9661H20.8125V18.6276H30.1875V16.9661ZM18.8307 14.9844V5.60937H17.1693V14.9844H18.8307ZM20.8125 16.9661C19.718 16.9661 18.8307 16.0789 18.8307 14.9844H17.1693C17.1693 16.9965 18.8004 18.6276 20.8125 18.6276V16.9661ZM32.1693 14.9844C32.1693 16.0789 31.282 16.9661 30.1875 16.9661V18.6276C32.1996 18.6276 33.8307 16.9965 33.8307 14.9844H32.1693ZM30.1875 3.6276C31.282 3.6276 32.1693 4.51487 32.1693 5.60937H33.8307C33.8307 3.59728 32.1996 1.96615 30.1875 1.96615V3.6276ZM20.8125 1.96615C18.8004 1.96615 17.1693 3.59728 17.1693 5.60937H18.8307C18.8307 4.51487 19.718 3.6276 20.8125 3.6276V1.96615ZM22.7943 7.01562C22.7943 7.33348 22.5366 7.59115 22.2187 7.59115V9.2526C23.4542 9.2526 24.4557 8.25107 24.4557 7.01562H22.7943ZM22.2187 7.59115C21.9009 7.59115 21.6432 7.33348 21.6432 7.01562H19.9818C19.9818 8.25107 20.9833 9.2526 22.2187 9.2526V7.59115ZM21.6432 7.01562C21.6432 6.69777 21.9009 6.4401 22.2187 6.4401V4.77865C20.9833 4.77865 19.9818 5.78018 19.9818 7.01562H21.6432ZM22.2187 6.4401C22.5366 6.4401 22.7943 6.69777 22.7943 7.01562H24.4557C24.4557 5.78018 23.4542 4.77865 22.2187 4.77865V6.4401Z" fill="white"/>
<path d="M1.20455 30.6992V24.881H3.23864C3.64394 24.881 3.97822 24.9511 4.24148 25.0913C4.50474 25.2295 4.70076 25.4161 4.82955 25.6509C4.95833 25.8839 5.02273 26.1424 5.02273 26.4265C5.02273 26.6765 4.97822 26.8829 4.8892 27.0458C4.80208 27.2087 4.68655 27.3375 4.54261 27.4322C4.40057 27.5269 4.24621 27.5969 4.07955 27.6424V27.6992C4.25758 27.7106 4.43655 27.7731 4.61648 27.8867C4.7964 28.0004 4.94697 28.1632 5.06818 28.3754C5.18939 28.5875 5.25 28.8469 5.25 29.1538C5.25 29.4454 5.18371 29.7077 5.05114 29.9407C4.91856 30.1737 4.70928 30.3583 4.4233 30.4947C4.13731 30.631 3.76515 30.6992 3.30682 30.6992H1.20455ZM1.90909 30.0742H3.30682C3.76705 30.0742 4.09375 29.9852 4.28693 29.8072C4.48201 29.6272 4.57955 29.4094 4.57955 29.1538C4.57955 28.9568 4.52936 28.775 4.42898 28.6083C4.3286 28.4397 4.18561 28.3053 4 28.2049C3.81439 28.1026 3.5947 28.0515 3.34091 28.0515H1.90909V30.0742ZM1.90909 27.4379H3.21591C3.42803 27.4379 3.61932 27.3962 3.78977 27.3129C3.96212 27.2295 4.09848 27.1121 4.19886 26.9606C4.30114 26.8091 4.35227 26.631 4.35227 26.4265C4.35227 26.1708 4.26326 25.954 4.08523 25.7759C3.9072 25.596 3.625 25.506 3.23864 25.506H1.90909V27.4379ZM7.39529 30.8015C7.11878 30.8015 6.86783 30.7494 6.64245 30.6452C6.41707 30.5392 6.2381 30.3867 6.10552 30.1879C5.97295 29.9871 5.90666 29.7447 5.90666 29.4606C5.90666 29.2106 5.9559 29.0079 6.05438 28.8526C6.15287 28.6954 6.2845 28.5723 6.44927 28.4833C6.61404 28.3943 6.79586 28.328 6.99473 28.2844C7.19548 28.239 7.39719 28.203 7.59984 28.1765C7.86499 28.1424 8.07995 28.1168 8.24473 28.0998C8.41139 28.0808 8.5326 28.0496 8.60836 28.006C8.68601 27.9625 8.72484 27.8867 8.72484 27.7788V27.756C8.72484 27.4757 8.64813 27.2579 8.49473 27.1026C8.34321 26.9473 8.1131 26.8697 7.80438 26.8697C7.48431 26.8697 7.23336 26.9397 7.05154 27.0799C6.86973 27.2201 6.74188 27.3697 6.66802 27.5288L6.03166 27.3015C6.14529 27.0363 6.29681 26.8299 6.4862 26.6822C6.67749 26.5326 6.88582 26.4284 7.1112 26.3697C7.33848 26.3091 7.56196 26.2788 7.78166 26.2788C7.92181 26.2788 8.08279 26.2958 8.26461 26.3299C8.44832 26.3621 8.62541 26.4293 8.79586 26.5316C8.96821 26.6339 9.1112 26.7882 9.22484 26.9947C9.33848 27.2011 9.39529 27.4776 9.39529 27.8242V30.6992H8.72484V30.1083H8.69075C8.64529 30.203 8.56954 30.3043 8.46348 30.4123C8.35742 30.5202 8.21632 30.6121 8.04018 30.6879C7.86404 30.7636 7.64908 30.8015 7.39529 30.8015ZM7.49757 30.1992C7.76272 30.1992 7.9862 30.1471 8.16802 30.043C8.35173 29.9388 8.48999 29.8043 8.58279 29.6396C8.67749 29.4748 8.72484 29.3015 8.72484 29.1197V28.506C8.69643 28.5401 8.63393 28.5714 8.53734 28.5998C8.44264 28.6263 8.33279 28.65 8.20779 28.6708C8.08469 28.6897 7.96442 28.7068 7.847 28.7219C7.73147 28.7352 7.63772 28.7466 7.56575 28.756C7.39151 28.7788 7.22863 28.8157 7.07711 28.8668C6.92749 28.9161 6.80628 28.9909 6.71348 29.0913C6.62257 29.1897 6.57711 29.3242 6.57711 29.4947C6.57711 29.7276 6.66329 29.9038 6.83563 30.0231C7.00988 30.1405 7.23052 30.1992 7.49757 30.1992ZM11.0839 28.0742V30.6992H10.4135V26.3356H11.0612V27.0174H11.118C11.2203 26.7958 11.3756 26.6178 11.5839 26.4833C11.7922 26.3469 12.0612 26.2788 12.3907 26.2788C12.6862 26.2788 12.9447 26.3394 13.1663 26.4606C13.3879 26.5799 13.5602 26.7617 13.6833 27.006C13.8064 27.2485 13.868 27.5553 13.868 27.9265V30.6992H13.1975V27.9719C13.1975 27.6291 13.1085 27.3621 12.9305 27.1708C12.7525 26.9776 12.5082 26.881 12.1975 26.881C11.9835 26.881 11.7922 26.9274 11.6237 27.0202C11.457 27.113 11.3254 27.2485 11.2288 27.4265C11.1322 27.6045 11.0839 27.8204 11.0839 28.0742ZM15.558 28.0742V30.6992H14.8876V26.3356H15.5353V27.0174H15.5921C15.6944 26.7958 15.8497 26.6178 16.058 26.4833C16.2664 26.3469 16.5353 26.2788 16.8649 26.2788C17.1603 26.2788 17.4188 26.3394 17.6404 26.4606C17.862 26.5799 18.0344 26.7617 18.1575 27.006C18.2806 27.2485 18.3421 27.5553 18.3421 27.9265V30.6992H17.6717V27.9719C17.6717 27.6291 17.5827 27.3621 17.4046 27.1708C17.2266 26.9776 16.9823 26.881 16.6717 26.881C16.4577 26.881 16.2664 26.9274 16.0978 27.0202C15.9311 27.113 15.7995 27.2485 15.7029 27.4265C15.6063 27.6045 15.558 27.8204 15.558 28.0742ZM21.1913 30.7901C20.7708 30.7901 20.4081 30.6973 20.1032 30.5117C19.8002 30.3242 19.5663 30.0629 19.4015 29.7276C19.2386 29.3905 19.1572 28.9985 19.1572 28.5515C19.1572 28.1045 19.2386 27.7106 19.4015 27.3697C19.5663 27.0269 19.7954 26.7598 20.089 26.5685C20.3844 26.3754 20.7291 26.2788 21.1231 26.2788C21.3504 26.2788 21.5748 26.3166 21.7964 26.3924C22.018 26.4682 22.2197 26.5913 22.4015 26.7617C22.5833 26.9303 22.7282 27.1538 22.8361 27.4322C22.9441 27.7106 22.9981 28.0534 22.9981 28.4606V28.7447H19.6344V28.1651H22.3163C22.3163 27.9189 22.267 27.6992 22.1685 27.506C22.0719 27.3129 21.9337 27.1604 21.7538 27.0487C21.5757 26.9369 21.3655 26.881 21.1231 26.881C20.856 26.881 20.625 26.9473 20.4299 27.0799C20.2367 27.2106 20.088 27.381 19.9839 27.5913C19.8797 27.8015 19.8276 28.0269 19.8276 28.2674V28.6538C19.8276 28.9833 19.8844 29.2627 19.9981 29.4918C20.1136 29.7191 20.2736 29.8924 20.4782 30.0117C20.6827 30.1291 20.9204 30.1879 21.1913 30.1879C21.3674 30.1879 21.5265 30.1632 21.6685 30.114C21.8125 30.0629 21.9365 29.9871 22.0407 29.8867C22.1449 29.7844 22.2254 29.6576 22.2822 29.506L22.9299 29.6879C22.8617 29.9076 22.7471 30.1007 22.5861 30.2674C22.4252 30.4322 22.2263 30.561 21.9896 30.6538C21.7528 30.7447 21.4867 30.7901 21.1913 30.7901ZM23.8124 30.6992V26.3356H24.4601V26.9947H24.5056C24.5851 26.7788 24.7291 26.6036 24.9374 26.4691C25.1457 26.3346 25.3806 26.2674 25.642 26.2674C25.6912 26.2674 25.7527 26.2683 25.8266 26.2702C25.9005 26.2721 25.9563 26.275 25.9942 26.2788V26.9606C25.9715 26.9549 25.9194 26.9464 25.838 26.935C25.7584 26.9218 25.6741 26.9151 25.5851 26.9151C25.373 26.9151 25.1836 26.9596 25.017 27.0487C24.8522 27.1358 24.7215 27.257 24.6249 27.4123C24.5302 27.5657 24.4829 27.7409 24.4829 27.9379V30.6992H23.8124ZM29.4233 24.881V30.6992H28.7188V24.881H29.4233ZM30.5395 30.6992V26.3356H31.1872V27.0174H31.244C31.3349 26.7844 31.4817 26.6036 31.6844 26.4748C31.887 26.3441 32.1304 26.2788 32.4145 26.2788C32.7024 26.2788 32.9419 26.3441 33.1332 26.4748C33.3264 26.6036 33.477 26.7844 33.5849 27.0174H33.6304C33.7421 26.792 33.9097 26.613 34.1332 26.4805C34.3567 26.346 34.6247 26.2788 34.9372 26.2788C35.3274 26.2788 35.6465 26.4009 35.8946 26.6452C36.1427 26.8877 36.2668 27.2655 36.2668 27.7788V30.6992H35.5963V27.7788C35.5963 27.4568 35.5082 27.2267 35.3321 27.0884C35.156 26.9502 34.9486 26.881 34.7099 26.881C34.4031 26.881 34.1654 26.9738 33.9969 27.1594C33.8283 27.3432 33.744 27.5761 33.744 27.8583V30.6992H33.0622V27.7106C33.0622 27.4625 32.9817 27.2627 32.8207 27.1112C32.6597 26.9577 32.4524 26.881 32.1986 26.881C32.0243 26.881 31.8615 26.9274 31.7099 27.0202C31.5603 27.113 31.4391 27.2418 31.3463 27.4066C31.2554 27.5695 31.2099 27.7579 31.2099 27.9719V30.6992H30.5395ZM38.5711 30.8015C38.2946 30.8015 38.0437 30.7494 37.8183 30.6452C37.5929 30.5392 37.4139 30.3867 37.2814 30.1879C37.1488 29.9871 37.0825 29.7447 37.0825 29.4606C37.0825 29.2106 37.1317 29.0079 37.2302 28.8526C37.3287 28.6954 37.4603 28.5723 37.6251 28.4833C37.7899 28.3943 37.9717 28.328 38.1706 28.2844C38.3713 28.239 38.573 28.203 38.7757 28.1765C39.0408 28.1424 39.2558 28.1168 39.4206 28.0998C39.5872 28.0808 39.7085 28.0496 39.7842 28.006C39.8619 27.9625 39.9007 27.8867 39.9007 27.7788V27.756C39.9007 27.4757 39.824 27.2579 39.6706 27.1026C39.5191 26.9473 39.2889 26.8697 38.9802 26.8697C38.6602 26.8697 38.4092 26.9397 38.2274 27.0799C38.0456 27.2201 37.9177 27.3697 37.8439 27.5288L37.2075 27.3015C37.3211 27.0363 37.4727 26.8299 37.662 26.6822C37.8533 26.5326 38.0617 26.4284 38.287 26.3697C38.5143 26.3091 38.7378 26.2788 38.9575 26.2788C39.0977 26.2788 39.2586 26.2958 39.4405 26.3299C39.6242 26.3621 39.8013 26.4293 39.9717 26.5316C40.1441 26.6339 40.287 26.7882 40.4007 26.9947C40.5143 27.2011 40.5711 27.4776 40.5711 27.8242V30.6992H39.9007V30.1083H39.8666C39.8211 30.203 39.7454 30.3043 39.6393 30.4123C39.5333 30.5202 39.3922 30.6121 39.216 30.6879C39.0399 30.7636 38.8249 30.8015 38.5711 30.8015ZM38.6734 30.1992C38.9386 30.1992 39.162 30.1471 39.3439 30.043C39.5276 29.9388 39.6658 29.8043 39.7586 29.6396C39.8533 29.4748 39.9007 29.3015 39.9007 29.1197V28.506C39.8723 28.5401 39.8098 28.5714 39.7132 28.5998C39.6185 28.6263 39.5086 28.65 39.3836 28.6708C39.2605 28.6897 39.1403 28.7068 39.0228 28.7219C38.9073 28.7352 38.8136 28.7466 38.7416 28.756C38.5674 28.7788 38.4045 28.8157 38.253 28.8668C38.1033 28.9161 37.9821 28.9909 37.8893 29.0913C37.7984 29.1897 37.753 29.3242 37.753 29.4947C37.753 29.7276 37.8391 29.9038 38.0115 30.0231C38.1857 30.1405 38.4064 30.1992 38.6734 30.1992ZM43.3507 32.4265C43.0268 32.4265 42.7484 32.3848 42.5154 32.3015C42.2825 32.2201 42.0884 32.1121 41.9331 31.9776C41.7796 31.8451 41.6575 31.703 41.5666 31.5515L42.1007 31.1765C42.1613 31.256 42.238 31.3469 42.3308 31.4492C42.4236 31.5534 42.5505 31.6433 42.7115 31.7191C42.8743 31.7968 43.0874 31.8356 43.3507 31.8356C43.7029 31.8356 43.9937 31.7504 44.2228 31.5799C44.452 31.4094 44.5666 31.1424 44.5666 30.7788V29.8924H44.5098C44.4605 29.9719 44.3904 30.0704 44.2995 30.1879C44.2105 30.3034 44.0817 30.4066 43.9132 30.4975C43.7465 30.5865 43.5211 30.631 43.237 30.631C42.8848 30.631 42.5685 30.5477 42.2882 30.381C42.0098 30.2144 41.7891 29.9719 41.6262 29.6538C41.4652 29.3356 41.3848 28.9492 41.3848 28.4947C41.3848 28.0477 41.4634 27.6585 41.6206 27.3271C41.7777 26.9937 41.9965 26.7362 42.2768 26.5543C42.5571 26.3706 42.881 26.2788 43.2484 26.2788C43.5325 26.2788 43.7579 26.3261 43.9245 26.4208C44.0931 26.5136 44.2219 26.6197 44.3109 26.739C44.4018 26.8564 44.4719 26.953 44.5211 27.0288H44.5893V26.3356H45.237V30.8242C45.237 31.1992 45.1518 31.5041 44.9813 31.739C44.8128 31.9757 44.5855 32.149 44.2995 32.2589C44.0154 32.3706 43.6992 32.4265 43.3507 32.4265ZM43.3279 30.0288C43.5969 30.0288 43.8242 29.9672 44.0098 29.8441C44.1954 29.721 44.3365 29.5439 44.4331 29.3129C44.5296 29.0818 44.5779 28.8053 44.5779 28.4833C44.5779 28.1689 44.5306 27.8915 44.4359 27.6509C44.3412 27.4104 44.201 27.2219 44.0154 27.0856C43.8298 26.9492 43.6007 26.881 43.3279 26.881C43.0438 26.881 42.8071 26.953 42.6177 27.0969C42.4302 27.2409 42.2891 27.4341 42.1944 27.6765C42.1016 27.9189 42.0552 28.1879 42.0552 28.4833C42.0552 28.7863 42.1026 29.0543 42.1973 29.2873C42.2938 29.5183 42.4359 29.7002 42.6234 29.8327C42.8128 29.9634 43.0476 30.0288 43.3279 30.0288ZM48.0883 30.7901C47.6678 30.7901 47.3051 30.6973 47.0002 30.5117C46.6972 30.3242 46.4633 30.0629 46.2985 29.7276C46.1356 29.3905 46.0542 28.9985 46.0542 28.5515C46.0542 28.1045 46.1356 27.7106 46.2985 27.3697C46.4633 27.0269 46.6925 26.7598 46.986 26.5685C47.2815 26.3754 47.6262 26.2788 48.0201 26.2788C48.2474 26.2788 48.4718 26.3166 48.6934 26.3924C48.915 26.4682 49.1167 26.5913 49.2985 26.7617C49.4803 26.9303 49.6252 27.1538 49.7332 27.4322C49.8411 27.7106 49.8951 28.0534 49.8951 28.4606V28.7447H46.5315V28.1651H49.2133C49.2133 27.9189 49.164 27.6992 49.0656 27.506C48.969 27.3129 48.8307 27.1604 48.6508 27.0487C48.4728 26.9369 48.2625 26.881 48.0201 26.881C47.7531 26.881 47.522 26.9473 47.3269 27.0799C47.1337 27.2106 46.9851 27.381 46.8809 27.5913C46.7767 27.8015 46.7247 28.0269 46.7247 28.2674V28.6538C46.7247 28.9833 46.7815 29.2627 46.8951 29.4918C47.0106 29.7191 47.1707 29.8924 47.3752 30.0117C47.5798 30.1291 47.8175 30.1879 48.0883 30.1879C48.2644 30.1879 48.4235 30.1632 48.5656 30.114C48.7095 30.0629 48.8336 29.9871 48.9377 29.8867C49.0419 29.7844 49.1224 29.6576 49.1792 29.506L49.8269 29.6879C49.7587 29.9076 49.6442 30.1007 49.4832 30.2674C49.3222 30.4322 49.1233 30.561 48.8866 30.6538C48.6498 30.7447 48.3837 30.7901 48.0883 30.7901Z" fill="white"/>
</svg>
