<svg width="26" height="27" viewBox="0 0 26 27" fill="none" xmlns="http://www.w3.org/2000/svg">
<path d="M12.0246 4.44814H5.86419C3.82282 4.44814 2.16797 6.10294 2.16797 8.14424V20.4647C2.16797 22.506 3.82282 24.1608 5.86419 24.1608H18.1849C20.2263 24.1608 21.8811 22.506 21.8811 20.4647L21.8811 14.3045M8.32834 18.0005L12.811 17.0973C13.049 17.0494 13.2675 16.9322 13.4391 16.7605L23.474 6.7204C23.9551 6.23903 23.9548 5.45875 23.4733 4.97779L21.3475 2.8545C20.8662 2.37373 20.0863 2.37406 19.6054 2.85523L9.56941 12.8964C9.39814 13.0677 9.28119 13.2858 9.2332 13.5233L8.32834 18.0005Z" stroke="#848589" stroke-width="1.98185" stroke-linecap="round" stroke-linejoin="round"/>
</svg>
