<svg width="17" height="17" viewBox="0 0 17 17" fill="none" xmlns="http://www.w3.org/2000/svg">
<path d="M11.5331 3.63274C11.9237 3.24221 12.5568 3.24221 12.9473 3.63274C13.3379 4.02326 13.3379 4.65643 12.9473 5.04695L9.65445 8.33984L12.9473 11.6327C13.3379 12.0233 13.3379 12.6564 12.9473 13.047C12.5568 13.4375 11.9237 13.4375 11.5331 13.047L8.24023 9.75406L4.94734 13.047C4.55682 13.4375 3.92365 13.4375 3.53313 13.047C3.1426 12.6564 3.1426 12.0233 3.53313 11.6327L6.82602 8.33984L3.53313 5.04695C3.1426 4.65643 3.1426 4.02326 3.53313 3.63274C3.92365 3.24221 4.55682 3.24221 4.94734 3.63274L8.24023 6.92563L11.5331 3.63274Z" fill="#5E5E5E"/>
</svg>
