<svg width="15" height="15" viewBox="0 0 15 15" fill="none" xmlns="http://www.w3.org/2000/svg">
<path d="M9.63711 5.72297C9.86483 5.49524 9.86483 5.12602 9.63711 4.8983C9.40938 4.67057 9.04016 4.67057 8.81244 4.8983L9.63711 5.72297ZM5.10142 8.60931C4.87369 8.83704 4.87369 9.20625 5.10142 9.43398C5.32915 9.66171 5.69836 9.66171 5.92609 9.43398L5.10142 8.60931ZM8.81244 9.43398C9.04016 9.66171 9.40938 9.66171 9.63711 9.43398C9.86483 9.20625 9.86483 8.83704 9.63711 8.60931L8.81244 9.43398ZM5.92609 4.89829C5.69836 4.67057 5.32915 4.67057 5.10142 4.89829C4.87369 5.12602 4.87369 5.49524 5.10142 5.72296L5.92609 4.89829ZM12.0343 7.16614C12.0343 9.74257 9.94569 11.8312 7.36926 11.8312V12.9974C10.5898 12.9974 13.2006 10.3867 13.2006 7.16614H12.0343ZM7.36926 11.8312C4.79283 11.8312 2.70422 9.74257 2.70422 7.16614H1.53796C1.53796 10.3867 4.14873 12.9974 7.36926 12.9974V11.8312ZM2.70422 7.16614C2.70422 4.58971 4.79283 2.5011 7.36926 2.5011V1.33484C4.14873 1.33484 1.53796 3.9456 1.53796 7.16614H2.70422ZM7.36926 2.5011C9.94569 2.5011 12.0343 4.58971 12.0343 7.16614H13.2006C13.2006 3.9456 10.5898 1.33484 7.36926 1.33484V2.5011ZM8.81244 4.8983L6.95693 6.7538L7.7816 7.57847L9.63711 5.72297L8.81244 4.8983ZM6.95693 6.7538L5.10142 8.60931L5.92609 9.43398L7.7816 7.57847L6.95693 6.7538ZM9.63711 8.60931L7.7816 6.7538L6.95693 7.57847L8.81244 9.43398L9.63711 8.60931ZM7.7816 6.7538L5.92609 4.89829L5.10142 5.72296L6.95693 7.57847L7.7816 6.7538Z" fill="#18181D"/>
</svg>
