<svg width="23" height="23" viewBox="0 0 23 23" fill="none" xmlns="http://www.w3.org/2000/svg">
<g clip-path="url(#clip0_388_10806)">
<path d="M20.0938 10.9272L13.1325 3.96598C12.6569 3.49036 12.4191 3.25255 12.1415 3.08249C11.8955 2.93171 11.6272 2.82059 11.3466 2.75323C11.0301 2.67725 10.6938 2.67725 10.0212 2.67725L6.34375 2.67725M3.59375 8.81891L3.59375 10.6289C3.59375 11.0773 3.59375 11.3015 3.64441 11.5125C3.68932 11.6996 3.76339 11.8784 3.86391 12.0424C3.97729 12.2274 4.13583 12.386 4.4529 12.7031L11.6029 19.8531C12.3289 20.5791 12.692 20.9421 13.1106 21.0781C13.4788 21.1978 13.8754 21.1978 14.2436 21.0781C14.6622 20.9421 15.0252 20.5791 15.7513 19.8531L18.0196 17.5848C18.7456 16.8587 19.1086 16.4957 19.2446 16.0771C19.3643 15.7089 19.3643 15.3123 19.2446 14.944C19.1086 14.5254 18.7456 14.1624 18.0196 13.4364L11.3279 6.74473C11.0108 6.42766 10.8523 6.26912 10.6673 6.15574C10.5032 6.05522 10.3244 5.98115 10.1373 5.93623C9.92635 5.88558 9.70214 5.88558 9.25372 5.88558H6.52708C5.50032 5.88558 4.98694 5.88558 4.59477 6.0854C4.2498 6.26117 3.96934 6.54163 3.79357 6.8866C3.59375 7.27877 3.59375 7.79215 3.59375 8.81891Z" stroke="#18181D" stroke-width="1.85938" stroke-linecap="round" stroke-linejoin="round"/>
</g>
<defs>
<clipPath id="clip0_388_10806">
<rect width="22" height="22" fill="white" transform="translate(0.84375 0.84375)"/>
</clipPath>
</defs>
</svg>
