<svg width="18" height="18" viewBox="0 0 18 18" fill="none" xmlns="http://www.w3.org/2000/svg">
<path d="M1.80078 4.04961H16.2008M7.20078 13.0496V7.64961M10.8008 13.0496V7.64961M12.6008 16.6496H5.40078C4.40667 16.6496 3.60078 15.8437 3.60078 14.8496V4.94961C3.60078 4.45255 4.00372 4.04961 4.50078 4.04961H13.5008C13.9978 4.04961 14.4008 4.45255 14.4008 4.94961V14.8496C14.4008 15.8437 13.5949 16.6496 12.6008 16.6496ZM7.20078 4.04961H10.8008C11.2978 4.04961 11.7008 3.64667 11.7008 3.14961V2.24961C11.7008 1.75255 11.2978 1.34961 10.8008 1.34961H7.20078C6.70372 1.34961 6.30078 1.75255 6.30078 2.24961V3.14961C6.30078 3.64667 6.70372 4.04961 7.20078 4.04961Z" stroke="#848589" stroke-width="1.5" stroke-linecap="round" stroke-linejoin="round"/>
</svg>
