<svg width="25" height="25" viewBox="0 0 25 25" fill="none" xmlns="http://www.w3.org/2000/svg">
<g opacity="0.6" clip-path="url(#clip0_13323_47432)">
<path d="M17.1963 8.84574C17.6456 8.96024 18.088 9.10047 18.5213 9.26574C18.5802 9.28902 18.643 9.30089 18.7063 9.30074C18.8389 9.32594 18.9761 9.29742 19.0877 9.22147C19.1993 9.14552 19.2761 9.02835 19.3013 8.89574C19.3265 8.76313 19.298 8.62595 19.222 8.51436C19.1461 8.40278 19.0289 8.32594 18.8963 8.30074C18.4269 8.12235 17.9478 7.97045 17.4613 7.84574C17.3381 7.83498 17.2151 7.86806 17.1139 7.93914C17.0127 8.01021 16.9398 8.11473 16.9081 8.23427C16.8765 8.3538 16.888 8.48069 16.9407 8.59255C16.9934 8.70441 17.0839 8.79408 17.1963 8.84574Z" fill="#18181D"/>
<path d="M3.4981 11.4249C3.57993 11.4732 3.67307 11.4991 3.7681 11.4999C3.85949 11.5002 3.94942 11.4769 4.02914 11.4322C4.10887 11.3875 4.17568 11.323 4.2231 11.2449C4.44915 10.8955 4.73723 10.5905 5.0731 10.3449C5.1276 10.3025 5.17322 10.2499 5.20737 10.1899C5.24151 10.1299 5.2635 10.0638 5.27209 9.99528C5.28068 9.9268 5.2757 9.85729 5.25743 9.79074C5.23915 9.72418 5.20795 9.66187 5.1656 9.60737C5.12325 9.55287 5.07058 9.50725 5.0106 9.47311C4.95061 9.43897 4.88449 9.41697 4.81601 9.40838C4.74752 9.39979 4.67802 9.40478 4.61146 9.42305C4.54491 9.44132 4.4826 9.47252 4.4281 9.51487C3.98936 9.8378 3.61463 10.2397 3.3231 10.6999C3.28306 10.7578 3.2557 10.8235 3.24282 10.8927C3.22993 10.9619 3.23181 11.0331 3.24833 11.1015C3.26485 11.17 3.29564 11.2342 3.33868 11.2899C3.38173 11.3456 3.43605 11.3916 3.4981 11.4249Z" fill="#18181D"/>
<path d="M6.55235 14.8467C6.13676 14.6686 5.73842 14.4527 5.36235 14.2017C5.30653 14.153 5.24104 14.1166 5.17017 14.0951C5.09931 14.0735 5.02468 14.0671 4.95119 14.0764C4.8777 14.0857 4.80702 14.1105 4.74378 14.1491C4.68054 14.1877 4.62618 14.2392 4.58427 14.3003C4.54237 14.3613 4.51386 14.4306 4.50063 14.5035C4.4874 14.5764 4.48974 14.6512 4.50751 14.7232C4.52527 14.7951 4.55805 14.8624 4.6037 14.9208C4.64934 14.9791 4.70682 15.0271 4.77235 15.0617C5.20001 15.3456 5.65174 15.5916 6.12235 15.7967C6.18854 15.8259 6.26001 15.8412 6.33235 15.8417C6.45095 15.8398 6.56541 15.7977 6.65708 15.7225C6.74875 15.6472 6.81222 15.5431 6.83716 15.4271C6.86209 15.3111 6.84701 15.1901 6.79439 15.0838C6.74176 14.9775 6.65468 14.8922 6.54735 14.8417L6.55235 14.8467Z" fill="#18181D"/>
<path d="M11.6132 8.34688C11.9882 8.34688 12.3782 8.34688 12.7732 8.34688H13.0332C13.1724 8.34688 13.306 8.29156 13.4044 8.19311C13.5029 8.09465 13.5582 7.96111 13.5582 7.82188C13.5582 7.68264 13.5029 7.5491 13.4044 7.45064C13.306 7.35219 13.1724 7.29688 13.0332 7.29688H12.7732C12.3632 7.29688 11.9532 7.29688 11.5532 7.33188C11.4139 7.33585 11.282 7.39498 11.1863 7.49625C11.0907 7.59752 11.0392 7.73264 11.0432 7.87188C11.0472 8.01111 11.1063 8.14307 11.2076 8.23871C11.3088 8.33436 11.4439 8.38585 11.5832 8.38187L11.6132 8.34688Z" fill="#18181D"/>
<path d="M3.95383 12.3C3.94839 12.2319 3.92903 12.1656 3.89695 12.1052C3.86488 12.0449 3.82077 11.9917 3.76735 11.9491C3.71394 11.9064 3.65234 11.8752 3.58638 11.8573C3.52041 11.8394 3.45148 11.8352 3.38383 11.845C3.31184 11.8443 3.24055 11.8591 3.17483 11.8885C3.1091 11.9179 3.0505 11.9611 3.00303 12.0153C2.95555 12.0694 2.92032 12.1331 2.89975 12.2021C2.87918 12.2711 2.87375 12.3437 2.88383 12.415C2.95008 12.9992 3.18458 13.5516 3.55883 14.005C3.60899 14.0665 3.67233 14.1159 3.74415 14.1497C3.81598 14.1834 3.89447 14.2006 3.97383 14.2C4.07998 14.2198 4.18967 14.2047 4.28652 14.157C4.38337 14.1092 4.46216 14.0314 4.51112 13.9352C4.56009 13.839 4.57658 13.7295 4.55814 13.6231C4.5397 13.5167 4.48732 13.4191 4.40883 13.345C4.15902 13.0482 4.00094 12.6851 3.95383 12.3Z" fill="#18181D"/>
<path d="M22.4829 11.2669C22.4365 11.1342 22.3393 11.0255 22.2127 10.9646C22.0861 10.9036 21.9405 10.8954 21.8079 10.9419C21.6753 10.9883 21.5665 11.0855 21.5056 11.212C21.4446 11.3386 21.4365 11.4842 21.4829 11.6169C21.6061 11.9612 21.6061 12.3375 21.4829 12.6818C21.4611 12.7478 21.4526 12.8175 21.458 12.8867C21.4633 12.956 21.4824 13.0235 21.514 13.0854C21.5456 13.1472 21.5892 13.2022 21.6422 13.2471C21.6952 13.292 21.7566 13.3259 21.8229 13.3468C21.8774 13.3666 21.9349 13.3768 21.9929 13.3768C22.1021 13.3772 22.2088 13.3437 22.2983 13.281C22.3878 13.2184 22.4558 13.1296 22.4929 13.0268C22.5879 12.7449 22.6368 12.4494 22.6379 12.1518C22.6378 11.8501 22.5854 11.5506 22.4829 11.2669Z" fill="#18181D"/>
<path d="M20.8265 13.6655C20.5077 13.9659 20.1534 14.2261 19.7715 14.4405C19.6389 14.4757 19.5257 14.5621 19.4567 14.6807C19.3878 14.7993 19.3688 14.9404 19.404 15.073C19.4391 15.2056 19.5255 15.3189 19.6441 15.3878C19.7627 15.4567 19.9039 15.4757 20.0365 15.4405C20.1217 15.4296 20.2026 15.3969 20.2715 15.3455C20.7317 15.0893 21.1583 14.7769 21.5415 14.4155C21.6395 14.3163 21.6945 14.1825 21.6945 14.043C21.6945 13.9036 21.6395 13.7697 21.5415 13.6705C21.4952 13.6226 21.4399 13.5844 21.3787 13.5581C21.3175 13.5318 21.2516 13.5181 21.185 13.5176C21.1184 13.5171 21.0524 13.53 20.9908 13.5554C20.9293 13.5808 20.8734 13.6182 20.8265 13.6655Z" fill="#18181D"/>
<path d="M18.5291 15.0204C18.097 15.1841 17.6564 15.3243 17.2091 15.4404C17.0839 15.4709 16.9744 15.5464 16.9013 15.6525C16.8282 15.7587 16.7966 15.888 16.8127 16.0158C16.8287 16.1437 16.8913 16.2611 16.9883 16.3459C17.0854 16.4306 17.2103 16.4767 17.3391 16.4754C17.384 16.4803 17.4292 16.4803 17.4741 16.4754C17.9605 16.3483 18.4395 16.1947 18.9091 16.0154C18.9748 15.9904 19.0349 15.9528 19.086 15.9046C19.1371 15.8564 19.1782 15.7986 19.207 15.7346C19.2358 15.6705 19.2517 15.6014 19.2538 15.5312C19.2558 15.4609 19.2441 15.391 19.2191 15.3254C19.1942 15.2597 19.1565 15.1996 19.1083 15.1485C19.0602 15.0974 19.0024 15.0562 18.9383 15.0274C18.8742 14.9987 18.8051 14.9828 18.7349 14.9807C18.6647 14.9786 18.5948 14.9904 18.5291 15.0154V15.0204Z" fill="#18181D"/>
<path d="M15.8394 15.7308C15.3894 15.8075 14.9244 15.8675 14.4444 15.9108C14.3052 15.9168 14.174 15.9778 14.0797 16.0805C13.9855 16.1832 13.9359 16.3191 13.9419 16.4583C13.9479 16.5976 14.0089 16.7287 14.1116 16.823C14.2142 16.9172 14.3502 16.9668 14.4894 16.9608H14.5344C15.0344 16.9158 15.5344 16.8558 16.0344 16.7758C16.1723 16.7526 16.2953 16.6756 16.3765 16.5617C16.4576 16.4477 16.4901 16.3062 16.4669 16.1683C16.4437 16.0304 16.3666 15.9074 16.2527 15.8263C16.1388 15.7452 15.9973 15.7126 15.8594 15.7358L15.8394 15.7308Z" fill="#18181D"/>
<path d="M19.7736 9.84686C20.1578 10.0606 20.5153 10.3191 20.8386 10.6169C20.8861 10.6653 20.943 10.7036 21.0057 10.7294C21.0684 10.7552 21.1358 10.7679 21.2036 10.7669C21.3094 10.7675 21.4129 10.7361 21.5006 10.6769C21.5882 10.6177 21.656 10.5334 21.6949 10.435C21.7338 10.3366 21.7421 10.2288 21.7187 10.1256C21.6952 10.0225 21.6412 9.92878 21.5636 9.85686C21.1722 9.50364 20.739 9.19971 20.2736 8.95186C20.1591 8.91749 20.0364 8.92321 19.9256 8.96808C19.8148 9.01296 19.7226 9.09429 19.6643 9.19864C19.606 9.30299 19.5851 9.42411 19.605 9.54197C19.6248 9.65984 19.6843 9.7674 19.7736 9.84686Z" fill="#18181D"/>
<path d="M12.9952 14.6348L11.0352 16.4148L12.8102 18.3748L14.4002 18.4498L13.1002 17.0198C13.2275 17.0121 13.3471 16.9561 13.4345 16.8631C13.5218 16.7702 13.5704 16.6473 13.5702 16.5198C13.5721 16.4014 13.5319 16.2861 13.4569 16.1946C13.3818 16.103 13.2766 16.0411 13.1602 16.0198L14.5802 14.7298L12.9952 14.6348Z" fill="#18181D"/>
<path d="M15.9893 17.7807C15.924 17.757 15.8547 17.7464 15.7852 17.7497C15.7158 17.7529 15.6478 17.7699 15.585 17.7997C15.5222 17.8295 15.4659 17.8714 15.4195 17.9231C15.373 17.9747 15.3373 18.0351 15.3143 18.1007C14.2743 21.0657 13.2743 21.6607 12.0193 21.6607C9.91433 21.6607 8.13933 17.6257 8.13933 12.8457C8.13483 11.464 8.29088 10.0864 8.60433 8.7407C8.64084 8.74547 8.67781 8.74547 8.71433 8.7407H8.83433C9.27433 8.6407 9.73933 8.5607 10.2143 8.4957C10.3424 8.46505 10.4544 8.38783 10.5287 8.27908C10.6029 8.17033 10.634 8.03784 10.6159 7.90742C10.5978 7.777 10.5318 7.65798 10.4308 7.57355C10.3297 7.48912 10.2009 7.44533 10.0693 7.4507C9.67433 7.5057 9.28933 7.5757 8.90933 7.6557C9.62433 5.4757 10.7743 4.0307 12.0193 4.0307C13.2643 4.0307 14.3193 5.3707 15.0193 7.4057L14.5193 7.3507C14.3801 7.33877 14.2418 7.38264 14.1349 7.47265C14.028 7.56267 13.9613 7.69147 13.9493 7.8307C13.9374 7.96994 13.9813 8.10822 14.0713 8.21512C14.1613 8.32201 14.2901 8.38877 14.4293 8.4007C14.7493 8.4307 15.0643 8.4757 15.3793 8.5207C15.6519 9.60034 15.8193 10.7038 15.8793 11.8157L14.5543 10.4757V12.0757L16.4243 13.9757L18.3243 12.1007V10.5007L16.9393 11.8707C16.8844 10.6441 16.7052 9.42615 16.4043 8.2357C16.4173 8.20505 16.4273 8.17324 16.4343 8.1407C16.4522 8.04697 16.4428 7.95008 16.4074 7.86148C16.372 7.77288 16.3119 7.69627 16.2343 7.6407C15.3643 4.8457 13.8143 2.9707 12.0193 2.9707C10.0943 2.9707 8.45933 5.0707 7.63933 8.2107C7.57163 8.1524 7.48954 8.1133 7.40161 8.09747C7.31367 8.08164 7.22311 8.08966 7.13933 8.1207C6.6728 8.28183 6.2169 8.47221 5.77433 8.6907C5.6654 8.7419 5.57737 8.82898 5.52499 8.93734C5.47261 9.0457 5.45904 9.16877 5.48658 9.28594C5.51411 9.4031 5.58107 9.50725 5.67624 9.58094C5.7714 9.65463 5.889 9.69338 6.00933 9.6907C6.08929 9.69103 6.16816 9.67216 6.23933 9.6357C6.63397 9.44491 7.0397 9.27795 7.45433 9.1357C7.21787 10.3564 7.10065 11.5973 7.10433 12.8407C7.10433 18.3807 9.27433 22.7157 12.0443 22.7157C14.0443 22.7157 15.2643 21.4807 16.3343 18.4507C16.3568 18.3841 16.3656 18.3137 16.3603 18.2436C16.355 18.1735 16.3357 18.1052 16.3036 18.0427C16.2714 17.9802 16.227 17.9248 16.173 17.8798C16.119 17.8348 16.0566 17.8011 15.9893 17.7807Z" fill="#18181D"/>
</g>
<defs>
<clipPath id="clip0_13323_47432">
<rect width="24" height="24" fill="white" transform="translate(0.773438 0.845703)"/>
</clipPath>
</defs>
</svg>
