<svg width="22" height="22" viewBox="0 0 22 22" fill="none" xmlns="http://www.w3.org/2000/svg">
    <style>
        .user{stroke:18181d;}
    </style>
    <g opacity="0.7">
        <path class="user" d="M14.6666 16.5L16.4999 18.3333L20.1666 14.6667M10.9999 13.75H7.33325C5.6248 13.75 4.77057 13.75 4.09675 14.0291C3.19831 14.4013 2.4845 15.1151 2.11236 16.0135C1.83325 16.6873 1.83325 17.5415 1.83325 19.25M14.2083 3.01653C15.552 3.56047 16.4999 4.87787 16.4999 6.41667C16.4999 7.95547 15.552 9.27287 14.2083 9.81681M12.3749 6.41667C12.3749 8.44171 10.7333 10.0833 8.70825 10.0833C6.68321 10.0833 5.04159 8.44171 5.04159 6.41667C5.04159 4.39162 6.68321 2.75 8.70825 2.75C10.7333 2.75 12.3749 4.39162 12.3749 6.41667Z" stroke="#18181D" stroke-width="1.83797" stroke-linecap="round" stroke-linejoin="round"/>
    </g>
</svg>
