<svg width="134" height="28" viewBox="0 0 134 28" fill="none" xmlns="http://www.w3.org/2000/svg">
<g clip-path="url(#clip0_14658_60291)">
<path d="M47.5195 9.58008C42.359 9.58008 38.2536 14.2175 39.1669 19.5465C39.7432 22.8982 42.3412 25.6292 45.6752 26.3386C48.0781 26.8529 50.3481 26.3386 52.1481 25.1504V26.5425H55.9254L56.0229 19.0766C56.0406 18.6953 56.0229 18.3849 56.0229 18.0303C56.0229 13.3574 52.1924 9.58008 47.5195 9.58008ZM48.3175 22.6943C45.1077 23.2263 42.359 20.4775 42.8821 17.2677C43.2013 15.3258 44.7708 13.7564 46.7215 13.4283C49.9313 12.8963 52.6801 15.6451 52.1569 18.8549C51.8377 20.7967 50.2683 22.3662 48.3175 22.6943Z" fill="white"/>
<path d="M62.6875 12.8691H58.9102V26.5419H62.6875V12.8691Z" fill="#276AE2"/>
<path d="M61.1626 5.86442C59.5134 5.60728 58.1124 7.01712 58.3607 8.66637C58.5203 9.69494 59.3627 10.5373 60.3912 10.6969C62.0405 10.954 63.4503 9.5442 63.1932 7.89495C63.0336 6.86639 62.1912 6.02403 61.1626 5.86442Z" fill="#27C3E2"/>
<path d="M31.6279 26.666C29.8191 27.9605 27.3097 27.5438 26.0152 25.7438L23.8516 22.862L28.622 16.203C28.6841 16.1143 28.7284 16.0168 28.7816 15.9281L32.5589 21.0621C33.8535 22.8709 33.4368 25.3803 31.6368 26.6748L31.6279 26.666ZM27.6112 14.2523C28.6841 12.47 28.2408 10.1469 26.5294 8.91437C24.7206 7.61979 22.2112 8.03654 20.9167 9.83653L13.0517 20.8138C11.7571 22.6226 12.1739 25.132 13.9739 26.4265C15.7827 27.7211 18.2921 27.3044 19.5866 25.5044L22.6812 21.1862L27.4516 14.5271C27.5137 14.4385 27.558 14.3409 27.6112 14.2523ZM15.3128 14.2523C16.3857 12.47 15.9423 10.1469 14.231 8.91437C12.4222 7.61979 9.91282 8.03654 8.61824 9.83653L0.75328 20.8138C-0.541292 22.6226 -0.124546 25.132 1.67544 26.4265C3.48429 27.7211 5.99363 27.3044 7.28821 25.5044L10.3828 21.1862L15.1532 14.5271C15.2152 14.4385 15.2596 14.3409 15.3128 14.2523ZM17.2635 8.68383C19.4802 8.68383 21.2802 6.88384 21.2802 4.66711C21.2802 2.45038 19.4891 0.650391 17.2724 0.650391C15.0556 0.650391 13.2556 2.45038 13.2556 4.66711C13.2556 6.88384 15.0556 8.68383 17.2724 8.68383H17.2635Z" fill="white"/>
<path d="M74.7476 14.236C75.0402 13.1276 75.6343 12.1522 76.4323 11.3719C75.3151 10.2902 73.7989 9.60742 72.123 9.60742C69.2413 9.60742 66.8206 11.5759 66.1112 14.236C65.9782 14.7502 65.8984 15.2823 65.8984 15.832V26.5078H69.6935V15.832C69.6935 14.4931 70.7841 13.4025 72.123 13.4025C73.3821 13.4025 74.4018 14.369 74.526 15.5926V26.5167H74.5348V15.8409C74.5348 15.2911 74.6146 14.7502 74.7476 14.2448V14.236Z" fill="#276AE2"/>
<path d="M86.7458 14.1562C86.0099 11.5404 83.6069 9.60742 80.7607 9.60742C79.0759 9.60742 77.5508 10.2813 76.4336 11.3719C77.2139 12.1256 77.808 13.0744 78.1094 14.1562C78.2158 14.5374 78.2868 14.9364 78.3223 15.3443V26.5078H78.3311V15.832C78.3311 14.4931 79.4218 13.4025 80.7607 13.4025C82.0198 13.4025 83.0395 14.369 83.1636 15.5926V26.5167H86.9586V15.3532C86.9232 14.9453 86.8522 14.5463 86.7458 14.165V14.1562Z" fill="#27C3E2"/>
<path d="M78.3135 15.3445C78.2781 14.9366 78.2071 14.5376 78.1007 14.1563C77.7992 13.0834 77.2052 12.1346 76.4249 11.3721C75.6268 12.1435 75.0416 13.1277 74.7401 14.2361C74.6071 14.7504 74.5273 15.2824 74.5273 15.8321V26.5079H78.3135V15.3445Z" fill="#4F9BE2"/>
<path d="M110.483 14.1542C109.747 11.5385 107.344 9.60547 104.498 9.60547C102.813 9.60547 101.288 10.2794 100.171 11.37C99.0534 10.2882 97.5372 9.60547 95.8613 9.60547C92.9796 9.60547 90.5589 11.5739 89.8495 14.234C89.7165 14.7483 89.6367 15.2803 89.6367 15.8301V26.5058H93.4318V15.8301C93.4318 14.4911 94.5224 13.4005 95.8613 13.4005C97.1204 13.4005 98.1401 14.367 98.2642 15.5906V26.5147H102.077V15.8389C102.077 14.5 103.168 13.4094 104.507 13.4094C105.766 13.4094 106.785 14.3759 106.909 15.5995V26.5236H110.705V15.3601C110.669 14.9522 110.598 14.5532 110.492 14.1719L110.483 14.1542Z" fill="white"/>
<path d="M129.979 13.4727H118.399C116.729 13.4727 115.375 14.8264 115.375 16.4963V23.4834C115.375 25.1533 116.729 26.507 118.399 26.507H129.979C131.649 26.507 133.002 25.1533 133.002 23.4834V16.4963C133.002 14.8264 131.649 13.4727 129.979 13.4727Z" fill="#23B882"/>
<path d="M123.764 12.293C123.613 12.293 123.462 12.2309 123.347 12.1156L121.29 9.88118C121.077 9.65064 121.095 9.29596 121.325 9.09202C121.556 8.87922 121.91 8.89695 122.114 9.12749L123.835 10.9984L127.443 8.39153C127.692 8.21419 128.046 8.2674 128.224 8.51567C128.41 8.76394 128.348 9.11862 128.1 9.29596L124.092 12.2043C123.994 12.2752 123.879 12.3107 123.764 12.3107V12.293Z" fill="#23B882"/>
<path d="M122.7 16.8164H118.675C118.533 16.8164 118.417 16.8341 118.329 16.8696C118.231 16.9051 118.151 16.9494 118.098 17.0115C118.036 17.0735 117.992 17.1445 117.965 17.2154C117.939 17.2864 117.93 17.3573 117.93 17.4282C117.93 17.5967 117.992 17.7474 118.098 17.8716C118.213 17.9957 118.408 18.0666 118.675 18.0666H119.863V22.3937C119.863 22.5178 119.889 22.6331 119.934 22.7306C119.987 22.8282 120.049 22.908 120.129 22.9701C120.208 23.0321 120.297 23.0765 120.395 23.1031C120.492 23.1297 120.59 23.1474 120.696 23.1474C120.794 23.1474 120.891 23.1297 120.989 23.1031C121.086 23.0765 121.175 23.0321 121.255 22.9701C121.335 22.908 121.397 22.8282 121.45 22.7306C121.503 22.6331 121.521 22.5178 121.521 22.3937V18.0666H122.691C122.833 18.0666 122.948 18.0489 123.037 18.0134C123.135 17.978 123.206 17.9336 123.268 17.8804C123.33 17.8184 123.374 17.7563 123.401 17.6765C123.427 17.6056 123.436 17.5346 123.436 17.4637C123.436 17.2864 123.374 17.1356 123.268 17.0115C123.152 16.8873 122.957 16.8164 122.691 16.8164H122.7Z" fill="white"/>
<path d="M130.07 17.2149C130.026 17.1351 129.955 17.0553 129.875 16.9932C129.795 16.9312 129.707 16.878 129.6 16.8514C129.45 16.807 129.317 16.7982 129.201 16.807C129.086 16.8159 128.989 16.8514 128.909 16.8868C128.82 16.9312 128.758 16.9844 128.705 17.0553C128.66 17.1085 128.634 17.1617 128.607 17.2149L127.233 20.9834L125.841 17.2149C125.796 17.1174 125.734 17.0287 125.655 16.9666C125.575 16.9046 125.486 16.8602 125.389 16.8336C125.291 16.807 125.193 16.7982 125.087 16.807C124.981 16.8159 124.883 16.8425 124.786 16.878C124.697 16.9134 124.617 16.9578 124.546 17.0198C124.475 17.0819 124.413 17.1528 124.369 17.2326C124.325 17.3213 124.298 17.41 124.289 17.5164C124.289 17.6228 124.298 17.7292 124.342 17.8356L126.213 22.5705C126.24 22.6326 126.275 22.7035 126.32 22.7656C126.373 22.8365 126.435 22.9075 126.515 22.9696C126.594 23.0316 126.692 23.0848 126.807 23.1292C126.923 23.1735 127.064 23.1912 127.215 23.1912C127.366 23.1912 127.49 23.1735 127.605 23.138C127.721 23.1026 127.818 23.0582 127.898 22.9962C127.978 22.9341 128.049 22.872 128.102 22.8011C128.155 22.7301 128.199 22.6592 128.226 22.5794L130.088 17.7913C130.124 17.6937 130.132 17.5962 130.124 17.5075C130.115 17.41 130.088 17.3213 130.035 17.2326L130.07 17.2149Z" fill="white"/>
</g>
<defs>
<clipPath id="clip0_14658_60291">
<rect width="133.004" height="26.7693" fill="white" transform="translate(0 0.650391)"/>
</clipPath>
</defs>
</svg>
