<svg width="84" height="85" viewBox="0 0 84 85" fill="none" xmlns="http://www.w3.org/2000/svg">
<path d="M72.7911 32.2651V64.4651C72.7916 67.9448 69.9709 70.7659 66.4912 70.766H17.4913C14.0117 70.7659 11.1909 67.9448 11.1914 64.4651V42.7653V25.9656V21.0655C11.1915 17.5862 14.0121 14.7656 17.4913 14.7656L31.156 14.7659C33.529 14.7709 35.6961 16.1147 36.7555 18.2381L40.5916 25.9656L66.4912 25.9653C69.9704 25.9652 72.791 28.7858 72.7911 32.2651Z" fill="#FF9F0A"/>
<path d="M11.1602 25.9969V42.7967V64.4964C11.1596 67.9761 13.9804 70.7962 17.4601 70.7963H66.4595C69.9392 70.7962 72.76 67.9761 72.7594 64.4964V32.2968C72.7593 28.8175 69.9387 25.9968 66.4595 25.9969H40.5598H11.1602Z" fill="#FF9F0A"/>
<path d="M11.1914 25.9656V21.0655C11.1915 17.5862 14.0121 14.7656 17.4913 14.7656L31.156 14.7659C33.529 14.7709 35.6961 16.1147 36.7555 18.2381L40.5916 25.9656H11.1914Z" fill="#E37412"/>
<path d="M41.9981 37.0215C39.7483 37.0215 37.549 37.6886 35.6784 38.9385C33.8078 40.1884 32.3499 41.965 31.4889 44.0435C30.628 46.122 30.4027 48.4091 30.8416 50.6156C31.2805 52.8222 32.3639 54.849 33.9547 56.4398C35.5455 58.0306 37.5724 59.114 39.7789 59.5529C41.9854 59.9918 44.2726 59.7666 46.3511 58.9056C48.4296 58.0447 50.2061 56.5867 51.456 54.7161C52.7059 52.8455 53.3731 50.6462 53.3731 48.3965C53.3693 45.3808 52.1696 42.4897 50.0372 40.3573C47.9048 38.2249 45.0137 37.0252 41.9981 37.0215ZM46.3731 49.2715H42.8731V52.7715C42.8731 53.0035 42.7809 53.2261 42.6168 53.3902C42.4527 53.5543 42.2301 53.6465 41.9981 53.6465C41.766 53.6465 41.5434 53.5543 41.3793 53.3902C41.2152 53.2261 41.1231 53.0035 41.1231 52.7715V49.2715H37.6231C37.391 49.2715 37.1684 49.1793 37.0043 49.0152C36.8402 48.8511 36.7481 48.6285 36.7481 48.3965C36.7481 48.1644 36.8402 47.9419 37.0043 47.7778C37.1684 47.6137 37.391 47.5215 37.6231 47.5215H41.1231V44.0215C41.1231 43.7894 41.2152 43.5669 41.3793 43.4028C41.5434 43.2387 41.766 43.1465 41.9981 43.1465C42.2301 43.1465 42.4527 43.2387 42.6168 43.4028C42.7809 43.5669 42.8731 43.7894 42.8731 44.0215V47.5215H46.3731C46.6051 47.5215 46.8277 47.6137 46.9918 47.7778C47.1559 47.9419 47.2481 48.1644 47.2481 48.3965C47.2481 48.6285 47.1559 48.8511 46.9918 49.0152C46.8277 49.1793 46.6051 49.2715 46.3731 49.2715Z" fill="white"/>
</svg>
