<svg width="20" height="20" viewBox="0 0 20 20" fill="none" xmlns="http://www.w3.org/2000/svg">
<path d="M13.875 2.5V3H14.375H16.25C16.4489 3 16.6397 3.07902 16.7803 3.21967C16.921 3.36032 17 3.55109 17 3.75V16.25C17 16.4489 16.921 16.6397 16.7803 16.7803C16.6397 16.921 16.4489 17 16.25 17H3.75C3.55109 17 3.36032 16.921 3.21967 16.7803C3.07902 16.6397 3 16.4489 3 16.25V3.75C3 3.55109 3.07902 3.36032 3.21967 3.21967C3.36032 3.07902 3.55109 3 3.75 3H5.625H6.125V2.5V1.875C6.125 1.84185 6.13817 1.81005 6.16161 1.78661C6.18505 1.76317 6.21685 1.75 6.25 1.75C6.28315 1.75 6.31495 1.76317 6.33839 1.78661C6.36183 1.81005 6.375 1.84185 6.375 1.875V2.5V3H6.875H13.125H13.625V2.5V1.875C13.625 1.84185 13.6382 1.81005 13.6616 1.78661C13.6851 1.76317 13.7168 1.75 13.75 1.75C13.7832 1.75 13.8149 1.76317 13.8384 1.78661C13.8618 1.81005 13.875 1.84185 13.875 1.875V2.5ZM6.125 3.75V3.25H5.625H3.75H3.25V3.75V6.25V6.75H3.75H16.25H16.75V6.25V3.75V3.25H16.25H14.375H13.875V3.75V4.375C13.875 4.40815 13.8618 4.43995 13.8384 4.46339C13.8149 4.48683 13.7832 4.5 13.75 4.5C13.7168 4.5 13.6851 4.48683 13.6616 4.46339C13.6382 4.43995 13.625 4.40815 13.625 4.375V3.75V3.25H13.125H6.875H6.375V3.75V4.375C6.375 4.40815 6.36183 4.43995 6.33839 4.46339C6.31495 4.48683 6.28315 4.5 6.25 4.5C6.21685 4.5 6.18505 4.48683 6.16161 4.46339C6.13817 4.43995 6.125 4.40815 6.125 4.375V3.75ZM16.25 16.75H16.75V16.25V7.5V7H16.25H3.75H3.25V7.5V16.25V16.75H3.75H16.25Z" stroke="black"/>
</svg>
