<svg width="25" height="28" viewBox="0 0 25 28" fill="none" xmlns="http://www.w3.org/2000/svg">
<path d="M22.3103 10.8791L18.1216 6.68946C17.9823 6.55014 17.8169 6.43962 17.6349 6.36421C17.4529 6.28881 17.2578 6.25 17.0608 6.25C16.8638 6.25 16.6687 6.28881 16.4867 6.36421C16.3047 6.43962 16.1393 6.55014 16 6.68946L4.43969 18.2507C4.2998 18.3895 4.18889 18.5547 4.11341 18.7367C4.03792 18.9188 3.99938 19.114 4.00001 19.311V23.5007C4.00001 23.8985 4.15804 24.2801 4.43935 24.5614C4.72065 24.8427 5.10218 25.0007 5.50001 25.0007H9.6897C9.88675 25.0013 10.082 24.9628 10.264 24.8873C10.446 24.8118 10.6112 24.7009 10.75 24.561L22.3103 13.0007C22.4496 12.8614 22.5602 12.696 22.6356 12.514C22.711 12.332 22.7498 12.1369 22.7498 11.9399C22.7498 11.7429 22.711 11.5478 22.6356 11.3658C22.5602 11.1838 22.4496 11.0184 22.3103 10.8791ZM9.6897 23.5007H5.50001V19.311L13.75 11.061L17.9397 15.2507L9.6897 23.5007ZM19 14.1895L14.8103 10.0007L17.0603 7.75071L21.25 11.9395L19 14.1895Z" fill="#343330"/>
<path d="M10.325 9.275L7.29149 7L10.325 4.725C10.3793 4.68425 10.4234 4.63141 10.4538 4.57066C10.4842 4.50991 10.5 4.44292 10.5 4.375C10.5 4.30708 10.4842 4.24009 10.4538 4.17934C10.4234 4.1186 10.3793 4.06575 10.325 4.025L6.825 1.4C6.76 1.35125 6.68271 1.32156 6.60179 1.31427C6.52087 1.30697 6.43952 1.32235 6.36685 1.35869C6.29418 1.39502 6.23306 1.45088 6.19034 1.51999C6.14763 1.58911 6.125 1.66875 6.125 1.75V6.125L3.325 4.025C3.23218 3.95538 3.1155 3.92549 3.00063 3.9419C2.88576 3.95831 2.78212 4.01967 2.7125 4.1125C2.64288 4.20533 2.61299 4.32201 2.6294 4.43687C2.64581 4.55174 2.70718 4.65538 2.8 4.725L5.83352 7L2.8 9.275C2.75404 9.30947 2.71532 9.35266 2.68604 9.4021C2.65677 9.45153 2.63752 9.50625 2.6294 9.56313C2.61299 9.67799 2.64288 9.79467 2.7125 9.8875C2.78212 9.98033 2.88576 10.0417 3.00063 10.0581C3.1155 10.0745 3.23218 10.0446 3.325 9.975L6.125 7.875V12.25C6.125 12.3312 6.14763 12.4109 6.19034 12.48C6.23306 12.5491 6.29418 12.605 6.36685 12.6413C6.43952 12.6776 6.52087 12.693 6.60179 12.6857C6.68271 12.6784 6.76 12.6487 6.825 12.6L10.325 9.975C10.3793 9.93425 10.4234 9.88141 10.4538 9.82066C10.4842 9.75991 10.5 9.69292 10.5 9.625C10.5 9.55708 10.4842 9.49009 10.4538 9.42934C10.4234 9.36859 10.3793 9.31575 10.325 9.275ZM7 2.625L9.33352 4.375L7 6.125V2.625ZM7 11.375V7.875L9.33352 9.625L7 11.375Z" fill="#1976D2"/>
</svg>
