<svg width="33" height="33" viewBox="0 0 33 33" fill="none" xmlns="http://www.w3.org/2000/svg">
<path d="M28.918 6.32031H20.918C20.1417 6.32031 19.3762 6.50104 18.6819 6.84818C17.9876 7.19532 17.3837 7.69933 16.918 8.32031C16.4522 7.69933 15.8483 7.19532 15.154 6.84818C14.4598 6.50104 13.6942 6.32031 12.918 6.32031H4.91797C4.38754 6.32031 3.87883 6.53103 3.50376 6.9061C3.12868 7.28117 2.91797 7.78988 2.91797 8.32031V24.3203C2.91797 24.8507 3.12868 25.3595 3.50376 25.7345C3.87883 26.1096 4.38754 26.3203 4.91797 26.3203H12.918C13.7136 26.3203 14.4767 26.6364 15.0393 27.199C15.6019 27.7616 15.918 28.5247 15.918 29.3203C15.918 29.5855 16.0233 29.8399 16.2109 30.0274C16.3984 30.215 16.6528 30.3203 16.918 30.3203C17.1832 30.3203 17.4375 30.215 17.6251 30.0274C17.8126 29.8399 17.918 29.5855 17.918 29.3203C17.918 28.5247 18.234 27.7616 18.7966 27.199C19.3593 26.6364 20.1223 26.3203 20.918 26.3203H28.918C29.4484 26.3203 29.9571 26.1096 30.3322 25.7345C30.7073 25.3595 30.918 24.8507 30.918 24.3203V8.32031C30.918 7.78988 30.7073 7.28117 30.3322 6.9061C29.9571 6.53103 29.4484 6.32031 28.918 6.32031ZM12.918 24.3203H4.91797V8.32031H12.918C13.7136 8.32031 14.4767 8.63638 15.0393 9.19899C15.6019 9.7616 15.918 10.5247 15.918 11.3203V25.3203C15.0533 24.6697 14.0001 24.3186 12.918 24.3203ZM28.918 24.3203H20.918C19.8358 24.3186 18.7826 24.6697 17.918 25.3203V11.3203C17.918 10.5247 18.234 9.7616 18.7966 9.19899C19.3593 8.63638 20.1223 8.32031 20.918 8.32031H28.918V24.3203ZM20.918 11.3203H25.918C26.1832 11.3203 26.4375 11.4257 26.6251 11.6132C26.8126 11.8007 26.918 12.0551 26.918 12.3203C26.918 12.5855 26.8126 12.8399 26.6251 13.0274C26.4375 13.215 26.1832 13.3203 25.918 13.3203H20.918C20.6528 13.3203 20.3984 13.215 20.2109 13.0274C20.0233 12.8399 19.918 12.5855 19.918 12.3203C19.918 12.0551 20.0233 11.8007 20.2109 11.6132C20.3984 11.4257 20.6528 11.3203 20.918 11.3203ZM26.918 16.3203C26.918 16.5855 26.8126 16.8399 26.6251 17.0274C26.4375 17.215 26.1832 17.3203 25.918 17.3203H20.918C20.6528 17.3203 20.3984 17.215 20.2109 17.0274C20.0233 16.8399 19.918 16.5855 19.918 16.3203C19.918 16.0551 20.0233 15.8007 20.2109 15.6132C20.3984 15.4257 20.6528 15.3203 20.918 15.3203H25.918C26.1832 15.3203 26.4375 15.4257 26.6251 15.6132C26.8126 15.8007 26.918 16.0551 26.918 16.3203ZM26.918 20.3203C26.918 20.5855 26.8126 20.8399 26.6251 21.0274C26.4375 21.215 26.1832 21.3203 25.918 21.3203H20.918C20.6528 21.3203 20.3984 21.215 20.2109 21.0274C20.0233 20.8399 19.918 20.5855 19.918 20.3203C19.918 20.0551 20.0233 19.8007 20.2109 19.6132C20.3984 19.4257 20.6528 19.3203 20.918 19.3203H25.918C26.1832 19.3203 26.4375 19.4257 26.6251 19.6132C26.8126 19.8007 26.918 20.0551 26.918 20.3203Z" fill="#333333"/>
</svg>
