<svg width="24" height="20" viewBox="0 0 24 20" fill="none" xmlns="http://www.w3.org/2000/svg">
<path d="M12 0.25C10.0716 0.25 8.18657 0.821828 6.58319 1.89317C4.97982 2.96451 3.73013 4.48726 2.99218 6.26884C2.25422 8.05042 2.06114 10.0108 2.43735 11.9021C2.81355 13.7934 3.74215 15.5307 5.10571 16.8943C6.46928 18.2579 8.20656 19.1865 10.0979 19.5627C11.9892 19.9389 13.9496 19.7458 15.7312 19.0078C17.5127 18.2699 19.0355 17.0202 20.1068 15.4168C21.1782 13.8134 21.75 11.9284 21.75 10C21.7473 7.41498 20.7192 4.93661 18.8913 3.10872C17.0634 1.28084 14.585 0.25273 12 0.25ZM12 18.25C10.3683 18.25 8.77326 17.7661 7.41655 16.8596C6.05984 15.9531 5.00242 14.6646 4.378 13.1571C3.75358 11.6496 3.5902 9.99085 3.90853 8.3905C4.22685 6.79016 5.01259 5.32015 6.16637 4.16637C7.32016 3.01259 8.79017 2.22685 10.3905 1.90852C11.9909 1.59019 13.6497 1.75357 15.1571 2.37799C16.6646 3.00242 17.9531 4.05984 18.8596 5.41655C19.7661 6.77325 20.25 8.3683 20.25 10C20.2475 12.1873 19.3775 14.2843 17.8309 15.8309C16.2843 17.3775 14.1873 18.2475 12 18.25ZM14.0306 6.78063L10.8103 10L14.0306 13.2194C14.1003 13.2891 14.1556 13.3718 14.1933 13.4628C14.231 13.5539 14.2504 13.6515 14.2504 13.75C14.2504 13.8485 14.231 13.9461 14.1933 14.0372C14.1556 14.1282 14.1003 14.2109 14.0306 14.2806C13.9609 14.3503 13.8782 14.4056 13.7872 14.4433C13.6961 14.481 13.5986 14.5004 13.5 14.5004C13.4015 14.5004 13.3039 14.481 13.2128 14.4433C13.1218 14.4056 13.0391 14.3503 12.9694 14.2806L9.21938 10.5306C9.14965 10.461 9.09433 10.3783 9.05658 10.2872C9.01884 10.1962 8.99941 10.0986 8.99941 10C8.99941 9.90144 9.01884 9.80384 9.05658 9.7128C9.09433 9.62175 9.14965 9.53903 9.21938 9.46937L12.9694 5.71937C13.0391 5.64969 13.1218 5.59442 13.2128 5.5567C13.3039 5.51899 13.4015 5.49958 13.5 5.49958C13.5986 5.49958 13.6961 5.51899 13.7872 5.5567C13.8782 5.59442 13.9609 5.64969 14.0306 5.71937C14.1003 5.78906 14.1556 5.87178 14.1933 5.96283C14.231 6.05387 14.2504 6.15145 14.2504 6.25C14.2504 6.34855 14.231 6.44613 14.1933 6.53717C14.1556 6.62822 14.1003 6.71094 14.0306 6.78063Z" fill="#737373"/>
</svg>
