<svg width="20" height="21" viewBox="0 0 20 21" fill="none" xmlns="http://www.w3.org/2000/svg">
<path d="M17.8125 16.3887H17.1875V3.88867C17.1875 3.72291 17.1217 3.56394 17.0044 3.44673C16.8872 3.32952 16.7283 3.26367 16.5625 3.26367H12.1875C12.0217 3.26367 11.8628 3.32952 11.7456 3.44673C11.6283 3.56394 11.5625 3.72291 11.5625 3.88867V7.01367H7.8125C7.64674 7.01367 7.48777 7.07952 7.37056 7.19673C7.25335 7.31394 7.1875 7.47291 7.1875 7.63867V10.7637H3.4375C3.27174 10.7637 3.11277 10.8295 2.99556 10.9467C2.87835 11.0639 2.8125 11.2229 2.8125 11.3887V16.3887H2.1875C2.02174 16.3887 1.86277 16.4545 1.74556 16.5717C1.62835 16.6889 1.5625 16.8479 1.5625 17.0137C1.5625 17.1794 1.62835 17.3384 1.74556 17.4556C1.86277 17.5728 2.02174 17.6387 2.1875 17.6387H17.8125C17.9783 17.6387 18.1372 17.5728 18.2544 17.4556C18.3717 17.3384 18.4375 17.1794 18.4375 17.0137C18.4375 16.8479 18.3717 16.6889 18.2544 16.5717C18.1372 16.4545 17.9783 16.3887 17.8125 16.3887ZM8.4375 8.26367H11.5625V16.3887H8.4375V8.26367ZM4.0625 12.0137H7.1875V16.3887H4.0625V12.0137Z" fill="#664CFF"/>
</svg>
