<svg width="29" height="29" viewBox="0 0 29 29" fill="none" xmlns="http://www.w3.org/2000/svg">
<path d="M26.9835 7.83239L24.3585 5.25552C24.0305 4.92891 23.5865 4.74554 23.1236 4.74554C22.6608 4.74554 22.2168 4.92891 21.8888 5.25552L11.7497 15.2436L11.7377 15.2316L7.73021 11.374C7.40141 11.0486 6.95715 10.8666 6.49455 10.8678C6.03196 10.869 5.58867 11.0534 5.26161 11.3805L2.63661 14.0055C2.309 14.3336 2.125 14.7783 2.125 15.242C2.125 15.7057 2.309 16.1504 2.63661 16.4785L10.47 24.3535C10.6326 24.516 10.8255 24.645 11.0378 24.7329C11.2502 24.8209 11.4778 24.8662 11.7076 24.8662C11.9375 24.8662 12.1651 24.8209 12.3774 24.7329C12.5898 24.645 12.7827 24.516 12.9452 24.3535L26.989 10.3119C27.1518 10.149 27.2809 9.95548 27.3688 9.74254C27.4566 9.52959 27.5016 9.30139 27.5011 9.07102C27.5006 8.84066 27.4546 8.61266 27.3658 8.4001C27.277 8.18755 27.147 7.99462 26.9835 7.83239ZM11.7082 23.1186L3.87474 15.2436L6.49974 12.6186L6.51177 12.6307L10.5193 16.4883C10.847 16.8129 11.2896 16.995 11.7508 16.995C12.2121 16.995 12.6547 16.8129 12.9824 16.4883L23.1313 6.49364L25.7497 9.07489L11.7082 23.1186Z" fill="#333333"/>
</svg>
