<svg width="21" height="20" viewBox="0 0 21 20" fill="none" xmlns="http://www.w3.org/2000/svg">
<path d="M10.4473 1.875C8.8403 1.875 7.26941 2.35152 5.93326 3.24431C4.59711 4.1371 3.55571 5.40605 2.94075 6.8907C2.32579 8.37535 2.16488 10.009 2.47839 11.5851C2.79189 13.1612 3.56572 14.6089 4.70203 15.7452C5.83833 16.8815 7.28606 17.6554 8.86216 17.9689C10.4383 18.2824 12.0719 18.1215 13.5566 17.5065C15.0412 16.8916 16.3102 15.8502 17.203 14.514C18.0957 13.1779 18.5723 11.607 18.5723 10C18.57 7.84581 17.7132 5.78051 16.19 4.25727C14.6668 2.73403 12.6015 1.87727 10.4473 1.875ZM14.0145 8.56719L9.63946 12.9422C9.58141 13.0003 9.51248 13.0464 9.43661 13.0779C9.36073 13.1093 9.2794 13.1255 9.19727 13.1255C9.11513 13.1255 9.03381 13.1093 8.95793 13.0779C8.88206 13.0464 8.81313 13.0003 8.75508 12.9422L6.88008 11.0672C6.76281 10.9499 6.69692 10.7909 6.69692 10.625C6.69692 10.4591 6.76281 10.3001 6.88008 10.1828C6.99736 10.0655 7.15642 9.99965 7.32227 9.99965C7.48812 9.99965 7.64718 10.0655 7.76446 10.1828L9.19727 11.6164L13.1301 7.68281C13.1882 7.62474 13.2571 7.57868 13.333 7.54725C13.4088 7.51583 13.4901 7.49965 13.5723 7.49965C13.6544 7.49965 13.7357 7.51583 13.8116 7.54725C13.8875 7.57868 13.9564 7.62474 14.0145 7.68281C14.0725 7.74088 14.1186 7.80982 14.15 7.88569C14.1814 7.96156 14.1976 8.04288 14.1976 8.125C14.1976 8.20712 14.1814 8.28844 14.15 8.36431C14.1186 8.44018 14.0725 8.50912 14.0145 8.56719Z" fill="#3190FF"/>
</svg>
