<svg width="25" height="25" viewBox="0 0 25 25" fill="none" xmlns="http://www.w3.org/2000/svg">
<path d="M12.8027 2.3949C10.8744 2.3949 8.98931 2.96672 7.38593 4.03807C5.78255 5.10941 4.53287 6.63215 3.79491 8.41373C3.05696 10.1953 2.86388 12.1557 3.24008 14.047C3.61629 15.9383 4.54489 17.6756 5.90845 19.0392C7.27201 20.4028 9.00929 21.3313 10.9006 21.7076C12.7919 22.0838 14.7523 21.8907 16.5339 21.1527C18.3155 20.4148 19.8382 19.1651 20.9096 17.5617C21.9809 15.9583 22.5527 14.0733 22.5527 12.1449C22.55 9.55987 21.5219 7.08151 19.694 5.25362C17.8661 3.42573 15.3878 2.39763 12.8027 2.3949ZM16.3334 14.6143C16.403 14.684 16.4583 14.7667 16.496 14.8577C16.5337 14.9488 16.5532 15.0464 16.5532 15.1449C16.5532 15.2434 16.5337 15.341 16.496 15.4321C16.4583 15.5231 16.403 15.6058 16.3334 15.6755C16.2637 15.7452 16.181 15.8005 16.0899 15.8382C15.9989 15.8759 15.9013 15.8953 15.8027 15.8953C15.7042 15.8953 15.6066 15.8759 15.5156 15.8382C15.4245 15.8005 15.3418 15.7452 15.2721 15.6755L12.8027 13.2052L10.3334 15.6755C10.2637 15.7452 10.181 15.8005 10.0899 15.8382C9.99887 15.8759 9.90128 15.8953 9.80274 15.8953C9.70419 15.8953 9.60661 15.8759 9.51557 15.8382C9.42452 15.8005 9.3418 15.7452 9.27211 15.6755C9.20243 15.6058 9.14716 15.5231 9.10944 15.4321C9.07173 15.341 9.05232 15.2434 9.05232 15.1449C9.05232 15.0464 9.07173 14.9488 9.10944 14.8577C9.14716 14.7667 9.20243 14.684 9.27211 14.6143L11.7424 12.1449L9.27211 9.67552C9.13138 9.53479 9.05232 9.34392 9.05232 9.1449C9.05232 8.94587 9.13138 8.755 9.27211 8.61427C9.41284 8.47354 9.60372 8.39448 9.80274 8.39448C10.0018 8.39448 10.1926 8.47354 10.3334 8.61427L12.8027 11.0846L15.2721 8.61427C15.3418 8.54459 15.4245 8.48931 15.5156 8.4516C15.6066 8.41389 15.7042 8.39448 15.8027 8.39448C15.9013 8.39448 15.9989 8.41389 16.0899 8.4516C16.181 8.48931 16.2637 8.54459 16.3334 8.61427C16.403 8.68395 16.4583 8.76668 16.496 8.85773C16.5337 8.94877 16.5532 9.04635 16.5532 9.1449C16.5532 9.24344 16.5337 9.34102 16.496 9.43207C16.4583 9.52311 16.403 9.60584 16.3334 9.67552L13.8631 12.1449L16.3334 14.6143Z" fill="#BBBBBB"/>
</svg>
