<svg width="25" height="24" viewBox="0 0 25 24" fill="none" xmlns="http://www.w3.org/2000/svg">
<path d="M15.3477 12C15.3477 12.5192 15.1937 13.0267 14.9053 13.4584C14.6168 13.8901 14.2069 14.2265 13.7272 14.4252C13.2475 14.6239 12.7197 14.6758 12.2105 14.5746C11.7013 14.4733 11.2336 14.2233 10.8665 13.8562C10.4994 13.489 10.2494 13.0213 10.1481 12.5121C10.0468 12.0029 10.0988 11.4751 10.2975 10.9955C10.4962 10.5158 10.8326 10.1058 11.2643 9.81739C11.696 9.52896 12.2035 9.375 12.7227 9.375C13.4189 9.375 14.0865 9.65156 14.5788 10.1438C15.0711 10.6361 15.3477 11.3038 15.3477 12ZM12.7227 7.125C13.2418 7.125 13.7494 6.97105 14.181 6.68261C14.6127 6.39417 14.9492 5.9842 15.1478 5.50455C15.3465 5.02489 15.3985 4.49709 15.2972 3.98789C15.1959 3.47869 14.9459 3.01096 14.5788 2.64385C14.2117 2.27673 13.744 2.02673 13.2348 1.92544C12.7256 1.82415 12.1978 1.87614 11.7181 2.07482C11.2385 2.2735 10.8285 2.60995 10.54 3.04163C10.2516 3.47331 10.0977 3.98083 10.0977 4.5C10.0977 5.19619 10.3742 5.86387 10.8665 6.35616C11.3588 6.84844 12.0265 7.125 12.7227 7.125ZM12.7227 16.875C12.2035 16.875 11.696 17.029 11.2643 17.3174C10.8326 17.6058 10.4962 18.0158 10.2975 18.4955C10.0988 18.9751 10.0468 19.5029 10.1481 20.0121C10.2494 20.5213 10.4994 20.989 10.8665 21.3562C11.2336 21.7233 11.7013 21.9733 12.2105 22.0746C12.7197 22.1758 13.2475 22.1239 13.7272 21.9252C14.2069 21.7265 14.6168 21.3901 14.9053 20.9584C15.1937 20.5267 15.3477 20.0192 15.3477 19.5C15.3477 18.8038 15.0711 18.1361 14.5788 17.6438C14.0865 17.1516 13.4189 16.875 12.7227 16.875Z" fill="#333333"/>
</svg>
