<svg width="18" height="18" viewBox="0 0 18 18" fill="none" xmlns="http://www.w3.org/2000/svg">
<path d="M15.75 10.6875V14.625C15.75 14.9234 15.6315 15.2095 15.4205 15.4205C15.2095 15.6315 14.9234 15.75 14.625 15.75H3.375C3.07663 15.75 2.79048 15.6315 2.5795 15.4205C2.36853 15.2095 2.25 14.9234 2.25 14.625V10.6875C2.25 10.5383 2.30926 10.3952 2.41475 10.2898C2.52024 10.1843 2.66332 10.125 2.8125 10.125C2.96168 10.125 3.10476 10.1843 3.21025 10.2898C3.31574 10.3952 3.375 10.5383 3.375 10.6875V14.625H14.625V10.6875C14.625 10.5383 14.6843 10.3952 14.7898 10.2898C14.8952 10.1843 15.0383 10.125 15.1875 10.125C15.3367 10.125 15.4798 10.1843 15.5852 10.2898C15.6907 10.3952 15.75 10.5383 15.75 10.6875ZM8.60203 11.0855C8.65427 11.1378 8.71631 11.1793 8.7846 11.2076C8.85288 11.2359 8.92608 11.2504 9 11.2504C9.07392 11.2504 9.14712 11.2359 9.2154 11.2076C9.28369 11.1793 9.34573 11.1378 9.39797 11.0855L12.2105 8.27297C12.2627 8.22071 12.3042 8.15866 12.3325 8.09038C12.3608 8.0221 12.3753 7.94891 12.3753 7.875C12.3753 7.80109 12.3608 7.7279 12.3325 7.65962C12.3042 7.59134 12.2627 7.52929 12.2105 7.47703C12.1582 7.42477 12.0962 7.38331 12.0279 7.35503C11.9596 7.32674 11.8864 7.31219 11.8125 7.31219C11.7386 7.31219 11.6654 7.32674 11.5971 7.35503C11.5288 7.38331 11.4668 7.42477 11.4145 7.47703L9.5625 9.32977V2.8125C9.5625 2.66332 9.50324 2.52024 9.39775 2.41475C9.29226 2.30926 9.14918 2.25 9 2.25C8.85082 2.25 8.70774 2.30926 8.60225 2.41475C8.49676 2.52024 8.4375 2.66332 8.4375 2.8125V9.32977L6.58547 7.47703C6.47992 7.37148 6.33677 7.31219 6.1875 7.31219C6.03823 7.31219 5.89508 7.37148 5.78953 7.47703C5.68398 7.58258 5.62469 7.72573 5.62469 7.875C5.62469 8.02427 5.68398 8.16742 5.78953 8.27297L8.60203 11.0855Z" fill="#333"/>
</svg>
