<svg width="29" height="29" viewBox="0 0 29 29" fill="none" xmlns="http://www.w3.org/2000/svg">
<path d="M23.7441 9.37459L17.6191 3.24959C17.5377 3.16836 17.4412 3.10395 17.335 3.06003C17.2288 3.01612 17.1149 2.99356 17 2.99365H6.5C6.03587 2.99365 5.59075 3.17803 5.26256 3.50622C4.93437 3.8344 4.75 4.27952 4.75 4.74365V23.9937C4.75 24.4578 4.93437 24.9029 5.26256 25.2311C5.59075 25.5593 6.03587 25.7437 6.5 25.7437H22.25C22.7141 25.7437 23.1592 25.5593 23.4874 25.2311C23.8156 24.9029 24 24.4578 24 23.9937V9.99365C24.0001 9.87871 23.9775 9.76488 23.9336 9.65866C23.8897 9.55244 23.8253 9.45591 23.7441 9.37459ZM17.875 5.98068L21.013 9.11865H17.875V5.98068ZM22.25 23.9937H6.5V4.74365H16.125V9.99365C16.125 10.2257 16.2172 10.4483 16.3813 10.6124C16.5454 10.7765 16.7679 10.8687 17 10.8687H22.25V23.9937ZM17.6191 14.9877L15.612 16.9937L17.6191 18.9996C17.7004 19.0809 17.7648 19.1774 17.8088 19.2836C17.8528 19.3898 17.8755 19.5037 17.8755 19.6187C17.8755 19.7336 17.8528 19.8475 17.8088 19.9537C17.7648 20.0599 17.7004 20.1564 17.6191 20.2377C17.5378 20.319 17.4413 20.3835 17.335 20.4275C17.2288 20.4715 17.115 20.4941 17 20.4941C16.885 20.4941 16.7712 20.4715 16.665 20.4275C16.5587 20.3835 16.4622 20.319 16.3809 20.2377L14.375 18.2307L12.3691 20.2377C12.2878 20.319 12.1913 20.3835 12.085 20.4275C11.9788 20.4715 11.865 20.4941 11.75 20.4941C11.635 20.4941 11.5212 20.4715 11.415 20.4275C11.3087 20.3835 11.2122 20.319 11.1309 20.2377C11.0496 20.1564 10.9852 20.0599 10.9412 19.9537C10.8972 19.8475 10.8745 19.7336 10.8745 19.6187C10.8745 19.5037 10.8972 19.3898 10.9412 19.2836C10.9852 19.1774 11.0496 19.0809 11.1309 18.9996L13.138 16.9937L11.1309 14.9877C10.9668 14.8235 10.8745 14.6008 10.8745 14.3687C10.8745 14.1365 10.9668 13.9138 11.1309 13.7496C11.2951 13.5854 11.5178 13.4932 11.75 13.4932C11.9822 13.4932 12.2049 13.5854 12.3691 13.7496L14.375 15.7566L16.3809 13.7496C16.4622 13.6683 16.5587 13.6038 16.665 13.5598C16.7712 13.5158 16.885 13.4932 17 13.4932C17.115 13.4932 17.2288 13.5158 17.335 13.5598C17.4413 13.6038 17.5378 13.6683 17.6191 13.7496C17.7004 13.8309 17.7648 13.9274 17.8088 14.0336C17.8528 14.1398 17.8755 14.2537 17.8755 14.3687C17.8755 14.4836 17.8528 14.5975 17.8088 14.7037C17.7648 14.8099 17.7004 14.9064 17.6191 14.9877Z" fill="#333333"/>
</svg>
