<svg width="138" height="17" viewBox="0 0 138 17" fill="none" xmlns="http://www.w3.org/2000/svg">
<g clip-path="url(#clip0_19508_117339)">
<path d="M12.2673 8.24059H15.7796V14.9096C13.8193 16.2874 11.47 17.0189 9.06562 17C3.84309 17 0 13.4539 0 8.49748C0 3.54104 3.84309 0 9.16233 0C12.079 0 14.5019 1.00741 16.1155 2.84089L13.6468 5.09748C13.109 4.49879 12.4465 4.0226 11.7048 3.70172C10.9631 3.38085 10.16 3.22291 9.35067 3.23881C6.10822 3.23881 3.89399 5.37956 3.89399 8.49748C3.89399 11.6154 6.10822 13.7612 9.27941 13.7612C10.3198 13.7818 11.3483 13.5391 12.2673 13.056V8.24059Z" fill="#49494B"/>
<path d="M31.9613 13.6647V16.7171H19.1035V0.28125H31.6508V3.33369H22.9059V6.90495H30.6328V9.8617H22.9059V13.6647H31.9613Z" fill="#49494B"/>
<path d="M53.7227 0.28125H57.5657V16.7171H53.7227V0.28125Z" fill="#49494B"/>
<path d="M60.2227 8.49748C60.2227 3.52593 64.0657 0 69.2272 0C72.0981 0 74.4955 1.03259 76.0633 2.91141L73.5946 5.168C73.0877 4.55812 72.4493 4.06829 71.7261 3.73446C71.003 3.40063 70.2135 3.23127 69.4155 3.23881C68.7121 3.21235 68.0108 3.33053 67.3559 3.58591C66.701 3.84128 66.1068 4.22829 65.6107 4.72249C65.1147 5.21669 64.7276 5.80733 64.4739 6.45709C64.2202 7.10685 64.1055 7.80162 64.137 8.49748C64.1045 9.19685 64.2196 9.89525 64.4751 10.5481C64.7305 11.201 65.1207 11.794 65.6208 12.2893C66.1208 12.7846 66.7197 13.1713 67.3792 13.4247C68.0387 13.6781 68.7444 13.7927 69.4512 13.7612C70.2513 13.7696 71.0429 13.5986 71.7667 13.261C72.4905 12.9233 73.1276 12.4279 73.6302 11.8119L76.0989 14.0634C74.5312 15.9674 72.1337 17 69.2374 17C64.0658 17 60.2227 13.4539 60.2227 8.49748Z" fill="#F2C336"/>
<path d="M78.4199 0.28125H82.263V13.5992H90.6058V16.697H78.4199V0.28125Z" fill="#F2C336"/>
<path d="M103.595 13.1962H95.8835L94.4125 16.7221H90.4727L97.8738 0.28125H101.671L109.098 16.7171H105.066L103.595 13.1962ZM102.384 10.305L99.7673 4.0288L97.1306 10.3201L102.384 10.305Z" fill="#F2C336"/>
<path d="M109.291 15.1134L110.594 12.2523C112.203 13.3444 114.105 13.9355 116.056 13.9498C118.331 13.9498 119.258 13.1993 119.258 12.1869C119.258 9.11426 109.586 11.2248 109.586 5.135C109.622 2.32937 111.897 0.00226056 116.621 0.00226056C118.641 -0.038192 120.634 0.464944 122.388 1.45796L121.202 4.34419C119.804 3.52884 118.218 3.08466 116.595 3.0547C114.32 3.0547 113.44 3.90093 113.44 4.93352C113.44 7.95574 123.111 5.87041 123.111 11.9048C123.111 14.655 120.805 17.0023 116.061 17.0023C113.419 17.0023 110.762 16.2266 109.291 15.1134Z" fill="#F2C336"/>
<path d="M124.201 15.1135L125.504 12.2524C127.117 13.3528 129.027 13.9494 130.986 13.965C133.267 13.965 134.188 13.2145 134.188 12.202C134.188 9.12945 124.517 11.24 124.517 5.15019C124.522 2.32945 126.802 0.0023429 131.521 0.0023429C133.541 -0.03887 135.535 0.464317 137.288 1.45805L136.102 4.34427C134.712 3.53224 133.134 3.08815 131.521 3.05479C129.24 3.05479 128.365 3.90101 128.365 4.9336C128.365 7.95582 138.036 5.87049 138.036 11.9049C138.036 14.6551 135.736 17.0023 130.986 17.0023C128.319 17.0023 125.662 16.2266 124.201 15.1135Z" fill="#F2C336"/>
<path d="M50.0525 16.7115H46.2552V7.26711C46.2552 4.69822 43.5065 4.124 42.8753 4.02829H38.8032V16.7115H34.9805V0.265625H43.2215C45.5833 0.532588 50.0525 2.33081 50.0525 7.25199V16.7115Z" fill="#49494B"/>
</g>
<defs>
<clipPath id="clip0_19508_117339">
<rect width="138" height="17" fill="white"/>
</clipPath>
</defs>
</svg>
