<svg width="590" height="266" viewBox="0 0 590 266" fill="none" xmlns="http://www.w3.org/2000/svg">
<path d="M223.363 152.444L169.625 161.739C171.23 170.097 178.267 174.311 187.069 172.788C193.349 171.702 197.851 167.692 200.373 160.818L225.058 167.913C220.51 181.919 207.468 192.493 190.817 195.373C163.15 200.158 143.272 187.146 138.689 160.652C134.107 134.159 147.769 113.994 173.377 109.564C198.985 105.135 217.531 118.723 222.171 145.55L223.368 152.469L223.363 152.444ZM189.96 140.923C188.433 131.173 183.402 126.454 175.861 127.758C168.32 129.062 165.167 135.197 166.694 144.947L189.96 140.923Z" fill="#7DD5A8"/>
<path d="M221.833 124.893L218.19 103.827L231.238 101.57L227.99 82.793L257.561 64.8034L262.971 96.081L281.039 92.9559L284.682 114.022L266.615 117.147L270.828 141.505C272.136 149.068 276.972 152.655 284.358 151.378C287.035 150.915 288.887 150.435 290.862 149.749L295.249 175.111C288.371 177.493 284.209 178.716 279.808 179.477C256.723 183.47 244.083 175.987 240.698 156.413L234.861 122.666L221.812 124.923L221.833 124.893Z" fill="#7DD5A8"/>
<path d="M297.776 160.767L310.094 142.186C318.801 147.62 328.327 149.364 338.699 147.57C346.394 146.239 349.276 144.204 348.764 141.246C348.253 138.288 346.54 137.736 336.708 137.9L325.87 137.92C307.6 138.034 297.806 130.907 295.243 116.091C292.396 99.6291 304.424 86.8727 327.69 82.8484C342.462 80.2932 357.304 81.9647 367.515 87.6691L357.61 107.184C348.205 103.38 339.007 102.614 329.433 104.27C323.462 105.302 321.598 106.631 322.056 109.281C322.457 111.596 324.015 112.174 329.357 112.257L345.536 112.16C363.497 112.1 372.088 119.78 374.651 134.596C377.641 151.881 365.852 165.099 342.123 169.203C325.78 172.03 309.663 169.573 297.776 160.767Z" fill="#7DD5A8"/>
<path d="M119.499 105.93C116.28 96.9764 108.02 85.8483 92.5831 82.8759C80.3269 80.5188 59.4281 86.8887 54.3407 104.829C47.8991 127.507 53.8733 151.932 53.8733 151.932L44.4279 153.565L34.2708 94.8429L1.14766 100.572L22.236 222.493L55.3592 216.764L50.3318 187.698C53.4558 187.37 63.9624 185.129 70.9424 181.961C76.6247 190.753 87.6339 197.088 102.115 201.736C116.597 206.383 136.198 202.781 136.198 202.781L130.294 168.648C114.241 171.001 101.407 165.459 96.1817 162.681C98.6661 160.953 106.437 154.39 114.518 141.495C123.759 126.73 121.626 111.946 119.469 105.909L119.499 105.93ZM93.8003 118.111C92.7736 124.434 84.737 136.818 79.7706 141.359C79.7706 141.359 75.1775 123.08 77.0716 113.189C77.9252 108.776 80.4311 103.495 87.4608 104.293C92.733 104.891 94.5783 113.261 93.8003 118.111Z" fill="#7DD5A8"/>
<path d="M574.34 80.107C566.603 43.1919 519.698 33.6088 499.032 57.873L495.136 51.2882L475.756 65.2104L484.281 80.4782C447.882 187.414 545.018 216.469 529.973 133.929C554.271 135.872 583.262 114.221 574.361 80.0768L574.34 80.107ZM507.446 158.011C499.455 155.181 495.92 110.837 501.525 108.914C505.57 114.678 516.624 151.92 507.446 158.011ZM540.836 104.631C534.32 107.109 528.351 107.692 522.015 104.469C520.023 98.9328 515.034 86.7887 512.833 81.4208C519.66 67.8685 540.694 61.8196 549.134 80.7315C552.908 89.2182 549.378 99.9218 540.836 104.631Z" fill="#7DD5A8"/>
<path d="M384.093 129.544L374.79 75.7601L408.041 70.0086L416.263 117.542C417.656 125.593 421.327 129.197 427.427 128.142C433.526 127.087 436.082 122.247 434.885 115.328L426.49 66.7911L459.742 61.0396L473.97 143.297L442.211 148.791L439.679 134.155C437.509 145.206 429.067 153.104 416.868 155.214C398.106 158.459 387.446 148.779 384.118 129.54L384.093 129.544Z" fill="#7DD5A8"/>
</svg>
