<svg width="24" height="25" viewBox="0 0 24 25" fill="none" xmlns="http://www.w3.org/2000/svg">
<path d="M6.47977 9.32659L2.67165 12.5L6.47977 15.6735C6.55763 15.7358 6.62227 15.813 6.66992 15.9006C6.71757 15.9882 6.74727 16.0845 6.75728 16.1837C6.76729 16.2829 6.75741 16.3831 6.72822 16.4785C6.69903 16.5739 6.65111 16.6624 6.58727 16.7391C6.52343 16.8157 6.44495 16.8788 6.35643 16.9247C6.2679 16.9706 6.17111 16.9984 6.07171 17.0065C5.9723 17.0146 5.87229 17.0027 5.77752 16.9717C5.68275 16.9406 5.59513 16.891 5.51977 16.8256L1.01978 13.0757C0.935337 13.0053 0.867403 12.9172 0.820784 12.8176C0.774165 12.7181 0.75 12.6095 0.75 12.4996C0.75 12.3896 0.774165 12.281 0.820784 12.1815C0.867403 12.0819 0.935337 11.9938 1.01978 11.9235L5.51977 8.17346C5.67269 8.04616 5.86991 7.98481 6.06805 8.00292C6.2662 8.02103 6.44903 8.11711 6.57634 8.27002C6.70364 8.42294 6.76499 8.62016 6.74688 8.8183C6.72877 9.01645 6.63269 9.19928 6.47977 9.32659ZM22.9798 11.9235L18.4798 8.17346C18.4041 8.11043 18.3167 8.06292 18.2226 8.03366C18.1285 8.0044 18.0296 7.99396 17.9315 8.00292C17.8334 8.01189 17.738 8.04009 17.6508 8.08592C17.5636 8.13175 17.4862 8.19431 17.4232 8.27002C17.2959 8.42294 17.2346 8.62016 17.2527 8.8183C17.2708 9.01645 17.3669 9.19928 17.5198 9.32659L21.3279 12.5L17.5198 15.6735C17.4419 15.7358 17.3773 15.813 17.3296 15.9006C17.282 15.9882 17.2523 16.0845 17.2423 16.1837C17.2323 16.2829 17.2421 16.3831 17.2713 16.4785C17.3005 16.5739 17.3484 16.6624 17.4123 16.7391C17.4761 16.8157 17.5546 16.8788 17.6431 16.9247C17.7316 16.9706 17.8284 16.9984 17.9278 17.0065C18.0272 17.0146 18.1273 17.0027 18.222 16.9717C18.3168 16.9406 18.4044 16.891 18.4798 16.8256L22.9798 13.0757C23.0642 13.0053 23.1321 12.9172 23.1788 12.8176C23.2254 12.7181 23.2495 12.6095 23.2495 12.4996C23.2495 12.3896 23.2254 12.281 23.1788 12.1815C23.1321 12.0819 23.0642 11.9938 22.9798 11.9235ZM15.2557 3.54502C15.1631 3.51141 15.0648 3.49636 14.9664 3.50074C14.868 3.50512 14.7715 3.52883 14.6822 3.57053C14.593 3.61223 14.5129 3.6711 14.4464 3.74377C14.3799 3.81645 14.3284 3.9015 14.2948 3.99409L8.29477 20.4941C8.26102 20.5867 8.24586 20.6851 8.25016 20.7836C8.25447 20.8821 8.27815 20.9788 8.31986 21.0681C8.36157 21.1575 8.42049 21.2377 8.49324 21.3043C8.56599 21.3708 8.65114 21.4224 8.74384 21.456C8.826 21.4852 8.91257 21.5001 8.99977 21.5C9.1538 21.5 9.30409 21.4526 9.43022 21.3642C9.55635 21.2758 9.65221 21.1507 9.70477 21.006L15.7048 4.50596C15.7384 4.41338 15.7534 4.31508 15.7491 4.21669C15.7447 4.11829 15.721 4.02172 15.6793 3.93249C15.6376 3.84325 15.5787 3.76311 15.506 3.69663C15.4334 3.63015 15.3483 3.57863 15.2557 3.54502Z" fill="#343330"/>
</svg>
