<svg width="24" height="24" viewBox="0 0 24 24" fill="none" xmlns="http://www.w3.org/2000/svg">
    <style>
        .list-checks{fill: #344054;}
    </style>
<path class="list-checks" d="M21.0004 12.0004C21.0004 12.1993 20.9214 12.3901 20.7807 12.5307C20.6401 12.6714 20.4493 12.7504 20.2504 12.7504H12.0004C11.8015 12.7504 11.6107 12.6714 11.4701 12.5307C11.3294 12.3901 11.2504 12.1993 11.2504 12.0004C11.2504 11.8015 11.3294 11.6107 11.4701 11.4701C11.6107 11.3294 11.8015 11.2504 12.0004 11.2504H20.2504C20.4493 11.2504 20.6401 11.3294 20.7807 11.4701C20.9214 11.6107 21.0004 11.8015 21.0004 12.0004ZM12.0004 6.75042H20.2504C20.4493 6.75042 20.6401 6.6714 20.7807 6.53075C20.9214 6.39009 21.0004 6.19933 21.0004 6.00042C21.0004 5.8015 20.9214 5.61074 20.7807 5.47009C20.6401 5.32943 20.4493 5.25042 20.2504 5.25042H12.0004C11.8015 5.25042 11.6107 5.32943 11.4701 5.47009C11.3294 5.61074 11.2504 5.8015 11.2504 6.00042C11.2504 6.19933 11.3294 6.39009 11.4701 6.53075C11.6107 6.6714 11.8015 6.75042 12.0004 6.75042ZM20.2504 17.2504H12.0004C11.8015 17.2504 11.6107 17.3294 11.4701 17.4701C11.3294 17.6107 11.2504 17.8015 11.2504 18.0004C11.2504 18.1993 11.3294 18.3901 11.4701 18.5307C11.6107 18.6714 11.8015 18.7504 12.0004 18.7504H20.2504C20.4493 18.7504 20.6401 18.6714 20.7807 18.5307C20.9214 18.3901 21.0004 18.1993 21.0004 18.0004C21.0004 17.8015 20.9214 17.6107 20.7807 17.4701C20.6401 17.3294 20.4493 17.2504 20.2504 17.2504ZM7.71979 3.96979L5.25042 6.4401L4.28104 5.46979C4.14031 5.32906 3.94944 5.25 3.75042 5.25C3.55139 5.25 3.36052 5.32906 3.21979 5.46979C3.07906 5.61052 3 5.80139 3 6.00042C3 6.19944 3.07906 6.39031 3.21979 6.53104L4.71979 8.03104C4.78945 8.10077 4.87216 8.15609 4.96321 8.19384C5.05426 8.23158 5.15186 8.25101 5.25042 8.25101C5.34898 8.25101 5.44657 8.23158 5.53762 8.19384C5.62867 8.15609 5.71139 8.10077 5.78104 8.03104L8.78104 5.03104C8.92177 4.89031 9.00083 4.69944 9.00083 4.50042C9.00083 4.30139 8.92177 4.11052 8.78104 3.96979C8.64031 3.82906 8.44944 3.75 8.25042 3.75C8.05139 3.75 7.86052 3.82906 7.71979 3.96979ZM7.71979 9.96979L5.25042 12.4401L4.28104 11.4698C4.14031 11.3291 3.94944 11.25 3.75042 11.25C3.55139 11.25 3.36052 11.3291 3.21979 11.4698C3.07906 11.6105 3 11.8014 3 12.0004C3 12.099 3.01941 12.1965 3.05712 12.2876C3.09483 12.3786 3.15011 12.4614 3.21979 12.531L4.71979 14.031C4.78945 14.1008 4.87216 14.1561 4.96321 14.1938C5.05426 14.2316 5.15186 14.251 5.25042 14.251C5.34898 14.251 5.44657 14.2316 5.53762 14.1938C5.62867 14.1561 5.71139 14.1008 5.78104 14.031L8.78104 11.031C8.92177 10.8903 9.00083 10.6994 9.00083 10.5004C9.00083 10.3014 8.92177 10.1105 8.78104 9.96979C8.64031 9.82906 8.44944 9.75 8.25042 9.75C8.05139 9.75 7.86052 9.82906 7.71979 9.96979ZM7.71979 15.9698L5.25042 18.4401L4.28104 17.4698C4.21136 17.4001 4.12863 17.3448 4.03759 17.3071C3.94654 17.2694 3.84896 17.25 3.75042 17.25C3.65187 17.25 3.55429 17.2694 3.46324 17.3071C3.3722 17.3448 3.28947 17.4001 3.21979 17.4698C3.15011 17.5395 3.09483 17.6222 3.05712 17.7132C3.01941 17.8043 3 17.9019 3 18.0004C3 18.099 3.01941 18.1965 3.05712 18.2876C3.09483 18.3786 3.15011 18.4614 3.21979 18.531L4.71979 20.031C4.78945 20.1008 4.87216 20.1561 4.96321 20.1938C5.05426 20.2316 5.15186 20.251 5.25042 20.251C5.34898 20.251 5.44657 20.2316 5.53762 20.1938C5.62867 20.1561 5.71139 20.1008 5.78104 20.031L8.78104 17.031C8.92177 16.8903 9.00083 16.6994 9.00083 16.5004C9.00083 16.3014 8.92177 16.1105 8.78104 15.9698C8.64031 15.8291 8.44944 15.75 8.25042 15.75C8.05139 15.75 7.86052 15.8291 7.71979 15.9698Z" fill="#344054"/>
</svg>
