<svg width="29" height="29" viewBox="0 0 29 29" fill="none" xmlns="http://www.w3.org/2000/svg">
<path d="M14.7969 3.55078C12.5471 3.55078 10.3479 4.21791 8.47727 5.46781C6.60666 6.71772 5.1487 8.49425 4.28775 10.5728C3.4268 12.6513 3.20154 14.9384 3.64045 17.1449C4.07935 19.3515 5.16272 21.3783 6.75354 22.9691C8.34436 24.5599 10.3712 25.6433 12.5777 26.0822C14.7843 26.5211 17.0714 26.2959 19.1499 25.4349C21.2284 24.574 23.0049 23.116 24.2548 21.2454C25.5047 19.3748 26.1719 17.1755 26.1719 14.9258C26.1687 11.9099 24.9692 9.0185 22.8367 6.88596C20.7042 4.75342 17.8127 3.55397 14.7969 3.55078ZM14.7969 24.5508C12.8932 24.5508 11.0323 23.9863 9.44952 22.9287C7.86669 21.8711 6.63303 20.3678 5.90454 18.6091C5.17605 16.8504 4.98544 14.9151 5.35682 13.048C5.7282 11.181 6.6449 9.46596 7.99098 8.11988C9.33706 6.7738 11.0521 5.85711 12.9191 5.48572C14.7862 5.11434 16.7215 5.30495 18.4802 6.03344C20.2389 6.76193 21.7422 7.99559 22.7998 9.57842C23.8574 11.1612 24.4219 13.0221 24.4219 14.9258C24.419 17.4776 23.404 19.9241 21.5996 21.7285C19.7952 23.5329 17.3487 24.5479 14.7969 24.5508ZM20.0731 14.1842L13.0731 9.80922C12.9407 9.72646 12.7886 9.68064 12.6325 9.67652C12.4764 9.6724 12.322 9.71013 12.1854 9.7858C12.0488 9.86146 11.9349 9.97231 11.8556 10.1068C11.7763 10.2413 11.7345 10.3946 11.7344 10.5508V19.3008C11.7345 19.4569 11.7763 19.6102 11.8556 19.7447C11.9349 19.8793 12.0488 19.9901 12.1854 20.0658C12.322 20.1414 12.4764 20.1792 12.6325 20.175C12.7886 20.1709 12.9407 20.1251 13.0731 20.0423L20.0731 15.6673C20.1988 15.5886 20.3024 15.4793 20.3742 15.3496C20.446 15.2199 20.4837 15.074 20.4837 14.9258C20.4837 14.7775 20.446 14.6317 20.3742 14.502C20.3024 14.3723 20.1988 14.2629 20.0731 14.1842ZM13.4844 17.7225V12.1291L17.9589 14.9258L13.4844 17.7225Z" fill="#333333"/>
</svg>
