<svg width="25" height="25" viewBox="0 0 25 25" fill="none" xmlns="http://www.w3.org/2000/svg">
<path d="M20.375 8.06836H17.375V5.81836C17.375 4.62489 16.9009 3.48029 16.057 2.63638C15.2131 1.79247 14.0685 1.31836 12.875 1.31836C11.6815 1.31836 10.5369 1.79247 9.69302 2.63638C8.84911 3.48029 8.375 4.62489 8.375 5.81836V8.06836H5.375C4.97718 8.06836 4.59564 8.2264 4.31434 8.5077C4.03304 8.789 3.875 9.17053 3.875 9.56836V20.0684C3.875 20.4662 4.03304 20.8477 4.31434 21.129C4.59564 21.4103 4.97718 21.5684 5.375 21.5684H20.375C20.7728 21.5684 21.1544 21.4103 21.4357 21.129C21.717 20.8477 21.875 20.4662 21.875 20.0684V9.56836C21.875 9.17053 21.717 8.789 21.4357 8.5077C21.1544 8.2264 20.7728 8.06836 20.375 8.06836ZM9.875 5.81836C9.875 5.02271 10.1911 4.25965 10.7537 3.69704C11.3163 3.13443 12.0794 2.81836 12.875 2.81836C13.6706 2.81836 14.4337 3.13443 14.9963 3.69704C15.5589 4.25965 15.875 5.02271 15.875 5.81836V8.06836H9.875V5.81836ZM20.375 20.0684H5.375V9.56836H20.375V20.0684Z" fill="black"/>
</svg>
