<svg width="60" height="61" viewBox="0 0 60 61" fill="none" xmlns="http://www.w3.org/2000/svg">
<path d="M30 27.0767C28.4241 27.0772 26.9009 27.6448 25.709 28.6758C24.5171 29.7068 23.736 31.1323 23.5085 32.6917C23.2809 34.2511 23.6222 35.8403 24.4698 37.1689C25.3175 38.4975 26.6149 39.4766 28.125 39.9274V43.9517C28.125 44.4489 28.3225 44.9259 28.6742 45.2775C29.0258 45.6291 29.5027 45.8267 30 45.8267C30.4973 45.8267 30.9742 45.6291 31.3258 45.2775C31.6775 44.9259 31.875 44.4489 31.875 43.9517V39.9274C33.3851 39.4766 34.6825 38.4975 35.5302 37.1689C36.3778 35.8403 36.7191 34.2511 36.4915 32.6917C36.264 31.1323 35.4829 29.7068 34.291 28.6758C33.0991 27.6448 31.5759 27.0772 30 27.0767ZM30 36.4517C29.4437 36.4517 28.9 36.2867 28.4375 35.9777C27.9749 35.6686 27.6145 35.2294 27.4016 34.7155C27.1887 34.2015 27.133 33.636 27.2415 33.0905C27.3501 32.5449 27.6179 32.0438 28.0113 31.6504C28.4046 31.2571 28.9057 30.9892 29.4513 30.8807C29.9969 30.7722 30.5624 30.8279 31.0763 31.0408C31.5902 31.2536 32.0295 31.6141 32.3385 32.0766C32.6475 32.5391 32.8125 33.0829 32.8125 33.6392C32.8125 34.3851 32.5162 35.1004 31.9887 35.6279C31.4613 36.1553 30.7459 36.4517 30 36.4517ZM48.75 19.5767H41.25V13.9517C41.25 10.968 40.0647 8.10649 37.955 5.99671C35.8452 3.88692 32.9837 2.70166 30 2.70166C27.0163 2.70166 24.1548 3.88692 22.045 5.99671C19.9353 8.10649 18.75 10.968 18.75 13.9517V19.5767H11.25C10.2554 19.5767 9.30161 19.9717 8.59835 20.675C7.89509 21.3783 7.5 22.3321 7.5 23.3267V49.5767C7.5 50.5712 7.89509 51.525 8.59835 52.2283C9.30161 52.9316 10.2554 53.3267 11.25 53.3267H48.75C49.7446 53.3267 50.6984 52.9316 51.4016 52.2283C52.1049 51.525 52.5 50.5712 52.5 49.5767V23.3267C52.5 22.3321 52.1049 21.3783 51.4016 20.675C50.6984 19.9717 49.7446 19.5767 48.75 19.5767ZM22.5 13.9517C22.5 11.9625 23.2902 10.0549 24.6967 8.64836C26.1032 7.24184 28.0109 6.45166 30 6.45166C31.9891 6.45166 33.8968 7.24184 35.3033 8.64836C36.7098 10.0549 37.5 11.9625 37.5 13.9517V19.5767H22.5V13.9517ZM48.75 49.5767H11.25V23.3267H48.75V49.5767Z" fill="black"/>
</svg>
