<svg width="30" height="30" viewBox="0 0 30 30" fill="none" xmlns="http://www.w3.org/2000/svg">
<path class="eraser-color" d="M19.0148 19.9113L10.2539 11.2844L17.8018 3.0625H19.0148L25.6194 8.99328L26.9673 11.2844L19.0148 19.9113Z" fill="transparent"/>
<path d="M10.002 11L18.8687 19.8667" stroke="#333333" stroke-width="1.19042" stroke-linecap="round" stroke-linejoin="round"/>
<path d="M26.2566 26.19H7.45657L2.61212 21.3456C2.41805 21.1515 2.26411 20.9211 2.15908 20.6675C2.05406 20.414 2 20.1422 2 19.8678C2 19.5933 2.05406 19.3216 2.15908 19.068C2.26411 18.8144 2.41805 18.5841 2.61212 18.39L17.39 3.61212C17.7819 3.22019 18.3135 3 18.8678 3C19.422 3 19.9536 3.22019 20.3456 3.61212L26.2567 9.52327C26.4508 9.71733 26.6047 9.94772 26.7097 10.2013C26.8148 10.4548 26.8688 10.7266 26.8688 11.0011C26.8688 11.2755 26.8148 11.5473 26.7097 11.8008C26.6047 12.0544 26.4508 12.2848 26.2567 12.4788L12.5455 26.19" stroke="#333333" stroke-width="1.19042" stroke-linecap="round" stroke-linejoin="round"/>
</svg>
