<svg width="30" height="30" viewBox="0 0 30 30" fill="none" xmlns="http://www.w3.org/2000/svg">
<path class="pen-select-color" d="M7.83398 22.881V27.6702C9.03835 28.1466 11.279 29.4357 15.0605 29.4357C17.9636 29.4357 20.9147 28.3707 22.0351 27.6702C22.1471 27.3903 22.0351 25.9423 22.0351 23.8055C20.2935 20.4271 19.0099 21.1161 17.5814 21.1161C16.4386 21.1161 15.4246 22.9091 15.0605 23.8055C14.7523 23.1892 13.7328 21.7884 12.1193 21.1161C10.5059 20.4439 8.59018 22.0126 7.83398 22.881Z" fill="#F2441D"/>
<path class="pen-select-color" d="M15.0007 7.80469L19.1576 15.0047H10.8438L15.0007 7.80469Z" fill="#F2441D"/>
<path fill-rule="evenodd" clip-rule="evenodd" d="M15 1.2C7.37847 1.2 1.2 7.37847 1.2 15C1.2 22.6215 7.37847 28.8 15 28.8C22.6215 28.8 28.8 22.6215 28.8 15C28.8 7.37847 22.6215 1.2 15 1.2ZM0 15C0 6.71573 6.71573 0 15 0C23.2843 0 30 6.71573 30 15C30 23.2843 23.2843 30 15 30C6.71573 30 0 23.2843 0 15Z" fill="#333333"/>
<path fill-rule="evenodd" clip-rule="evenodd" d="M15.0012 6C15.2352 6 15.4479 6.13607 15.5459 6.34857L22.7459 21.9486C22.7823 22.0274 22.8012 22.1132 22.8012 22.2V27.4741C22.8012 27.8055 22.5325 28.0742 22.2012 28.0742C21.8698 28.0742 21.6012 27.8055 21.6012 27.4741V22.3318L15.0012 8.03178L8.40117 22.3318V27.4746C8.40117 27.806 8.13254 28.0746 7.80117 28.0746C7.4698 28.0746 7.20117 27.806 7.20117 27.4746V22.2C7.20117 22.1132 7.22001 22.0274 7.2564 21.9486L14.4564 6.34857C14.5545 6.13607 14.7671 6 15.0012 6Z" fill="#333333"/>
<path fill-rule="evenodd" clip-rule="evenodd" d="M18.6023 21.5984C17.8067 21.5984 17.0436 21.9145 16.481 22.4771C15.9184 23.0397 15.6023 23.8028 15.6023 24.5984C15.6023 24.9298 15.3337 25.1984 15.0023 25.1984C14.671 25.1984 14.4023 24.9298 14.4023 24.5984C14.4023 23.4845 14.8448 22.4162 15.6325 21.6286C16.4201 20.8409 17.4884 20.3984 18.6023 20.3984C19.7163 20.3984 20.7845 20.8409 21.5722 21.6286C22.3598 22.4162 22.8023 23.4845 22.8023 24.5984C22.8023 24.9298 22.5337 25.1984 22.2023 25.1984C21.871 25.1984 21.6023 24.9298 21.6023 24.5984C21.6023 23.8028 21.2863 23.0397 20.7237 22.4771C20.1611 21.9145 19.398 21.5984 18.6023 21.5984Z" fill="#333333"/>
<path fill-rule="evenodd" clip-rule="evenodd" d="M8.43132 21.6286C9.21898 20.8409 10.2873 20.3984 11.4012 20.3984C12.5151 20.3984 13.5834 20.8409 14.371 21.6286C15.1587 22.4162 15.6012 23.4845 15.6012 24.5984V29.3984C15.6012 29.7298 15.3325 29.9984 15.0012 29.9984C14.6698 29.9984 14.4012 29.7298 14.4012 29.3984V24.5984C14.4012 23.8028 14.0851 23.0397 13.5225 22.4771C12.9599 21.9145 12.1968 21.5984 11.4012 21.5984C10.6055 21.5984 9.84246 21.9145 9.27985 22.4771C8.71724 23.0397 8.40117 23.8028 8.40117 24.5984C8.40117 24.9298 8.13254 25.1984 7.80117 25.1984C7.4698 25.1984 7.20117 24.9298 7.20117 24.5984C7.20117 23.4845 7.64367 22.4162 8.43132 21.6286Z" fill="#333333"/>
<path fill-rule="evenodd" clip-rule="evenodd" d="M10.5234 14.9984C10.5234 14.6671 10.7921 14.3984 11.1234 14.3984H18.8773C19.2087 14.3984 19.4773 14.6671 19.4773 14.9984C19.4773 15.3298 19.2087 15.5984 18.8773 15.5984H11.1234C10.7921 15.5984 10.5234 15.3298 10.5234 14.9984Z" fill="#333333"/>
</svg>
