<svg width="32" height="33" viewBox="0 0 32 33" fill="none" xmlns="http://www.w3.org/2000/svg">
<rect x="6" y="6.96094" width="20" height="20" rx="10" fill="white"/>
<path d="M16 3.96094C13.4288 3.96094 10.9154 4.72337 8.77759 6.15183C6.63975 7.58029 4.97351 9.61061 3.98957 11.9861C3.00563 14.3615 2.74819 16.9754 3.2498 19.4971C3.75141 22.0189 4.98953 24.3352 6.80762 26.1533C8.6257 27.9714 10.9421 29.2095 13.4638 29.7111C15.9856 30.2128 18.5995 29.9553 20.9749 28.9714C23.3503 27.9874 25.3807 26.3212 26.8091 24.1833C28.2376 22.0455 29 19.5321 29 16.9609C28.9934 13.5152 27.6216 10.2124 25.1851 7.77585C22.7486 5.33931 19.4458 3.96754 16 3.96094ZM20.55 17.7984L14.55 21.7984C14.3845 21.9008 14.1946 21.957 14 21.9609C13.8351 21.9608 13.6725 21.9223 13.525 21.8484C13.3651 21.7621 13.2318 21.6339 13.1393 21.4776C13.0468 21.3212 12.9986 21.1426 13 20.9609V12.9609C12.9986 12.7793 13.0468 12.6007 13.1393 12.4443C13.2318 12.2879 13.3651 12.1597 13.525 12.0734C13.6855 11.9922 13.8644 11.9541 14.0441 11.9628C14.2238 11.9716 14.3982 12.0269 14.55 12.1234L20.55 16.1234C20.6893 16.2143 20.8037 16.3385 20.8829 16.4847C20.9621 16.631 21.0036 16.7946 21.0036 16.9609C21.0036 17.1272 20.9621 17.2909 20.8829 17.4372C20.8037 17.5834 20.6893 17.7076 20.55 17.7984Z" fill="black"/>
</svg>
