<svg width="24" height="24" viewBox="0 0 24 24" fill="none" xmlns="http://www.w3.org/2000/svg">
<rect width="24" height="24" rx="12" fill="#2F3640"/>
<path d="M18.094 8.0625H17.0625V5.8125C17.0625 5.66332 17.0032 5.52024 16.8977 5.41475C16.7923 5.30926 16.6492 5.25 16.5 5.25H7.5C7.35082 5.25 7.20774 5.30926 7.10225 5.41475C6.99676 5.52024 6.9375 5.66332 6.9375 5.8125V8.0625H5.90602C4.92375 8.0625 4.125 8.81977 4.125 9.75V15.375C4.125 15.5242 4.18426 15.6673 4.28975 15.7727C4.39524 15.8782 4.53832 15.9375 4.6875 15.9375H6.9375V18.1875C6.9375 18.3367 6.99676 18.4798 7.10225 18.5852C7.20774 18.6907 7.35082 18.75 7.5 18.75H16.5C16.6492 18.75 16.7923 18.6907 16.8977 18.5852C17.0032 18.4798 17.0625 18.3367 17.0625 18.1875V15.9375H19.3125C19.4617 15.9375 19.6048 15.8782 19.7102 15.7727C19.8157 15.6673 19.875 15.5242 19.875 15.375V9.75C19.875 8.81977 19.0762 8.0625 18.094 8.0625ZM8.0625 6.375H15.9375V8.0625H8.0625V6.375ZM15.9375 17.625H8.0625V14.25H15.9375V17.625ZM18.75 14.8125H17.0625V13.6875C17.0625 13.5383 17.0032 13.3952 16.8977 13.2898C16.7923 13.1843 16.6492 13.125 16.5 13.125H7.5C7.35082 13.125 7.20774 13.1843 7.10225 13.2898C6.99676 13.3952 6.9375 13.5383 6.9375 13.6875V14.8125H5.25V9.75C5.25 9.43992 5.54461 9.1875 5.90602 9.1875H18.094C18.4554 9.1875 18.75 9.43992 18.75 9.75V14.8125ZM17.0625 11.1562C17.0625 11.3231 17.013 11.4863 16.9203 11.625C16.8276 11.7638 16.6958 11.8719 16.5416 11.9358C16.3875 11.9996 16.2178 12.0163 16.0541 11.9838C15.8905 11.9512 15.7401 11.8709 15.6221 11.7529C15.5041 11.6349 15.4238 11.4845 15.3912 11.3209C15.3587 11.1572 15.3754 10.9875 15.4392 10.8334C15.5031 10.6792 15.6112 10.5474 15.75 10.4547C15.8887 10.362 16.0519 10.3125 16.2188 10.3125C16.4425 10.3125 16.6571 10.4014 16.8154 10.5596C16.9736 10.7179 17.0625 10.9325 17.0625 11.1562Z" fill="white"/>
</svg>
