<svg width="24" height="24" viewBox="0 0 24 24" fill="none" xmlns="http://www.w3.org/2000/svg">
<path d="M21.7084 9.39653L21.708 9.39685L16.6952 14.4265L16.4717 14.6508L16.5789 14.9488C16.9523 15.9863 17.148 17.7977 15.4132 20.1039L15.4125 20.105C15.3268 20.2195 15.2174 20.3141 15.0918 20.3825C14.9707 20.4484 14.8373 20.4883 14.7 20.4998H14.6998H14.6996H14.6994H14.6992H14.699H14.6988H14.6986H14.6984H14.6982H14.698H14.6978H14.6976H14.6974H14.6971H14.6969H14.6967H14.6965H14.6963H14.6961H14.6959H14.6957H14.6955H14.6953H14.6951H14.6949H14.6947H14.6945H14.6943H14.694H14.6938H14.6936H14.6934H14.6932H14.693H14.6928H14.6926H14.6924H14.6922H14.692H14.6918H14.6916H14.6914H14.6912H14.6909H14.6907H14.6905H14.6903H14.6901H14.6899H14.6897H14.6895H14.6893H14.6891H14.6889H14.6887H14.6885H14.6883H14.6881H14.6878H14.6876H14.6874H14.6872H14.687H14.6868H14.6866H14.6864H14.6862H14.686H14.6858H14.6856H14.6854H14.6852H14.685H14.6848H14.6845H14.6843H14.6841H14.6839H14.6837H14.6835H14.6833H14.6831H14.6829H14.6827H14.6825H14.6823H14.6821H14.6819H14.6817H14.6814H14.6812H14.681H14.6808H14.6806H14.6804H14.6802H14.68H14.6798H14.6796H14.6794H14.6792H14.679H14.6788H14.6786H14.6784H14.6782H14.6779H14.6777H14.6775H14.6773H14.6771H14.6769H14.6767H14.6765H14.6763H14.6761H14.6759H14.6757H14.6755H14.6753H14.6751H14.6749H14.6746H14.6744H14.6742H14.674H14.6738H14.6736H14.6734H14.6732H14.673H14.6728H14.6726H14.6724H14.6722H14.672H14.6718H14.6716H14.6714H14.6711H14.6709H14.6707H14.6705H14.6703H14.6701H14.6699H14.6697H14.6695H14.6693H14.6691H14.6689H14.6687H14.6685H14.6683H14.6681H14.6678H14.6676H14.6674H14.6672H14.667H14.6668H14.6666H14.6664H14.6662H14.666H14.6658H14.6656H14.6654H14.6652H14.665H14.6648H14.6646H14.6643H14.6641H14.6639H14.6637H14.6635H14.6633H14.6631H14.6629H14.6627H14.6625H14.6623H14.6621H14.6619H14.6617H14.6615H14.6613H14.661H14.6608H14.6606H14.6604H14.6602H14.66H14.6598H14.6596H14.6594H14.6592H14.659H14.6588H14.6586H14.6584H14.6582H14.658H14.6578H14.6575H14.6573H14.6571H14.6569H14.6567H14.6565H14.6563H14.6561H14.6559H14.6557H14.6555H14.6553H14.6551H14.6549H14.6547H14.6545H14.6543H14.654H14.6538H14.6536H14.6534H14.6532H14.653H14.6528H14.6526H14.6524H14.6522H14.652H14.6518H14.6516H14.6514H14.6512H14.651H14.6507H14.6505H14.6503H14.6501H14.6499H14.6497H14.6495H14.6493H14.6491H14.6489H14.6487H14.6485H14.6483H14.6481H14.6479H14.6477H14.6474H14.6472H14.647H14.6468H14.6466H14.6464H14.6462H14.646H14.6458H14.6456H14.6454H14.6452H14.645H14.6448H14.6446H14.6443H14.6441H14.6439H14.6437H14.6435H14.6433H14.6431H14.6429H14.6427H14.6425H14.6423H14.6421H14.6419H14.6417H14.6415H14.6413H14.641H14.6408H14.6406H14.6404H14.6402H14.64H14.6398H14.6396H14.6394H14.6392H14.639H14.6388H14.6386H14.6384H14.6382H14.6379H14.6377H14.6375H14.6373H14.6371H14.6369H14.6367H14.6365H14.6363H14.6361H14.6359H14.6357H14.6355H14.6353H14.635H14.6348H14.6346H14.6344H14.6342H14.634H14.6338H14.6336H14.6334H14.6332H14.633H14.6328H14.6326H14.6324H14.6322H14.6319H14.6317H14.6315H14.6313H14.6311H14.6309H14.6307H14.6305H14.6303H14.6301H14.6299H14.6297H14.6295H14.6292H14.629H14.6288H14.6286H14.6284H14.6282H14.628H14.6278H14.6276H14.6274H14.6272H14.627H14.6268H14.6266H14.6263H14.6261H14.6259H14.6257H14.6255H14.6253H14.6251H14.6249H14.6247H14.6245H14.6243H14.6241H14.6239H14.6236H14.6234H14.6232H14.623H14.6228H14.6226H14.6224H14.6222H14.622H14.6218H14.6216H14.6214H14.6212H14.6209H14.6207H14.6205H14.6203H14.6201H14.6199H14.6197H14.6195H14.6193H14.6191H14.6189H14.6187H14.6184H14.6182H14.618H14.6178H14.6176H14.6174H14.6172H14.617H14.6168H14.6166H14.6164H14.6162H14.6159H14.6157H14.6155H14.6153H14.6151H14.6149H14.6147H14.6145H14.6143H14.6141H14.6139H14.6137H14.6134H14.6132H14.613H14.6128H14.6127C14.4813 20.4998 14.3512 20.474 14.2298 20.4237C14.1084 20.3734 13.9982 20.2997 13.9053 20.2068C13.9053 20.2067 13.9053 20.2067 13.9052 20.2067L9.38093 15.6777L9.02725 15.3236L8.67352 15.6776L4.67708 19.6769L4.67695 19.677C4.63 19.7239 4.56636 19.7502 4.50001 19.7502C4.43359 19.7502 4.3699 19.7238 4.32294 19.6769C4.27597 19.6299 4.24959 19.5662 4.24959 19.4998C4.24959 19.4334 4.27597 19.3697 4.32294 19.3227L8.32219 15.3263L8.67599 14.9728L8.32231 14.6191L3.79441 10.0912C3.69518 9.99182 3.61799 9.87269 3.56786 9.74153C3.51773 9.61037 3.49578 9.47012 3.50344 9.32992C3.51111 9.18971 3.54821 9.05269 3.61234 8.92778C3.67647 8.80287 3.76619 8.69286 3.87566 8.60492L3.87648 8.60426C6.08579 6.82169 8.17417 7.1777 9.07539 7.46034L9.36497 7.55116L9.57919 7.33618L14.6036 2.29395C14.6037 2.29387 14.6038 2.29378 14.6039 2.2937C14.6967 2.20093 14.8068 2.12734 14.9281 2.07712C15.0494 2.02685 15.1794 2.00098 15.3108 2.00098C15.4421 2.00098 15.5722 2.02685 15.6935 2.07712C15.8149 2.12739 15.9251 2.20107 16.018 2.29395L16.018 2.29402L21.7077 7.98277L21.7077 7.98278C21.8952 8.17022 22.0006 8.42442 22.0007 8.68953C22.0008 8.95463 21.8957 9.20893 21.7084 9.39653Z" fill="#FF5E57" stroke="#2F3640"/>
</svg>
