<svg width="24" height="24" viewBox="0 0 25 25" fill="none" xmlns="http://www.w3.org/2000/svg">
    <style>
        .checked:{#3190FF;}
    </style>
<path class="checked" d="M12.2031 2.41254C10.2748 2.41254 8.3897 2.98436 6.78632 4.05571C5.18294 5.12705 3.93326 6.64979 3.1953 8.43137C2.45735 10.213 2.26427 12.1734 2.64047 14.0647C3.01668 15.956 3.94528 17.6933 5.30884 19.0568C6.6724 20.4204 8.40968 21.349 10.301 21.7252C12.1923 22.1014 14.1527 21.9083 15.9343 21.1704C17.7159 20.4324 19.2386 19.1827 20.31 17.5793C21.3813 15.976 21.9531 14.0909 21.9531 12.1625C21.9504 9.57751 20.9223 7.09915 19.0944 5.27126C17.2665 3.44337 14.7882 2.41527 12.2031 2.41254ZM16.4838 10.4432L11.2338 15.6932C11.1641 15.7629 11.0814 15.8182 10.9903 15.856C10.8993 15.8937 10.8017 15.9131 10.7031 15.9131C10.6046 15.9131 10.507 15.8937 10.4159 15.856C10.3249 15.8182 10.2422 15.7629 10.1725 15.6932L7.9225 13.4432C7.78177 13.3024 7.70271 13.1116 7.70271 12.9125C7.70271 12.7135 7.78177 12.5226 7.9225 12.3819C8.06323 12.2412 8.25411 12.1621 8.45313 12.1621C8.65215 12.1621 8.84302 12.2412 8.98376 12.3819L10.7031 14.1022L15.4225 9.38191C15.4922 9.31223 15.5749 9.25695 15.666 9.21924C15.757 9.18153 15.8546 9.16212 15.9531 9.16212C16.0517 9.16212 16.1493 9.18153 16.2403 9.21924C16.3313 9.25695 16.4141 9.31223 16.4838 9.38191C16.5534 9.45159 16.6087 9.53432 16.6464 9.62536C16.6841 9.71641 16.7035 9.81399 16.7035 9.91254C16.7035 10.0111 16.6841 10.1087 16.6464 10.1997C16.6087 10.2908 16.5534 10.3735 16.4838 10.4432Z" fill="#3190FF"/>
</svg>
