<svg width="24" height="25" viewBox="0 0 24 25" fill="none" xmlns="http://www.w3.org/2000/svg">
<path fill-rule="evenodd" clip-rule="evenodd" d="M15.6941 17.3255C14.4624 18.3108 12.9 18.9 11.2 18.9C7.22355 18.9 4 15.6764 4 11.7C4 7.72355 7.22355 4.5 11.2 4.5C15.1764 4.5 18.4 7.72355 18.4 11.7C18.4 13.4 17.8108 14.9624 16.8255 16.1941L19.7657 19.1343C20.0781 19.4467 20.0781 19.9533 19.7657 20.2657C19.4533 20.5781 18.9467 20.5781 18.6343 20.2657L15.6941 17.3255ZM5.6 11.7C5.6 8.6072 8.1072 6.1 11.2 6.1C14.2928 6.1 16.8 8.6072 16.8 11.7C16.8 13.2088 16.2033 14.5783 15.233 15.5852C15.2056 15.6063 15.1794 15.6293 15.1543 15.6543C15.1293 15.6794 15.1063 15.7056 15.0852 15.733C14.0783 16.7033 12.7088 17.3 11.2 17.3C8.1072 17.3 5.6 14.7928 5.6 11.7Z" fill="white"/>
</svg>
