<svg width="21" height="20" viewBox="0 0 21 20" fill="none" xmlns="http://www.w3.org/2000/svg">
    <style>
        .student-active{fill:#3190FF;}
    </style>
<path class='student-active' d="M18.1449 4.40703L10.6449 1.90703C10.5166 1.86426 10.3779 1.86426 10.2496 1.90703L2.74961 4.40703C2.62516 4.44852 2.51692 4.52811 2.44022 4.63453C2.36352 4.74096 2.32226 4.86882 2.32227 5V11.25C2.32227 11.4158 2.38811 11.5747 2.50532 11.6919C2.62253 11.8092 2.78151 11.875 2.94727 11.875C3.11303 11.875 3.272 11.8092 3.38921 11.6919C3.50642 11.5747 3.57227 11.4158 3.57227 11.25V5.86719L6.19648 6.74141C5.49926 7.86782 5.27755 9.22488 5.58003 10.5146C5.8825 11.8043 6.68445 12.9213 7.80977 13.6203C6.40352 14.1719 5.18789 15.1695 4.29883 16.5336C4.25259 16.6023 4.22047 16.6795 4.20434 16.7608C4.18822 16.842 4.1884 16.9257 4.20488 17.0068C4.22136 17.088 4.25381 17.1651 4.30034 17.2336C4.34687 17.3021 4.40656 17.3607 4.47594 17.406C4.54532 17.4512 4.62299 17.4822 4.70446 17.4972C4.78592 17.5122 4.86955 17.5108 4.95048 17.4932C5.03141 17.4755 5.10803 17.442 5.17587 17.3945C5.24372 17.3469 5.30145 17.2864 5.3457 17.2164C6.52305 15.4102 8.38242 14.375 10.4473 14.375C12.5121 14.375 14.3715 15.4102 15.5488 17.2164C15.6405 17.3526 15.7821 17.4473 15.943 17.48C16.104 17.5127 16.2713 17.4807 16.4088 17.391C16.5464 17.3013 16.6431 17.1611 16.678 17.0006C16.713 16.8402 16.6834 16.6724 16.5957 16.5336C15.7066 15.1695 14.4863 14.1719 13.0848 13.6203C14.209 12.9214 15.0102 11.8051 15.3126 10.5163C15.615 9.22752 15.394 7.87139 14.698 6.74531L18.1449 5.59687C18.2694 5.55541 18.3777 5.47583 18.4544 5.3694C18.5311 5.26298 18.5724 5.13511 18.5724 5.00391C18.5724 4.87271 18.5311 4.74483 18.4544 4.63841C18.3777 4.53198 18.2694 4.4524 18.1449 4.41094V4.40703ZM14.1973 9.375C14.1974 9.96786 14.057 10.5523 13.7876 11.0804C13.5181 11.6085 13.1273 12.0652 12.6472 12.413C12.1671 12.7608 11.6114 12.9898 11.0256 13.0812C10.4398 13.1726 9.84073 13.1239 9.27746 12.9389C8.71419 12.754 8.20279 12.4381 7.78523 12.0173C7.36766 11.5964 7.05583 11.0826 6.87532 10.5179C6.69481 9.95316 6.65076 9.3537 6.74678 8.76867C6.84281 8.18364 7.07618 7.62972 7.42773 7.15234L10.2496 8.08984C10.3779 8.13261 10.5166 8.13261 10.6449 8.08984L13.4668 7.15234C13.9416 7.79609 14.1976 8.57508 14.1973 9.375Z" fill="#3190FF"/>
</svg>
