<svg width="24" height="24" viewBox="0 0 24 24" fill="none" xmlns="http://www.w3.org/2000/svg">
<path d="M20.25 3.75H3.75C3.35218 3.75 2.97064 3.90804 2.68934 4.18934C2.40804 4.47064 2.25 4.85218 2.25 5.25V18.75C2.25 19.1478 2.40804 19.5294 2.68934 19.8107C2.97064 20.092 3.35218 20.25 3.75 20.25H20.25C20.6478 20.25 21.0294 20.092 21.3107 19.8107C21.592 19.5294 21.75 19.1478 21.75 18.75V5.25C21.75 4.85218 21.592 4.47064 21.3107 4.18934C21.0294 3.90804 20.6478 3.75 20.25 3.75ZM14.625 8.25C14.8475 8.25 15.065 8.31598 15.25 8.4396C15.435 8.56321 15.5792 8.73891 15.6644 8.94448C15.7495 9.15005 15.7718 9.37625 15.7284 9.59448C15.685 9.81271 15.5778 10.0132 15.4205 10.1705C15.2632 10.3278 15.0627 10.435 14.8445 10.4784C14.6262 10.5218 14.4 10.4995 14.1945 10.4144C13.9889 10.3292 13.8132 10.185 13.6896 10C13.566 9.81501 13.5 9.5975 13.5 9.375C13.5 9.07663 13.6185 8.79048 13.8295 8.5795C14.0405 8.36853 14.3266 8.25 14.625 8.25ZM3.75 18.75V16.125L8.625 11.25L16.125 18.75H3.75ZM20.25 18.75H18.2466L14.8716 15.375L16.7466 13.5L20.25 17.0044V18.75Z" fill="#DDDDDD"/>
</svg>
