<svg width="20" height="20" viewBox="0 0 20 20" fill="none" xmlns="http://www.w3.org/2000/svg">
<path fill-rule="evenodd" clip-rule="evenodd" d="M4.41079 15.5889C4.08535 15.2635 4.08535 14.7359 4.41079 14.4104L14.4108 4.41042C14.7362 4.08498 15.2639 4.08498 15.5893 4.41042C15.9147 4.73586 15.9147 5.26349 15.5893 5.58893L5.5893 15.5889C5.26386 15.9144 4.73622 15.9144 4.41079 15.5889Z" fill="white"/>
<path fill-rule="evenodd" clip-rule="evenodd" d="M15.5893 15.5889C15.2639 15.9144 14.7362 15.9144 14.4108 15.5889L4.41079 5.58893C4.08535 5.26349 4.08535 4.73586 4.41079 4.41042C4.73622 4.08498 5.26386 4.08498 5.5893 4.41042L15.5893 14.4104C15.9147 14.7359 15.9147 15.2635 15.5893 15.5889Z" fill="white"/>
</svg>
