<svg width="48" height="49" viewBox="0 0 48 49" fill="none" xmlns="http://www.w3.org/2000/svg">
<path d="M32 32.5L24 24.5L16 32.5" stroke="black" stroke-opacity="0.4" stroke-width="2" stroke-linecap="round" stroke-linejoin="round"/>
<path d="M24 24.5V42.5" stroke="black" stroke-opacity="0.4" stroke-width="2" stroke-linecap="round" stroke-linejoin="round"/>
<path d="M40.7789 37.2809C42.7296 36.2175 44.2706 34.5347 45.1587 32.4982C46.0468 30.4617 46.2314 28.1874 45.6834 26.0343C45.1353 23.8812 43.8859 21.972 42.1323 20.6078C40.3786 19.2437 38.2207 18.5024 35.9989 18.5009H33.4789C32.8736 16.1594 31.7453 13.9856 30.1788 12.1429C28.6124 10.3002 26.6486 8.83665 24.4351 7.86216C22.2216 6.88767 19.816 6.42766 17.3992 6.51671C14.9823 6.60576 12.6171 7.24154 10.4813 8.37628C8.34552 9.51101 6.49477 11.1152 5.06819 13.0681C3.64161 15.0211 2.67632 17.272 2.2449 19.6517C1.81348 22.0315 1.92715 24.478 2.57737 26.8075C3.22759 29.1369 4.39743 31.2887 5.99894 33.1009" stroke="black" stroke-opacity="0.4" stroke-width="2" stroke-linecap="round" stroke-linejoin="round"/>
<path d="M32 32.5L24 24.5L16 32.5" stroke="black" stroke-opacity="0.4" stroke-width="2" stroke-linecap="round" stroke-linejoin="round"/>
</svg>
