<svg width="19" height="19" viewBox="0 0 19 19" fill="none" xmlns="http://www.w3.org/2000/svg">
<path d="M15.212 2.55957H3.96198C3.66361 2.55957 3.37746 2.6781 3.16648 2.88908C2.9555 3.10005 2.83698 3.3862 2.83698 3.68457V14.9346C2.83698 15.2329 2.9555 15.5191 3.16648 15.7301C3.37746 15.941 3.66361 16.0596 3.96198 16.0596H15.212C15.5103 16.0596 15.7965 15.941 16.0075 15.7301C16.2184 15.5191 16.337 15.2329 16.337 14.9346V3.68457C16.337 3.3862 16.2184 3.10005 16.0075 2.88908C15.7965 2.6781 15.5103 2.55957 15.212 2.55957ZM7.33698 8.74707C7.33698 8.30206 7.46894 7.86705 7.71617 7.49704C7.9634 7.12703 8.3148 6.83864 8.72594 6.66834C9.13707 6.49804 9.58947 6.45349 10.0259 6.5403C10.4624 6.62712 10.8633 6.84141 11.178 7.15608C11.4926 7.47075 11.7069 7.87166 11.7937 8.30812C11.8806 8.74457 11.836 9.19697 11.6657 9.60811C11.4954 10.0192 11.207 10.3706 10.837 10.6179C10.467 10.8651 10.032 10.9971 9.58698 10.9971C8.99024 10.9971 8.41794 10.76 7.99598 10.3381C7.57403 9.9161 7.33698 9.34381 7.33698 8.74707ZM5.41533 14.9346C5.70318 14.2259 6.16595 13.6018 6.76041 13.1205C7.56079 12.4744 8.55836 12.122 9.58698 12.122C10.6156 12.122 11.6132 12.4744 12.4135 13.1205C13.008 13.6018 13.4708 14.2259 13.7586 14.9346H5.41533ZM15.212 14.9346H14.9539C14.7038 14.1384 14.2795 13.4079 13.7117 12.7963C13.144 12.1846 12.4471 11.7072 11.6717 11.3986C12.2237 10.965 12.6268 10.3701 12.8249 9.69667C13.0229 9.02327 13.0061 8.30487 12.7767 7.64149C12.5473 6.97811 12.1168 6.40275 11.5451 5.99552C10.9734 5.58828 10.2889 5.36943 9.58698 5.36943C8.88505 5.36943 8.2006 5.58828 7.62889 5.99552C7.05718 6.40275 6.62667 6.97811 6.39728 7.64149C6.1679 8.30487 6.15105 9.02327 6.3491 9.69667C6.54714 10.3701 6.95021 10.965 7.50221 11.3986C6.72684 11.7072 6.02996 12.1846 5.46222 12.7963C4.89447 13.4079 4.47013 14.1384 4.22002 14.9346H3.96198V3.68457H15.212V14.9346Z" fill="#333333"/>
</svg>
