<svg width="19" height="19" viewBox="0 0 19 19" fill="none" xmlns="http://www.w3.org/2000/svg">
<path d="M9.24219 2.00781C7.79591 2.00781 6.38212 2.43668 5.17958 3.24019C3.97705 4.0437 3.03979 5.18576 2.48632 6.52194C1.93286 7.85812 1.78804 9.32842 2.0702 10.7469C2.35235 12.1654 3.0488 13.4684 4.07147 14.491C5.09414 15.5137 6.39711 16.2102 7.81559 16.4923C9.23408 16.7745 10.7044 16.6296 12.0406 16.0762C13.3767 15.5227 14.5188 14.5855 15.3223 13.3829C16.1258 12.1804 16.5547 10.7666 16.5547 9.32031C16.5526 7.38155 15.7816 5.52277 14.4106 4.15186C13.0397 2.78094 11.181 2.00986 9.24219 2.00781ZM5.45094 14.207C5.85786 13.5706 6.41844 13.0469 7.08101 12.6841C7.74358 12.3213 8.48681 12.1312 9.24219 12.1312C9.99757 12.1312 10.7408 12.3213 11.4034 12.6841C12.0659 13.0469 12.6265 13.5706 13.0334 14.207C11.9495 15.0501 10.6154 15.5078 9.24219 15.5078C7.86897 15.5078 6.53492 15.0501 5.45094 14.207ZM6.99219 8.75781C6.99219 8.3128 7.12415 7.87779 7.37138 7.50778C7.61862 7.13777 7.97002 6.84938 8.38115 6.67908C8.79229 6.50879 9.24469 6.46423 9.68114 6.55105C10.1176 6.63786 10.5185 6.85215 10.8332 7.16682C11.1478 7.48149 11.3621 7.8824 11.449 8.31886C11.5358 8.75532 11.4912 9.20772 11.3209 9.61885C11.1506 10.03 10.8622 10.3814 10.4922 10.6286C10.1222 10.8759 9.6872 11.0078 9.24219 11.0078C8.64545 11.0078 8.07316 10.7708 7.6512 10.3488C7.22924 9.92685 6.99219 9.35455 6.99219 8.75781ZM13.8659 13.4273C13.2386 12.5182 12.3565 11.8149 11.3305 11.4058C11.8816 10.9717 12.2837 10.3767 12.481 9.70344C12.6783 9.03021 12.6609 8.31224 12.4312 7.64937C12.2015 6.9865 11.7709 6.41169 11.1994 6.00486C10.6278 5.59804 9.94373 5.37942 9.24219 5.37942C8.54065 5.37942 7.85655 5.59804 7.28502 6.00486C6.71348 6.41169 6.28293 6.9865 6.05323 7.64937C5.82353 8.31224 5.8061 9.03021 6.00337 9.70344C6.20063 10.3767 6.60279 10.9717 7.15391 11.4058C6.12792 11.8149 5.24579 12.5182 4.61844 13.4273C3.82572 12.5358 3.30758 11.4342 3.12644 10.2551C2.9453 9.07602 3.10886 7.86969 3.59744 6.7814C4.08603 5.6931 4.87879 4.76925 5.88027 4.12108C6.88175 3.47291 8.04926 3.12806 9.24219 3.12806C10.4351 3.12806 11.6026 3.47291 12.6041 4.12108C13.6056 4.76925 14.3984 5.6931 14.8869 6.7814C15.3755 7.86969 15.5391 9.07602 15.3579 10.2551C15.1768 11.4342 14.6587 12.5358 13.8659 13.4273Z" fill="#333333"/>
</svg>
