<svg width="33" height="32" viewBox="0 0 33 32" fill="none" xmlns="http://www.w3.org/2000/svg">
<path d="M29.5963 26.4995C27.6925 23.2082 24.7588 20.8482 21.335 19.7295C23.0286 18.7213 24.3444 17.1851 25.0803 15.3567C25.8163 13.5284 25.9317 11.509 25.4089 9.60869C24.886 7.70838 23.7539 6.03224 22.1863 4.83765C20.6186 3.64306 18.7022 2.99609 16.7313 2.99609C14.7604 2.99609 12.844 3.64306 11.2763 4.83765C9.7087 6.03224 8.57654 7.70838 8.05372 9.60869C7.5309 11.509 7.64633 13.5284 8.38228 15.3567C9.11823 17.1851 10.434 18.7213 12.1275 19.7295C8.7038 20.847 5.77005 23.207 3.8663 26.4995C3.79648 26.6133 3.75017 26.74 3.73011 26.872C3.71004 27.004 3.71662 27.1387 3.74945 27.2682C3.78229 27.3976 3.84071 27.5192 3.92129 27.6257C4.00186 27.7322 4.10294 27.8214 4.21858 27.8882C4.33421 27.955 4.46205 27.998 4.59456 28.0146C4.72706 28.0311 4.86154 28.021 4.99007 27.9848C5.1186 27.9486 5.23857 27.8869 5.3429 27.8036C5.44724 27.7202 5.53382 27.6168 5.59755 27.4995C7.95255 23.4295 12.115 20.9995 16.7313 20.9995C21.3475 20.9995 25.51 23.4295 27.865 27.4995C27.9288 27.6168 28.0154 27.7202 28.1197 27.8036C28.224 27.8869 28.344 27.9486 28.4725 27.9848C28.601 28.021 28.7355 28.0311 28.868 28.0146C29.0005 27.998 29.1284 27.955 29.244 27.8882C29.3596 27.8214 29.4607 27.7322 29.5413 27.6257C29.6219 27.5192 29.6803 27.3976 29.7131 27.2682C29.746 27.1387 29.7526 27.004 29.7325 26.872C29.7124 26.74 29.6661 26.6133 29.5963 26.4995ZM9.7313 11.9995C9.7313 10.615 10.1418 9.26165 10.911 8.1105C11.6802 6.95936 12.7734 6.06215 14.0525 5.53234C15.3316 5.00252 16.7391 4.8639 18.0969 5.134C19.4548 5.40409 20.7021 6.07078 21.681 7.04975C22.66 8.02871 23.3267 9.276 23.5968 10.6339C23.8669 11.9917 23.7283 13.3992 23.1985 14.6783C22.6686 15.9574 21.7714 17.0506 20.6203 17.8198C19.4691 18.589 18.1158 18.9995 16.7313 18.9995C14.8754 18.9975 13.0961 18.2594 11.7837 16.9471C10.4714 15.6347 9.73328 13.8554 9.7313 11.9995Z" fill="#111111"/>
</svg>
