<svg width="29" height="29" viewBox="0 0 29 29" fill="none" xmlns="http://www.w3.org/2000/svg">
<g clip-path="url(#clip0_1431_61566)">
<path d="M28.0256 8.64282C27.8861 8.56803 27.7289 8.5325 27.5707 8.54001C27.4126 8.54752 27.2595 8.5978 27.1277 8.68548L23.2383 11.2733V8.53345C23.2383 8.06932 23.0539 7.6242 22.7257 7.29601C22.3975 6.96782 21.9524 6.78345 21.4883 6.78345H3.98828C3.52415 6.78345 3.07903 6.96782 2.75084 7.29601C2.42266 7.6242 2.23828 8.06932 2.23828 8.53345V20.7834C2.23828 21.2476 2.42266 21.6927 2.75084 22.0209C3.07903 22.3491 3.52415 22.5334 3.98828 22.5334H21.4883C21.9524 22.5334 22.3975 22.3491 22.7257 22.0209C23.0539 21.6927 23.2383 21.2476 23.2383 20.7834V18.0491L27.1277 20.6424C27.2721 20.7362 27.441 20.7852 27.6133 20.7834C27.8453 20.7834 28.0679 20.6913 28.232 20.5272C28.3961 20.3631 28.4883 20.1405 28.4883 19.9084V9.40845C28.4872 9.25101 28.4436 9.09679 28.3622 8.96204C28.2808 8.82729 28.1645 8.71701 28.0256 8.64282ZM21.4883 20.7834H3.98828V8.53345H21.4883V20.7834ZM26.7383 18.2733L23.2383 15.9403V13.3766L26.7383 11.0491V18.2733Z" fill="#333333"/>
</g>
<defs>
<clipPath id="clip0_1431_61566">
<rect width="28" height="28" fill="white" transform="translate(0.488281 0.658203)"/>
</clipPath>
</defs>
</svg>
